<svg width="142" height="161" viewBox="0 0 142 161" fill="none" xmlns="http://www.w3.org/2000/svg">
<path fill-rule="evenodd" clip-rule="evenodd" d="M73.4824 158.997C73.447 158.994 73.4118 158.987 73.3765 158.976C73.0944 158.888 72.9365 158.589 73.0242 158.308C95.9381 84.7727 116.648 32.8981 131.341 12.2395C131.667 11.7806 131.902 11.4497 131.993 11.2816C132.132 11.0215 132.458 10.9246 132.717 11.0631C132.978 11.2024 133.076 11.5258 132.936 11.7857C132.815 12.0123 132.588 12.3304 132.214 12.8566C117.586 33.4259 96.9279 85.1939 74.0467 158.624C73.97 158.871 73.7304 159.022 73.4824 158.997Z" fill="#BDD1F9"/>
<mask id="mask0" mask-type="alpha" maskUnits="userSpaceOnUse" x="129" y="0" width="13" height="15">
<path fill-rule="evenodd" clip-rule="evenodd" d="M129.051 0.185547H141.784V14.9593H129.051V0.185547Z" fill="white"/>
</mask>
<g mask="url(#mask0)">
<path fill-rule="evenodd" clip-rule="evenodd" d="M140.698 8.75486C138.896 11.1249 129.898 15.4243 129.21 14.9184C128.523 14.4123 130.173 4.70502 131.975 2.33502C133.777 -0.0349872 137.19 -0.519318 139.599 1.25361C142.008 3.02634 142.5 6.38466 140.698 8.75486Z" fill="#BDD1F9"/>
</g>
<path fill-rule="evenodd" clip-rule="evenodd" d="M123.791 15.9572C124.638 18.8666 122.691 28.7529 121.859 28.9942C121.025 29.2352 114.068 21.9269 113.22 19.0174C112.372 16.108 114.051 13.0644 116.97 12.2191C119.889 11.3741 122.943 13.0476 123.791 15.9572Z" fill="#BDD1F9"/>
<path fill-rule="evenodd" clip-rule="evenodd" d="M133.952 32.995C131.005 33.1638 122.047 29.0348 122 28.1691C121.954 27.3031 130.412 22.1773 133.359 22.0086C136.306 21.84 138.828 24.1627 138.992 27.1965C139.156 30.2302 136.899 32.8263 133.952 32.995Z" fill="#BDD1F9"/>
<path fill-rule="evenodd" clip-rule="evenodd" d="M98.0945 63.7394C99.9624 68.4709 98.5642 85.4236 97.2697 85.9797C95.9752 86.5358 83.5391 75.5272 81.6714 70.7957C79.8038 66.0641 81.966 60.649 86.5013 58.7005C91.0364 56.752 96.2269 59.0078 98.0945 63.7394Z" fill="#BDD1F9"/>
<path fill-rule="evenodd" clip-rule="evenodd" d="M117.57 90.9132C112.735 91.7236 97.2304 86.6259 97.0029 85.2235C96.7751 83.8212 109.846 73.9323 114.681 73.1217C119.516 72.3109 124.082 75.6366 124.88 80.5495C125.678 85.4624 122.405 90.1023 117.57 90.9132Z" fill="#BDD1F9"/>
<path fill-rule="evenodd" clip-rule="evenodd" d="M84.8437 81.7167C88.3094 86.7304 91.0287 106.92 89.6211 107.926C88.2136 108.931 70.4511 99.4906 66.9855 94.4767C63.5198 89.463 64.7078 82.5421 69.6394 79.0185C74.5708 75.495 81.3779 76.7031 84.8437 81.7167Z" fill="#BDD1F9"/>
<path fill-rule="evenodd" clip-rule="evenodd" d="M113.659 116.988C107.592 117.355 89.1052 109.188 89.0005 107.457C88.8956 105.725 106.262 95.3877 112.329 95.0205C118.396 94.6531 123.612 99.2733 123.98 105.339C124.347 111.405 119.726 116.621 113.659 116.988Z" fill="#BDD1F9"/>
<path fill-rule="evenodd" clip-rule="evenodd" d="M76.8437 105.717C80.3095 110.731 83.0288 130.92 81.621 131.926C80.2137 132.931 62.451 123.49 58.9856 118.477C55.5196 113.463 56.7079 106.542 61.6393 103.019C66.5707 99.4949 73.3779 100.703 76.8437 105.717Z" fill="#BDD1F9"/>
<path fill-rule="evenodd" clip-rule="evenodd" d="M105.659 140.988C99.5925 141.355 81.1056 133.188 81.0005 131.457C80.8958 129.725 98.2626 119.388 104.329 119.02C110.396 118.653 115.612 123.273 115.98 129.339C116.347 135.405 111.726 140.621 105.659 140.988Z" fill="#BDD1F9"/>
<path fill-rule="evenodd" clip-rule="evenodd" d="M59.2793 135.695C64.5132 138.904 74.8907 156.063 73.9387 157.5C72.9863 158.937 52.433 157.134 47.1993 153.926C41.9654 150.717 40.4268 144.035 43.7625 139.001C47.0983 133.967 54.0456 132.487 59.2793 135.695Z" fill="#BDD1F9"/>
<path fill-rule="evenodd" clip-rule="evenodd" d="M97.9317 164.856C91.8956 165.981 72.3287 160.179 72.0048 158.472C71.6809 156.764 87.7865 144.316 93.8227 143.192C99.8587 142.067 105.672 146.005 106.807 151.988C107.941 157.971 103.968 163.732 97.9317 164.856Z" fill="#BDD1F9"/>
<path fill-rule="evenodd" clip-rule="evenodd" d="M115.791 29.957C116.639 32.8666 114.692 42.7529 113.859 42.9942C113.025 43.2354 106.068 35.927 105.22 33.0174C104.372 30.1079 106.051 27.0642 108.97 26.2192C111.889 25.374 114.943 27.0475 115.791 29.957Z" fill="#BDD1F9"/>
<path fill-rule="evenodd" clip-rule="evenodd" d="M125.952 47.995C123.005 48.1638 114.047 44.0349 114 43.169C113.953 42.3031 122.412 37.1775 125.359 37.0087C128.306 36.8398 130.828 39.1627 130.992 42.1963C131.155 45.2303 128.899 47.8263 125.952 47.995Z" fill="#BDD1F9"/>
<path fill-rule="evenodd" clip-rule="evenodd" d="M106.355 44.8644C107.919 48.7647 106.294 62.5608 105.125 62.9858C103.956 63.4109 93.0885 54.1581 91.5245 50.2581C89.9605 46.3579 92.0126 41.9889 96.1078 40.4994C100.203 39.0101 104.791 40.9644 106.355 44.8644Z" fill="#BDD1F9"/>
<path fill-rule="evenodd" clip-rule="evenodd" d="M121.874 69.9927C117.713 70.2381 105.066 64.2324 105 62.9729C104.934 61.7135 116.875 54.2579 121.036 54.0126C125.196 53.767 128.757 57.1454 128.988 61.5582C129.219 65.971 126.034 69.7471 121.874 69.9927Z" fill="#BDD1F9"/>
<mask id="mask1" mask-type="alpha" maskUnits="userSpaceOnUse" x="1" y="97" width="84" height="106">
<path fill-rule="evenodd" clip-rule="evenodd" d="M84 97.1406H1.14315V202.799H84V97.1406Z" fill="white"/>
</mask>
<g mask="url(#mask1)">
<path fill-rule="evenodd" clip-rule="evenodd" d="M78.731 200.414C78.731 200.414 114.188 140.039 1.14314 97.1406C1.14314 97.1406 3.33784 221.385 78.731 200.414Z" fill="#BDD1F9"/>
</g>
<path fill-rule="evenodd" clip-rule="evenodd" d="M1 97L81.9561 192C87.1602 174.17 89.1079 130.307 1 97Z" fill="#91B5F8"/>
<mask id="mask2" mask-type="alpha" maskUnits="userSpaceOnUse" x="0" y="96" width="78" height="92">
<path fill-rule="evenodd" clip-rule="evenodd" d="M77.918 96.1074H0.244423V187.897H77.918V96.1074Z" fill="white"/>
</mask>
<g mask="url(#mask2)">
<path fill-rule="evenodd" clip-rule="evenodd" d="M77.8461 187.849C77.9317 187.776 77.9423 187.647 77.8701 187.561L0.603226 96.1793C0.529716 96.0935 0.401352 96.0831 0.316505 96.1556C0.230377 96.2281 0.220139 96.3565 0.292549 96.4426L77.5592 187.825C77.5996 187.872 77.657 187.897 77.7146 187.897C77.7611 187.897 77.8081 187.881 77.8461 187.849Z" fill="#060633"/>
</g>
<path fill-rule="evenodd" clip-rule="evenodd" d="M39.8052 144C39.9013 144 39.9852 143.923 39.9982 143.817C40.0128 143.702 39.9376 143.595 39.8309 143.58L8.22111 139.002C8.11541 138.987 8.01585 139.067 8.0018 139.183C7.98723 139.299 8.06256 139.405 8.16913 139.42L39.7789 143.998C39.7875 143.999 39.7964 144 39.8052 144Z" fill="#060633"/>
<path fill-rule="evenodd" clip-rule="evenodd" d="M57.7936 164C57.8071 164 57.8211 163.999 57.835 163.996C57.9464 163.974 58.0186 163.868 57.9958 163.759L51.408 132.161C51.3851 132.052 51.2734 131.982 51.165 132.004C51.0535 132.026 50.9817 132.132 51.0041 132.241L57.5919 163.839C57.612 163.935 57.6976 164 57.7936 164Z" fill="#060633"/>
</svg>
