<svg width="399" height="387" viewBox="0 0 399 387" fill="none" xmlns="http://www.w3.org/2000/svg">
<path fill-rule="evenodd" clip-rule="evenodd" d="M320.812 110.554C320.787 110.549 320.762 110.541 320.738 110.531C320.54 110.451 320.445 110.226 320.526 110.029C341.641 58.5643 359.807 22.5456 371.678 8.60708C371.941 8.29743 372.132 8.07414 372.207 7.95888C372.324 7.78055 372.564 7.73132 372.742 7.84732C372.921 7.96395 372.971 8.20281 372.855 8.38102C372.753 8.53633 372.57 8.75099 372.267 9.10601C360.448 22.9843 342.327 58.9297 321.242 110.321C321.171 110.493 320.989 110.587 320.812 110.554Z" fill="#BDD1F9"/>
<mask id="mask0" mask-type="alpha" maskUnits="userSpaceOnUse" x="369" y="-1" width="11" height="13">
<path fill-rule="evenodd" clip-rule="evenodd" d="M370.787 -0.210938L379.948 0.590561L379.018 11.2199L369.857 10.4184L370.787 -0.210938Z" fill="white"/>
</mask>
<g mask="url(#mask0)">
<path fill-rule="evenodd" clip-rule="evenodd" d="M378.628 6.68763C377.182 8.27936 370.437 10.8063 369.974 10.399C369.512 9.99158 371.31 3.11133 372.755 1.51959C374.201 -0.07213 376.688 -0.20573 378.309 1.22149C379.931 2.64855 380.074 5.09577 378.628 6.68763Z" fill="#BDD1F9"/>
</g>
<path fill-rule="evenodd" clip-rule="evenodd" d="M366.013 10.8056C366.439 12.9522 364.416 19.9426 363.802 20.0638C363.187 20.1848 358.641 14.4886 358.215 12.342C357.788 10.1954 359.187 8.11124 361.341 7.68685C363.494 7.26262 365.586 8.65886 366.013 10.8056Z" fill="#BDD1F9"/>
<path fill-rule="evenodd" clip-rule="evenodd" d="M372.251 23.704C370.12 23.6399 363.935 20.1053 363.956 19.4795C363.977 18.8535 370.385 15.698 372.516 15.7622C374.647 15.8264 376.315 17.6563 376.242 19.8493C376.169 22.0423 374.382 23.7681 372.251 23.704Z" fill="#BDD1F9"/>
<path fill-rule="evenodd" clip-rule="evenodd" d="M344.516 43.5667C345.562 47.0885 343.489 59.1975 342.523 59.5161C341.556 59.8347 333.302 51.1315 332.256 47.6097C331.21 44.088 333.106 40.328 336.492 39.2116C339.878 38.0952 343.47 40.0449 344.516 43.5667Z" fill="#BDD1F9"/>
<path fill-rule="evenodd" clip-rule="evenodd" d="M356.819 64.3431C353.289 64.6218 342.455 59.9781 342.379 58.9549C342.304 57.9316 352.33 51.6395 355.86 51.3606C359.389 51.0817 362.466 53.7618 362.73 57.3468C362.995 60.9317 360.348 64.0639 356.819 64.3431Z" fill="#BDD1F9"/>
<path fill-rule="evenodd" clip-rule="evenodd" d="M333.851 55.666C336.029 59.4914 336.715 74.1885 335.639 74.8234C334.563 75.4584 322.377 67.548 320.2 63.7224C318.022 59.897 319.312 54.9925 323.082 52.7677C326.852 50.5431 331.673 51.8408 333.851 55.666Z" fill="#BDD1F9"/>
<path fill-rule="evenodd" clip-rule="evenodd" d="M352.364 82.8583C347.975 82.7406 335.188 75.7011 335.222 74.4487C335.256 73.1962 348.401 66.8519 352.789 66.9696C357.178 67.0871 360.639 70.7395 360.522 75.127C360.404 79.5144 356.752 82.976 352.364 82.8583Z" fill="#BDD1F9"/>
<path fill-rule="evenodd" clip-rule="evenodd" d="M326.584 72.4298C328.762 76.2553 329.447 90.952 328.371 91.5871C327.295 92.2219 315.11 84.3115 312.932 80.4862C310.754 76.6607 312.045 71.7562 315.814 69.5316C319.584 67.3067 324.406 68.6044 326.584 72.4298Z" fill="#BDD1F9"/>
<path fill-rule="evenodd" clip-rule="evenodd" d="M345.096 99.622C340.708 99.5043 327.921 92.4646 327.955 91.2125C327.988 89.9599 341.134 83.6155 345.522 83.7332C349.91 83.8508 353.372 87.5032 353.254 91.8907C353.137 96.278 349.484 99.7397 345.096 99.622Z" fill="#BDD1F9"/>
<path fill-rule="evenodd" clip-rule="evenodd" d="M312.06 92.8933C315.623 95.5313 322.01 108.53 321.234 109.504C320.459 110.478 305.784 107.887 302.221 105.249C298.657 102.611 297.971 97.7069 300.688 94.2948C303.405 90.883 308.496 90.2554 312.06 92.8933Z" fill="#BDD1F9"/>
<path fill-rule="evenodd" clip-rule="evenodd" d="M338.033 116.307C333.62 116.736 319.907 111.33 319.782 110.081C319.656 108.832 332.027 100.89 336.441 100.461C340.854 100.032 344.789 103.231 345.229 107.607C345.668 111.983 342.447 115.878 338.033 116.307Z" fill="#BDD1F9"/>
<path fill-rule="evenodd" clip-rule="evenodd" d="M359.374 20.3758C359.801 22.5225 357.778 29.513 357.163 29.6341C356.548 29.7552 352.003 24.059 351.576 21.9123C351.149 19.7656 352.549 17.6814 354.702 17.2572C356.855 16.8329 358.947 18.2291 359.374 20.3758Z" fill="#BDD1F9"/>
<path fill-rule="evenodd" clip-rule="evenodd" d="M365.55 33.993C363.419 33.929 357.234 30.3945 357.254 29.7685C357.275 29.1426 363.683 25.9873 365.814 26.0513C367.945 26.1153 369.614 27.9453 369.541 30.1382C369.467 32.3314 367.681 34.0572 365.55 33.993Z" fill="#BDD1F9"/>
<path fill-rule="evenodd" clip-rule="evenodd" d="M351.648 30.5073C352.527 33.412 350.49 43.2356 349.622 43.4678C348.754 43.7001 341.518 36.3589 340.638 33.4545C339.758 30.5499 341.51 27.5357 344.55 26.7218C347.59 25.9081 350.768 27.603 351.648 30.5073Z" fill="#BDD1F9"/>
<path fill-rule="evenodd" clip-rule="evenodd" d="M361.231 49.5626C358.222 49.4772 349.501 44.3603 349.533 43.4499C349.565 42.5397 358.625 37.9272 361.634 38.0126C364.643 38.0978 366.992 40.7526 366.881 43.942C366.769 47.1315 364.24 49.6478 361.231 49.5626Z" fill="#BDD1F9"/>
<mask id="mask1" mask-type="alpha" maskUnits="userSpaceOnUse" x="307" y="58" width="85" height="94">
<path fill-rule="evenodd" clip-rule="evenodd" d="M336.295 58.502L391.779 80.9188L363.193 151.671L307.709 129.254L336.295 58.502Z" fill="white"/>
</mask>
<g mask="url(#mask1)">
<path fill-rule="evenodd" clip-rule="evenodd" d="M311.883 129.083C311.883 129.083 304.474 79.0609 391.779 80.9188C391.779 80.9188 356.695 163.523 311.883 129.083Z" fill="#7C9AF2"/>
</g>
<path fill-rule="evenodd" clip-rule="evenodd" d="M391.912 80.8638L311.999 122.576C313.338 109.229 323.9 79.33 391.912 80.8638Z" fill="#91B5F8"/>
<mask id="mask2" mask-type="alpha" maskUnits="userSpaceOnUse" x="315" y="59" width="78" height="83">
<path fill-rule="evenodd" clip-rule="evenodd" d="M340.646 59.4551L392.659 80.4696L367.826 141.935L315.813 120.92L340.646 59.4551Z" fill="white"/>
</mask>
<g mask="url(#mask2)">
<path fill-rule="evenodd" clip-rule="evenodd" d="M315.949 120.975C315.918 120.963 315.891 120.939 315.874 120.907C315.836 120.836 315.864 120.747 315.936 120.709L392.4 80.4206C392.472 80.3831 392.561 80.4109 392.598 80.4824C392.636 80.5542 392.608 80.643 392.536 80.681L316.073 120.969C316.033 120.99 315.988 120.991 315.949 120.975Z" fill="#060633"/>
</g>
<path fill-rule="evenodd" clip-rule="evenodd" d="M351.88 101.301C351.811 101.273 351.772 101.197 351.792 101.123C351.813 101.041 351.895 100.991 351.975 101.012L375.703 107.033C375.783 107.053 375.832 107.136 375.81 107.217C375.79 107.299 375.707 107.348 375.627 107.328L351.899 101.307C351.892 101.305 351.886 101.303 351.88 101.301Z" fill="#060633"/>
<path fill-rule="evenodd" clip-rule="evenodd" d="M335.754 110.363C335.745 110.359 335.736 110.355 335.727 110.349C335.659 110.304 335.639 110.213 335.684 110.147L348.644 90.7704C348.689 90.7036 348.783 90.6866 348.849 90.7309C348.918 90.7759 348.937 90.8664 348.893 90.9333L335.933 110.31C335.893 110.368 335.818 110.389 335.754 110.363Z" fill="#060633"/>
<ellipse cx="199.773" cy="210.488" rx="199.5" ry="177" fill="#EBF1F9"/>
<ellipse cx="187.773" cy="205.488" rx="165.5" ry="146" fill="white"/>
</svg>
