<svg width="74" height="121" viewBox="0 0 74 121" fill="none" xmlns="http://www.w3.org/2000/svg">
<path fill-rule="evenodd" clip-rule="evenodd" d="M91.2565 93.4392C91.2432 93.4594 91.2277 93.4785 91.2098 93.4964C91.0679 93.6397 90.8357 93.6401 90.6925 93.4972C53.2705 56.2142 28.3135 27.1581 20.4187 11.682C20.243 11.3383 20.1168 11.0903 20.043 10.9819C19.9294 10.8145 19.9736 10.5866 20.1404 10.4734C20.3079 10.3596 20.5355 10.4033 20.6492 10.5705C20.7481 10.7163 20.8694 10.9546 21.0705 11.349C28.9316 26.7584 53.8405 55.7482 91.2091 92.9784C91.3343 93.1036 91.3505 93.2969 91.2565 93.4392Z" fill="#0B0755"/>
<path fill-rule="evenodd" clip-rule="evenodd" d="M19.6115 3.781C20.741 5.36467 21.573 11.7125 21.1038 12.0247C20.6343 12.3372 14.7876 9.32712 13.6576 7.74375C12.5279 6.16037 12.9444 3.98943 14.5883 2.89518C16.2322 1.80122 18.4812 2.19764 19.6115 3.781Z" fill="#0B0755"/>
<path fill-rule="evenodd" clip-rule="evenodd" d="M19.3131 17.8731C21.3623 17.9274 27.3418 21.2753 27.3275 21.8718C27.3132 22.4683 21.1841 25.4943 19.1352 25.4399C17.0861 25.3855 15.4655 23.6474 15.5143 21.5579C15.5634 19.4681 17.2642 17.8187 19.3131 17.8731Z" fill="#0B0755"/>
<path fill-rule="evenodd" clip-rule="evenodd" d="M33.5856 16.4748C32.7359 18.2505 27.3111 22.2391 26.7662 22.0034C26.221 21.7679 25.8206 15.2614 26.6712 13.4858C27.5207 11.7098 29.758 10.9392 31.6676 11.7647C33.577 12.59 34.436 14.6989 33.5856 16.4748Z" fill="#0B0755"/>
<path fill-rule="evenodd" clip-rule="evenodd" d="M41.7502 47.7607C45.0975 48.0643 54.4978 54.2502 54.4059 55.2398C54.3139 56.2295 43.931 60.6204 40.5837 60.3168C37.2361 60.0132 34.7836 56.9561 35.1057 53.4888C35.4278 50.0214 38.4026 47.4568 41.7502 47.7607Z" fill="#0B0755"/>
<path fill-rule="evenodd" clip-rule="evenodd" d="M64.1039 44.3623C63.02 47.5864 54.7503 55.4715 53.8016 55.1644C52.8536 54.857 50.9886 43.6885 52.0722 40.4644C53.1555 37.2402 56.7275 35.499 60.0502 36.5756C63.3726 37.6519 65.1873 41.1382 64.1039 44.3623Z" fill="#0B0755"/>
<path fill-rule="evenodd" clip-rule="evenodd" d="M48.326 61.4852C52.4712 60.9406 65.5457 65.6606 65.7008 66.8451C65.8556 68.0297 54.436 75.9686 50.2913 76.5132C46.1464 77.0578 42.3466 74.1354 41.804 69.9853C41.2612 65.8356 44.1811 62.0297 48.326 61.4852Z" fill="#0B0755"/>
<path fill-rule="evenodd" clip-rule="evenodd" d="M78.6446 55.4608C76.9287 59.3019 66.0337 68.0278 64.944 67.5368C63.8541 67.0457 63.1023 53.0718 64.8188 49.2308C66.5348 45.3895 71.0213 43.6705 74.8392 45.3909C78.6571 47.1115 80.3611 51.6198 78.6446 55.4608Z" fill="#0B0755"/>
<path fill-rule="evenodd" clip-rule="evenodd" d="M60.373 73.9744C64.5176 73.4298 77.5926 78.1499 77.7477 79.3343C77.9024 80.519 66.4826 88.4578 62.338 89.0024C58.1931 89.547 54.3934 86.6243 53.8508 82.4746C53.3082 78.3246 56.2281 74.519 60.373 73.9744Z" fill="#0B0755"/>
<path fill-rule="evenodd" clip-rule="evenodd" d="M90.6877 67.9501C88.9712 71.7911 78.0765 80.5168 76.9872 80.026C75.8972 79.535 75.1454 65.5611 76.8617 61.7198C78.5779 57.8788 83.0641 56.1598 86.8823 57.8802C90.7 59.6008 92.4039 64.1091 90.6877 67.9501Z" fill="#0B0755"/>
<path fill-rule="evenodd" clip-rule="evenodd" d="M73.0129 94.656C76.6691 92.5863 90.6865 91.9895 91.288 93.0221C91.8888 94.055 84.2969 105.69 80.641 107.759C76.9842 109.829 72.3122 108.573 70.2058 104.955C68.0994 101.337 69.3561 96.7257 73.0129 94.656Z" fill="#0B0755"/>
<path fill-rule="evenodd" clip-rule="evenodd" d="M25.8991 27.0544C27.9486 27.0731 33.9859 30.3161 33.9819 30.9128C33.9787 31.5094 27.9026 34.6421 25.8531 34.6231C23.8036 34.6047 22.1523 32.8949 22.165 30.8049C22.1777 28.7149 23.8495 27.0357 25.8991 27.0544Z" fill="#0B0755"/>
<path fill-rule="evenodd" clip-rule="evenodd" d="M40.6559 25.0109C39.788 26.9291 34.3209 31.2704 33.7772 31.022C33.2338 30.7736 32.8932 23.778 33.7611 21.8598C34.6284 19.9414 36.8752 19.0915 38.7794 19.9618C40.683 20.832 41.5235 23.0926 40.6559 25.0109Z" fill="#0B0755"/>
<path fill-rule="evenodd" clip-rule="evenodd" d="M43.4027 42.1731C43.5117 43.0278 35.5291 48.6875 32.6309 49.0577C29.7326 49.4277 27.074 47.3013 26.6926 44.3079C26.311 41.3142 28.3511 38.5875 31.2499 38.2172C34.1481 37.8469 43.294 41.3187 43.4027 42.1731Z" fill="#0B0755"/>
<path fill-rule="evenodd" clip-rule="evenodd" d="M53.1014 34.0542C51.8697 36.6508 44.025 42.4905 43.2378 42.1474C42.4509 41.8042 41.886 32.2974 43.1176 29.7005C44.3495 27.1039 47.583 25.9733 50.3398 27.1754C53.0966 28.3775 54.333 31.4573 53.1014 34.0542Z" fill="#0B0755"/>
<mask id="mask0" mask-type="alpha" maskUnits="userSpaceOnUse" x="18" y="63" width="69" height="57">
<path fill-rule="evenodd" clip-rule="evenodd" d="M78 63.9795L18.5256 75.5401L27.0283 119.283L86.5027 107.722L78 63.9795Z" fill="white"/>
</mask>
<g mask="url(#mask0)">
<path fill-rule="evenodd" clip-rule="evenodd" d="M85.1619 101.618C85.1619 101.618 83.8471 62.4531 18.5261 75.543C18.5261 75.543 56.2396 133.893 85.1619 101.618Z" fill="#91B5F8"/>
</g>
<path fill-rule="evenodd" clip-rule="evenodd" d="M18.4339 75.5247L85.2617 101.346C85.2617 101.346 62.2607 136.266 18.4339 75.5247Z" fill="#7C9AF2"/>
<path fill-rule="evenodd" clip-rule="evenodd" d="M35.7213 88.4455C35.731 88.4461 35.7409 88.4458 35.7505 88.4455L52.2327 87.2816C52.3577 87.2727 52.447 87.1489 52.4323 87.0052C52.4176 86.8611 52.303 86.7536 52.1798 86.7606L35.6976 87.9245C35.5727 87.9333 35.4835 88.0572 35.4981 88.2008C35.5117 88.3333 35.609 88.4368 35.7213 88.4455Z" fill="#91B5F8"/>
<path fill-rule="evenodd" clip-rule="evenodd" d="M56.3653 102.763C56.3827 102.765 56.4006 102.765 56.4185 102.762L78.3277 98.6542C78.453 98.6314 78.5256 98.4596 78.4894 98.2715C78.4534 98.0838 78.3241 97.9489 78.1973 97.9736L56.2877 102.08C56.1626 102.104 56.0902 102.276 56.1261 102.464C56.157 102.625 56.258 102.747 56.3653 102.763Z" fill="#91B5F8"/>
</svg>
