<svg width="41" height="41" viewBox="0 0 41 41" fill="none" xmlns="http://www.w3.org/2000/svg">
<path fill-rule="evenodd" clip-rule="evenodd" d="M34.6976 33.6968C34.6976 34.5984 33.9665 35.3294 33.0649 35.3294H3.13265C2.23102 35.3294 1.5 34.5984 1.5 33.6968V6.48617C1.5 5.58454 2.23102 4.85352 3.13265 4.85352H33.0649C33.9665 4.85352 34.6976 5.58454 34.6976 6.48617V33.6968Z" fill="white"/>
<path fill-rule="evenodd" clip-rule="evenodd" d="M3.13241 5.30226C2.47976 5.30226 1.94874 5.83328 1.94874 6.48593V33.6965C1.94874 34.3492 2.47976 34.8802 3.13241 34.8802H33.0647C33.7173 34.8802 34.2483 34.3492 34.2483 33.6965V6.48593C34.2483 5.83328 33.7173 5.30226 33.0647 5.30226H3.13241ZM3.13241 35.7782C1.98466 35.7782 1.05078 34.8443 1.05078 33.6965V6.48593C1.05078 5.33817 1.98466 4.4043 3.13241 4.4043H33.0647C34.2124 4.4043 35.1463 5.33817 35.1463 6.48593V33.6965C35.1463 34.8443 34.2124 35.7782 33.0647 35.7782H3.13241Z" fill="#282D33"/>
<path d="M3.13241 5.17726C2.41073 5.17726 1.82374 5.76424 1.82374 6.48593H2.07374C2.07374 5.90231 2.5488 5.42726 3.13241 5.42726V5.17726ZM1.82374 6.48593V33.6965H2.07374V6.48593H1.82374ZM1.82374 33.6965C1.82374 34.4182 2.41073 35.0052 3.13241 35.0052V34.7552C2.5488 34.7552 2.07374 34.2802 2.07374 33.6965H1.82374ZM3.13241 35.0052H33.0647V34.7552H3.13241V35.0052ZM33.0647 35.0052C33.7864 35.0052 34.3733 34.4182 34.3733 33.6965H34.1233C34.1233 34.2802 33.6483 34.7552 33.0647 34.7552V35.0052ZM34.3733 33.6965V6.48593H34.1233V33.6965H34.3733ZM34.3733 6.48593C34.3733 5.76424 33.7864 5.17726 33.0647 5.17726V5.42726C33.6483 5.42726 34.1233 5.90231 34.1233 6.48593H34.3733ZM33.0647 5.17726H3.13241V5.42726H33.0647V5.17726ZM3.13241 35.6532C2.05369 35.6532 1.17578 34.7753 1.17578 33.6965H0.925781C0.925781 34.9133 1.91562 35.9032 3.13241 35.9032V35.6532ZM1.17578 33.6965V6.48593H0.925781V33.6965H1.17578ZM1.17578 6.48593C1.17578 5.40721 2.05369 4.5293 3.13241 4.5293V4.2793C1.91562 4.2793 0.925781 5.26914 0.925781 6.48593H1.17578ZM3.13241 4.5293H33.0647V4.2793H3.13241V4.5293ZM33.0647 4.5293C34.1434 4.5293 35.0213 5.40721 35.0213 6.48593H35.2713C35.2713 5.26914 34.2814 4.2793 33.0647 4.2793V4.5293ZM35.0213 6.48593V33.6965H35.2713V6.48593H35.0213ZM35.0213 33.6965C35.0213 34.7753 34.1434 35.6532 33.0647 35.6532V35.9032C34.2814 35.9032 35.2713 34.9133 35.2713 33.6965H35.0213ZM33.0647 35.6532H3.13241V35.9032H33.0647V35.6532Z" fill="#282D33"/>
<mask id="mask0" mask-type="alpha" maskUnits="userSpaceOnUse" x="1" y="0" width="40" height="41">
<path fill-rule="evenodd" clip-rule="evenodd" d="M1 40.1837H40.8033V0H1V40.1837Z" fill="white"/>
</mask>
<g mask="url(#mask0)">
<path fill-rule="evenodd" clip-rule="evenodd" d="M3.94922 32.8807H32.2488V7.30273H3.94922V32.8807Z" fill="#D6E6FF"/>
<path fill-rule="evenodd" clip-rule="evenodd" d="M27.3981 17.5525L24.9471 13.3076L20.5483 15.8472V10.7676H15.6467V15.8472L11.2479 13.3076L8.79688 17.5525L13.1957 20.0925L8.79688 22.6313L11.2479 26.8766L15.6467 24.3366V29.4161H20.5483V24.3366L24.9471 26.8766L27.3981 22.6313L22.9993 20.0925L27.3981 17.5525Z" fill="white"/>
<path fill-rule="evenodd" clip-rule="evenodd" d="M16.0958 28.9669H20.0995V23.5588L24.7828 26.2628L26.7848 22.7955L22.1011 20.0918L26.7848 17.3877L24.7828 13.9204L20.0995 16.6241V11.2163H16.0958V16.6241L11.4122 13.9204L9.41053 17.3877L14.0938 20.0918L9.41053 22.7955L11.4122 26.2628L16.0958 23.5588V28.9669ZM15.1979 29.8649V25.1143L11.0836 27.4894L8.18359 22.4669L12.2979 20.0918L8.18359 17.7163L11.0836 12.6935L15.1979 15.069V10.3184H20.9975V15.069L25.1118 12.6935L28.0118 17.7163L23.8971 20.0918L28.0118 22.4669L25.1118 27.4894L20.9975 25.1143V29.8649H15.1979Z" fill="#282D33"/>
<path d="M16.0958 28.9669H15.9708V29.0919H16.0958V28.9669ZM20.0995 28.9669V29.0919H20.2245V28.9669H20.0995ZM20.0995 23.5588L20.162 23.4505L19.9745 23.3423V23.5588H20.0995ZM24.7828 26.2628L24.7203 26.3711L24.8285 26.4336L24.891 26.3254L24.7828 26.2628ZM26.7848 22.7955L26.8931 22.858L26.9556 22.7497L26.8473 22.6872L26.7848 22.7955ZM22.1011 20.0918L22.0386 19.9836L21.8511 20.0918L22.0387 20.2001L22.1011 20.0918ZM26.7848 17.3877L26.8473 17.496L26.9556 17.4335L26.8931 17.3252L26.7848 17.3877ZM24.7828 13.9204L24.891 13.8579L24.8285 13.7497L24.7203 13.8121L24.7828 13.9204ZM20.0995 16.6241H19.9745V16.8406L20.162 16.7323L20.0995 16.6241ZM20.0995 11.2163H20.2245V11.0913H20.0995V11.2163ZM16.0958 11.2163V11.0913H15.9708V11.2163H16.0958ZM16.0958 16.6241L16.0333 16.7323L16.2208 16.8406V16.6241H16.0958ZM11.4122 13.9204L11.4747 13.8121L11.3664 13.7497L11.3039 13.8579L11.4122 13.9204ZM9.41053 17.3877L9.30228 17.3253L9.23979 17.4335L9.34803 17.496L9.41053 17.3877ZM14.0938 20.0918L14.1563 20.2001L14.3438 20.0918L14.1563 19.9836L14.0938 20.0918ZM9.41053 22.7955L9.34804 22.6872L9.23978 22.7497L9.30228 22.858L9.41053 22.7955ZM11.4122 26.2628L11.3039 26.3253L11.3664 26.4336L11.4747 26.3711L11.4122 26.2628ZM16.0958 23.5588H16.2208V23.3423L16.0333 23.4505L16.0958 23.5588ZM15.1979 29.8649H15.0729V29.9899H15.1979V29.8649ZM15.1979 25.1143H15.3229V24.8978L15.1354 25.006L15.1979 25.1143ZM11.0836 27.4894L10.9753 27.5519L11.0378 27.6601L11.1461 27.5976L11.0836 27.4894ZM8.18359 22.4669L8.1211 22.3587L8.01283 22.4212L8.07534 22.5294L8.18359 22.4669ZM12.2979 20.0918L12.3604 20.2001L12.5479 20.0918L12.3604 19.9836L12.2979 20.0918ZM8.18359 17.7163L8.07534 17.6538L8.01284 17.7621L8.12109 17.8246L8.18359 17.7163ZM11.0836 12.6935L11.1461 12.5852L11.0378 12.5227L10.9753 12.631L11.0836 12.6935ZM15.1979 15.069L15.1354 15.1772L15.3229 15.2855V15.069H15.1979ZM15.1979 10.3184V10.1934H15.0729V10.3184H15.1979ZM20.9975 10.3184H21.1225V10.1934H20.9975V10.3184ZM20.9975 15.069H20.8725V15.2855L21.06 15.1772L20.9975 15.069ZM25.1118 12.6935L25.22 12.631L25.1575 12.5227L25.0493 12.5852L25.1118 12.6935ZM28.0118 17.7163L28.0743 17.8246L28.1825 17.7621L28.12 17.6538L28.0118 17.7163ZM23.8971 20.0918L23.8346 19.9836L23.647 20.0918L23.8346 20.2001L23.8971 20.0918ZM28.0118 22.4669L28.12 22.5294L28.1825 22.4212L28.0742 22.3587L28.0118 22.4669ZM25.1118 27.4894L25.0493 27.5976L25.1575 27.6601L25.22 27.5519L25.1118 27.4894ZM20.9975 25.1143L21.06 25.006L20.8725 24.8978V25.1143H20.9975ZM20.9975 29.8649V29.9899H21.1225V29.8649H20.9975ZM16.0958 29.0919H20.0995V28.8419H16.0958V29.0919ZM20.2245 28.9669V23.5588H19.9745V28.9669H20.2245ZM20.037 23.667L24.7203 26.3711L24.8453 26.1546L20.162 23.4505L20.037 23.667ZM24.891 26.3254L26.8931 22.858L26.6766 22.733L24.6745 26.2003L24.891 26.3254ZM26.8473 22.6872L22.1636 19.9836L22.0387 20.2001L26.7223 22.9038L26.8473 22.6872ZM22.1636 20.2001L26.8473 17.496L26.7223 17.2795L22.0386 19.9836L22.1636 20.2001ZM26.8931 17.3252L24.891 13.8579L24.6745 13.9829L26.6766 17.4503L26.8931 17.3252ZM24.7203 13.8121L20.037 16.5158L20.162 16.7323L24.8453 14.0287L24.7203 13.8121ZM20.2245 16.6241V11.2163H19.9745V16.6241H20.2245ZM20.0995 11.0913H16.0958V11.3413H20.0995V11.0913ZM15.9708 11.2163V16.6241H16.2208V11.2163H15.9708ZM16.1583 16.5158L11.4747 13.8121L11.3497 14.0287L16.0333 16.7323L16.1583 16.5158ZM11.3039 13.8579L9.30228 17.3253L9.51879 17.4502L11.5204 13.9829L11.3039 13.8579ZM9.34803 17.496L14.0313 20.2001L14.1563 19.9836L9.47304 17.2795L9.34803 17.496ZM14.0313 19.9836L9.34804 22.6872L9.47303 22.9038L14.1563 20.2001L14.0313 19.9836ZM9.30228 22.858L11.3039 26.3253L11.5204 26.2004L9.51879 22.733L9.30228 22.858ZM11.4747 26.3711L16.1583 23.667L16.0333 23.4505L11.3497 26.1546L11.4747 26.3711ZM15.9708 23.5588V28.9669H16.2208V23.5588H15.9708ZM15.3229 29.8649V25.1143H15.0729V29.8649H15.3229ZM15.1354 25.006L11.0211 27.3811L11.1461 27.5976L15.2604 25.2225L15.1354 25.006ZM11.1918 27.4269L8.29184 22.4044L8.07534 22.5294L10.9753 27.5519L11.1918 27.4269ZM8.24609 22.5752L12.3604 20.2001L12.2354 19.9836L8.1211 22.3587L8.24609 22.5752ZM12.3604 19.9836L8.2461 17.6081L8.12109 17.8246L12.2354 20.2001L12.3604 19.9836ZM8.29185 17.7788L11.1918 12.756L10.9753 12.631L8.07534 17.6538L8.29185 17.7788ZM11.0211 12.8017L15.1354 15.1772L15.2604 14.9607L11.1461 12.5852L11.0211 12.8017ZM15.3229 15.069V10.3184H15.0729V15.069H15.3229ZM15.1979 10.4434H20.9975V10.1934H15.1979V10.4434ZM20.8725 10.3184V15.069H21.1225V10.3184H20.8725ZM21.06 15.1772L25.1743 12.8017L25.0493 12.5852L20.935 14.9607L21.06 15.1772ZM25.0035 12.756L27.9035 17.7788L28.12 17.6538L25.22 12.631L25.0035 12.756ZM27.9493 17.6081L23.8346 19.9836L23.9596 20.2001L28.0743 17.8246L27.9493 17.6081ZM23.8346 20.2001L27.9493 22.5752L28.0742 22.3587L23.9596 19.9836L23.8346 20.2001ZM27.9035 22.4044L25.0035 27.4269L25.22 27.5519L28.12 22.5294L27.9035 22.4044ZM25.1743 27.3811L21.06 25.006L20.935 25.2225L25.0493 27.5976L25.1743 27.3811ZM20.8725 25.1143V29.8649H21.1225V25.1143H20.8725ZM20.9975 29.7399H15.1979V29.9899H20.9975V29.7399Z" fill="#282D33"/>
<path fill-rule="evenodd" clip-rule="evenodd" d="M39.8555 40.1324H40.7534V0.0507812H39.8555V40.1324Z" fill="#282D33"/>
<path fill-rule="evenodd" clip-rule="evenodd" d="M39.8555 40.1324H40.7534V0.0507812H39.8555V40.1324Z" stroke="#282D33" stroke-width="0.25"/>
<path fill-rule="evenodd" clip-rule="evenodd" d="M35.1484 11.561H40.4815V10.6631H35.1484V11.561Z" fill="#282D33"/>
<path fill-rule="evenodd" clip-rule="evenodd" d="M35.1484 11.561H40.4815V10.6631H35.1484V11.561Z" stroke="#282D33" stroke-width="0.25"/>
<path fill-rule="evenodd" clip-rule="evenodd" d="M35.1484 29.52H40.4815V28.6221H35.1484V29.52Z" fill="#282D33"/>
<path fill-rule="evenodd" clip-rule="evenodd" d="M35.1484 29.52H40.4815V28.6221H35.1484V29.52Z" stroke="#282D33" stroke-width="0.25"/>
</g>
</svg>
