<svg width="47" height="50" viewBox="0 0 47 50" fill="none" xmlns="http://www.w3.org/2000/svg">
<g clip-path="url(#clip0)">
<rect width="1366" height="8567" transform="translate(-624 -5236)" fill="white"/>
<rect x="-586" y="-657" width="1290" height="1348" rx="20" fill="#F8F8F8"/>
<mask id="mask0" mask-type="alpha" maskUnits="userSpaceOnUse" x="-586" y="-657" width="1290" height="1348">
<rect x="-586" y="-657" width="1290" height="1348" rx="20" fill="white"/>
</mask>
<g mask="url(#mask0)">
</g>
<g filter="url(#filter0_d)">
<rect x="-30" y="-33" width="330" height="248" rx="20" fill="white"/>
</g>
<circle cx="22" cy="28" r="22" fill="#D6E6FF"/>
<path fill-rule="evenodd" clip-rule="evenodd" d="M11.1445 30.4481V40.8093H17.6037L21.1575 39.3173C21.1575 39.3173 31.4897 35.8743 32.1297 35.6287C32.7697 35.3831 38.7321 31.9726 38.7321 31.9726L45.2986 27.0985L43.7008 25.5792L38.7321 27.0985L39.8113 24.5781L37.1859 24.6334C37.1859 24.6334 34.8449 25.8815 34.8449 26.5688C34.8449 27.2561 31.532 31.2279 31.532 31.2279C31.532 31.2279 25.7431 32.0076 26.2745 31.2279C26.8058 30.4481 28.2368 29.9824 29.0708 29.4138C29.9049 28.8453 29.9049 26.4113 29.9049 26.4113C29.9049 26.4113 24.5181 26.4113 23.6051 26.4113C22.6921 26.4113 17.6037 26.4113 17.6037 26.4113L15.2141 28.8841L12.6656 30.4481H11.1445Z" fill="white"/>
<path fill-rule="evenodd" clip-rule="evenodd" d="M37.7476 24.6334C36.6831 24.6334 35.4904 25.5046 34.8474 26.7524L34.8027 26.8294L32.1311 30.9282L32.476 31.0097C33.0917 31.1543 33.765 31.2279 34.4767 31.2279C34.6973 31.2279 34.9219 31.2204 35.15 31.2065L35.2872 31.1976L38.7335 24.8496L38.3911 24.7363C38.1809 24.6677 37.9647 24.6334 37.7476 24.6334ZM34.4707 32.7187C33.042 32.7187 31.7708 32.4678 30.6914 31.9728L29.9062 31.6125L33.534 26.0447C34.4657 24.2741 36.1151 23.1426 37.7476 23.1426C38.1213 23.1426 38.493 23.2017 38.8518 23.3185L39.9118 23.6634C39.9749 23.6842 40.026 23.7056 40.0797 23.7285L40.8356 24.0545L40.4644 24.7865L36.2209 32.6024L35.8318 32.6442C35.3687 32.6934 34.9105 32.7187 34.4707 32.7187Z" fill="#282D33"/>
<path fill-rule="evenodd" clip-rule="evenodd" d="M40.2053 26.9043L31.3498 30.9604C31.3498 30.9604 30.0508 32.4445 30.0508 32.5819C30.0508 32.7192 32.9405 33.9125 32.9405 33.9125C32.9405 33.9125 37.9768 32.5467 37.9768 32.3758C37.9768 32.2049 40.2053 29.7581 40.2053 29.7581C40.2053 29.7581 40.8322 28.0888 40.8322 27.9312C40.8322 27.7735 40.2053 26.9043 40.2053 26.9043Z" fill="white"/>
<path fill-rule="evenodd" clip-rule="evenodd" d="M11.1445 41.76V40.2692H17.6182L34.577 33.9744L44.7733 26.9595L44.5169 26.7031C44.1015 26.2881 43.5255 26.069 42.8511 26.069C42.0625 26.069 41.163 26.3776 40.4449 26.8944L40.3694 26.9436L31.0929 32.3007H19.1165L19.1215 29.801L26.7059 29.8189C27.8494 29.7856 28.7816 28.5408 28.9938 27.4057L29.049 27.1116H17.8235L13.1055 31.2591H11.1445V29.7682H12.5434L17.2619 25.6207H30.428L30.5329 26.8025C30.5681 28.0776 29.9489 29.486 28.9536 30.376L28.469 30.8098H30.6904L33.0906 29.4139L39.5952 25.6679C40.5841 24.9707 41.7683 24.5781 42.8631 24.5781C43.9335 24.5781 44.8697 24.9483 45.5709 25.649L46.3601 26.4387C46.4013 26.4799 46.4376 26.5222 46.4739 26.5664L46.9972 27.2005L46.3397 27.691L35.2692 35.3077L17.8861 41.76H11.1445Z" fill="#282D33"/>
<mask id="mask1" mask-type="alpha" maskUnits="userSpaceOnUse" x="0" y="28" width="10" height="19">
<path fill-rule="evenodd" clip-rule="evenodd" d="M0 28.8848H9.07219V46.239H0V28.8848Z" fill="white"/>
</mask>
<g mask="url(#mask1)">
<path fill-rule="evenodd" clip-rule="evenodd" d="M0 28.8848H9.07224V46.2391H0" fill="#F4F3F5"/>
</g>
<path fill-rule="evenodd" clip-rule="evenodd" d="M4.95703 44.2378H6.94481V42.25H4.95703V44.2378Z" fill="#282D33"/>
<path fill-rule="evenodd" clip-rule="evenodd" d="M33.3677 8.66985L33.8605 8.16612C35.6543 6.33552 35.6543 3.36699 33.8605 1.53601L33.7937 1.4667C31.9998 -0.3639 29.0915 -0.3639 27.2977 1.4667L26.8038 1.97042L26.3107 1.4667C24.5176 -0.3639 21.6093 -0.3639 19.8147 1.4667L19.7472 1.53601C17.9541 3.36699 17.9541 6.33552 19.7472 8.16612L20.2407 8.66985L26.8038 15.3697L33.3677 8.66985Z" fill="#00A1FA"/>
</g>
<defs>
<filter id="filter0_d" x="-35" y="-35" width="340" height="258" filterUnits="userSpaceOnUse" color-interpolation-filters="sRGB">
<feFlood flood-opacity="0" result="BackgroundImageFix"/>
<feColorMatrix in="SourceAlpha" type="matrix" values="0 0 0 0 0 0 0 0 0 0 0 0 0 0 0 0 0 0 127 0"/>
<feOffset dy="3"/>
<feGaussianBlur stdDeviation="2.5"/>
<feColorMatrix type="matrix" values="0 0 0 0 0 0 0 0 0 0 0 0 0 0 0 0 0 0 0.0405376 0"/>
<feBlend mode="normal" in2="BackgroundImageFix" result="effect1_dropShadow"/>
<feBlend mode="normal" in="SourceGraphic" in2="effect1_dropShadow" result="shape"/>
</filter>
<clipPath id="clip0">
<rect width="1366" height="8567" fill="white" transform="translate(-624 -5236)"/>
</clipPath>
</defs>
</svg>
