<svg width="44" height="47" viewBox="0 0 44 47" fill="none" xmlns="http://www.w3.org/2000/svg">
<g clip-path="url(#clip0)">
<rect width="1366" height="8567" transform="translate(-973 -5005)" fill="white"/>
<rect x="-935" y="-426" width="1290" height="1348" rx="20" fill="#F8F8F8"/>
<mask id="mask0" mask-type="alpha" maskUnits="userSpaceOnUse" x="-935" y="-426" width="1290" height="1348">
<rect x="-935" y="-426" width="1290" height="1348" rx="20" fill="white"/>
</mask>
<g mask="url(#mask0)">
</g>
<g filter="url(#filter0_d)">
<rect x="-30" y="-37" width="330" height="218" rx="20" fill="white"/>
</g>
<circle cx="22" cy="24" r="22" fill="#D6E6FF"/>
<path fill-rule="evenodd" clip-rule="evenodd" d="M25.3605 35.1906V34.2415H27.9222C29.0958 34.2415 30.0502 33.2871 30.0502 32.1144V31.6806C30.0502 30.5065 29.0958 29.5517 27.9222 29.5517H20.1562V28.6025H27.9222C29.6188 28.6025 30.9994 29.9831 30.9994 31.6806V32.1144C30.9994 33.8105 29.6188 35.1906 27.9222 35.1906H25.3605Z" fill="#282D33"/>
<path fill-rule="evenodd" clip-rule="evenodd" d="M25.3605 35.1906V34.2415H27.9222C29.0958 34.2415 30.0502 33.2871 30.0502 32.1144V31.6806C30.0502 30.5065 29.0958 29.5517 27.9222 29.5517H20.1562V28.6025H27.9222C29.6188 28.6025 30.9994 29.9831 30.9994 31.6806V32.1144C30.9994 33.8105 29.6188 35.1906 27.9222 35.1906H25.3605Z" stroke="#282D33" stroke-width="0.5"/>
<path fill-rule="evenodd" clip-rule="evenodd" d="M18.5337 29.5422C16.8371 29.5422 15.457 28.1616 15.457 26.465V26.0313C15.457 24.3346 16.8371 22.9541 18.5337 22.9541H21.0955V23.9033H18.5337C17.3606 23.9033 16.4062 24.8576 16.4062 26.0313V26.465C16.4062 27.6382 17.3606 28.593 18.5337 28.593H26.3001V29.5422H18.5337Z" fill="#282D33"/>
<path fill-rule="evenodd" clip-rule="evenodd" d="M18.5337 29.5422C16.8371 29.5422 15.457 28.1616 15.457 26.465V26.0313C15.457 24.3346 16.8371 22.9541 18.5337 22.9541H21.0955V23.9033H18.5337C17.3606 23.9033 16.4062 24.8576 16.4062 26.0313V26.465C16.4062 27.6382 17.3606 28.593 18.5337 28.593H26.3001V29.5422H18.5337Z" stroke="#282D33" stroke-width="0.5"/>
<path fill-rule="evenodd" clip-rule="evenodd" d="M16.0488 18.2682C11.6756 18.2682 8.11719 14.7093 8.11719 10.3347V9.0927C8.11719 4.719 11.6756 1.16016 16.0488 1.16016H16.2946V2.10931H16.0488C12.1985 2.10931 9.06634 5.24199 9.06634 9.0927V10.3347C9.06634 14.1859 12.1985 17.319 16.0488 17.319H28.9188V18.2682H16.0488Z" fill="#282D33"/>
<path fill-rule="evenodd" clip-rule="evenodd" d="M16.0488 18.2682C11.6756 18.2682 8.11719 14.7093 8.11719 10.3347V9.0927C8.11719 4.719 11.6756 1.16016 16.0488 1.16016H16.2946V2.10931H16.0488C12.1985 2.10931 9.06634 5.24199 9.06634 9.0927V10.3347C9.06634 14.1859 12.1985 17.319 16.0488 17.319H28.9188V18.2682H16.0488Z" stroke="#282D33" stroke-width="0.5"/>
<path fill-rule="evenodd" clip-rule="evenodd" d="M22.6904 8.66792C22.4778 5.18215 19.6806 2.38405 16.1953 2.17144V1.125C20.2491 1.33951 23.5204 4.61598 23.7363 8.66792H22.6904Z" fill="#282D33"/>
<path fill-rule="evenodd" clip-rule="evenodd" d="M22.6904 8.66792C22.4778 5.18215 19.6806 2.38405 16.1953 2.17144V1.125C20.2491 1.33951 23.5204 4.61598 23.7363 8.66792H22.6904Z" stroke="#282D33" stroke-width="0.5"/>
<mask id="mask1" mask-type="alpha" maskUnits="userSpaceOnUse" x="8" y="1" width="28" height="46">
<path fill-rule="evenodd" clip-rule="evenodd" d="M8 46.8061H35.8842V1H8V46.8061Z" fill="white"/>
</mask>
<g mask="url(#mask1)">
<path fill-rule="evenodd" clip-rule="evenodd" d="M22.6523 45.2107H25.0252V14.3633H22.6523V45.2107Z" fill="#00A1FA"/>
<path fill-rule="evenodd" clip-rule="evenodd" d="M12.6172 10.7246C12.7012 12.9224 14.5041 14.6797 16.7223 14.6797H30.9591C33.1777 14.6797 34.9806 12.9224 35.0646 10.7246H12.6172Z" fill="#00A1FA"/>
<path fill-rule="evenodd" clip-rule="evenodd" d="M22.8926 40.84C21.1965 40.84 19.8164 39.4595 19.8164 37.7629V37.3291C19.8164 35.6325 21.1965 34.252 22.8926 34.252H25.4544V35.2011H22.8926C21.7195 35.2011 20.7656 36.1555 20.7656 37.3291V37.7629C20.7656 38.936 21.7195 39.8909 22.8926 39.8909H24.9798V40.84H22.8926Z" fill="#282D33"/>
<path fill-rule="evenodd" clip-rule="evenodd" d="M22.8926 40.84C21.1965 40.84 19.8164 39.4595 19.8164 37.7629V37.3291C19.8164 35.6325 21.1965 34.252 22.8926 34.252H25.4544V35.2011H22.8926C21.7195 35.2011 20.7656 36.1555 20.7656 37.3291V37.7629C20.7656 38.936 21.7195 39.8909 22.8926 39.8909H24.9798V40.84H22.8926Z" stroke="#282D33" stroke-width="0.5"/>
<path fill-rule="evenodd" clip-rule="evenodd" d="M20.7617 23.9009V22.9517H32.6793C33.8581 22.9517 34.8168 21.9926 34.8168 20.8133V20.3781C34.8168 19.1988 33.8581 18.2392 32.6793 18.2392H26.8325V17.29H32.6793C34.3816 17.29 35.7659 18.6753 35.7659 20.3781V20.8133C35.7659 22.5161 34.3816 23.9009 32.6793 23.9009H20.7617Z" fill="#282D33"/>
<path fill-rule="evenodd" clip-rule="evenodd" d="M20.7617 23.9009V22.9517H32.6793C33.8581 22.9517 34.8168 21.9926 34.8168 20.8133V20.3781C34.8168 19.1988 33.8581 18.2392 32.6793 18.2392H26.8325V17.29H32.6793C34.3816 17.29 35.7659 18.6753 35.7659 20.3781V20.8133C35.7659 22.5161 34.3816 23.9009 32.6793 23.9009H20.7617Z" stroke="#282D33" stroke-width="0.5"/>
<path fill-rule="evenodd" clip-rule="evenodd" d="M26.5171 6.29491C26.5171 7.64935 25.4194 8.74704 24.0649 8.74704C22.711 8.74704 21.6133 7.64935 21.6133 6.29491C21.6133 4.94047 22.711 3.84277 24.0649 3.84277C25.4194 3.84277 26.5171 4.94047 26.5171 6.29491Z" fill="white"/>
<path fill-rule="evenodd" clip-rule="evenodd" d="M24.063 4.31732C22.9729 4.31732 22.0859 5.2043 22.0859 6.29488C22.0859 7.38545 22.9729 8.27244 24.063 8.27244C25.1535 8.27244 26.0405 7.38545 26.0405 6.29488C26.0405 5.2043 25.1535 4.31732 24.063 4.31732ZM24.063 9.22159C22.4494 9.22159 21.1367 7.90844 21.1367 6.29488C21.1367 4.68132 22.4494 3.36816 24.063 3.36816C25.6765 3.36816 26.9897 4.68132 26.9897 6.29488C26.9897 7.90844 25.6765 9.22159 24.063 9.22159Z" fill="#282D33"/>
<path d="M24.063 4.06732C22.8347 4.06732 21.8359 5.06627 21.8359 6.29488H22.3359C22.3359 5.34233 23.111 4.56732 24.063 4.56732V4.06732ZM21.8359 6.29488C21.8359 7.52348 22.8347 8.52244 24.063 8.52244V8.02244C23.111 8.02244 22.3359 7.24742 22.3359 6.29488H21.8359ZM24.063 8.52244C25.2916 8.52244 26.2905 7.52352 26.2905 6.29488H25.7905C25.7905 7.24738 25.0155 8.02244 24.063 8.02244V8.52244ZM26.2905 6.29488C26.2905 5.06623 25.2916 4.06732 24.063 4.06732V4.56732C25.0155 4.56732 25.7905 5.34237 25.7905 6.29488H26.2905ZM24.063 8.97159C22.5875 8.97159 21.3867 7.77042 21.3867 6.29488H20.8867C20.8867 8.04645 22.3113 9.47159 24.063 9.47159V8.97159ZM21.3867 6.29488C21.3867 4.81933 22.5875 3.61816 24.063 3.61816V3.11816C22.3113 3.11816 20.8867 4.5433 20.8867 6.29488H21.3867ZM24.063 3.61816C25.5384 3.61816 26.7397 4.81939 26.7397 6.29488H27.2397C27.2397 4.54325 25.8146 3.11816 24.063 3.11816V3.61816ZM26.7397 6.29488C26.7397 7.77036 25.5384 8.97159 24.063 8.97159V9.47159C25.8146 9.47159 27.2397 8.04651 27.2397 6.29488H26.7397Z" fill="#282D33"/>
<path fill-rule="evenodd" clip-rule="evenodd" d="M16.8242 46.8058H30.8992C29.7384 45.1623 27.8258 44.0879 25.6589 44.0879H22.065C19.898 44.0879 17.985 45.1623 16.8242 46.8058Z" fill="#00A1FA"/>
</g>
</g>
<defs>
<filter id="filter0_d" x="-35" y="-39" width="340" height="228" filterUnits="userSpaceOnUse" color-interpolation-filters="sRGB">
<feFlood flood-opacity="0" result="BackgroundImageFix"/>
<feColorMatrix in="SourceAlpha" type="matrix" values="0 0 0 0 0 0 0 0 0 0 0 0 0 0 0 0 0 0 127 0"/>
<feOffset dy="3"/>
<feGaussianBlur stdDeviation="2.5"/>
<feColorMatrix type="matrix" values="0 0 0 0 0 0 0 0 0 0 0 0 0 0 0 0 0 0 0.0405376 0"/>
<feBlend mode="normal" in2="BackgroundImageFix" result="effect1_dropShadow"/>
<feBlend mode="normal" in="SourceGraphic" in2="effect1_dropShadow" result="shape"/>
</filter>
<clipPath id="clip0">
<rect width="1366" height="8567" fill="white" transform="translate(-973 -5005)"/>
</clipPath>
</defs>
</svg>
