<svg width="356" height="80" viewBox="0 0 356 80" fill="none" xmlns="http://www.w3.org/2000/svg">
<g clip-path="url(#clip0)">
<rect width="1366" height="8567" transform="translate(-200 -5847)" fill="white"/>
<rect x="-162" y="-1268" width="1290" height="1348" rx="20" fill="#F8F8F8"/>
<mask id="mask0" mask-type="alpha" maskUnits="userSpaceOnUse" x="-162" y="-1268" width="1290" height="1348">
<rect x="-162" y="-1268" width="1290" height="1348" rx="20" fill="white"/>
</mask>
<g mask="url(#mask0)">
<ellipse opacity="0.386696" rx="437.5" ry="499" transform="matrix(-1 0 0 1 176.5 535)" fill="#DAE8FE"/>
<path fill-rule="evenodd" clip-rule="evenodd" d="M253.701 136.32C253.735 136.303 253.767 136.283 253.798 136.259C254.045 136.068 254.089 135.712 253.897 135.466C203.755 71.0407 163.886 27.2858 141.633 12.2608C141.139 11.9267 140.782 11.6863 140.63 11.5528C140.394 11.3468 140.037 11.3719 139.831 11.6064C139.625 11.8418 139.65 12.1992 139.885 12.4051C140.09 12.5842 140.432 12.8152 140.999 13.198C163.156 28.1586 202.933 71.8274 253.003 136.16C253.172 136.376 253.465 136.437 253.701 136.32Z" fill="#0B0755"/>
<mask id="mask1" mask-type="alpha" maskUnits="userSpaceOnUse" x="128" y="1" width="16" height="13">
<path fill-rule="evenodd" clip-rule="evenodd" d="M128 1.38086H143.329V13.7855H128V1.38086Z" fill="white"/>
</mask>
<g mask="url(#mask1)">
<path fill-rule="evenodd" clip-rule="evenodd" d="M130.487 11.6691C132.994 13.3281 142.843 14.2708 143.3 13.5292C143.757 12.7872 138.793 3.91935 136.286 2.25943C133.78 0.599956 130.449 1.36034 128.848 3.9584C127.247 6.55647 127.98 10.0087 130.487 11.6691Z" fill="#0B0755"/>
</g>
<path fill-rule="evenodd" clip-rule="evenodd" d="M150.104 12.3853C150.353 15.5435 156.004 24.5011 156.923 24.4308C157.843 24.3604 162.017 14.6565 161.768 11.4987C161.518 8.34053 158.704 5.98012 155.483 6.22441C152.262 6.46915 149.854 9.22755 150.104 12.3853Z" fill="#0B0755"/>
<path fill-rule="evenodd" clip-rule="evenodd" d="M145.512 33.2715C148.395 32.3025 155.536 24.7325 155.277 23.8522C155.018 22.9715 145.113 21.1319 142.229 22.1023C139.345 23.0709 137.741 26.3576 138.648 29.4423C139.554 32.5266 142.627 34.2415 145.512 33.2715Z" fill="#0B0755"/>
<path fill-rule="evenodd" clip-rule="evenodd" d="M192.96 51.7732C192.795 56.9649 200.513 72.5495 202.048 72.5948C203.584 72.6402 212.275 57.5405 212.44 52.3488C212.604 47.1566 208.377 42.8187 202.998 42.6598C197.618 42.5008 193.124 46.581 192.96 51.7732Z" fill="#0B0755"/>
<path fill-rule="evenodd" clip-rule="evenodd" d="M183.538 85.4218C188.687 84.3663 202.34 73.1662 202.048 71.6532C201.755 70.141 184.974 65.1768 179.824 66.2318C174.675 67.2863 171.331 72.4374 172.357 77.737C173.382 83.0361 178.388 86.4763 183.538 85.4218Z" fill="#0B0755"/>
<path fill-rule="evenodd" clip-rule="evenodd" d="M212.774 64.4491C211.158 70.7051 215.935 91.6494 217.723 92.1104C219.511 92.571 233.84 76.5493 235.456 70.2942C237.072 64.0387 233.305 57.6597 227.041 56.0458C220.778 54.4315 214.39 58.1936 212.774 64.4491Z" fill="#0B0755"/>
<path fill-rule="evenodd" clip-rule="evenodd" d="M229.661 85.2775C228.045 91.5325 232.822 112.478 234.61 112.939C236.398 113.399 250.726 97.3771 252.342 91.1221C253.958 84.8666 250.191 78.4876 243.928 76.8738C237.664 75.2599 231.277 79.022 229.661 85.2775Z" fill="#0B0755"/>
<path fill-rule="evenodd" clip-rule="evenodd" d="M163.096 24.1004C163.346 27.2581 168.996 36.2161 169.916 36.1456C170.835 36.0764 175.01 26.3713 174.76 23.2136C174.51 20.0558 171.696 17.6944 168.476 17.9393C165.255 18.1842 162.846 20.9426 163.096 24.1004Z" fill="#0B0755"/>
<path fill-rule="evenodd" clip-rule="evenodd" d="M160.348 44.9875C163.454 44.0175 171.143 36.449 170.864 35.5682C170.586 34.6879 159.919 32.8479 156.813 33.8179C153.707 34.787 151.98 38.0734 152.956 41.1582C153.933 44.2421 157.242 45.9571 160.348 44.9875Z" fill="#0B0755"/>
<path fill-rule="evenodd" clip-rule="evenodd" d="M177.367 35.1721C177.345 39.6875 184.393 53.0629 185.724 53.0687C187.056 53.0749 194.234 39.7641 194.256 35.2487C194.278 30.7332 190.515 27.0556 185.852 27.0343C181.188 27.0129 177.389 30.6558 177.367 35.1721Z" fill="#0B0755"/>
<path fill-rule="evenodd" clip-rule="evenodd" d="M170.882 65.6942C175.097 64.2941 185.532 53.3607 185.154 52.0885C184.776 50.8168 170.3 48.1597 166.084 49.5599C161.869 50.9605 159.526 55.7075 160.851 60.1626C162.175 64.6178 166.667 67.0944 170.882 65.6942Z" fill="#0B0755"/>
<mask id="mask2" mask-type="alpha" maskUnits="userSpaceOnUse" x="179" y="7" width="116" height="104">
<path fill-rule="evenodd" clip-rule="evenodd" d="M179.984 49.5205L263.414 7.01095L294.679 68.3721L211.249 110.882L179.984 49.5205Z" fill="white"/>
</mask>
<g mask="url(#mask2)">
<path fill-rule="evenodd" clip-rule="evenodd" d="M207.075 102.173C207.075 102.173 171.411 53.225 263.416 7.01486C263.416 7.01486 273.006 113.959 207.075 102.173Z" fill="#91B5F8"/>
</g>
<path fill-rule="evenodd" clip-rule="evenodd" d="M263.508 6.90606L206.692 101.938C206.692 101.938 267.929 122.579 263.508 6.90606Z" fill="#7C9AF2"/>
<path fill-rule="evenodd" clip-rule="evenodd" d="M254.749 39.0896C254.738 39.0995 254.726 39.1086 254.714 39.1173L233.534 53.3823C233.373 53.4904 233.147 53.4247 233.028 53.2356C232.909 53.0462 232.946 52.8062 233.103 52.6975L254.283 38.4325C254.443 38.3244 254.67 38.3905 254.789 38.5792C254.898 38.7535 254.878 38.9721 254.749 39.0896Z" fill="#91B5F8"/>
<path fill-rule="evenodd" clip-rule="evenodd" d="M243.23 76.1695C243.211 76.1892 243.19 76.2063 243.165 76.2191L212.574 92.0626C212.4 92.154 212.148 92.0138 212.013 91.7503C211.878 91.4875 211.908 91.2003 212.085 91.1096L242.675 75.2645C242.85 75.1743 243.102 75.3149 243.237 75.5777C243.353 75.8037 243.345 76.0476 243.23 76.1695Z" fill="#91B5F8"/>
</g>
</g>
<defs>
<clipPath id="clip0">
<rect width="1366" height="8567" fill="white" transform="translate(-200 -5847)"/>
</clipPath>
</defs>
</svg>
