<?xml version="1.0" standalone="no"?>
<!DOCTYPE svg PUBLIC "-//W3C//DTD SVG 20010904//EN"
 "http://www.w3.org/TR/2001/REC-SVG-20010904/DTD/svg10.dtd">
<svg version="1.0" xmlns="http://www.w3.org/2000/svg"
 width="225.000000pt" height="235.000000pt" viewBox="0 0 225.000000 235.000000"
 preserveAspectRatio="xMidYMid meet">

<g transform="translate(0.000000,235.000000) scale(0.100000,-0.100000)"
fill="#000000" stroke="none">
<path d="M985 2331 c-82 -5 -117 -11 -137 -24 -20 -14 -27 -15 -32 -5 -4 10
-9 8 -18 -6 -7 -11 -26 -32 -42 -47 -19 -18 -26 -31 -20 -41 5 -7 7 -36 5 -65
-2 -44 2 -60 30 -107 33 -55 35 -56 79 -56 25 0 52 -6 60 -12 12 -11 12 -10 1
5 -7 9 -24 17 -37 17 -23 0 -24 3 -24 70 0 77 -3 74 71 70 43 -2 69 21 49 45
-10 13 -9 15 11 15 13 0 48 3 76 6 l53 7 15 -36 c18 -44 19 -61 3 -51 -8 5 -8
1 2 -12 8 -10 16 -21 17 -23 5 -7 -8 113 -13 120 -2 4 0 10 5 13 13 8 11 110
-3 118 -6 4 -18 7 -26 6 -8 -1 -64 -4 -125 -7z"/>
<path d="M1042 2148 c-15 -15 -16 -38 -1 -38 5 0 7 -6 3 -12 -5 -9 -2 -9 9 1
18 15 23 26 7 16 -5 -3 -10 -2 -10 3 0 6 7 13 16 16 22 8 26 8 19 -4 -3 -5 0
-10 9 -10 8 0 13 8 12 18 -3 21 -46 28 -64 10z"/>
<path d="M882 2088 c-15 -15 -16 -38 -2 -38 6 0 8 -12 5 -27 l-5 -28 11 25 c6
14 12 32 13 40 2 8 13 16 24 18 12 2 22 8 22 13 0 13 -54 11 -68 -3z"/>
<path d="M1076 2075 c-3 -9 1 -18 10 -22 19 -7 28 2 21 22 -8 19 -23 19 -31 0z"/>
<path d="M940 2063 c35 -7 50 -21 51 -52 l1 -26 7 25 c4 14 17 28 31 32 21 6
19 7 -7 3 -20 -3 -36 1 -43 10 -7 8 -24 14 -39 14 l-26 -2 25 -4z"/>
<path d="M1132 2040 c-6 -10 -24 -20 -39 -23 -28 -4 -28 -4 -2 -6 24 -1 69 33
58 44 -3 2 -10 -4 -17 -15z"/>
<path d="M926 2022 c-8 -13 11 -35 23 -28 16 10 14 36 -3 36 -8 0 -17 -4 -20
-8z"/>
<path d="M938 1953 c7 -3 16 -2 19 1 4 3 -2 6 -13 5 -11 0 -14 -3 -6 -6z"/>
<path d="M1056 1249 c-4 -74 -9 -169 -13 -211 l-5 -77 43 -11 c24 -6 55 -16
69 -23 25 -11 25 -11 -10 -15 l-35 -4 25 -13 c25 -14 25 -14 -15 -16 l-40 -1
33 -10 c17 -6 32 -15 32 -19 0 -5 -15 -9 -32 -10 -18 0 -27 -3 -20 -6 25 -10
11 -19 -23 -15 -27 3 -35 1 -35 -12 0 -12 10 -16 43 -16 65 0 71 -8 49 -66
l-19 -48 -33 46 c-30 42 -39 48 -79 53 -25 3 -54 8 -65 10 -18 4 -18 -8 -11
-368 4 -205 8 -373 9 -374 1 -1 30 3 65 9 57 11 63 14 68 40 7 34 23 37 23 4
l0 -24 67 14 c37 8 68 16 69 17 2 1 -10 154 -25 340 -14 186 -24 340 -21 342
3 1 68 -1 145 -6 77 -4 140 -7 141 -6 1 2 20 380 27 542 l2 40 -145 6 c-80 4
-175 10 -211 14 l-66 8 -7 -134z"/>
<path d="M790 1026 c0 -2 7 -7 16 -10 8 -3 12 -2 9 4 -6 10 -25 14 -25 6z"/>
<path d="M897 960 c3 -11 7 -20 9 -20 2 0 4 9 4 20 0 11 -4 20 -9 20 -5 0 -7
-9 -4 -20z"/>
<path d="M886 899 c-3 -18 -4 -34 -2 -36 2 -3 7 10 11 27 4 17 5 34 2 36 -2 3
-7 -10 -11 -27z"/>
<path d="M658 843 c6 -2 18 -2 25 0 6 3 1 5 -13 5 -14 0 -19 -2 -12 -5z"/>
<path d="M871 834 c0 -11 3 -14 6 -6 3 7 2 16 -1 19 -3 4 -6 -2 -5 -13z"/>
<path d="M738 833 c7 -3 16 -2 19 1 4 3 -2 6 -13 5 -11 0 -14 -3 -6 -6z"/>
<path d="M818 823 c7 -3 16 -2 19 1 4 3 -2 6 -13 5 -11 0 -14 -3 -6 -6z"/>
</g>
</svg>
