<svg width="215" height="224" viewBox="0 0 215 224" fill="none" xmlns="http://www.w3.org/2000/svg">
<rect x="-304" y="-1577" width="1290" height="2762" rx="20" fill="#F8F8F8"/>
<mask id="mask0" mask-type="alpha" maskUnits="userSpaceOnUse" x="-304" y="-1577" width="1290" height="2762">
<rect x="-304" y="-1577" width="1290" height="2762" rx="20" fill="white"/>
</mask>
<g mask="url(#mask0)">
</g>
<ellipse cx="110.227" cy="114.235" rx="102.5" ry="100" transform="rotate(75 110.227 114.235)" fill="#B8D1FD"/>
<path fill-rule="evenodd" clip-rule="evenodd" d="M179.644 79.8655C184.735 70.7072 196.284 67.4089 205.441 72.4987C214.6 77.5878 217.898 89.138 212.81 98.296C207.719 107.454 196.17 110.753 187.011 105.663C177.854 100.573 174.553 89.0235 179.644 79.8655Z" fill="white"/>
<path fill-rule="evenodd" clip-rule="evenodd" d="M204.893 73.4898C206.431 74.3443 206.985 76.2841 206.128 77.8222L192.201 102.887C191.344 104.425 189.404 104.979 187.866 104.124C186.328 103.269 185.776 101.33 186.631 99.7917L200.56 74.7272C201.415 73.1888 203.354 72.6347 204.893 73.4898Z" fill="#DDE7FE"/>
<path fill-rule="evenodd" clip-rule="evenodd" d="M3.71109 103.33C-3.21473 91.7991 0.518021 76.8376 12.0491 69.9111C23.5801 62.9853 38.5411 66.7178 45.4669 78.2482C52.3927 89.7787 48.66 104.74 37.1289 111.667C25.6009 118.592 10.6369 114.86 3.71109 103.33Z" fill="white"/>
<path fill-rule="evenodd" clip-rule="evenodd" d="M12.7993 71.1579V71.1576C14.7362 69.9946 17.2486 70.6216 18.4119 72.5581L37.3665 104.115C38.5298 106.051 37.9032 108.565 35.9663 109.728C34.0295 110.891 31.517 110.264 30.3537 108.327L11.3992 76.7702C10.2359 74.8337 10.8625 72.3209 12.7993 71.1579Z" fill="#DDE7FE"/>
<path fill-rule="evenodd" clip-rule="evenodd" d="M78.7254 199.423C84.4309 197.28 90.7961 200.171 92.9368 205.878C95.0805 211.585 92.1903 217.948 86.4817 220.091C80.7761 222.232 74.411 219.345 72.2703 213.636C70.1266 207.928 73.0168 201.565 78.7254 199.423Z" fill="white"/>
<path fill-rule="evenodd" clip-rule="evenodd" d="M92.3188 206.109C92.6786 207.068 92.1929 208.137 91.2364 208.496L75.6159 214.358C74.6564 214.718 73.5891 214.235 73.2293 213.276C72.8695 212.316 73.3552 211.249 74.3116 210.889L89.9322 205.025C90.8916 204.665 91.959 205.15 92.3188 206.109Z" fill="#DDE7FE"/>
<path fill-rule="evenodd" clip-rule="evenodd" d="M101.765 133.401C106.496 127.865 114.819 127.212 120.353 131.943L145.16 153.14C150.695 157.871 151.349 166.194 146.618 171.73C141.886 177.266 133.563 177.919 128.029 173.188L103.222 151.991C97.6871 147.26 97.0335 138.937 101.765 133.401Z" fill="white"/>
<path fill-rule="evenodd" clip-rule="evenodd" d="M101.766 133.401C106.497 127.865 114.82 127.212 120.354 131.943L132.758 142.541L115.626 162.589L103.223 151.991C97.688 147.26 97.0344 138.937 101.766 133.401Z" fill="#FA7267"/>
<path fill-rule="evenodd" clip-rule="evenodd" d="M138.21 66.1395C140.477 70.4731 138.801 75.824 134.469 78.0909L115.049 88.2476C110.717 90.5142 105.365 88.8385 103.099 84.505C100.832 80.1711 102.508 74.8205 106.84 72.5536L126.26 62.3972C130.592 60.1303 135.944 61.806 138.21 66.1395Z" fill="white"/>
<path fill-rule="evenodd" clip-rule="evenodd" d="M138.21 66.1396C140.477 70.4732 138.801 75.8241 134.469 78.091L124.758 83.169L116.549 67.4753L126.26 62.3973C130.592 60.1303 135.944 61.8057 138.21 66.1396Z" fill="#FA7267"/>
<path fill-rule="evenodd" clip-rule="evenodd" d="M93.3844 25.9384C91.0429 29.6787 86.1108 30.8117 82.3691 28.4683L65.6092 17.9687C61.8675 15.6247 60.7341 10.6929 63.0787 6.9524C65.4233 3.21186 70.3553 2.07914 74.0941 4.42253L90.854 14.9222C94.5957 17.2656 95.729 22.1979 93.3844 25.9384Z" fill="white"/>
<path fill-rule="evenodd" clip-rule="evenodd" d="M93.3844 25.9386C91.0399 29.6792 86.1108 30.8119 82.3691 28.4682L73.9891 23.2184L82.474 9.67285L90.854 14.9224C94.5957 17.2658 95.729 22.1981 93.3844 25.9386Z" fill="#FA7267"/>
</svg>
