<svg width="200" height="224" viewBox="0 0 200 224" fill="none" xmlns="http://www.w3.org/2000/svg">
<rect x="-327" y="-2417" width="1290" height="2762" rx="20" fill="#F8F8F8"/>
<mask id="mask0" mask-type="alpha" maskUnits="userSpaceOnUse" x="-327" y="-2417" width="1290" height="2762">
<rect x="-327" y="-2417" width="1290" height="2762" rx="20" fill="white"/>
</mask>
<g mask="url(#mask0)">
</g>
<ellipse cx="99.6629" cy="113.664" rx="102.5" ry="100" transform="rotate(75 99.6629 113.664)" fill="#B8D1FD"/>
<path d="M537.395 -127.199C537.395 -127.199 533.916 -80.5859 462.793 -68.6234C391.67 -56.6609 359.932 -68.6234 277.932 -68.6234C195.932 -68.6234 140.639 6.0563 140.639 6.0563" stroke="#B8D1FD" stroke-width="3" stroke-linecap="square" stroke-dasharray="0 8"/>
<path fill-rule="evenodd" clip-rule="evenodd" d="M159.333 14.8718L47.0117 3.06641L25.677 206.052L169.548 221.174L187.948 46.1112L159.333 14.8718Z" fill="white"/>
<rect x="114.047" y="33.624" width="5.13281" height="25.0938" transform="rotate(6 114.047 33.624)" fill="#FF4444"/>
<rect x="127.721" y="45.3828" width="5.13281" height="25.0938" transform="rotate(96 127.721 45.3828)" fill="#FF4444"/>
<path fill-rule="evenodd" clip-rule="evenodd" d="M187.833 47.7584L155.942 44.4065C155.354 44.3448 154.943 43.6886 155.021 42.9406L157.963 14.9516C158.042 14.2019 158.581 13.6457 159.169 13.7074C159.77 13.7706 160.182 14.4268 160.103 15.1766L157.304 41.8096L188.118 45.0483C188.719 45.1115 189.131 45.7677 189.052 46.5174C188.974 47.2654 188.435 47.8216 187.833 47.7584Z" fill="#DDE7FE"/>
<path fill-rule="evenodd" clip-rule="evenodd" d="M172.66 82.4379L51.4413 69.6973C50.6968 69.619 50.1402 68.9477 50.219 68.1979C50.2976 67.4499 50.9817 66.909 51.7261 66.9872L172.945 79.7278C173.707 79.8079 174.246 80.4774 174.167 81.2254C174.089 81.9752 173.422 82.518 172.66 82.4379Z" fill="#7C9AF2"/>
<path fill-rule="evenodd" clip-rule="evenodd" d="M171.701 91.5641L50.4825 78.8234C49.738 78.7452 49.1814 78.0738 49.26 77.3258C49.3388 76.5761 50.0227 76.0369 50.7671 76.1151L171.986 88.8557C172.748 88.9358 173.287 89.6036 173.208 90.3533C173.13 91.1013 172.463 91.6442 171.701 91.5641Z" fill="#7C9AF2"/>
<path fill-rule="evenodd" clip-rule="evenodd" d="M170.332 104.597L49.1132 91.8565C48.3687 91.7782 47.8123 91.1051 47.8909 90.3571C47.9695 89.6091 48.6536 89.0681 49.398 89.1464L170.617 101.887C171.379 101.967 171.918 102.637 171.839 103.385C171.761 104.133 171.094 104.677 170.332 104.597Z" fill="#7C9AF2"/>
<path fill-rule="evenodd" clip-rule="evenodd" d="M169.371 113.722L48.1524 100.982C47.408 100.903 46.8511 100.234 46.9299 99.484C47.0086 98.7361 47.6926 98.1951 48.4371 98.2733L169.656 111.014C170.418 111.094 170.957 111.764 170.878 112.512C170.799 113.261 170.133 113.802 169.371 113.722Z" fill="#7C9AF2"/>
<path fill-rule="evenodd" clip-rule="evenodd" d="M168.412 122.852L47.1934 110.112C46.449 110.033 45.8922 109.364 45.971 108.614C46.0496 107.866 46.7336 107.325 47.4781 107.403L168.697 120.144C169.459 120.224 169.998 120.893 169.919 121.641C169.841 122.391 169.174 122.932 168.412 122.852Z" fill="#7C9AF2"/>
<path fill-rule="evenodd" clip-rule="evenodd" d="M167.453 131.98L46.2343 119.239C45.4898 119.161 44.9332 118.49 45.0118 117.742C45.0906 116.992 45.7747 116.451 46.5191 116.529L167.738 129.27C168.5 129.35 169.039 130.019 168.96 130.769C168.882 131.517 168.215 132.06 167.453 131.98Z" fill="#7C9AF2"/>
<path fill-rule="evenodd" clip-rule="evenodd" d="M165.008 155.254L43.7891 142.514C43.0447 142.436 42.488 141.764 42.5667 141.016C42.6455 140.267 43.3293 139.727 44.0738 139.806L165.293 152.546C166.055 152.626 166.594 153.294 166.515 154.044C166.436 154.792 165.77 155.335 165.008 155.254Z" fill="#7C9AF2"/>
<path fill-rule="evenodd" clip-rule="evenodd" d="M164.047 164.38L42.8282 151.64C42.0838 151.562 41.5269 150.892 41.6057 150.142C41.6843 149.394 42.3684 148.853 43.1128 148.932L164.332 161.672C165.094 161.752 165.633 162.422 165.554 163.17C165.475 163.919 164.809 164.461 164.047 164.38Z" fill="#7C9AF2"/>
<path fill-rule="evenodd" clip-rule="evenodd" d="M163.088 173.507L41.8692 160.767C41.1248 160.689 40.5679 160.019 40.6467 159.269C40.7254 158.521 41.4094 157.98 42.1539 158.058L163.373 170.799C164.135 170.879 164.674 171.549 164.595 172.297C164.516 173.046 163.85 173.588 163.088 173.507Z" fill="#7C9AF2"/>
<path fill-rule="evenodd" clip-rule="evenodd" d="M162.129 182.637L40.9102 169.897C40.1658 169.818 39.6091 169.147 39.6877 168.399C39.7664 167.651 40.4504 167.11 41.1949 167.188L162.414 179.929C163.176 180.009 163.715 180.679 163.636 181.427C163.557 182.175 162.891 182.717 162.129 182.637Z" fill="#7C9AF2"/>
</svg>
