<svg width="202" height="194" viewBox="0 0 202 194" fill="none" xmlns="http://www.w3.org/2000/svg">
<rect x="-772" y="-1231" width="1290" height="2762" rx="20" fill="#F8F8F8"/>
<mask id="mask0" mask-type="alpha" maskUnits="userSpaceOnUse" x="-772" y="-1231" width="1290" height="2762">
<rect x="-772" y="-1231" width="1290" height="2762" rx="20" fill="white"/>
</mask>
<g mask="url(#mask0)">
</g>
<ellipse cx="101.152" cy="106.875" rx="99.3021" ry="80.5698" transform="rotate(-17 101.152 106.875)" fill="#B8D1FD"/>
<path fill-rule="evenodd" clip-rule="evenodd" d="M185.721 26.8263L79.4824 10.2541C78.4157 10.0874 77.4157 10.8208 77.2491 11.8874L55.4046 151.926C55.238 152.993 55.9657 153.999 57.0324 154.165L163.099 170.71C164.166 170.876 165.166 170.143 165.332 169.076L187.205 28.8596C187.355 27.8874 186.694 26.9819 185.721 26.8263Z" fill="#0B0755"/>
<path fill-rule="evenodd" clip-rule="evenodd" d="M162.649 165.527L59.8711 150.232L80.1211 14.1934L182.899 29.4878L162.649 165.527Z" fill="#E9F0FF"/>
<path fill-rule="evenodd" clip-rule="evenodd" d="M132.149 18.2821C129.572 17.8821 127.81 15.471 128.216 12.8933C128.616 10.3155 131.027 8.55437 133.605 8.95992C136.183 9.35992 137.944 11.771 137.544 14.3488C137.138 16.9266 134.727 18.6877 132.149 18.2821ZM156.438 17.9766L140.066 15.4266C140.122 15.2099 140.172 14.9877 140.205 14.7655C140.838 10.7155 138.066 6.92103 134.022 6.29326C129.972 5.65992 126.183 8.43214 125.549 12.4766C125.516 12.7044 125.494 12.9266 125.477 13.1488L109.11 10.5933C105.988 10.1099 103.066 12.2433 102.577 15.3655L101.377 23.0655C101.266 23.7877 101.755 24.4599 102.477 24.5766L158.494 33.3155C159.216 33.4266 159.894 32.9321 160.005 32.2099L161.205 24.5099C161.694 21.3877 159.56 18.4655 156.438 17.9766Z" fill="#2E3EB7"/>
<path fill-rule="evenodd" clip-rule="evenodd" d="M127.703 37.3209L86.6366 31.2042C86.52 31.1876 86.4366 31.0765 86.4533 30.9598L86.5589 30.2654C86.5755 30.1487 86.6866 30.0654 86.8033 30.0876L127.87 36.1987C127.987 36.2154 128.07 36.3265 128.053 36.4431L127.948 37.1376C127.931 37.2542 127.82 37.3376 127.703 37.3209Z" fill="#BDD1F9"/>
<path fill-rule="evenodd" clip-rule="evenodd" d="M126.483 45.5432L85.416 39.4265C85.2938 39.4099 85.216 39.2988 85.2327 39.1821L85.3327 38.4876C85.3549 38.371 85.466 38.2932 85.5827 38.3099L126.649 44.421C126.766 44.4376 126.849 44.5488 126.833 44.6654L126.727 45.3599C126.71 45.4765 126.599 45.5599 126.483 45.5432Z" fill="#BDD1F9"/>
<path fill-rule="evenodd" clip-rule="evenodd" d="M123.143 67.9659L82.0761 61.8548C81.9594 61.8381 81.8761 61.727 81.8927 61.6104L81.9983 60.9159C82.015 60.7993 82.1261 60.7159 82.2427 60.7326L123.309 66.8437C123.426 66.8604 123.509 66.9715 123.493 67.0881L123.387 67.7826C123.371 67.9048 123.259 67.9826 123.143 67.9659Z" fill="#BDD1F9"/>
<path fill-rule="evenodd" clip-rule="evenodd" d="M169.738 51.9767L128.666 45.8656C128.549 45.8489 128.466 45.7378 128.488 45.6211L128.588 44.9267C128.605 44.81 128.716 44.7267 128.832 44.7433L169.905 50.86C170.021 50.8767 170.105 50.9878 170.082 51.1044L169.982 51.7989C169.966 51.9156 169.855 51.9989 169.738 51.9767Z" fill="#BDD1F9"/>
<path fill-rule="evenodd" clip-rule="evenodd" d="M168.904 57.5876L84.5765 45.032C84.4598 45.0153 84.3821 44.9098 84.3987 44.7876L84.4987 44.0931C84.5154 43.9764 84.6265 43.8987 84.7432 43.9153L169.071 56.4653C169.188 56.482 169.265 56.5931 169.249 56.7098L169.149 57.4042C169.127 57.5209 169.021 57.6042 168.904 57.5876Z" fill="#BDD1F9"/>
<path fill-rule="evenodd" clip-rule="evenodd" d="M167.955 63.938L83.6325 51.388C83.5159 51.3714 83.4325 51.2602 83.4548 51.1436L83.5548 50.4491C83.5714 50.3325 83.6825 50.2491 83.7992 50.2658L168.121 62.8158C168.244 62.838 168.321 62.9436 168.305 63.0658L168.199 63.7602C168.183 63.8769 168.071 63.9547 167.955 63.938Z" fill="#BDD1F9"/>
<path fill-rule="evenodd" clip-rule="evenodd" d="M167.176 69.1714L82.8534 56.6214C82.7368 56.6047 82.6534 56.4936 82.6701 56.377L82.7756 55.6825C82.7923 55.5659 82.9034 55.4825 83.0201 55.4992L167.342 68.0492C167.459 68.0659 167.542 68.177 167.526 68.2936L167.42 68.9881C167.403 69.1047 167.292 69.1881 167.176 69.1714Z" fill="#BDD1F9"/>
<path fill-rule="evenodd" clip-rule="evenodd" d="M141.159 82.6878L97.4976 76.1878C97.3754 76.1712 97.2921 76.0545 97.3088 75.9378L97.4088 75.2545C97.431 75.1323 97.5421 75.0489 97.6643 75.0656L141.325 81.5656C141.448 81.5823 141.531 81.6989 141.509 81.8156L141.409 82.4989C141.392 82.6212 141.275 82.7045 141.159 82.6878Z" fill="#BDD1F9"/>
<path fill-rule="evenodd" clip-rule="evenodd" d="M139.821 91.6539L96.1594 85.1595C96.0427 85.1428 95.9539 85.0262 95.9761 84.9039L96.0761 84.2262C96.0927 84.1039 96.2094 84.0206 96.3261 84.0373L139.987 90.5373C140.109 90.5539 140.193 90.6651 140.176 90.7873L140.076 91.4706C140.059 91.5873 139.943 91.6762 139.821 91.6539Z" fill="#BDD1F9"/>
<path fill-rule="evenodd" clip-rule="evenodd" d="M157.309 89.6764L96.8316 80.6709C96.7094 80.6542 96.6261 80.5431 96.6427 80.4209L96.7427 79.7375C96.7594 79.6209 96.8761 79.532 96.9983 79.5542L157.476 88.5542C157.598 88.5709 157.682 88.6875 157.665 88.8042L157.559 89.4875C157.543 89.6098 157.432 89.6931 157.309 89.6764Z" fill="#BDD1F9"/>
<path fill-rule="evenodd" clip-rule="evenodd" d="M78.8491 82.8265L90.5436 84.5654L92.2825 72.8765L80.588 71.132L78.8491 82.8265ZM90.8991 85.6598L78.188 83.7654C77.9102 83.7265 77.7158 83.4654 77.7602 83.182L79.6491 70.4765C79.6936 70.1932 79.9547 70.0043 80.2325 70.0432L92.938 71.9376C93.2214 71.9765 93.4158 72.2376 93.3714 72.5209L91.4825 85.2265C91.438 85.5043 91.1769 85.6987 90.8991 85.6598Z" fill="#BDD1F9"/>
<path fill-rule="evenodd" clip-rule="evenodd" d="M83.9712 82.6215L83.9323 82.6104C83.6601 82.5548 83.4546 82.3382 83.4046 82.0715C82.949 79.6493 82.0935 77.3215 80.8601 75.1437C80.6712 74.8159 80.7879 74.3993 81.1157 74.2104C81.4435 74.027 81.8601 74.1382 82.049 74.4715C83.099 76.3215 83.8879 78.277 84.4101 80.3048C87.3212 76.4382 91.0823 73.1548 95.3657 70.7437C95.699 70.5548 96.1157 70.6715 96.299 71.0048C96.4823 71.3326 96.3657 71.7493 96.0379 71.9326C91.4823 74.4993 87.5379 78.0937 84.6379 82.327C84.4879 82.5437 84.2323 82.6548 83.9712 82.6215Z" fill="#FA7267"/>
<path fill-rule="evenodd" clip-rule="evenodd" d="M137.01 109.672L93.3492 103.177C93.227 103.155 93.1437 103.044 93.1603 102.922L93.2659 102.238C93.2825 102.122 93.3937 102.038 93.5159 102.055L137.177 108.549C137.299 108.572 137.383 108.683 137.366 108.805L137.266 109.488C137.244 109.605 137.133 109.688 137.01 109.672Z" fill="#BDD1F9"/>
<path fill-rule="evenodd" clip-rule="evenodd" d="M154.498 107.693L94.0149 98.6878C93.8982 98.6712 93.8093 98.56 93.8315 98.4378L93.9315 97.7545C93.9482 97.6323 94.0649 97.5489 94.1815 97.5656L154.665 106.571C154.782 106.588 154.865 106.699 154.848 106.821L154.748 107.504C154.732 107.627 154.615 107.71 154.498 107.693Z" fill="#BDD1F9"/>
<path fill-rule="evenodd" clip-rule="evenodd" d="M75.5935 103.832L87.2824 105.571L89.0269 93.8822L77.3324 92.1378L75.5935 103.832ZM87.638 106.666L74.9324 104.771C74.6546 104.732 74.4602 104.471 74.4991 104.188L76.3935 91.4822C76.4324 91.2045 76.6935 91.01 76.9769 91.0489L89.6824 92.9433C89.9602 92.9822 90.1546 93.2433 90.1158 93.5267L88.2213 106.232C88.1824 106.51 87.9213 106.704 87.638 106.666Z" fill="#BDD1F9"/>
<path fill-rule="evenodd" clip-rule="evenodd" d="M80.7144 103.626L80.6755 103.615C80.4032 103.56 80.1921 103.343 80.1421 103.076C79.6921 100.654 78.8366 98.3264 77.5977 96.1486C77.4144 95.8208 77.5255 95.4042 77.8588 95.2153C78.1866 95.0319 78.6032 95.143 78.7866 95.4708C79.8421 97.3264 80.631 99.2819 81.1532 101.31C84.0644 97.443 87.8255 94.1597 92.1088 91.7486C92.4366 91.5597 92.8532 91.6764 93.0421 92.0097C93.2255 92.3375 93.1088 92.7542 92.781 92.9375C88.2199 95.5042 84.281 99.0986 81.381 103.332C81.231 103.549 80.9699 103.665 80.7144 103.626Z" fill="#FA7267"/>
<path fill-rule="evenodd" clip-rule="evenodd" d="M134.882 124.016L91.2206 117.516C91.1039 117.499 91.0206 117.388 91.0373 117.266L91.1373 116.582C91.1539 116.466 91.2706 116.377 91.3873 116.399L135.048 122.893C135.171 122.91 135.254 123.027 135.237 123.149L135.137 123.827C135.121 123.949 135.004 124.032 134.882 124.016Z" fill="#BDD1F9"/>
<path fill-rule="evenodd" clip-rule="evenodd" d="M151.032 131.004L90.5539 122.004C90.4373 121.982 90.3484 121.871 90.3706 121.749L90.4706 121.071C90.4873 120.949 90.6039 120.865 90.7206 120.882L151.204 129.882C151.321 129.899 151.404 130.015 151.387 130.138L151.287 130.815C151.271 130.938 151.154 131.021 151.032 131.004Z" fill="#BDD1F9"/>
<path fill-rule="evenodd" clip-rule="evenodd" d="M72.576 124.154L84.2648 125.893L86.0093 114.204L74.3148 112.466L72.576 124.154ZM84.6204 126.988L71.9148 125.093C71.6371 125.054 71.4426 124.793 71.4815 124.51L73.376 111.804C73.4148 111.527 73.676 111.332 73.9593 111.371L86.6648 113.266C86.9426 113.304 87.1371 113.566 87.0982 113.849L85.2037 126.554C85.1648 126.832 84.9037 127.027 84.6204 126.988Z" fill="#BDD1F9"/>
<path fill-rule="evenodd" clip-rule="evenodd" d="M77.6995 123.949L77.6606 123.943C77.3884 123.882 77.1773 123.671 77.1273 123.399C76.6773 120.976 75.8217 118.649 74.5828 116.471C74.3995 116.143 74.5162 115.726 74.844 115.538C75.1717 115.354 75.5884 115.471 75.7717 115.799C76.8273 117.649 77.6162 119.604 78.1384 121.632C81.0495 117.765 84.8106 114.482 89.094 112.071C89.4217 111.882 89.8384 111.999 90.0273 112.332C90.2106 112.66 90.094 113.076 89.7662 113.26C85.2051 115.826 81.2662 119.421 78.3662 123.66C78.2162 123.876 77.9551 123.988 77.6995 123.949Z" fill="#FA7267"/>
<path fill-rule="evenodd" clip-rule="evenodd" d="M76.4653 156.098C81.0764 148.421 78.5931 138.46 70.9153 133.848C63.2375 129.232 53.2764 131.721 48.6653 139.398C44.0542 147.076 46.5375 157.037 54.2153 161.648C61.8931 166.26 71.8542 163.776 76.4653 156.098Z" fill="#FF8B85"/>
<path fill-rule="evenodd" clip-rule="evenodd" d="M70.4153 134.677C69.1264 133.905 67.4542 134.321 66.6764 135.61L54.0597 156.621C53.282 157.91 53.6986 159.582 54.9875 160.36C56.2764 161.132 57.9542 160.716 58.7264 159.427L71.3486 138.416C72.1208 137.127 71.7042 135.449 70.4153 134.677Z" fill="#FA7267"/>
<path fill-rule="evenodd" clip-rule="evenodd" d="M66.6424 177.026V173.448C66.6424 173.448 65.5424 173.459 63.7202 173.476C60.1424 171.131 53.7313 169.57 46.4202 169.57C38.9924 169.57 32.498 171.181 28.9535 173.581C27.1757 173.554 26.1035 173.515 26.1035 173.448V177.776C26.1035 182.309 35.198 185.987 46.4202 185.987C57.6368 185.987 66.7313 182.309 66.7313 177.776C66.7313 177.526 66.698 177.276 66.6424 177.026Z" fill="#FA7267"/>
<path fill-rule="evenodd" clip-rule="evenodd" d="M66.7313 173.448C66.7313 177.982 57.6368 181.66 46.4202 181.66C35.198 181.66 26.1035 177.982 26.1035 173.448C26.1035 168.915 35.198 165.237 46.4202 165.237C57.6368 165.237 66.7313 168.915 66.7313 173.448Z" fill="#FF8B85"/>
<path fill-rule="evenodd" clip-rule="evenodd" d="M62.1256 174.737H31.1034C30.0256 174.737 29.1367 173.854 29.1367 172.77C29.1367 171.693 30.0256 170.804 31.1034 170.804H62.1256C63.2089 170.804 64.0923 171.693 64.0923 172.77C64.0923 173.854 63.2089 174.737 62.1256 174.737Z" fill="#FA7267"/>
<path fill-rule="evenodd" clip-rule="evenodd" d="M1.97826 144.176C2.83947 140.071 6.86895 137.44 10.974 138.301L29.3779 142.167C33.4818 143.034 36.1127 147.064 35.2515 151.169C34.3848 155.273 30.3553 157.903 26.2502 157.042L7.85182 153.177C3.74245 152.309 1.11706 148.281 1.97826 144.176Z" fill="#F3F7FF"/>
<path fill-rule="evenodd" clip-rule="evenodd" d="M1.99418 144.099C1.11124 148.2 3.7223 152.242 7.82278 153.125L17.0127 155.101L20.211 140.242L11.0211 138.265C6.91401 137.387 2.87713 139.999 1.99418 144.099Z" fill="#FA7267"/>
</svg>
