<svg width="256" height="247" viewBox="0 0 256 247" fill="none" xmlns="http://www.w3.org/2000/svg">
<ellipse cx="110.801" cy="146.281" rx="105.136" ry="84.1031" transform="rotate(-4 110.801 146.281)" fill="#B8D1FD"/>
<path fill-rule="evenodd" clip-rule="evenodd" d="M247.498 18.2018L157.423 2.31917C152.995 1.53844 148.771 4.49496 147.991 8.92309L140.968 48.75C140.187 53.1781 143.145 57.4012 147.573 58.1819L156.387 59.7362L153.662 75.1939L165.914 61.416L237.648 74.0645C242.075 74.8453 246.299 71.8885 247.08 67.4604L254.103 27.6335C254.883 23.2054 251.926 18.9825 247.498 18.2018Z" fill="#5751E9"/>
<path fill-rule="evenodd" clip-rule="evenodd" d="M172.067 27.7692C172.962 22.6939 169.573 17.854 164.499 16.9594C159.423 16.0643 154.583 19.4533 153.688 24.5285C152.793 29.6038 156.182 34.4437 161.258 35.3387C166.332 36.2333 171.172 32.8444 172.067 27.7692Z" fill="white"/>
<path fill-rule="evenodd" clip-rule="evenodd" d="M211.545 27.7384L183.147 22.731C183.079 22.719 183.032 22.6534 183.045 22.5847L183.425 20.4253C183.437 20.3566 183.504 20.3107 183.572 20.3227L211.97 25.3301C212.038 25.3421 212.084 25.4079 212.072 25.4766L211.692 27.636C211.679 27.7047 211.613 27.7504 211.545 27.7384Z" fill="white"/>
<path fill-rule="evenodd" clip-rule="evenodd" d="M243.163 42.1131L181.641 31.2652C181.573 31.2532 181.527 31.1876 181.539 31.1189L181.919 28.9595C181.932 28.8908 181.998 28.8449 182.066 28.8569L243.587 39.7048C243.657 39.7171 243.702 39.7826 243.69 39.8513L243.309 42.0107C243.297 42.0794 243.233 42.1254 243.163 42.1131Z" fill="white"/>
<path fill-rule="evenodd" clip-rule="evenodd" d="M227.834 46.0328L180.509 37.6881C180.44 37.6761 180.394 37.6103 180.406 37.5416L180.787 35.3822C180.799 35.3135 180.865 35.2678 180.933 35.2798L228.258 43.6245C228.328 43.6369 228.373 43.7021 228.361 43.7708L227.98 45.9302C227.968 45.9989 227.904 46.0452 227.834 46.0328Z" fill="white"/>
<path fill-rule="evenodd" clip-rule="evenodd" d="M169.845 51.9474C170.127 50.3516 169.062 48.8301 167.466 48.5487C165.87 48.2673 164.348 49.3327 164.067 50.9285C163.785 52.5244 164.851 54.0465 166.447 54.3279C168.043 54.6093 169.564 53.5433 169.845 51.9474Z" fill="white"/>
<path fill-rule="evenodd" clip-rule="evenodd" d="M184.383 57.491C185.979 57.7724 187.501 56.7067 187.783 55.1108C188.064 53.5151 186.998 51.9932 185.402 51.7118C183.806 51.4304 182.284 52.4958 182.002 54.0916C181.721 55.6875 182.787 57.2096 184.383 57.491Z" fill="white"/>
<path fill-rule="evenodd" clip-rule="evenodd" d="M200.902 60.4031C202.498 60.6845 204.021 59.6188 204.302 58.0229C204.584 56.4272 203.517 54.9053 201.921 54.6239C200.326 54.3425 198.803 55.4079 198.522 57.0037C198.24 58.5996 199.306 60.1217 200.902 60.4031Z" fill="white"/>
<path fill-rule="evenodd" clip-rule="evenodd" d="M163.48 28.0609C162.843 26.8244 162.347 25.5411 161.971 24.3942C161.818 23.923 162.05 23.4133 162.505 23.2143L163.218 22.9024C163.614 22.7293 163.793 22.2684 163.62 21.8728L162.803 20.0081C162.63 19.6126 162.17 19.4325 161.774 19.6056L159.919 20.417C159.113 20.7706 158.675 21.6486 158.881 22.5063C159.392 24.6402 160.577 28.6262 162.84 31.7009C163.345 32.3884 164.261 32.6369 165.042 32.2944L166.653 31.5891C167.229 31.3366 167.492 30.6643 167.241 30.0874L166.711 28.8795C166.458 28.3024 165.786 28.0396 165.209 28.2922L164.727 28.5028C164.261 28.7075 163.713 28.5142 163.48 28.0609Z" fill="#CECECE"/>
<path fill-rule="evenodd" clip-rule="evenodd" d="M69.7625 211.505C69.1843 217.327 76.3569 235.413 78.0188 235.578C79.6805 235.742 90.2688 219.42 90.8464 213.597C91.4246 207.776 87.1733 202.588 81.3509 202.009C75.5286 201.43 70.3403 205.682 69.7625 211.505Z" fill="#0081F5"/>
<path fill-rule="evenodd" clip-rule="evenodd" d="M125.31 67.6362L45.1597 81.7688C40.6823 82.5582 37.6927 86.8278 38.4822 91.3054L64.2147 237.242C65.0044 241.72 69.274 244.71 73.7514 243.92L153.901 229.788C158.38 228.998 161.369 224.728 160.58 220.25L134.847 74.3136C134.058 69.8361 129.788 66.8465 125.31 67.6362Z" fill="white"/>
<path fill-rule="evenodd" clip-rule="evenodd" d="M46.5464 82.9092C42.1835 83.6785 39.2597 87.8544 40.029 92.2173L65.3564 235.856C66.1258 240.22 70.3012 243.142 74.6641 242.373L152.516 228.645C156.878 227.876 159.802 223.702 159.033 219.338L133.706 75.6996C132.936 71.3367 128.76 68.4126 124.399 69.1817L46.5464 82.9092ZM152.99 231.333L75.1381 245.06C69.2934 246.091 63.6998 242.175 62.6692 236.33L37.3418 92.6911C36.3112 86.8463 40.228 81.2523 46.0726 80.2218L123.925 66.4943C129.77 65.4637 135.363 69.3808 136.393 75.2257L161.721 218.865C162.751 224.709 158.835 230.302 152.99 231.333Z" fill="#21193E"/>
<path fill-rule="evenodd" clip-rule="evenodd" d="M152.834 229.976L74.8665 243.723C69.7739 244.621 64.9174 241.221 64.0193 236.128L63.6758 234.18L160.041 217.188L160.392 219.181C161.286 224.249 157.902 229.082 152.834 229.976Z" fill="#21193E"/>
<path fill-rule="evenodd" clip-rule="evenodd" d="M87.035 207.86C86.161 202.903 81.4331 199.593 76.475 200.467C71.5171 201.341 68.2067 206.069 69.0808 211.026C69.9552 215.985 74.6829 219.295 79.6408 218.421C84.5989 217.547 87.9095 212.819 87.035 207.86Z" fill="#CECECE"/>
<path fill-rule="evenodd" clip-rule="evenodd" d="M147.257 197.241C146.383 192.284 141.656 188.974 136.697 189.848C131.74 190.722 128.429 195.45 129.303 200.407C130.178 205.366 134.906 208.676 139.862 207.802C144.822 206.928 148.132 202.2 147.257 197.241Z" fill="#CECECE"/>
<path fill-rule="evenodd" clip-rule="evenodd" d="M122.753 199.933C121.295 191.665 113.411 186.144 105.144 187.602C96.8762 189.059 91.3557 196.944 92.8136 205.212C94.2714 213.48 102.155 218.999 110.423 217.541C118.69 216.083 124.211 208.2 122.753 199.933Z" fill="#FF2A57"/>
<path fill-rule="evenodd" clip-rule="evenodd" d="M78.8373 202.872L75.1592 203.52C75.042 203.541 74.9641 203.653 74.9847 203.77L76.3358 211.432C76.3567 211.551 76.468 211.628 76.5851 211.607L80.2632 210.958C80.3803 210.938 80.4586 210.828 80.4377 210.709L79.0866 203.046C79.066 202.93 78.9544 202.851 78.8373 202.872Z" fill="#282877"/>
<path fill-rule="evenodd" clip-rule="evenodd" d="M78.6089 212.326C76.9645 212.616 75.3907 211.513 75.1011 209.87L74.7572 207.92C74.7284 207.756 74.8368 207.601 74.9995 207.572C75.1623 207.543 75.3177 207.652 75.3466 207.816L75.6904 209.766C75.9231 211.086 77.1856 211.969 78.5049 211.736C79.8243 211.504 80.7086 210.242 80.4759 208.922L80.132 206.972C80.1032 206.809 80.212 206.653 80.3747 206.624C80.5374 206.596 80.6927 206.705 80.7216 206.868L81.0654 208.818C81.3551 210.461 80.2533 212.036 78.6089 212.326Z" fill="#282877"/>
<path fill-rule="evenodd" clip-rule="evenodd" d="M79.1721 215.516C79.0093 215.544 78.8541 215.435 78.8252 215.272L78.2631 212.084C78.2343 211.92 78.3429 211.765 78.5056 211.736C78.6683 211.707 78.8238 211.816 78.8526 211.98L79.4147 215.168C79.4436 215.331 79.3348 215.487 79.1721 215.516Z" fill="#282877"/>
<path fill-rule="evenodd" clip-rule="evenodd" d="M81.2524 215.329L77.1503 216.052C76.9875 216.081 76.8326 215.974 76.8038 215.81C76.7753 215.649 76.8839 215.493 77.0466 215.465L81.1487 214.741C81.3115 214.713 81.4667 214.822 81.4952 214.983C81.5241 215.147 81.4151 215.3 81.2524 215.329Z" fill="#282877"/>
<path fill-rule="evenodd" clip-rule="evenodd" d="M110.098 204.938C108.368 203.336 106.834 201.58 105.57 199.971C105.05 199.31 105.126 198.363 105.734 197.782L106.688 196.871C107.218 196.367 107.238 195.528 106.733 194.999L104.352 192.501C103.847 191.972 103.008 191.952 102.479 192.458L99.9959 194.825C98.9143 195.856 98.7265 197.509 99.5509 198.756C101.602 201.858 105.802 207.521 111.189 211.107C112.393 211.908 113.992 211.774 115.039 210.775L117.197 208.719C117.969 207.981 117.998 206.757 117.262 205.986L115.719 204.368C114.982 203.595 113.759 203.566 112.986 204.304L112.341 204.917C111.716 205.515 110.732 205.524 110.098 204.938Z" fill="white"/>
<path fill-rule="evenodd" clip-rule="evenodd" d="M136.436 199.362C137.745 199.036 139.069 198.853 140.236 198.754C140.716 198.713 141.146 199.047 141.234 199.521L141.369 200.264C141.446 200.676 141.841 200.949 142.253 200.873L144.197 200.518C144.609 200.441 144.882 200.046 144.806 199.634L144.453 197.701C144.299 196.859 143.567 196.25 142.709 196.253C140.579 196.261 136.548 196.494 133.137 197.947C132.375 198.272 131.937 199.081 132.086 199.896L132.394 201.575C132.504 202.178 133.081 202.576 133.683 202.466L134.942 202.234C135.544 202.124 135.942 201.548 135.832 200.945L135.74 200.444C135.65 199.956 135.955 199.482 136.436 199.362Z" fill="#282877"/>
<mask id="mask0" mask-type="alpha" maskUnits="userSpaceOnUse" x="43" y="75" width="105" height="115">
<path fill-rule="evenodd" clip-rule="evenodd" d="M43.0117 91.2236L130.091 75.8691L147.429 174.195L60.3493 189.55L43.0117 91.2236Z" fill="white"/>
</mask>
<g mask="url(#mask0)">
<path fill-rule="evenodd" clip-rule="evenodd" d="M60.3493 189.55L147.429 174.195L130.091 75.8691L43.0117 91.2236L60.3493 189.55Z" fill="#0081F5"/>
<path fill-rule="evenodd" clip-rule="evenodd" d="M105.917 145.481C105.917 145.481 131.193 148.813 135.659 152.996C140.123 157.179 148.634 181.024 148.634 181.024L58.449 193.706C58.449 193.706 64.9746 166.453 70.9862 159.678C76.9977 152.903 91.4955 147.986 91.4955 147.986L105.917 145.481Z" fill="#FFC700"/>
</g>
<path fill-rule="evenodd" clip-rule="evenodd" d="M120.752 165.226C120.752 165.226 116.075 156.821 114.811 153.948C113.547 151.074 110.188 149.229 111.511 147.978C112.833 146.727 117.252 150.844 117.252 150.844C117.252 150.844 117.624 144.468 117.441 142.491C117.257 140.514 117.828 136.897 119.264 136.649C120.7 136.402 120.917 145.96 120.917 145.96C120.917 145.96 121.525 137.895 122.801 137.384C124.078 136.873 124.812 147.249 124.812 147.249C124.812 147.249 125.04 138.614 125.65 137.953C126.257 137.292 127.129 138.044 127.79 141.121C128.452 144.198 128.334 147.51 128.334 147.51C128.334 147.51 128.95 141.455 129.276 140.754C129.604 140.054 130.566 139.327 131.064 143.988C131.563 148.649 130.995 158.901 128.633 163.909L120.752 165.226Z" fill="#FFAEAD"/>
<path fill-rule="evenodd" clip-rule="evenodd" d="M75.6856 122.18C75.6856 122.18 73.9778 120.372 73.0528 121.388C70.6942 123.981 73.8924 126.234 75.8146 126.525L75.6856 122.18Z" fill="#FF9397"/>
<path fill-rule="evenodd" clip-rule="evenodd" d="M73.7743 114.75L73.7912 114.751C73.746 114.538 73.7006 114.325 73.6631 114.108C72.0042 104.536 78.7469 95.4497 88.5674 94.4062C96.749 93.5365 104.483 98.8267 106.631 106.769C107.429 109.717 107.398 112.655 106.709 115.37C105.841 119.534 105.061 123.102 104.103 126.123C102.518 131.117 102.675 136.503 104.418 141.444L105.789 145.332C96.4968 152.555 90.9494 148.296 90.9494 148.296L89.4878 140.979C89.2971 140.023 88.4064 139.383 87.438 139.487C87.4321 139.488 87.426 139.488 87.42 139.489C74.5832 140.861 74.7655 120.469 73.7743 114.75Z" fill="#FFAEAD"/>
<path fill-rule="evenodd" clip-rule="evenodd" d="M93.1921 120.425C93.0471 119.587 93.6081 118.791 94.4452 118.646C95.2824 118.501 96.0786 119.062 96.2238 119.899C96.3688 120.736 95.8079 121.533 94.9705 121.678C94.1336 121.823 93.3371 121.262 93.1921 120.425Z" fill="#21193E"/>
<path fill-rule="evenodd" clip-rule="evenodd" d="M77.989 120.828C77.8438 119.991 78.4048 119.195 79.2419 119.05C80.0791 118.905 80.8756 119.466 81.0206 120.303C81.1655 121.14 80.6046 121.936 79.7673 122.081C78.9301 122.226 78.1338 121.665 77.989 120.828Z" fill="#21193E"/>
<path fill-rule="evenodd" clip-rule="evenodd" d="M97.7269 117.065C97.8883 117.06 98.0504 117.012 98.196 116.918C98.6237 116.642 98.7466 116.071 98.4703 115.643C97.6373 114.354 95.1496 112.41 91.686 114.285C91.2384 114.528 91.0721 115.088 91.3145 115.536C91.5572 115.984 92.1174 116.149 92.5648 115.907C95.4082 114.365 96.8608 116.55 96.9211 116.644C97.1033 116.926 97.4136 117.075 97.7269 117.065Z" fill="#21193E"/>
<path fill-rule="evenodd" clip-rule="evenodd" d="M82.1152 116.189C82.2637 116.126 82.3974 116.023 82.4991 115.882C82.7972 115.47 82.7048 114.893 82.2921 114.594C81.0481 113.695 78.0235 112.787 75.4776 115.791C75.1486 116.18 75.1966 116.762 75.585 117.091C75.9742 117.42 76.5557 117.372 76.8851 116.984C78.975 114.516 81.1211 116.023 81.2115 116.089C81.4838 116.286 81.8271 116.313 82.1152 116.189Z" fill="#21193E"/>
<path fill-rule="evenodd" clip-rule="evenodd" d="M108.612 109.491L106.103 121.277L102.969 121.196L98.6328 106.974L108.612 109.491Z" fill="#21193E"/>
<path fill-rule="evenodd" clip-rule="evenodd" d="M102.437 120.918C102.613 120.333 103.011 119.841 103.531 119.519C104.601 118.855 106.541 117.997 108.177 119.15C110.578 120.842 107.402 126.979 102.866 124.988C102.866 124.988 101.503 124.027 102.437 120.918Z" fill="#FFAEAD"/>
<path fill-rule="evenodd" clip-rule="evenodd" d="M85.4551 127.516C87.0702 127.986 88.2552 126.954 88.269 126.941C88.3818 126.841 88.3914 126.669 88.291 126.556C88.1913 126.444 88.0179 126.433 87.9052 126.533C87.8499 126.581 86.5265 127.712 84.8148 126.624C84.5357 126.447 84.3795 126.29 84.3513 126.16C84.3114 125.976 84.4913 125.699 84.7404 125.315C85.3136 124.433 86.2735 122.956 86.1442 120.017C86.1372 119.865 86.0092 119.748 85.8585 119.755C85.7078 119.762 85.5904 119.89 85.5972 120.041C85.7189 122.805 84.8539 124.136 84.2814 125.017C83.9718 125.493 83.7279 125.869 83.8164 126.276C83.8794 126.566 84.0968 126.816 84.521 127.086C84.8439 127.291 85.1568 127.429 85.4551 127.516Z" fill="#FF9397"/>
<path fill-rule="evenodd" clip-rule="evenodd" d="M75.3308 107.818C75.3308 107.818 73.2292 109.914 74.3932 120.126C74.3932 120.126 71.6263 108.997 72.6647 107.539C73.7032 106.08 75.3308 107.818 75.3308 107.818Z" fill="#21193E"/>
<path fill-rule="evenodd" clip-rule="evenodd" d="M110.009 110.604C110.359 109.797 110.053 108.761 109.321 108.273C110.238 107.329 109.983 105.535 108.839 104.885C108.561 104.727 108.249 104.631 107.987 104.448C107.571 104.157 107.327 103.681 107.13 103.214C106.714 102.23 106.424 101.193 106.269 100.136C106.173 99.4788 106.106 98.761 105.652 98.2762C105.039 97.6233 103.951 97.6423 103.303 97.025C102.528 96.2871 102.569 94.8249 101.592 94.3875C101.077 94.157 100.48 94.3245 99.9172 94.2885C98.145 94.1754 96.937 92.0977 95.1612 92.0817C94.5971 92.0764 94.0565 92.2881 93.502 92.3911C91.8518 92.6975 90.197 92.0383 88.5431 91.752C86.8894 91.4658 84.8629 91.7384 84.0737 93.2195C83.9275 93.494 83.8285 93.8032 83.6076 94.0219C83.2999 94.3268 82.8302 94.3852 82.3974 94.4053C81.2433 94.4583 80.0728 94.3575 78.9422 94.5963C77.8119 94.8354 76.6813 95.5057 76.2983 96.5955C76.1738 96.9498 76.1298 97.3398 75.9202 97.6513C75.6774 98.0122 75.2555 98.2038 74.8479 98.3555C73.2157 98.9636 71.1441 99.5294 70.7836 101.234C70.5106 102.524 71.4156 104.012 70.688 105.112C70.4212 105.515 69.9775 105.771 69.6894 106.16C68.9402 107.169 69.5785 108.737 70.6889 109.326C71.7994 109.915 73.1568 109.759 74.3639 109.409C75.5711 109.059 76.7392 108.528 77.9897 108.401C78.3268 108.367 78.7135 108.382 78.9391 108.635C79.0954 108.81 79.1337 109.056 79.2027 109.281C79.5028 110.255 80.4721 110.908 81.4726 111.105C82.473 111.302 83.5067 111.119 84.5009 110.893C86.2495 110.495 87.9671 109.962 89.6338 109.3C90.9209 108.789 92.2268 108.191 93.6118 108.205C94.5826 108.215 95.521 108.527 96.4539 108.797C97.9583 109.232 99.4901 109.564 101.021 109.895C101.461 109.99 101.9 110.085 102.341 110.18C104.079 110.556 109.03 112.868 110.009 110.604Z" fill="#21193E"/>
<mask id="mask1" mask-type="alpha" maskUnits="userSpaceOnUse" x="81" y="121" width="63" height="64">
<path fill-rule="evenodd" clip-rule="evenodd" d="M81.6309 130.532L133.72 121.347L143.171 174.946L91.0818 184.131L81.6309 130.532Z" fill="white"/>
</mask>
<g mask="url(#mask1)">
<path fill-rule="evenodd" clip-rule="evenodd" d="M81.6309 130.532L91.5139 129.993C91.5139 129.993 87.6121 140.328 81.6309 130.532Z" fill="white"/>
<path fill-rule="evenodd" clip-rule="evenodd" d="M130.727 163.557L118.838 165.653L120.895 187.654L144.164 180.571L130.727 163.557Z" fill="#FFA300"/>
</g>
</svg>
