<svg width="550" height="85" viewBox="0 0 550 85" fill="none" xmlns="http://www.w3.org/2000/svg">
<ellipse opacity="0.386696" rx="437.5" ry="499" transform="matrix(-1 0 0 1 437.5 516)" fill="#DAE8FE"/>
<path fill-rule="evenodd" clip-rule="evenodd" d="M468.701 135.32C468.735 135.303 468.767 135.283 468.798 135.259C469.045 135.068 469.089 134.712 468.897 134.466C418.755 70.0407 378.886 26.2858 356.633 11.2608C356.139 10.9267 355.782 10.6863 355.63 10.5528C355.394 10.3468 355.037 10.3719 354.831 10.6064C354.625 10.8418 354.65 11.1992 354.885 11.4051C355.09 11.5842 355.432 11.8152 355.999 12.198C378.156 27.1586 417.933 70.8274 468.003 135.16C468.172 135.376 468.465 135.437 468.701 135.32Z" fill="#0B0755"/>
<mask id="mask0" mask-type="alpha" maskUnits="userSpaceOnUse" x="343" y="0" width="16" height="13">
<path fill-rule="evenodd" clip-rule="evenodd" d="M343 0.380859H358.329V12.7855H343V0.380859Z" fill="white"/>
</mask>
<g mask="url(#mask0)">
<path fill-rule="evenodd" clip-rule="evenodd" d="M345.487 10.6691C347.994 12.3281 357.843 13.2708 358.3 12.5292C358.757 11.7872 353.793 2.91935 351.286 1.25943C348.78 -0.400044 345.449 0.360343 343.848 2.9584C342.247 5.55647 342.98 9.00873 345.487 10.6691Z" fill="#0B0755"/>
</g>
<path fill-rule="evenodd" clip-rule="evenodd" d="M365.104 11.3853C365.353 14.5435 371.004 23.5011 371.923 23.4308C372.843 23.3604 377.017 13.6565 376.768 10.4987C376.518 7.34053 373.704 4.98012 370.483 5.22441C367.262 5.46915 364.854 8.22755 365.104 11.3853Z" fill="#0B0755"/>
<path fill-rule="evenodd" clip-rule="evenodd" d="M360.51 32.2715C363.394 31.3025 370.534 23.7325 370.275 22.8522C370.016 21.9715 360.111 20.1319 357.227 21.1023C354.343 22.0709 352.739 25.3576 353.646 28.4423C354.552 31.5266 357.625 33.2415 360.51 32.2715Z" fill="#0B0755"/>
<path fill-rule="evenodd" clip-rule="evenodd" d="M407.96 50.7732C407.795 55.9649 415.513 71.5495 417.048 71.5948C418.584 71.6402 427.275 56.5405 427.44 51.3488C427.604 46.1566 423.377 41.8187 417.998 41.6598C412.618 41.5008 408.124 45.581 407.96 50.7732Z" fill="#0B0755"/>
<path fill-rule="evenodd" clip-rule="evenodd" d="M398.538 84.4218C403.687 83.3663 417.34 72.1662 417.048 70.6532C416.755 69.141 399.974 64.1768 394.824 65.2318C389.675 66.2863 386.331 71.4374 387.357 76.737C388.382 82.0361 393.388 85.4763 398.538 84.4218Z" fill="#0B0755"/>
<path fill-rule="evenodd" clip-rule="evenodd" d="M427.774 63.4491C426.158 69.7051 430.935 90.6494 432.723 91.1104C434.511 91.571 448.84 75.5493 450.456 69.2942C452.072 63.0387 448.305 56.6597 442.041 55.0458C435.778 53.4315 429.39 57.1936 427.774 63.4491Z" fill="#0B0755"/>
<path fill-rule="evenodd" clip-rule="evenodd" d="M412.822 108.819C419.037 106.91 434.474 91.8417 433.926 90.0777C433.378 88.3134 412.085 84.5283 405.87 86.4378C399.654 88.3465 396.172 94.9048 398.092 101.085C400.013 107.266 406.607 110.729 412.822 108.819Z" fill="#0B0755"/>
<path fill-rule="evenodd" clip-rule="evenodd" d="M444.663 84.2775C443.047 90.5325 447.824 111.478 449.612 111.939C451.4 112.399 465.728 96.3771 467.344 90.1221C468.96 83.8666 465.193 77.4876 458.93 75.8738C452.666 74.2599 446.279 78.022 444.663 84.2775Z" fill="#0B0755"/>
<path fill-rule="evenodd" clip-rule="evenodd" d="M378.094 23.1004C378.344 26.2581 383.994 35.2161 384.914 35.1456C385.833 35.0764 390.008 25.3713 389.758 22.2136C389.508 19.0558 386.694 16.6944 383.474 16.9393C380.253 17.1842 377.844 19.9426 378.094 23.1004Z" fill="#0B0755"/>
<path fill-rule="evenodd" clip-rule="evenodd" d="M375.348 43.9875C378.454 43.0175 386.143 35.449 385.864 34.5682C385.586 33.6879 374.919 31.8479 371.813 32.8179C368.707 33.787 366.98 37.0734 367.956 40.1582C368.933 43.2421 372.242 44.9571 375.348 43.9875Z" fill="#0B0755"/>
<path fill-rule="evenodd" clip-rule="evenodd" d="M392.367 34.1721C392.345 38.6875 399.393 52.0629 400.724 52.0687C402.056 52.0749 409.234 38.7641 409.256 34.2487C409.278 29.7332 405.515 26.0556 400.852 26.0343C396.188 26.0129 392.389 29.6558 392.367 34.1721Z" fill="#0B0755"/>
<path fill-rule="evenodd" clip-rule="evenodd" d="M385.88 64.6942C390.095 63.2941 400.53 52.3607 400.152 51.0885C399.774 49.8168 385.298 47.1597 381.082 48.5599C376.867 49.9605 374.524 54.7075 375.849 59.1626C377.173 63.6178 381.665 66.0944 385.88 64.6942Z" fill="#0B0755"/>
<mask id="mask1" mask-type="alpha" maskUnits="userSpaceOnUse" x="394" y="6" width="116" height="104">
<path fill-rule="evenodd" clip-rule="evenodd" d="M394.984 48.5205L478.414 6.01095L509.679 67.3721L426.249 109.882L394.984 48.5205Z" fill="white"/>
</mask>
<g mask="url(#mask1)">
<path fill-rule="evenodd" clip-rule="evenodd" d="M422.075 101.173C422.075 101.173 386.411 52.225 478.416 6.01486C478.416 6.01486 488.006 112.959 422.075 101.173Z" fill="#91B5F8"/>
</g>
<path fill-rule="evenodd" clip-rule="evenodd" d="M478.508 5.90606L421.692 100.938C421.692 100.938 482.929 121.579 478.508 5.90606Z" fill="#7C9AF2"/>
<path fill-rule="evenodd" clip-rule="evenodd" d="M469.749 38.0896C469.738 38.0995 469.726 38.1086 469.714 38.1173L448.534 52.3823C448.373 52.4904 448.147 52.4247 448.028 52.2356C447.909 52.0462 447.946 51.8062 448.103 51.6975L469.283 37.4325C469.443 37.3244 469.67 37.3905 469.789 37.5792C469.898 37.7535 469.878 37.9721 469.749 38.0896Z" fill="#91B5F8"/>
<path fill-rule="evenodd" clip-rule="evenodd" d="M458.23 75.1695C458.211 75.1892 458.19 75.2063 458.165 75.2191L427.574 91.0626C427.4 91.154 427.148 91.0138 427.013 90.7503C426.878 90.4875 426.908 90.2003 427.085 90.1096L457.675 74.2645C457.85 74.1743 458.102 74.3149 458.237 74.5777C458.353 74.8037 458.345 75.0476 458.23 75.1695Z" fill="#91B5F8"/>
</svg>
