<svg width="211" height="204" viewBox="0 0 211 204" fill="none" xmlns="http://www.w3.org/2000/svg">
<rect x="-753" y="-2078" width="1290" height="2762" rx="20" fill="#F8F8F8"/>
<mask id="mask0" mask-type="alpha" maskUnits="userSpaceOnUse" x="-753" y="-2078" width="1290" height="2762">
<rect x="-753" y="-2078" width="1290" height="2762" rx="20" fill="white"/>
</mask>
<g mask="url(#mask0)">
</g>
<ellipse cx="105.414" cy="108.32" rx="106.818" ry="94" transform="rotate(18 105.414 108.32)" fill="#B8D1FD"/>
<path fill-rule="evenodd" clip-rule="evenodd" d="M23.2793 55.1516L106.701 8.69141L197.36 55.1516C197.36 55.1516 195.301 60.2684 192.734 60.2684C190.167 60.2684 159.085 62.2236 151.896 62.2236C144.707 62.2236 27.065 58.4049 27.065 58.4049L23.2793 55.1516Z" fill="#BCC8EC"/>
<path fill-rule="evenodd" clip-rule="evenodd" d="M30.4384 55.1517L107.5 14.2906L182.368 55.1517H30.4384ZM110.148 3.41315L104.981 3.38184L9.875 53.8134V65.9559H203.561L203.576 65.9002V54.3989L110.148 3.41315Z" fill="white"/>
<path fill-rule="evenodd" clip-rule="evenodd" d="M27.0664 160.544H192.736V66.9053H27.0664V160.544Z" fill="#BCC8EC"/>
<path fill-rule="evenodd" clip-rule="evenodd" d="M9.87305 72.2799H203.575V65.7822H9.87305V72.2799Z" fill="#9AB3F4"/>
<path fill-rule="evenodd" clip-rule="evenodd" d="M17.8789 160.544H28.6796V65.7822H17.8789V160.544Z" fill="white"/>
<path fill-rule="evenodd" clip-rule="evenodd" d="M73.2461 160.544H84.0472V65.7822H73.2461V160.544Z" fill="white"/>
<path fill-rule="evenodd" clip-rule="evenodd" d="M130.629 160.544H141.43V65.7822H130.629V160.544Z" fill="white"/>
<path fill-rule="evenodd" clip-rule="evenodd" d="M184.768 160.544H195.569V65.7822H184.768V160.544Z" fill="white"/>
<path fill-rule="evenodd" clip-rule="evenodd" d="M92.5566 160.272H122.289V113.163H92.5566V160.272Z" fill="#9AB3F4"/>
<path fill-rule="evenodd" clip-rule="evenodd" d="M94.5391 160.272H120.369V114.826H94.5391V160.272Z" fill="#DEE5FC"/>
<path fill-rule="evenodd" clip-rule="evenodd" d="M106.701 163.249H108.208V113.724H106.701V163.249Z" fill="#9AB3F4"/>
<path fill-rule="evenodd" clip-rule="evenodd" d="M92.5566 124.788H122.289V123.278H92.5566V124.788Z" fill="#9AB3F4"/>
<path fill-rule="evenodd" clip-rule="evenodd" d="M92.5566 138.038H122.289V136.53H92.5566V138.038Z" fill="#9AB3F4"/>
<path fill-rule="evenodd" clip-rule="evenodd" d="M92.5566 151.289H122.289V149.781H92.5566V151.289Z" fill="#9AB3F4"/>
<path fill-rule="evenodd" clip-rule="evenodd" d="M6.82422 178.129H206.625V160.271H6.82422V178.129Z" fill="#9AB3F4"/>
<path fill-rule="evenodd" clip-rule="evenodd" d="M95.836 136.504C95.836 136.504 94.8311 136.7 94.483 136.851C94.1364 137.003 93.6864 136.89 93.7016 137.109C93.7168 137.329 94.445 137.326 94.445 137.326C94.445 137.326 93.957 137.922 93.7776 138.082C93.5998 138.243 93.355 138.609 93.4614 138.749C93.5678 138.889 94.3705 138.059 94.3705 138.059C94.3705 138.059 93.764 138.824 93.8354 138.974C93.9069 139.123 94.822 138.264 94.822 138.264C94.822 138.264 94.1349 139.049 94.1349 139.157C94.1334 139.266 94.2732 139.271 94.5833 139.052C94.8935 138.833 95.155 138.529 95.155 138.529C95.155 138.529 94.7141 139.117 94.6852 139.205C94.6563 139.295 94.6822 139.438 95.1078 139.065C95.535 138.693 96.324 137.737 96.5247 137.1L95.836 136.504Z" fill="#FB9391"/>
<path fill-rule="evenodd" clip-rule="evenodd" d="M100.756 156.516C100.756 156.516 100.695 158.725 100.677 158.755C100.659 158.787 100.825 159.07 100.825 159.07L101.516 159.225L102.162 158.959C102.162 158.959 102.194 156.905 102.275 156.585C102.354 156.264 100.756 156.516 100.756 156.516Z" fill="#FB9391"/>
<path fill-rule="evenodd" clip-rule="evenodd" d="M102.164 158.959C102.164 158.959 101.35 159.207 100.684 158.713C100.684 158.713 97.9708 159.601 98.0194 160.367C98.0194 160.367 97.8963 160.589 99.0562 160.589C100.215 160.589 102.016 160.613 102.066 160.589C102.115 160.563 102.337 160.695 102.164 158.959Z" fill="#0B0755"/>
<path fill-rule="evenodd" clip-rule="evenodd" d="M112.809 154.541C112.809 154.541 114.2 156.257 114.206 156.292C114.212 156.329 114.522 156.435 114.522 156.435L115.147 156.102L115.466 155.479C115.466 155.479 114.152 153.9 114.005 153.605C113.858 153.308 112.809 154.541 112.809 154.541Z" fill="#FB9391"/>
<path fill-rule="evenodd" clip-rule="evenodd" d="M115.464 155.479C115.464 155.479 115.007 156.197 114.18 156.256C114.18 156.256 112.698 158.698 113.234 159.247C113.234 159.247 113.284 159.496 114.165 158.74C115.045 157.985 116.428 156.831 116.45 156.781C116.471 156.729 116.725 156.685 115.464 155.479Z" fill="#0B0755"/>
<path fill-rule="evenodd" clip-rule="evenodd" d="M101.176 140.008C101.176 140.008 99.3515 146.671 99.2527 147.954C99.1539 149.238 99.9429 156.837 99.9429 156.837C99.9429 156.837 100.584 157.085 101.176 157.184C101.769 157.281 102.567 157.184 102.567 157.184C102.567 157.184 103.052 149.681 103.151 148.941C103.248 148.201 104.531 144.005 105.074 143.809C105.616 143.611 106.653 148.743 107.961 150.668C109.268 152.593 112.623 155.505 112.623 155.505C112.623 155.505 114.646 154.073 114.646 153.68C114.646 153.284 112.684 152.144 111.421 148.617C110.156 145.092 110.452 140.255 110.452 140.255L103.643 139.07L101.176 140.008Z" fill="#FA7267"/>
<path fill-rule="evenodd" clip-rule="evenodd" d="M105.424 125.436C105.424 125.436 104.15 126.004 103.632 125.966C103.114 125.93 101.671 126.448 99.7842 129.853C97.8961 133.259 95.1582 136.109 95.1582 136.109L96.4154 137.737C96.4154 137.737 99.9317 136.48 101.56 134.37C101.56 134.37 101.005 139.358 100.45 140.843C100.45 140.843 101.856 141.402 103.41 141.81C104.964 142.217 108.924 141.81 108.924 141.81L109.404 140.843L110.015 141.772L111.422 141.457V136.702C111.422 136.702 115.287 134.999 113.364 131.076C111.44 127.152 108.459 125.436 105.424 125.436Z" fill="#2F3DBC"/>
<path fill-rule="evenodd" clip-rule="evenodd" d="M105.276 132.585C105.276 132.585 104.595 131.819 104.288 131.597C103.98 131.375 103.848 130.932 103.666 131.057C103.485 131.182 103.86 131.806 103.86 131.806C103.86 131.806 103.097 131.689 102.869 131.618C102.64 131.546 102.199 131.522 102.133 131.685C102.068 131.849 103.19 132.116 103.19 132.116C103.19 132.116 102.223 131.984 102.13 132.121C102.038 132.259 103.245 132.609 103.245 132.609C103.245 132.609 102.22 132.417 102.126 132.472C102.033 132.527 102.1 132.649 102.445 132.805C102.792 132.96 103.185 133.03 103.185 133.03C103.185 133.03 102.456 132.95 102.364 132.971C102.273 132.992 102.164 133.088 102.702 133.264C103.239 133.441 104.462 133.632 105.115 133.48L105.276 132.585Z" fill="#FB9391"/>
<path fill-rule="evenodd" clip-rule="evenodd" d="M110.606 136.816C111.112 136.816 111.422 136.744 111.431 136.741L111.412 136.661C111.378 136.668 107.953 137.453 105.121 133.635L105.334 132.559C105.633 132.48 108.573 131.734 111.212 132.115L111.225 132.033C108.437 131.629 105.317 132.477 105.287 132.486L105.262 132.492L105.256 132.518L105.031 133.655L105.042 133.67C107.067 136.407 109.396 136.816 110.606 136.816Z" fill="#060633"/>
<path fill-rule="evenodd" clip-rule="evenodd" d="M109.218 131.979L109.297 131.951C108.747 130.34 108.006 128.995 107.999 128.982L107.926 129.022C107.933 129.036 108.671 130.373 109.218 131.979Z" fill="#060633"/>
<path fill-rule="evenodd" clip-rule="evenodd" d="M101.932 122.814C101.932 122.814 101.732 122.596 101.619 122.716C101.332 123.021 101.71 123.298 101.94 123.336L101.932 122.814Z" fill="#EA6868"/>
<path fill-rule="evenodd" clip-rule="evenodd" d="M101.719 121.92H101.72C101.716 121.895 101.711 121.869 101.707 121.843C101.526 120.694 102.351 119.617 103.529 119.511C104.511 119.423 105.428 120.072 105.67 121.027C105.759 121.382 105.75 121.733 105.662 122.057C105.551 122.556 105.451 122.982 105.329 123.342C105.13 123.936 105.139 124.582 105.338 125.178L105.495 125.647C104.368 126.495 103.712 125.973 103.712 125.973L103.551 125.093C103.529 124.979 103.424 124.9 103.307 124.911H103.306C101.766 125.051 101.827 122.608 101.719 121.92Z" fill="#FB9391"/>
<path fill-rule="evenodd" clip-rule="evenodd" d="M102.233 122.582C102.219 122.501 102.275 122.425 102.354 122.413C102.435 122.401 102.511 122.455 102.523 122.536C102.537 122.617 102.48 122.691 102.4 122.703C102.321 122.717 102.245 122.662 102.233 122.582Z" fill="#060633"/>
<path fill-rule="evenodd" clip-rule="evenodd" d="M104.035 122.671C104.023 122.591 104.077 122.515 104.158 122.503C104.239 122.491 104.313 122.545 104.325 122.626C104.339 122.706 104.284 122.781 104.204 122.795C104.123 122.807 104.047 122.752 104.035 122.671Z" fill="#060633"/>
<path fill-rule="evenodd" clip-rule="evenodd" d="M104.565 122.252C104.584 122.249 104.603 122.241 104.619 122.227C104.665 122.189 104.671 122.119 104.633 122.072C104.514 121.931 104.191 121.736 103.806 122.01C103.756 122.045 103.745 122.115 103.78 122.163C103.815 122.214 103.885 122.226 103.934 122.191C104.25 121.964 104.455 122.203 104.463 122.214C104.489 122.244 104.528 122.258 104.565 122.252Z" fill="#060633"/>
<path fill-rule="evenodd" clip-rule="evenodd" d="M102.774 122.235C102.793 122.232 102.812 122.224 102.828 122.211C102.874 122.171 102.882 122.101 102.842 122.056C102.723 121.914 102.4 121.72 102.015 121.993C101.965 122.028 101.954 122.098 101.989 122.147C102.024 122.197 102.094 122.209 102.144 122.173C102.459 121.948 102.664 122.186 102.672 122.197C102.698 122.227 102.737 122.241 102.774 122.235Z" fill="#060633"/>
<path fill-rule="evenodd" clip-rule="evenodd" d="M102.987 124.045C103.384 124.169 103.785 123.861 103.79 123.857C103.804 123.846 103.807 123.825 103.796 123.811C103.784 123.798 103.764 123.795 103.749 123.805C103.726 123.823 103.17 124.249 102.752 123.822C102.739 123.81 102.718 123.81 102.704 123.822C102.692 123.834 102.692 123.855 102.704 123.869C102.794 123.96 102.891 124.017 102.987 124.045Z" fill="#060633"/>
<path fill-rule="evenodd" clip-rule="evenodd" d="M105.693 119.815C105.632 119.709 105.565 119.604 105.479 119.517C105.263 119.304 104.945 119.231 104.643 119.225C104.34 119.219 104.039 119.269 103.736 119.26C103.429 119.251 103.118 119.181 102.821 119.259C102.756 119.276 102.692 119.3 102.64 119.344C102.589 119.39 102.554 119.45 102.511 119.504C102.332 119.727 102.02 119.783 101.737 119.826C101.573 119.85 101.411 119.874 101.246 119.899C101.106 119.919 100.958 119.944 100.856 120.043C100.742 120.153 100.719 120.323 100.691 120.48C100.664 120.635 100.612 120.806 100.474 120.882C100.427 120.908 100.366 120.923 100.343 120.974C100.333 120.996 100.333 121.024 100.336 121.051C100.359 121.275 100.577 121.459 100.802 121.443C100.859 121.44 100.915 121.425 100.97 121.433C101.17 121.46 101.231 121.731 101.401 121.84C101.508 121.906 101.645 121.902 101.763 121.866C101.883 121.829 101.991 121.766 102.104 121.712C102.239 121.65 102.382 121.606 102.529 121.582C102.633 121.563 102.742 121.556 102.843 121.591C102.894 121.608 102.943 121.636 102.995 121.655C103.177 121.719 103.379 121.647 103.54 121.542C103.701 121.437 103.841 121.299 104.01 121.206C104.179 121.113 104.396 121.074 104.559 121.176C104.653 121.235 104.715 121.331 104.799 121.404C105.02 121.594 105.343 121.588 105.635 121.57C105.695 121.565 105.76 121.56 105.807 121.522C105.84 121.497 105.86 121.456 105.877 121.418C106.093 120.917 105.95 120.267 105.693 119.815Z" fill="#060633"/>
<path fill-rule="evenodd" clip-rule="evenodd" d="M105.901 121.357L105.577 122.765L105.202 122.749L104.709 121.036L105.901 121.357Z" fill="#240D39"/>
<path fill-rule="evenodd" clip-rule="evenodd" d="M105.139 122.714C105.161 122.646 105.209 122.586 105.273 122.548C105.402 122.472 105.636 122.372 105.829 122.514C106.114 122.722 105.721 123.45 105.182 123.204C105.182 123.204 105.021 123.085 105.139 122.714Z" fill="#FB9391"/>
<path fill-rule="evenodd" clip-rule="evenodd" d="M103.092 123.473C103.285 123.532 103.429 123.41 103.431 123.409C103.444 123.398 103.446 123.377 103.434 123.363C103.422 123.35 103.402 123.348 103.388 123.36C103.381 123.365 103.221 123.499 103.017 123.365C102.984 123.344 102.966 123.324 102.962 123.309C102.958 123.286 102.981 123.254 103.011 123.208C103.081 123.103 103.2 122.929 103.189 122.576C103.189 122.558 103.174 122.544 103.156 122.544C103.137 122.544 103.124 122.559 103.124 122.577C103.133 122.909 103.026 123.067 102.956 123.172C102.918 123.228 102.888 123.272 102.899 123.321C102.905 123.356 102.931 123.386 102.981 123.42C103.019 123.445 103.057 123.462 103.092 123.473Z" fill="#EA6868"/>
<path fill-rule="evenodd" clip-rule="evenodd" d="M103.729 49.5966H110.832V26.9453H103.729V49.5966Z" fill="#FA7267"/>
<path fill-rule="evenodd" clip-rule="evenodd" d="M95.957 41.8234H118.608V34.7197H95.957V41.8234Z" fill="#FA7267"/>
<path fill-rule="evenodd" clip-rule="evenodd" d="M131.004 149.221L133.676 149.639C133.676 149.639 132.719 150.337 131.995 150.265C131.271 150.192 131.004 149.221 131.004 149.221Z" fill="#FAFAFC"/>
</svg>
