<svg width="44" height="46" viewBox="0 0 44 46" fill="none" xmlns="http://www.w3.org/2000/svg">
<g clip-path="url(#clip0)">
<rect width="1366" height="8567" transform="translate(-973 -5241)" fill="white"/>
<rect x="-935" y="-662" width="1290" height="1348" rx="20" fill="#F8F8F8"/>
<mask id="mask0" mask-type="alpha" maskUnits="userSpaceOnUse" x="-935" y="-662" width="1290" height="1348">
<rect x="-935" y="-662" width="1290" height="1348" rx="20" fill="white"/>
</mask>
<g mask="url(#mask0)">
</g>
<g filter="url(#filter0_d)">
<rect x="-30" y="-38" width="330" height="248" rx="20" fill="white"/>
</g>
<circle cx="22" cy="23" r="22" fill="#D6E6FF"/>
<path fill-rule="evenodd" clip-rule="evenodd" d="M8.23438 35.4151L8.90474 34.8018C8.9192 34.8166 8.93366 34.8319 8.94853 34.8468L8.30542 35.4895C8.28146 35.4647 8.25792 35.4399 8.23438 35.4151Z" fill="#282D33"/>
<path fill-rule="evenodd" clip-rule="evenodd" d="M8.23438 35.4151L8.90474 34.8018C8.9192 34.8166 8.93366 34.8319 8.94853 34.8468L8.30542 35.4895C8.28146 35.4647 8.25792 35.4399 8.23438 35.4151Z" stroke="#282D33" stroke-width="0.5"/>
<path fill-rule="evenodd" clip-rule="evenodd" d="M6.19316 12.1167C6.35672 11.8701 6.52772 11.6264 6.70285 11.3877L7.42403 11.9399C7.26501 12.1576 7.11011 12.3794 6.95977 12.6045L6.19316 12.1167ZM4.63227 14.9828C4.74957 14.7131 4.87514 14.4438 5.00731 14.1757L5.81398 14.5942C5.69503 14.8362 5.58103 15.082 5.4724 15.3294L4.63227 14.9828ZM3.59511 18.0773C3.66409 17.7899 3.74092 17.5024 3.82394 17.217L4.69092 17.4888C4.61533 17.7502 4.54553 18.0117 4.48233 18.2719L3.59511 18.0773ZM3.10938 21.3032C3.12796 21.0083 3.15398 20.7122 3.1862 20.4172L4.08746 20.5341C4.05814 20.8034 4.03459 21.074 4.01724 21.3429L3.10938 21.3032ZM3.1862 24.5654C3.15398 24.2713 3.12796 23.9748 3.10938 23.6786L4.01724 23.639C4.03459 23.9091 4.05814 24.1788 4.08746 24.4477L3.1862 24.5654ZM3.82559 27.7653C3.74257 27.4815 3.66657 27.1945 3.59677 26.9053L4.48357 26.7095C4.54801 26.9739 4.61781 27.2358 4.69257 27.4935L3.82559 27.7653ZM5.01144 30.8065C4.87968 30.5405 4.75453 30.2708 4.63557 29.9994L5.47529 29.6521C5.58351 29.8991 5.69792 30.1444 5.8177 30.3873L5.01144 30.8065ZM6.70946 33.5942C6.53474 33.3571 6.36374 33.113 6.19853 32.8643L6.96514 32.3765C7.11631 32.6033 7.27161 32.8251 7.43022 33.0407L6.70946 33.5942Z" fill="#282D33"/>
<path d="M6.19316 12.1167L5.98482 11.9785L5.84398 12.1909L6.05895 12.3276L6.19316 12.1167ZM6.70285 11.3877L6.85485 11.1892L6.65222 11.034L6.50127 11.2398L6.70285 11.3877ZM7.42403 11.9399L7.6259 12.0874L7.77008 11.89L7.57602 11.7414L7.42403 11.9399ZM6.95977 12.6045L6.82555 12.8154L7.03185 12.9467L7.16766 12.7434L6.95977 12.6045ZM4.63227 14.9828L4.40301 14.8831L4.30139 15.1168L4.53694 15.2139L4.63227 14.9828ZM5.00731 14.1757L5.12242 13.9538L4.89592 13.8363L4.78308 14.0652L5.00731 14.1757ZM5.81398 14.5942L6.03835 14.7044L6.14625 14.4849L5.92909 14.3722L5.81398 14.5942ZM5.4724 15.3294L5.37707 15.5605L5.60304 15.6537L5.7013 15.4299L5.4724 15.3294ZM3.59511 18.0773L3.35201 18.019L3.29253 18.2669L3.54157 18.3215L3.59511 18.0773ZM3.82394 17.217L3.89872 16.9784L3.65518 16.9021L3.58389 17.1472L3.82394 17.217ZM4.69092 17.4888L4.93108 17.5582L4.99898 17.3233L4.7657 17.2502L4.69092 17.4888ZM4.48233 18.2719L4.42879 18.5161L4.66758 18.5684L4.72527 18.3309L4.48233 18.2719ZM3.10938 21.3032L2.85987 21.2875L2.84384 21.5419L3.09847 21.553L3.10938 21.3032ZM3.1862 20.4172L3.21836 20.1693L2.96538 20.1365L2.93768 20.3901L3.1862 20.4172ZM4.08746 20.5341L4.33599 20.5612L4.36251 20.3177L4.11962 20.2862L4.08746 20.5341ZM4.01724 21.3429L4.00634 21.5926L4.25096 21.6033L4.26673 21.359L4.01724 21.3429ZM3.1862 24.5654L2.93769 24.5927L2.96548 24.8464L3.21858 24.8133L3.1862 24.5654ZM3.10938 23.6786L3.09847 23.4289L2.84391 23.44L2.85987 23.6943L3.10938 23.6786ZM4.01724 23.639L4.26673 23.623L4.25103 23.3785L4.00634 23.3892L4.01724 23.639ZM4.08746 24.4477L4.11984 24.6956L4.36252 24.6639L4.33599 24.4206L4.08746 24.4477ZM3.82559 27.7653L3.58565 27.8355L3.65721 28.0801L3.90037 28.0038L3.82559 27.7653ZM3.59677 26.9053L3.54287 26.6612L3.29392 26.7162L3.35375 26.964L3.59677 26.9053ZM4.48357 26.7095L4.72646 26.6503L4.66853 26.4127L4.42968 26.4654L4.48357 26.7095ZM4.69257 27.4935L4.76735 27.7321L5.00084 27.6589L4.93267 27.4239L4.69257 27.4935ZM5.01144 30.8065L4.78742 30.9175L4.90058 31.1459L5.12677 31.0283L5.01144 30.8065ZM4.63557 29.9994L4.54001 29.7684L4.30412 29.866L4.4066 30.0998L4.63557 29.9994ZM5.47529 29.6521L5.70427 29.5517L5.606 29.3274L5.37972 29.4211L5.47529 29.6521ZM5.8177 30.3873L5.93304 30.6091L6.15016 30.4962L6.04191 30.2767L5.8177 30.3873ZM6.70946 33.5942L6.50821 33.7425L6.65948 33.9477L6.86172 33.7924L6.70946 33.5942ZM6.19853 32.8643L6.06432 32.6534L5.84918 32.7903L5.9903 33.0027L6.19853 32.8643ZM6.96514 32.3765L7.17315 32.2378L7.0374 32.0342L6.83092 32.1656L6.96514 32.3765ZM7.43022 33.0407L7.58249 33.239L7.77672 33.0898L7.6316 32.8925L7.43022 33.0407ZM6.40149 12.2549C6.56265 12.012 6.73137 11.7715 6.90443 11.5356L6.50127 11.2398C6.32408 11.4814 6.1508 11.7283 5.98482 11.9785L6.40149 12.2549ZM6.55086 11.5862L7.27203 12.1384L7.57602 11.7414L6.85485 11.1892L6.55086 11.5862ZM7.22216 11.7925C7.06103 12.013 6.90414 12.2377 6.75187 12.4657L7.16766 12.7434C7.31609 12.5211 7.46898 12.3022 7.6259 12.0874L7.22216 11.7925ZM7.09398 12.3936L6.32737 11.9058L6.05895 12.3276L6.82555 12.8154L7.09398 12.3936ZM4.86152 15.0825C4.97709 14.8168 5.10095 14.5511 5.23153 14.2863L4.78308 14.0652C4.64932 14.3365 4.52206 14.6094 4.40301 14.8831L4.86152 15.0825ZM4.8922 14.3977L5.69887 14.8161L5.92909 14.3722L5.12242 13.9538L4.8922 14.3977ZM5.58962 14.4839C5.46901 14.7293 5.3535 14.9783 5.24349 15.2289L5.7013 15.4299C5.80856 15.1856 5.92105 14.9431 6.03835 14.7044L5.58962 14.4839ZM5.56773 15.0983L4.7276 14.7517L4.53694 15.2139L5.37707 15.5605L5.56773 15.0983ZM3.83821 18.1357C3.90619 17.8524 3.98199 17.5687 4.06399 17.2868L3.58389 17.1472C3.49985 17.4361 3.42199 17.7274 3.35201 18.019L3.83821 18.1357ZM3.74916 17.4555L4.61614 17.7273L4.7657 17.2502L3.89872 16.9784L3.74916 17.4555ZM4.45075 17.4193C4.37423 17.684 4.30349 17.949 4.23939 18.2129L4.72527 18.3309C4.78757 18.0744 4.85644 17.8164 4.93108 17.5582L4.45075 17.4193ZM4.53588 18.0277L3.64866 17.8331L3.54157 18.3215L4.42879 18.5161L4.53588 18.0277ZM3.35888 21.3189C3.37721 21.0281 3.40289 20.7358 3.43472 20.4444L2.93768 20.3901C2.90508 20.6885 2.87872 20.9885 2.85987 21.2875L3.35888 21.3189ZM3.15405 20.6652L4.05531 20.7821L4.11962 20.2862L3.21836 20.1693L3.15405 20.6652ZM3.83893 20.5071C3.80922 20.78 3.78535 21.0542 3.76776 21.3268L4.26673 21.359C4.28383 21.0938 4.30706 20.8269 4.33599 20.5612L3.83893 20.5071ZM4.02815 21.0931L3.12028 21.0535L3.09847 21.553L4.00634 21.5926L4.02815 21.0931ZM3.43471 24.5382C3.40289 24.2477 3.37721 23.955 3.35888 23.663L2.85987 23.6943C2.87871 23.9946 2.90508 24.295 2.93769 24.5927L3.43471 24.5382ZM3.12028 23.9284L4.02815 23.8887L4.00634 23.3892L3.09847 23.4289L3.12028 23.9284ZM3.76776 23.655C3.78535 23.9289 3.80922 24.2024 3.83894 24.4748L4.33599 24.4206C4.30705 24.1553 4.28383 23.8893 4.26673 23.623L3.76776 23.655ZM4.05508 24.1998L3.15382 24.3175L3.21858 24.8133L4.11984 24.6956L4.05508 24.1998ZM4.06553 27.6951C3.98372 27.4155 3.90874 27.1323 3.83978 26.8467L3.35375 26.964C3.42441 27.2567 3.50142 27.5476 3.58565 27.8355L4.06553 27.6951ZM3.65066 27.1494L4.53747 26.9537L4.42968 26.4654L3.54287 26.6612L3.65066 27.1494ZM4.24068 26.7687C4.30596 27.0365 4.37669 27.3019 4.45247 27.5631L4.93267 27.4239C4.85893 27.1696 4.79005 26.9112 4.72646 26.6503L4.24068 26.7687ZM4.61779 27.2549L3.75081 27.5267L3.90037 28.0038L4.76735 27.7321L4.61779 27.2549ZM5.23546 30.6956C5.10558 30.4333 4.98207 30.1672 4.86454 29.8991L4.4066 30.0998C4.52698 30.3744 4.65378 30.6477 4.78742 30.9175L5.23546 30.6956ZM4.73114 30.2304L5.57085 29.8831L5.37972 29.4211L4.54001 29.7684L4.73114 30.2304ZM5.2463 29.7524C5.35609 30.003 5.4721 30.2517 5.59349 30.4979L6.04191 30.2767C5.92374 30.0371 5.81092 29.7952 5.70427 29.5517L5.2463 29.7524ZM5.70237 30.1655L4.89611 30.5847L5.12677 31.0283L5.93304 30.6091L5.70237 30.1655ZM6.91072 33.4458C6.73839 33.212 6.56972 32.9712 6.40675 32.7259L5.9903 33.0027C6.15777 33.2547 6.3311 33.5021 6.50821 33.7425L6.91072 33.4458ZM6.33274 33.0752L7.09935 32.5874L6.83092 32.1656L6.06432 32.6534L6.33274 33.0752ZM6.75712 32.5152C6.91039 32.7451 7.0679 32.97 7.22884 33.1888L7.6316 32.8925C7.47533 32.6801 7.32223 32.4614 7.17315 32.2378L6.75712 32.5152ZM7.27796 32.8424L6.5572 33.3959L6.86172 33.7924L7.58249 33.239L7.27796 32.8424Z" fill="#282D33"/>
<path fill-rule="evenodd" clip-rule="evenodd" d="M8.23438 9.55775C8.25833 9.53296 8.28146 9.50818 8.30542 9.4834L8.94853 10.1261C8.93366 10.141 8.9192 10.1562 8.90474 10.1715L8.23438 9.55775Z" fill="#282D33"/>
<path fill-rule="evenodd" clip-rule="evenodd" d="M8.23438 9.55775C8.25833 9.53296 8.28146 9.50818 8.30542 9.4834L8.94853 10.1261C8.93366 10.141 8.9192 10.1562 8.90474 10.1715L8.23438 9.55775Z" stroke="#282D33" stroke-width="0.5"/>
<path fill-rule="evenodd" clip-rule="evenodd" d="M34.7188 10.1261L35.3623 9.4834C35.3858 9.50859 35.4094 9.53296 35.4329 9.55775L34.7625 10.1715C34.7481 10.1562 34.7336 10.1414 34.7188 10.1261Z" fill="#282D33"/>
<path fill-rule="evenodd" clip-rule="evenodd" d="M34.7188 10.1261L35.3623 9.4834C35.3858 9.50859 35.4094 9.53296 35.4329 9.55775L34.7625 10.1715C34.7481 10.1562 34.7336 10.1414 34.7188 10.1261Z" stroke="#282D33" stroke-width="0.5"/>
<path fill-rule="evenodd" clip-rule="evenodd" d="M36.7077 12.5975C36.5569 12.3712 36.4012 12.1494 36.2422 11.9334L36.9634 11.3799C37.1385 11.6174 37.3091 11.8615 37.4739 12.1093L36.7077 12.5975ZM38.1971 15.3216C38.0889 15.0741 37.9741 14.8284 37.8547 14.5859L38.6614 14.1675C38.7931 14.4331 38.9191 14.7028 39.0377 14.9746L38.1971 15.3216ZM39.1888 18.2641C39.1256 18.0026 39.0558 17.7408 38.9803 17.4801L39.8476 17.2075C39.9307 17.4917 40.0071 17.7792 40.0769 18.0679L39.1888 18.2641ZM39.6552 21.3342C39.6378 21.0645 39.6143 20.7948 39.5849 20.5263L40.4858 20.4086C40.5188 20.7027 40.544 20.9993 40.563 21.2954L39.6552 21.3342ZM39.5858 24.4399C39.6151 24.1706 39.6386 23.9001 39.656 23.6312L40.5639 23.6708C40.5453 23.9657 40.5197 24.2623 40.4866 24.5568L39.5858 24.4399ZM38.9815 27.4849C39.0571 27.2234 39.1269 26.9615 39.1905 26.7017L40.0777 26.8967C40.0087 27.1829 39.9327 27.4708 39.8485 27.7571L38.9815 27.4849ZM37.8584 30.3799C37.9774 30.1387 38.0918 29.8929 38.2 29.6443L39.0401 29.9908C38.9224 30.2613 38.7977 30.5311 38.6655 30.7979L37.8584 30.3799ZM36.248 33.0337C36.4078 32.8156 36.5627 32.5938 36.7126 32.3691L37.4793 32.8569C37.3153 33.1039 37.1451 33.348 36.9696 33.5863L36.248 33.0337Z" fill="#282D33"/>
<path d="M36.7077 12.5975L36.4996 12.7361L36.6354 12.94L36.842 12.8084L36.7077 12.5975ZM36.2422 11.9334L36.09 11.735L35.8956 11.8842L36.0409 12.0816L36.2422 11.9334ZM36.9634 11.3799L37.1646 11.2315L37.0133 11.0264L36.8112 11.1816L36.9634 11.3799ZM37.4739 12.1093L37.6082 12.3202L37.8232 12.1832L37.6821 11.9709L37.4739 12.1093ZM38.1971 15.3216L37.9681 15.4217L38.0662 15.6461L38.2925 15.5526L38.1971 15.3216ZM37.8547 14.5859L37.7396 14.364L37.5223 14.4767L37.6304 14.6964L37.8547 14.5859ZM38.6614 14.1675L38.8853 14.0564L38.7722 13.8284L38.5463 13.9456L38.6614 14.1675ZM39.0377 14.9746L39.1331 15.2057L39.3688 15.1084L39.2668 14.8747L39.0377 14.9746ZM39.1888 18.2641L38.9458 18.3228L39.0034 18.5611L39.2428 18.5082L39.1888 18.2641ZM38.9803 17.4801L38.9053 17.2416L38.672 17.3149L38.7401 17.5498L38.9803 17.4801ZM39.8476 17.2075L40.0876 17.1374L40.0161 16.8925L39.7727 16.969L39.8476 17.2075ZM40.0769 18.0679L40.1308 18.312L40.3798 18.257L40.3199 18.0091L40.0769 18.0679ZM39.6552 21.3342L39.4057 21.3503L39.4214 21.5945L39.6658 21.584L39.6552 21.3342ZM39.5849 20.5263L39.5526 20.2784L39.3098 20.3101L39.3364 20.5535L39.5849 20.5263ZM40.4858 20.4086L40.7342 20.3807L40.7058 20.1277L40.4534 20.1607L40.4858 20.4086ZM40.563 21.2954L40.5737 21.5452L40.8289 21.5343L40.8125 21.2794L40.563 21.2954ZM39.5858 24.4399L39.3372 24.4128L39.3107 24.6563L39.5536 24.6878L39.5858 24.4399ZM39.656 23.6312L39.6669 23.3814L39.4223 23.3707L39.4065 23.6151L39.656 23.6312ZM40.5639 23.6708L40.8134 23.6865L40.8294 23.4322L40.5748 23.4211L40.5639 23.6708ZM40.4866 24.5568L40.4545 24.8047L40.7067 24.8374L40.7351 24.5847L40.4866 24.5568ZM38.9815 27.4849L38.7413 27.4154L38.6735 27.6502L38.9066 27.7234L38.9815 27.4849ZM39.1905 26.7017L39.2441 26.4576L39.0057 26.4052L38.9477 26.6423L39.1905 26.7017ZM40.0777 26.8967L40.3208 26.9553L40.3805 26.7073L40.1314 26.6525L40.0777 26.8967ZM39.8485 27.7571L39.7736 27.9956L40.0164 28.0718L40.0883 27.8277L39.8485 27.7571ZM37.8584 30.3799L37.6342 30.2693L37.5258 30.4891L37.7435 30.6019L37.8584 30.3799ZM38.2 29.6443L38.2953 29.4131L38.0686 29.3196L37.9708 29.5445L38.2 29.6443ZM39.0401 29.9908L39.2694 30.0905L39.3711 29.8569L39.1355 29.7597L39.0401 29.9908ZM38.6655 30.7979L38.5505 31.0199L38.7766 31.1369L38.8895 30.9089L38.6655 30.7979ZM36.248 33.0337L36.0463 32.8859L35.9016 33.0833L36.096 33.2322L36.248 33.0337ZM36.7126 32.3691L36.8469 32.1582L36.6405 32.0269L36.5047 32.2303L36.7126 32.3691ZM37.4793 32.8569L37.6875 32.9952L37.8285 32.7828L37.6135 32.646L37.4793 32.8569ZM36.9696 33.5863L36.8175 33.7848L37.0198 33.9397L37.1708 33.7346L36.9696 33.5863ZM36.9158 12.4589C36.7627 12.2292 36.6048 12.0042 36.4435 11.7852L36.0409 12.0816C36.1976 12.2946 36.3511 12.5132 36.4996 12.7361L36.9158 12.4589ZM36.3944 12.1317L37.1156 11.5782L36.8112 11.1816L36.09 11.735L36.3944 12.1317ZM36.7622 11.5283C36.9348 11.7623 37.103 12.0031 37.2657 12.2478L37.6821 11.9709C37.5151 11.7199 37.3422 11.4724 37.1646 11.2315L36.7622 11.5283ZM37.3395 11.8985L36.5733 12.3867L36.842 12.8084L37.6082 12.3202L37.3395 11.8985ZM38.4262 15.2214C38.3163 14.9702 38.1999 14.721 38.079 14.4755L37.6304 14.6964C37.7483 14.9358 37.8615 15.1781 37.9681 15.4217L38.4262 15.2214ZM37.9698 14.8078L38.7765 14.3894L38.5463 13.9456L37.7396 14.364L37.9698 14.8078ZM38.4374 14.2786C38.5674 14.5407 38.6917 14.8067 38.8085 15.0745L39.2668 14.8747C39.1466 14.5989 39.0188 14.3255 38.8853 14.0564L38.4374 14.2786ZM38.9423 14.7435L38.1017 15.0905L38.2925 15.5526L39.1331 15.2057L38.9423 14.7435ZM39.4318 18.2053C39.3677 17.9401 39.297 17.6746 39.2204 17.4105L38.7401 17.5498C38.8147 17.8069 38.8836 18.0652 38.9458 18.3228L39.4318 18.2053ZM39.0552 17.7186L39.9226 17.446L39.7727 16.969L38.9053 17.2416L39.0552 17.7186ZM39.6077 17.2776C39.6896 17.5579 39.765 17.8416 39.8339 18.1266L40.3199 18.0091C40.2492 17.7168 40.1718 17.4255 40.0876 17.1374L39.6077 17.2776ZM40.023 17.8238L39.1349 18.02L39.2428 18.5082L40.1308 18.312L40.023 17.8238ZM39.9047 21.3182C39.8871 21.0447 39.8632 20.7713 39.8335 20.4992L39.3364 20.5535C39.3654 20.8183 39.3886 21.0844 39.4057 21.3503L39.9047 21.3182ZM39.6173 20.7742L40.5182 20.6565L40.4534 20.1607L39.5526 20.2784L39.6173 20.7742ZM40.2374 20.4365C40.2699 20.7261 40.2948 21.0187 40.3135 21.3114L40.8125 21.2794C40.7933 20.9798 40.7678 20.6793 40.7342 20.3807L40.2374 20.4365ZM40.5524 21.0456L39.6445 21.0845L39.6658 21.584L40.5737 21.5452L40.5524 21.0456ZM39.8343 24.467C39.864 24.1941 39.8879 23.9199 39.9055 23.6473L39.4065 23.6151C39.3894 23.8802 39.3662 24.1471 39.3372 24.4128L39.8343 24.467ZM39.6451 23.8809L40.553 23.9206L40.5748 23.4211L39.6669 23.3814L39.6451 23.8809ZM40.3144 23.6551C40.296 23.9461 40.2708 24.2387 40.2382 24.5289L40.7351 24.5847C40.7686 24.2859 40.7945 23.9853 40.8134 23.6865L40.3144 23.6551ZM40.5188 24.3089L39.6179 24.192L39.5536 24.6878L40.4545 24.8047L40.5188 24.3089ZM39.2217 27.5543C39.2982 27.2895 39.3689 27.0243 39.4333 26.7612L38.9477 26.6423C38.8849 26.8988 38.816 27.1573 38.7413 27.4154L39.2217 27.5543ZM39.1368 26.9459L40.0241 27.1409L40.1314 26.6525L39.2441 26.4576L39.1368 26.9459ZM39.8347 26.8381C39.7665 27.1208 39.6916 27.4047 39.6086 27.6865L40.0883 27.8277C40.1739 27.5369 40.2509 27.245 40.3208 26.9553L39.8347 26.8381ZM39.9234 27.5185L39.0564 27.2463L38.9066 27.7234L39.7736 27.9956L39.9234 27.5185ZM38.0826 30.4905C38.2033 30.2459 38.3194 29.9965 38.4292 29.744L37.9708 29.5445C37.8642 29.7893 37.7515 30.0315 37.6342 30.2693L38.0826 30.4905ZM38.1047 29.8754L38.9448 30.2219L39.1355 29.7597L38.2953 29.4131L38.1047 29.8754ZM38.8109 29.8911C38.6947 30.1581 38.5717 30.4241 38.4415 30.6869L38.8895 30.9089C39.0237 30.6381 39.1501 30.3646 39.2694 30.0905L38.8109 29.8911ZM38.7805 30.5759L37.9734 30.1579L37.7435 30.6019L38.5505 31.0199L38.7805 30.5759ZM36.4496 33.1815C36.6117 32.9603 36.7687 32.7355 36.9206 32.5079L36.5047 32.2303C36.3567 32.4521 36.2039 32.6709 36.0463 32.8859L36.4496 33.1815ZM36.5784 32.58L37.345 33.0678L37.6135 32.646L36.8469 32.1582L36.5784 32.58ZM37.271 32.7186C37.1091 32.9625 36.9412 33.2032 36.7683 33.4381L37.1708 33.7346C37.349 33.4928 37.5215 33.2453 37.6875 32.9952L37.271 32.7186ZM37.1216 33.3879L36.4 32.8352L36.096 33.2322L36.8175 33.7848L37.1216 33.3879Z" fill="#282D33"/>
<path fill-rule="evenodd" clip-rule="evenodd" d="M34.7188 34.8462C34.7336 34.8313 34.7481 34.8161 34.7625 34.8008L35.4329 35.4146C35.4098 35.4393 35.3858 35.4641 35.3623 35.4889L34.7188 34.8462Z" fill="#282D33"/>
<path fill-rule="evenodd" clip-rule="evenodd" d="M34.7188 34.8462C34.7336 34.8313 34.7481 34.8161 34.7625 34.8008L35.4329 35.4146C35.4098 35.4393 35.3858 35.4641 35.3623 35.4889L34.7188 34.8462Z" stroke="#282D33" stroke-width="0.5"/>
<path fill-rule="evenodd" clip-rule="evenodd" d="M31.9567 41.1507C31.9567 41.8496 31.3904 42.4163 30.6915 42.4163H12.9761C12.2772 42.4163 11.7109 41.8496 11.7109 41.1507V3.82277C11.7109 3.1239 12.2772 2.55762 12.9761 2.55762H30.6915C31.3904 2.55762 31.9567 3.1239 31.9567 3.82277V41.1507Z" fill="white"/>
<path fill-rule="evenodd" clip-rule="evenodd" d="M12.9769 3.0118C12.53 3.0118 12.1661 3.37569 12.1661 3.8226V41.1506C12.1661 41.5979 12.53 41.9622 12.9769 41.9622H30.6932C31.1401 41.9622 31.5036 41.5979 31.5036 41.1506V3.8226C31.5036 3.37569 31.1401 3.0118 30.6932 3.0118H12.9769ZM12.9769 42.8705C12.029 42.8705 11.2578 42.0989 11.2578 41.1506V3.8226C11.2578 2.87467 12.029 2.10352 12.9769 2.10352H30.6932C31.6411 2.10352 32.4122 2.87467 32.4122 3.8226V41.1506C32.4122 42.0989 31.6411 42.8705 30.6932 42.8705H12.9769Z" fill="#282D33"/>
<path d="M12.9769 2.7618C12.3919 2.7618 11.9161 3.23762 11.9161 3.8226H12.4161C12.4161 3.51376 12.6681 3.2618 12.9769 3.2618V2.7618ZM11.9161 3.8226V41.1506H12.4161V3.8226H11.9161ZM11.9161 41.1506C11.9161 41.7357 12.3917 42.2122 12.9769 42.2122V41.7122C12.6683 41.7122 12.4161 41.4601 12.4161 41.1506H11.9161ZM12.9769 42.2122H30.6932V41.7122H12.9769V42.2122ZM30.6932 42.2122C31.2786 42.2122 31.7536 41.7356 31.7536 41.1506H31.2536C31.2536 41.4603 31.0016 41.7122 30.6932 41.7122V42.2122ZM31.7536 41.1506V3.8226H31.2536V41.1506H31.7536ZM31.7536 3.8226C31.7536 3.23778 31.2783 2.7618 30.6932 2.7618V3.2618C31.0018 3.2618 31.2536 3.51359 31.2536 3.8226H31.7536ZM30.6932 2.7618H12.9769V3.2618H30.6932V2.7618ZM12.9769 42.6205C12.1672 42.6205 11.5078 41.961 11.5078 41.1506H11.0078C11.0078 42.2369 11.8908 43.1205 12.9769 43.1205V42.6205ZM11.5078 41.1506V3.8226H11.0078V41.1506H11.5078ZM11.5078 3.8226C11.5078 3.01274 12.167 2.35352 12.9769 2.35352V1.85352C11.8909 1.85352 11.0078 2.7366 11.0078 3.8226H11.5078ZM12.9769 2.35352H30.6932V1.85352H12.9769V2.35352ZM30.6932 2.35352C31.503 2.35352 32.1622 3.01274 32.1622 3.8226H32.6622C32.6622 2.7366 31.7792 1.85352 30.6932 1.85352V2.35352ZM32.1622 3.8226V41.1506H32.6622V3.8226H32.1622ZM32.1622 41.1506C32.1622 41.961 31.5029 42.6205 30.6932 42.6205V43.1205C31.7793 43.1205 32.6622 42.2369 32.6622 41.1506H32.1622ZM30.6932 42.6205H12.9769V43.1205H30.6932V42.6205Z" fill="#282D33"/>
<mask id="mask1" mask-type="alpha" maskUnits="userSpaceOnUse" x="3" y="2" width="38" height="41">
<path fill-rule="evenodd" clip-rule="evenodd" d="M3 42.9735H40.672V2H3V42.9735Z" fill="white"/>
</mask>
<g mask="url(#mask1)">
<path fill-rule="evenodd" clip-rule="evenodd" d="M13.9023 36.7226H29.7715V7.93555H13.9023V36.7226Z" fill="#DBF2FF"/>
<path fill-rule="evenodd" clip-rule="evenodd" d="M18.8242 5.83797H24.8439V4.92969H18.8242V5.83797Z" fill="#282D33"/>
<path fill-rule="evenodd" clip-rule="evenodd" d="M18.8242 5.83797H24.8439V4.92969H18.8242V5.83797Z" stroke="#282D33" stroke-width="0.5"/>
<path fill-rule="evenodd" clip-rule="evenodd" d="M21.3789 39.5704H22.2872V38.6621H21.3789V39.5704Z" fill="#282D33"/>
<path fill-rule="evenodd" clip-rule="evenodd" d="M21.3789 39.5704H22.2872V38.6621H21.3789V39.5704Z" stroke="#282D33" stroke-width="0.5"/>
<path fill-rule="evenodd" clip-rule="evenodd" d="M20.3047 27.2827H23.3666V17.6914H20.3047V27.2827Z" fill="#01A1FA"/>
<path fill-rule="evenodd" clip-rule="evenodd" d="M17.0391 24.0175H26.6303V20.9561H17.0391V24.0175Z" fill="#01A1FA"/>
</g>
</g>
<defs>
<filter id="filter0_d" x="-35" y="-40" width="340" height="258" filterUnits="userSpaceOnUse" color-interpolation-filters="sRGB">
<feFlood flood-opacity="0" result="BackgroundImageFix"/>
<feColorMatrix in="SourceAlpha" type="matrix" values="0 0 0 0 0 0 0 0 0 0 0 0 0 0 0 0 0 0 127 0"/>
<feOffset dy="3"/>
<feGaussianBlur stdDeviation="2.5"/>
<feColorMatrix type="matrix" values="0 0 0 0 0 0 0 0 0 0 0 0 0 0 0 0 0 0 0.0405376 0"/>
<feBlend mode="normal" in2="BackgroundImageFix" result="effect1_dropShadow"/>
<feBlend mode="normal" in="SourceGraphic" in2="effect1_dropShadow" result="shape"/>
</filter>
<clipPath id="clip0">
<rect width="1366" height="8567" fill="white" transform="translate(-973 -5241)"/>
</clipPath>
</defs>
</svg>
