<svg width="93" height="130" viewBox="0 0 93 130" fill="none" xmlns="http://www.w3.org/2000/svg">
<path fill-rule="evenodd" clip-rule="evenodd" d="M33.0212 4.76442L90.8671 22.4497L92.1759 18.1686L34.3301 0.483398L33.0212 4.76442Z" fill="#0B0755"/>
<path fill-rule="evenodd" clip-rule="evenodd" d="M80.6274 48.2398L88.7135 21.7915L35.3242 5.46875L27.2381 31.9171C25.7514 36.7801 26.7193 42.1037 29.8693 46.3804L41.9353 62.7578C42.9425 64.125 42.378 65.9714 40.779 66.5399L21.6171 73.372C16.6147 75.1545 12.8351 79.0273 11.3484 83.8902L3.26224 110.339L56.6515 126.661L64.7377 100.213C66.2244 95.35 65.2549 90.0253 62.1045 85.7502L49.4956 68.636C48.7673 67.6471 49.1765 66.3087 50.3332 65.8962L70.3566 58.7586C75.3595 56.9745 79.1407 53.1028 80.6274 48.2398Z" fill="#FFADAB"/>
<path fill-rule="evenodd" clip-rule="evenodd" d="M0.304334 111.775L58.1502 129.46L59.4591 125.179L1.61328 107.494L0.304334 111.775Z" fill="#0B0755"/>
<path fill-rule="evenodd" clip-rule="evenodd" d="M33.472 46.7727C33.472 46.7727 42.2599 59.0045 45.5959 63.2617C46.2615 64.1107 47.4313 64.4511 48.4462 64.0948L67.8491 57.2828C72.0971 55.7686 75.307 52.481 76.5694 48.3519L78.1991 43.0216C78.1991 43.0216 74.749 34.2194 67.1734 34.4125C55.5747 34.7076 47.9883 31.8158 41.9459 29.4061C34.4403 26.413 32.9151 29.0022 32.9151 29.0022L31.2366 34.4923C29.9742 38.6214 30.7969 43.1419 33.472 46.7727Z" fill="#EF5952"/>
<path fill-rule="evenodd" clip-rule="evenodd" d="M6.80036 107.334L55.0569 122.088C55.0569 122.088 47.808 107.241 40.6681 102.437C33.5294 97.6364 27.0926 97.8828 6.80036 107.334Z" fill="#EF5952"/>
<path fill-rule="evenodd" clip-rule="evenodd" d="M32.307 110.198L33.4999 110.563L48.6578 60.9839L47.4648 60.6191L32.307 110.198Z" fill="#EF5952"/>
</svg>
