<svg width="31" height="19" viewBox="0 0 31 19" fill="none" xmlns="http://www.w3.org/2000/svg">
<path d="M29.8691 1.30859C30.0391 0.628906 29.8691 0.0625 28.8496 0.0625H25.5078C24.6582 0.0625 24.2617 0.515625 24.0352 1.02539C24.0352 1.02539 22.3359 5.16016 19.957 7.87891C19.1641 8.61523 18.8242 8.89844 18.3711 8.89844C18.2012 8.89844 17.8613 8.61523 17.8613 7.93555V1.30859C17.8613 0.458984 17.6348 0.0625 16.8984 0.0625H11.6875C11.1211 0.0625 10.8379 0.458984 10.8379 0.855469C10.8379 1.64844 12.0273 1.81836 12.1406 4.08398V9.01172C12.1406 10.0879 11.9707 10.3145 11.5176 10.3145C10.3848 10.3145 7.66602 6.12305 6.02344 1.36523C5.68359 0.458984 5.34375 0.0625 4.49414 0.0625H1.15234C0.246094 0.0625 0.0195312 0.515625 0.0195312 1.02539C0.0195312 1.93164 1.15234 6.29297 5.28711 12.127C8.0625 16.0918 11.9707 18.1875 15.4824 18.1875C17.5781 18.1875 17.8613 17.7344 17.8613 16.9414C17.8613 13.1465 17.6914 12.75 18.7109 12.75C19.2207 12.75 20.0703 13.0332 22.0527 14.959C24.3184 17.2246 24.7148 18.1875 25.9609 18.1875H29.3027C30.2656 18.1875 30.7188 17.7344 30.4355 16.7715C29.8125 14.8457 25.5645 10.7676 25.3379 10.4844C24.8281 9.86133 24.998 9.57812 25.3379 9.01172C25.3379 9.01172 29.416 3.23438 29.8691 1.30859Z" fill="#5B81B3"/>
</svg>
