<svg width="26" height="26" viewBox="0 0 26 26" fill="none" xmlns="http://www.w3.org/2000/svg">
<path d="M22.6562 0.4375H2.71875C1.18945 0.4375 0 1.68359 0 3.15625V23.0938C0 24.623 1.18945 25.8125 2.71875 25.8125H10.4785V17.2031H6.91016V13.125H10.4785V10.0664C10.4785 6.55469 12.5742 4.57227 15.7461 4.57227C17.332 4.57227 18.918 4.85547 18.918 4.85547V8.31055H17.1621C15.4062 8.31055 14.8398 9.38672 14.8398 10.5195V13.125H18.748L18.125 17.2031H14.8398V25.8125H22.6562C24.1289 25.8125 25.375 24.623 25.375 23.0938V3.15625C25.375 1.68359 24.1289 0.4375 22.6562 0.4375Z" fill="#4968AD"/>
</svg>
