<svg width="26" height="26" viewBox="0 0 26 26" fill="none" xmlns="http://www.w3.org/2000/svg">
<path d="M23.5625 0.4375H1.75586C0.792969 0.4375 0 1.28711 0 2.30664V24C0 25.0195 0.792969 25.8125 1.75586 25.8125H23.5625C24.5254 25.8125 25.375 25.0195 25.375 24V2.30664C25.375 1.28711 24.5254 0.4375 23.5625 0.4375ZM7.64648 22.1875H3.9082V10.123H7.64648V22.1875ZM5.77734 8.42383C4.53125 8.42383 3.56836 7.46094 3.56836 6.27148C3.56836 5.08203 4.53125 4.0625 5.77734 4.0625C6.9668 4.0625 7.92969 5.08203 7.92969 6.27148C7.92969 7.46094 6.9668 8.42383 5.77734 8.42383ZM21.75 22.1875H17.9551V16.2969C17.9551 14.9375 17.9551 13.125 16.0293 13.125C14.0469 13.125 13.7637 14.6543 13.7637 16.2402V22.1875H10.0254V10.123H13.5938V11.7656H13.6504C14.1602 10.8027 15.4062 9.7832 17.2188 9.7832C21.0137 9.7832 21.75 12.332 21.75 15.5605V22.1875Z" fill="#3C77B0"/>
</svg>
