<svg width="17" height="20" viewBox="0 0 17 20" fill="none" xmlns="http://www.w3.org/2000/svg">
<path opacity="0.3" d="M16.3281 2.75H12.4688L11.207 1.11719C10.9102 0.708984 10.2793 0.375 9.79688 0.375H6.82812C6.30859 0.375 5.67773 0.708984 5.38086 1.11719L4.15625 2.75H0.296875C0.111328 2.75 0 2.89844 0 3.04688V3.64062C0 3.82617 0.111328 3.9375 0.296875 3.9375H0.964844L2.22656 17.7793C2.30078 18.6699 3.08008 19.375 3.9707 19.375H12.6172C13.5078 19.375 14.2871 18.6699 14.3613 17.7793L15.623 3.9375H16.3281C16.4766 3.9375 16.625 3.82617 16.625 3.64062V3.04688C16.625 2.89844 16.4766 2.75 16.3281 2.75ZM6.3457 1.82227C6.41992 1.67383 6.64258 1.59961 6.82812 1.5625H9.79688C9.94531 1.59961 10.168 1.67383 10.2422 1.82227L10.9844 2.75H5.64062L6.3457 1.82227ZM13.2109 17.668C13.1738 17.9648 12.9141 18.1875 12.6172 18.1875H3.9707C3.67383 18.1875 3.41406 17.9648 3.41406 17.668L2.18945 3.9375H14.4355L13.2109 17.668Z" fill="#232323"/>
</svg>
