<svg width="18" height="13" viewBox="0 0 18 13" fill="none" xmlns="http://www.w3.org/2000/svg">
<path d="M11.5234 1.03125L10.7422 1.8125C10.5859 2.00781 10.5859 2.28125 10.7812 2.47656L13.9062 5.48438H0.46875C0.195312 5.48438 0 5.71875 0 5.95312V7.04688C0 7.32031 0.195312 7.51562 0.46875 7.51562H13.9062L10.7812 10.5625C10.5859 10.7578 10.5859 11.0312 10.7422 11.2266L11.5234 12.0078C11.7188 12.1641 11.9922 12.1641 12.1875 12.0078L17.3438 6.85156C17.5 6.65625 17.5 6.38281 17.3438 6.1875L12.1875 1.03125C11.9922 0.875 11.7188 0.875 11.5234 1.03125Z" fill="white"/>
</svg>
