<svg width="17" height="20" viewBox="0 0 17 20" fill="none" xmlns="http://www.w3.org/2000/svg">
<path opacity="0.3" d="M14.8438 2.75H13.0625V0.820312C13.0625 0.597656 12.8398 0.375 12.6172 0.375H12.3203C12.0605 0.375 11.875 0.597656 11.875 0.820312V2.75H4.75V0.820312C4.75 0.597656 4.52734 0.375 4.30469 0.375H4.00781C3.74805 0.375 3.5625 0.597656 3.5625 0.820312V2.75H1.78125C0.779297 2.75 0 3.56641 0 4.53125V17.5938C0 18.5957 0.779297 19.375 1.78125 19.375H14.8438C15.8086 19.375 16.625 18.5957 16.625 17.5938V4.53125C16.625 3.56641 15.8086 2.75 14.8438 2.75ZM1.78125 3.9375H14.8438C15.1406 3.9375 15.4375 4.23438 15.4375 4.53125V6.3125H1.1875V4.53125C1.1875 4.23438 1.44727 3.9375 1.78125 3.9375ZM14.8438 18.1875H1.78125C1.44727 18.1875 1.1875 17.9277 1.1875 17.5938V7.5H15.4375V17.5938C15.4375 17.9277 15.1406 18.1875 14.8438 18.1875ZM5.49219 12.25C5.71484 12.25 5.9375 12.0645 5.9375 11.8047V10.3203C5.9375 10.0977 5.71484 9.875 5.49219 9.875H4.00781C3.74805 9.875 3.5625 10.0977 3.5625 10.3203V11.8047C3.5625 12.0645 3.74805 12.25 4.00781 12.25H5.49219ZM9.05469 12.25C9.27734 12.25 9.5 12.0645 9.5 11.8047V10.3203C9.5 10.0977 9.27734 9.875 9.05469 9.875H7.57031C7.31055 9.875 7.125 10.0977 7.125 10.3203V11.8047C7.125 12.0645 7.31055 12.25 7.57031 12.25H9.05469ZM12.6172 12.25C12.8398 12.25 13.0625 12.0645 13.0625 11.8047V10.3203C13.0625 10.0977 12.8398 9.875 12.6172 9.875H11.1328C10.873 9.875 10.6875 10.0977 10.6875 10.3203V11.8047C10.6875 12.0645 10.873 12.25 11.1328 12.25H12.6172ZM9.05469 15.8125C9.27734 15.8125 9.5 15.627 9.5 15.3672V13.8828C9.5 13.6602 9.27734 13.4375 9.05469 13.4375H7.57031C7.31055 13.4375 7.125 13.6602 7.125 13.8828V15.3672C7.125 15.627 7.31055 15.8125 7.57031 15.8125H9.05469ZM5.49219 15.8125C5.71484 15.8125 5.9375 15.627 5.9375 15.3672V13.8828C5.9375 13.6602 5.71484 13.4375 5.49219 13.4375H4.00781C3.74805 13.4375 3.5625 13.6602 3.5625 13.8828V15.3672C3.5625 15.627 3.74805 15.8125 4.00781 15.8125H5.49219ZM12.6172 15.8125C12.8398 15.8125 13.0625 15.627 13.0625 15.3672V13.8828C13.0625 13.6602 12.8398 13.4375 12.6172 13.4375H11.1328C10.873 13.4375 10.6875 13.6602 10.6875 13.8828V15.3672C10.6875 15.627 10.873 15.8125 11.1328 15.8125H12.6172Z" fill="#232323"/>
</svg>
