<svg width="158" height="178" viewBox="0 0 158 178" fill="none" xmlns="http://www.w3.org/2000/svg">
<path fill-rule="evenodd" clip-rule="evenodd" d="M39.9297 138.074C39.8971 138.063 39.8653 138.048 39.8342 138.029C39.5862 137.882 39.5055 137.561 39.6543 137.313C78.4603 72.6155 110.157 28.0194 128.906 11.74C129.322 11.3781 129.623 11.1176 129.747 10.978C129.941 10.7627 130.272 10.7453 130.487 10.9371C130.703 11.1296 130.721 11.4598 130.528 11.6751C130.36 11.8624 130.071 12.1127 129.593 12.5275C110.926 28.7371 79.3039 73.2437 40.5528 137.849C40.4224 138.066 40.1596 138.155 39.9297 138.074Z" fill="#0B0755"/>
<mask id="mask0" mask-type="alpha" maskUnits="userSpaceOnUse" x="126" y="0" width="17" height="14">
<path fill-rule="evenodd" clip-rule="evenodd" d="M140.613 0.876953L126.085 2.66075L127.475 13.9743L142.002 12.1905L140.613 0.876953Z" fill="white"/>
</mask>
<g mask="url(#mask0)">
<path fill-rule="evenodd" clip-rule="evenodd" d="M139.409 10.5496C137.219 12.3544 127.99 14.3603 127.474 13.7371C126.957 13.1136 130.669 4.44804 132.859 2.64246C135.048 0.83728 138.29 1.14322 140.099 3.32641C141.907 5.50966 141.598 8.74363 139.409 10.5496Z" fill="#0B0755"/>
</g>
<path fill-rule="evenodd" clip-rule="evenodd" d="M121.872 13.3051C122.002 16.201 117.956 24.9566 117.128 24.9935C116.299 25.0304 111.49 16.6738 111.361 13.7783C111.232 10.8823 113.48 8.42998 116.383 8.29882C119.286 8.16802 121.743 10.4095 121.872 13.3051Z" fill="#0B0755"/>
<path fill-rule="evenodd" clip-rule="evenodd" d="M127.582 31.8285C124.725 31.3041 117.087 25.4051 117.238 24.5916C117.388 23.7778 126.636 20.9809 129.493 21.5065C132.35 22.0304 134.239 24.7669 133.711 27.6176C133.184 30.4679 130.439 32.3536 127.582 31.8285Z" fill="#0B0755"/>
<path fill-rule="evenodd" clip-rule="evenodd" d="M86.0423 53.6453C86.783 58.4534 81.6194 73.7932 80.2436 74.005C78.8677 74.2167 69.3268 61.1399 68.5861 56.3318C67.8453 51.5233 71.1526 47.0239 75.9731 46.282C80.7937 45.5401 85.3019 48.8367 86.0423 53.6453Z" fill="#0B0755"/>
<path fill-rule="evenodd" clip-rule="evenodd" d="M98.9286 83.526C94.0652 83.1657 80.2494 74.7016 80.353 73.3163C80.4571 71.9317 95.3827 65.5957 100.246 65.9556C105.109 66.315 108.757 70.5401 108.393 75.3924C108.029 80.2443 103.792 83.8855 98.9286 83.526Z" fill="#0B0755"/>
<path fill-rule="evenodd" clip-rule="evenodd" d="M69.3177 68.0608C71.5003 73.6015 69.4773 93.2969 67.8919 93.9196C66.3061 94.5419 51.3847 81.4978 49.2023 75.9579C47.0198 70.4176 49.7532 64.159 55.3082 61.9784C60.8627 59.7974 67.1352 62.5205 69.3177 68.0608Z" fill="#0B0755"/>
<path fill-rule="evenodd" clip-rule="evenodd" d="M88.5181 107.754C82.6441 106.705 66.8959 94.666 67.1971 92.9933C67.4982 91.3203 86.465 85.4816 92.3391 86.5311C98.2136 87.5797 102.12 93.1813 101.065 99.0419C100.009 104.902 94.3923 108.803 88.5181 107.754Z" fill="#0B0755"/>
<path fill-rule="evenodd" clip-rule="evenodd" d="M55.935 88.9751C58.1174 94.515 56.0945 114.211 54.5091 114.834C52.9233 115.456 38.0019 102.412 35.8194 96.8718C33.6369 91.3315 36.3708 85.0728 41.9254 82.8923C47.4804 80.7117 53.7525 83.4348 55.935 88.9751Z" fill="#0B0755"/>
<path fill-rule="evenodd" clip-rule="evenodd" d="M75.1354 128.668C69.2612 127.619 53.5134 115.58 53.8143 113.908C54.1154 112.235 73.0822 106.396 78.9567 107.445C84.8308 108.494 88.7371 114.095 87.6821 119.956C86.6265 125.816 81.0094 129.717 75.1354 128.668Z" fill="#0B0755"/>
<path fill-rule="evenodd" clip-rule="evenodd" d="M31.9969 113.466C36.1307 117.758 41.7801 136.733 40.5516 137.911C39.3227 139.089 20.5418 132.701 16.4085 128.41C12.2746 124.118 12.4132 117.293 16.7177 113.166C21.0223 109.04 27.863 109.174 31.9969 113.466Z" fill="#0B0755"/>
<path fill-rule="evenodd" clip-rule="evenodd" d="M62.6905 149.553C56.7303 149.245 39.5961 139.266 39.6856 137.569C39.7747 135.872 57.8627 127.714 63.8224 128.022C69.7821 128.33 74.3602 133.401 74.0479 139.346C73.7352 145.292 68.6503 149.862 62.6905 149.553Z" fill="#0B0755"/>
<path fill-rule="evenodd" clip-rule="evenodd" d="M110.785 25.8834C110.917 28.8252 106.807 37.7213 105.965 37.7586C105.123 37.7971 100.237 29.3058 100.106 26.3639C99.9743 23.4221 102.259 20.9296 105.208 20.7969C108.157 20.6642 110.654 22.9415 110.785 25.8834Z" fill="#0B0755"/>
<path fill-rule="evenodd" clip-rule="evenodd" d="M116.173 44.7849C113.27 44.2512 105.51 38.2587 105.663 37.4317C105.816 36.6051 115.212 33.763 118.115 34.2967C121.018 34.8296 122.937 37.6097 122.401 40.5063C121.864 43.4021 119.076 45.3182 116.173 44.7849Z" fill="#0B0755"/>
<path fill-rule="evenodd" clip-rule="evenodd" d="M98.911 37.1673C99.4406 41.3173 94.6597 54.3898 93.4722 54.5411C92.2844 54.6927 84.3741 43.2387 83.8446 39.0887C83.3154 34.9387 86.2585 31.1443 90.4189 30.6136C94.5797 30.0827 98.3814 33.0165 98.911 37.1673Z" fill="#0B0755"/>
<path fill-rule="evenodd" clip-rule="evenodd" d="M108.4 64.4995C104.276 63.7421 93.2508 55.2279 93.4681 54.053C93.6855 52.8786 107.034 48.8414 111.158 49.5987C115.282 50.3564 118.008 54.3062 117.247 58.4207C116.485 62.5351 112.524 65.2568 108.4 64.4995Z" fill="#0B0755"/>
<mask id="mask1" mask-type="alpha" maskUnits="userSpaceOnUse" x="18" y="78" width="130" height="99">
<path fill-rule="evenodd" clip-rule="evenodd" d="M25.8398 78.4209L147.087 89.0287L139.394 176.965L18.1464 166.357L25.8398 78.4209Z" fill="white"/>
</mask>
<g mask="url(#mask1)">
<path fill-rule="evenodd" clip-rule="evenodd" d="M19.5282 154.055C19.5282 154.055 13.8368 76.6098 147.087 89.0343C147.087 89.0343 84.151 211.735 19.5282 154.055Z" fill="#91B5F8"/>
</g>
<path fill-rule="evenodd" clip-rule="evenodd" d="M146.907 88.9941L19.2902 153.94C19.2902 153.94 72.426 218.3 146.907 88.9941Z" fill="#7C9AF2"/>
<path fill-rule="evenodd" clip-rule="evenodd" d="M116.678 119.752C116.658 119.755 116.639 119.756 116.62 119.757L83.5733 120.465C83.3227 120.471 83.1169 120.265 83.1135 120.006C83.1099 119.746 83.3133 119.535 83.5599 119.527L116.606 118.819C116.857 118.813 117.062 119.019 117.066 119.278C117.069 119.517 116.899 119.718 116.678 119.752Z" fill="#91B5F8"/>
<path fill-rule="evenodd" clip-rule="evenodd" d="M76.4421 151.231C76.409 151.236 76.3744 151.238 76.339 151.235L32.918 147.654C32.6699 147.635 32.4871 147.391 32.5107 147.112C32.5343 146.833 32.7514 146.621 33.0029 146.643L76.4242 150.222C76.6722 150.243 76.8547 150.487 76.8315 150.766C76.8113 151.006 76.6458 151.195 76.4421 151.231Z" fill="#91B5F8"/>
</svg>
