<svg width="157" height="263" viewBox="0 0 157 263" fill="none" xmlns="http://www.w3.org/2000/svg">
<path fill-rule="evenodd" clip-rule="evenodd" d="M114.293 218.219C114.337 218.21 114.382 218.196 114.426 218.177C114.778 218.026 114.941 217.617 114.789 217.264C75.257 124.969 41.51 60.4713 19.765 35.6522C19.282 35.1009 18.9331 34.7032 18.7942 34.4976C18.5785 34.1789 18.1462 34.0968 17.8306 34.3115C17.5134 34.5271 17.431 34.96 17.6462 35.2778C17.8341 35.5555 18.1688 35.9375 18.7232 36.5698C40.374 61.2819 74.0383 125.648 113.515 217.812C113.647 218.121 113.976 218.285 114.293 218.219Z" fill="#BDD1F9"/>
<path fill-rule="evenodd" clip-rule="evenodd" d="M6.27974 32.1114C8.83339 34.8671 20.5936 39.1187 21.3824 38.3908C22.1711 37.6626 18.84 25.6301 16.2864 22.8747C13.7329 20.1194 9.42285 19.9531 6.65942 22.5038C3.89631 25.0544 3.72608 29.3557 6.27974 32.1114Z" fill="#BDD1F9"/>
<path fill-rule="evenodd" clip-rule="evenodd" d="M28.7436 38.7469C28.0624 42.5549 31.8357 54.8608 32.9186 55.0574C34.0014 55.2547 41.7996 45.055 42.4808 41.2467C43.1616 37.4388 40.6389 33.792 36.8453 33.1016C33.052 32.4111 29.4247 34.9386 28.7436 38.7469Z" fill="#BDD1F9"/>
<path fill-rule="evenodd" clip-rule="evenodd" d="M17.9506 62.2323C21.8101 62.0437 32.9291 55.6081 32.8757 54.508C32.8223 53.4078 21.1337 48.0873 17.2741 48.2758C13.4146 48.4644 10.4376 51.7417 10.6243 55.5958C10.8112 59.4496 14.091 62.4208 17.9506 62.2323Z" fill="#BDD1F9"/>
<path fill-rule="evenodd" clip-rule="evenodd" d="M68.7053 98.5111C66.8877 104.722 70.9559 125.872 72.7225 126.396C74.4887 126.92 89.2986 111.367 91.1165 105.156C92.9338 98.946 89.3906 92.4236 83.202 90.5886C77.0133 88.7532 70.5228 92.3005 68.7053 98.5111Z" fill="#BDD1F9"/>
<path fill-rule="evenodd" clip-rule="evenodd" d="M46.4649 135.7C52.932 136.077 72.6378 127.369 72.7491 125.531C72.8603 123.693 54.345 112.759 47.8776 112.382C41.4102 112.006 35.8511 116.92 35.461 123.359C35.0709 129.798 39.9975 135.324 46.4649 135.7Z" fill="#BDD1F9"/>
<path fill-rule="evenodd" clip-rule="evenodd" d="M88.0246 120.444C84.1606 127.383 83.3213 153.787 85.301 154.891C87.2811 155.994 109.278 141.39 113.142 134.451C117.006 127.512 114.516 118.752 107.58 114.884C100.644 111.016 91.8887 113.505 88.0246 120.444Z" fill="#BDD1F9"/>
<path fill-rule="evenodd" clip-rule="evenodd" d="M55.9229 169.61C63.8091 169.277 86.5639 156.149 86.4611 153.877C86.3583 151.604 62.5062 140.446 54.6196 140.78C46.7331 141.113 40.6315 147.837 40.9916 155.799C41.3514 163.76 48.0363 169.944 55.9229 169.61Z" fill="#BDD1F9"/>
<path fill-rule="evenodd" clip-rule="evenodd" d="M102.052 150.444C98.1879 157.383 97.3486 183.786 99.3283 184.891C101.308 185.995 123.305 171.39 127.169 164.451C131.033 157.512 128.543 148.752 121.607 144.884C114.671 141.016 105.916 143.505 102.052 150.444Z" fill="#BDD1F9"/>
<path fill-rule="evenodd" clip-rule="evenodd" d="M69.7353 199.465C77.6214 199.131 100.376 186.003 100.274 183.731C100.17 181.458 76.3182 170.301 68.432 170.634C60.5454 170.967 54.4443 177.692 54.8041 185.653C55.1639 193.614 61.8487 199.798 69.7353 199.465Z" fill="#BDD1F9"/>
<path fill-rule="evenodd" clip-rule="evenodd" d="M129.151 186.885C122.976 191.831 112.242 215.966 113.648 217.748C115.054 219.531 140.812 214.439 146.987 209.493C153.162 204.548 154.174 195.477 149.249 189.234C144.324 182.991 135.326 181.939 129.151 186.885Z" fill="#BDD1F9"/>
<path fill-rule="evenodd" clip-rule="evenodd" d="M82.486 229.314C90.3369 229.981 114.489 219.848 114.667 217.583C114.846 215.318 92.5988 201.243 84.7475 200.576C76.8962 199.909 70.0255 205.801 69.4007 213.737C68.7763 221.673 74.6348 228.647 82.486 229.314Z" fill="#BDD1F9"/>
<path fill-rule="evenodd" clip-rule="evenodd" d="M41.1531 57.5056C40.46 61.3479 44.2716 73.7582 45.3682 73.9562C46.4647 74.1543 54.3716 63.8587 55.0644 60.0165C55.7572 56.1743 53.2048 52.4975 49.3635 51.8043C45.5222 51.1111 41.8459 53.6637 41.1531 57.5056Z" fill="#BDD1F9"/>
<path fill-rule="evenodd" clip-rule="evenodd" d="M30.854 81.415C34.7471 81.2345 45.9438 74.6712 45.8864 73.5429C45.829 72.4146 34.0176 66.9175 30.1245 67.098C26.2314 67.2786 23.2386 70.6299 23.4402 74.5833C23.6414 78.5368 26.9609 81.5955 30.854 81.415Z" fill="#BDD1F9"/>
<path fill-rule="evenodd" clip-rule="evenodd" d="M54.7115 74.4186C53.287 79.8281 57.2746 98.0273 58.8085 98.4418C60.3423 98.8559 72.7486 85.0841 74.1731 79.6742C75.5976 74.2643 72.3959 68.7024 67.022 67.2511C61.6477 65.7998 56.136 69.0087 54.7115 74.4186Z" fill="#BDD1F9"/>
<path fill-rule="evenodd" clip-rule="evenodd" d="M37.4859 108.718C43.0354 108.445 59.0279 99.2057 58.952 97.6277C58.8762 96.05 42.0727 88.4266 36.5231 88.6999C30.9739 88.9732 26.6906 93.676 26.9564 99.2036C27.2221 104.732 31.9363 108.991 37.4859 108.718Z" fill="#BDD1F9"/>
<path fill-rule="evenodd" clip-rule="evenodd" d="M101.347 228.534C101.347 228.534 119.569 166.024 8.16505 152.334C8.16505 152.334 38.2762 264.268 101.347 228.534Z" fill="#6D8AD1"/>
<path fill-rule="evenodd" clip-rule="evenodd" d="M7.66797 151.677L101.955 220.111C102.545 202.776 94.2646 162.52 7.66797 151.677Z" fill="#91B5F8"/>
<path fill-rule="evenodd" clip-rule="evenodd" d="M97.6313 217.691C97.5757 217.726 97.5019 217.725 97.4449 217.683L7.17704 151.853C7.10179 151.798 7.08403 151.693 7.13731 151.618C7.19155 151.543 7.2952 151.526 7.37074 151.581L97.6386 217.412C97.7139 217.466 97.7315 217.572 97.6783 217.647C97.6651 217.665 97.6493 217.68 97.6313 217.691Z" fill="#060633"/>
<path fill-rule="evenodd" clip-rule="evenodd" d="M55.1631 186.26C55.1425 186.273 55.1189 186.282 55.0927 186.284L24.3938 189.363C24.3015 189.373 24.2176 189.304 24.2062 189.21C24.1951 189.117 24.2603 189.033 24.3528 189.024L55.0516 185.945C55.1439 185.936 55.228 186.004 55.2391 186.098C55.2474 186.165 55.2157 186.227 55.1631 186.26Z" fill="#060633"/>
<path fill-rule="evenodd" clip-rule="evenodd" d="M74.5942 200.841C74.5884 200.844 74.5824 200.847 74.5762 200.85C74.4879 200.893 74.3834 200.858 74.3432 200.773L61.1875 172.842C61.1471 172.757 61.187 172.652 61.2746 172.611C61.3631 172.568 61.4675 172.603 61.5078 172.688L74.6633 200.618C74.7007 200.698 74.6697 200.793 74.5942 200.841Z" fill="#060633"/>
<mask id="mask0" mask-type="alpha" maskUnits="userSpaceOnUse" x="13" y="185" width="81" height="77">
<path fill-rule="evenodd" clip-rule="evenodd" d="M13.7109 209.08L72.5567 185.305L93.8421 237.988L34.9963 261.763L13.7109 209.08Z" fill="white"/>
</mask>
<g mask="url(#mask0)">
<path fill-rule="evenodd" clip-rule="evenodd" d="M91.3283 234.194C91.3283 234.194 88.0634 190.375 13.7109 209.08C13.7109 209.08 59.5946 272.157 91.3283 234.194Z" fill="#3B4ACC"/>
</g>
<mask id="mask1" mask-type="alpha" maskUnits="userSpaceOnUse" x="13" y="185" width="80" height="78">
<path fill-rule="evenodd" clip-rule="evenodd" d="M13.582 209.009L71.383 185.656L92.9098 238.936L35.1088 262.289L13.582 209.009Z" fill="white"/>
</mask>
<g mask="url(#mask1)">
<path fill-rule="evenodd" clip-rule="evenodd" d="M13.582 209.009L91.076 234.397C91.076 234.397 66.5909 275.165 13.582 209.009Z" fill="#7C9AF2"/>
</g>
<path fill-rule="evenodd" clip-rule="evenodd" d="M32.786 224.153C32.7972 224.153 32.8084 224.152 32.8196 224.15L51.6374 221.402C51.7801 221.381 51.8818 221.253 51.8649 221.116C51.848 220.979 51.717 220.886 51.5764 220.905L32.7585 223.654C32.6157 223.674 32.5142 223.802 32.5311 223.94C32.5465 224.066 32.6578 224.156 32.786 224.153Z" fill="#3B4ACC"/>
<path fill-rule="evenodd" clip-rule="evenodd" d="M58.6549 237.467C58.6738 237.467 58.6932 237.464 58.7128 237.459L82.7318 231.542C82.869 231.508 82.9559 231.374 82.9256 231.243C82.8952 231.112 82.7606 231.031 82.6215 231.066L58.6024 236.983C58.4652 237.017 58.3781 237.151 58.4087 237.282C58.4348 237.395 58.5389 237.47 58.6549 237.467Z" fill="#3B4ACC"/>
</svg>
