<svg width="326" height="52" viewBox="0 0 326 52" fill="none" xmlns="http://www.w3.org/2000/svg">
<path fill-rule="evenodd" clip-rule="evenodd" d="M74.9261 15.4792C72.4408 15.4792 70.6057 17.3957 70.6057 19.8836C70.6057 22.3899 72.4408 24.2669 74.9261 24.2669C77.4131 24.2669 79.2279 22.3697 79.2279 19.8836C79.2279 17.3957 77.4131 15.4792 74.9261 15.4792ZM74.9261 26.9984C70.7679 26.9984 67.4844 24.1846 67.4844 19.8836C67.4844 15.5817 70.7679 12.7275 74.9261 12.7275C79.0851 12.7275 82.3485 15.6019 82.3485 19.8836C82.3485 24.1636 79.0851 26.9984 74.9261 26.9984Z" fill="#1E4164"/>
<path fill-rule="evenodd" clip-rule="evenodd" d="M99.8306 12.9102C99.9928 12.9102 100.137 13.0522 100.137 13.2168V26.4887C100.137 26.6517 99.9928 26.7937 99.8306 26.7937H97.5074C97.3419 26.7937 97.1999 26.6517 97.1999 26.4887V21.1064H90.8799V26.4887C90.8799 26.6517 90.7589 26.7937 90.574 26.7937H88.2702C88.0862 26.7937 87.9434 26.6517 87.9434 26.4887V13.2168C87.9434 13.0522 88.0862 12.9102 88.2702 12.9102H90.574C90.7589 12.9102 90.8799 13.0522 90.8799 13.2168V18.5169H97.1999V13.2168C97.1999 13.0522 97.3419 12.9102 97.5074 12.9102H99.8306Z" fill="#1E4164"/>
<path fill-rule="evenodd" clip-rule="evenodd" d="M117.723 12.9102C118.05 12.9102 118.09 13.1547 117.927 13.3798L112.809 19.6587L118.09 26.2644C118.294 26.5291 118.252 26.7937 117.947 26.7937H115.193C114.931 26.7937 114.767 26.7131 114.605 26.4887L110.405 21.1257H109.386V26.4887C109.386 26.6517 109.262 26.7937 109.079 26.7937H106.776C106.591 26.7937 106.449 26.6517 106.449 26.4887V13.2168C106.449 13.0522 106.591 12.9102 106.776 12.9102H109.079C109.262 12.9102 109.386 13.0522 109.386 13.2168V18.5169H110.384L114.523 13.2168C114.685 13.0127 114.848 12.9102 115.113 12.9102H117.723Z" fill="#1E4164"/>
<path fill-rule="evenodd" clip-rule="evenodd" d="M129.252 15.4792C126.765 15.4792 124.929 17.3957 124.929 19.8836C124.929 22.3899 126.765 24.2669 129.252 24.2669C131.739 24.2669 133.555 22.3697 133.555 19.8836C133.555 17.3957 131.739 15.4792 129.252 15.4792ZM129.252 26.9984C125.093 26.9984 121.811 24.1846 121.811 19.8836C121.811 15.5817 125.093 12.7275 129.252 12.7275C133.411 12.7275 136.673 15.6019 136.673 19.8836C136.673 24.1636 133.411 26.9984 129.252 26.9984Z" fill="#1E4164"/>
<path fill-rule="evenodd" clip-rule="evenodd" d="M140.717 19.8431C140.717 15.7849 143.999 12.7266 148.156 12.7266C150.115 12.7266 151.4 13.1962 152.358 13.6852C152.561 13.8071 152.583 13.9507 152.501 14.1137L151.562 16.0706C151.483 16.2546 151.318 16.2748 151.156 16.1941C150.3 15.7647 149.363 15.3791 148.097 15.3791C145.753 15.3791 143.795 17.2948 143.795 19.8431C143.795 22.4931 145.671 24.3273 148.118 24.3273C149.383 24.3273 150.4 23.9811 151.279 23.5123C151.462 23.4316 151.562 23.4316 151.645 23.6148L152.583 25.6128C152.663 25.7951 152.62 25.9178 152.439 26.0001C151.359 26.5505 150.031 27 148.097 27C143.612 27 140.717 24.2265 140.717 19.8431Z" fill="#1E4164"/>
<path fill-rule="evenodd" clip-rule="evenodd" d="M168.98 12.9116C169.163 12.9116 169.307 13.0536 169.307 13.2166V15.2146C169.307 15.3793 169.163 15.5213 168.98 15.5213H164.818V26.4885C164.818 26.6532 164.677 26.7952 164.515 26.7952H162.191C162.026 26.7952 161.884 26.6532 161.884 26.4885V15.5213H157.723C157.561 15.5213 157.42 15.3793 157.42 15.2146V13.2166C157.42 13.0536 157.561 12.9116 157.723 12.9116H168.98Z" fill="#1E4164"/>
<path fill-rule="evenodd" clip-rule="evenodd" d="M181.769 15.8876C181.323 15.6028 180.814 15.4793 180.221 15.4793H177.449V20.0467H180.161C180.731 20.0467 181.301 19.9643 181.732 19.6795C182.301 19.3325 182.647 18.7006 182.647 17.763C182.647 16.8463 182.301 16.2346 181.769 15.8876ZM180.609 12.9116C181.769 12.9116 182.933 13.136 183.932 13.951C184.971 14.8071 185.625 16.1321 185.625 17.763C185.625 19.4358 184.911 20.8222 183.789 21.6783C182.81 22.432 181.711 22.6152 180.609 22.6152H177.449V26.4885C177.449 26.6532 177.325 26.7952 177.142 26.7952H174.839C174.656 26.7952 174.512 26.6532 174.512 26.4885V13.2166C174.512 13.0536 174.656 12.9116 174.839 12.9116H180.609Z" fill="#1E4164"/>
<path fill-rule="evenodd" clip-rule="evenodd" d="M195.572 16.4173L193.755 21.6366H197.344L195.572 16.4173ZM192.187 26.4485C192.104 26.693 191.942 26.7955 191.678 26.7955H189.394C189.189 26.7955 189.107 26.693 189.107 26.551C189.107 26.4888 189.127 26.4283 189.148 26.3468L193.9 13.1757C193.959 12.9312 194.123 12.8506 194.389 12.8506H196.815C197.08 12.8506 197.242 12.9312 197.303 13.1757L201.991 26.3468C202.012 26.4283 202.033 26.4888 202.033 26.551C202.033 26.693 201.953 26.7955 201.748 26.7955H199.404C199.119 26.7955 198.955 26.693 198.893 26.4485L198.057 23.9808H193.022L192.187 26.4485Z" fill="#1E4164"/>
<path fill-rule="evenodd" clip-rule="evenodd" d="M220.686 26.3058C220.892 26.5512 220.809 26.7957 220.483 26.7957H217.446C217.16 26.7957 217.06 26.6932 216.915 26.51L213.674 22.0855L210.411 26.51C210.288 26.6932 210.166 26.7957 209.902 26.7957H206.841C206.518 26.7957 206.437 26.5512 206.641 26.3058L211.878 19.8833L206.741 13.4204C206.559 13.1759 206.641 12.9121 206.967 12.9121H210.024C210.288 12.9121 210.411 13.0339 210.535 13.2171L213.695 17.4996L216.75 13.2171C216.896 13.0339 217.018 12.9121 217.302 12.9121H220.381C220.707 12.9121 220.789 13.1759 220.586 13.4204L215.529 19.8228L220.686 26.3058Z" fill="#1E4164"/>
<path fill-rule="evenodd" clip-rule="evenodd" d="M231.83 15.4792C229.341 15.4792 227.506 17.3957 227.506 19.8836C227.506 22.3916 229.341 24.2669 231.83 24.2669C234.317 24.2669 236.131 22.3706 236.131 19.8836C236.131 17.3957 234.317 15.4792 231.83 15.4792ZM231.83 27.0001C227.669 27.0001 224.389 24.1854 224.389 19.8836C224.389 15.5817 227.669 12.7275 231.83 12.7275C235.989 12.7275 239.25 15.6027 239.25 19.8836C239.25 24.1644 235.989 27.0001 231.83 27.0001Z" fill="#1E4164"/>
<path fill-rule="evenodd" clip-rule="evenodd" d="M251.287 21.1678C250.879 20.9637 250.349 20.9225 249.553 20.9225H247.78V24.4094H249.961C250.429 24.4094 250.898 24.369 251.266 24.2052C251.837 23.9598 252.246 23.5129 252.246 22.655C252.246 22.0232 251.959 21.4737 251.287 21.1678ZM250.511 15.6216C250.185 15.3973 249.777 15.2956 249.349 15.2956H247.78V18.5582H249.165C249.532 18.5582 249.982 18.538 250.37 18.354C250.815 18.1305 251.144 17.6827 251.144 16.9483C251.144 16.3148 250.898 15.8871 250.511 15.6216ZM250.594 26.7947H245.171C244.988 26.7947 244.844 26.6527 244.844 26.4889V13.217C244.844 13.0531 244.988 12.9111 245.171 12.9111H249.371C250.533 12.9111 251.733 13.0531 252.754 13.7883C253.55 14.3781 254.1 15.2553 254.1 16.4375C254.1 17.844 253.488 18.885 252.365 19.3933V19.4765C254.344 19.9445 255.243 21.209 255.243 23.0423C255.243 25.6319 252.916 26.7947 250.594 26.7947Z" fill="#1E4164"/>
<path fill-rule="evenodd" clip-rule="evenodd" d="M266.175 16.4173L264.362 21.6366H267.949L266.175 16.4173ZM262.79 26.4485C262.71 26.693 262.546 26.7955 262.281 26.7955H259.997C259.794 26.7955 259.713 26.693 259.713 26.551C259.713 26.4888 259.733 26.4283 259.753 26.3468L264.503 13.1757C264.565 12.9312 264.726 12.8506 264.994 12.8506H267.418C267.683 12.8506 267.846 12.9312 267.908 13.1757L272.597 26.3468C272.618 26.4283 272.638 26.4888 272.638 26.551C272.638 26.693 272.556 26.7955 272.353 26.7955H270.008C269.722 26.7955 269.559 26.693 269.498 26.4485L268.663 23.9808H263.627L262.79 26.4485Z" fill="#1E4164"/>
<path fill-rule="evenodd" clip-rule="evenodd" d="M289.682 12.9116C289.846 12.9116 289.987 13.0536 289.987 13.2166V26.4885C289.987 26.6532 289.846 26.7952 289.682 26.7952H287.358C287.195 26.7952 287.053 26.6532 287.053 26.4885V21.107H280.733V26.4885C280.733 26.6532 280.609 26.7952 280.426 26.7952H278.123C277.941 26.7952 277.797 26.6532 277.797 26.4885V13.2166C277.797 13.0536 277.941 12.9116 278.123 12.9116H280.426C280.609 12.9116 280.733 13.0536 280.733 13.2166V18.5175H287.053V13.2166C287.053 13.0536 287.195 12.9116 287.358 12.9116H289.682Z" fill="#1E4164"/>
<path fill-rule="evenodd" clip-rule="evenodd" d="M305.639 18.436L299.238 24.9795V26.4885C299.238 26.6532 299.115 26.7952 298.933 26.7952H296.628C296.446 26.7952 296.303 26.6532 296.303 26.4885V13.2166C296.303 13.0536 296.446 12.9116 296.628 12.9116H298.933C299.115 12.9116 299.238 13.0536 299.238 13.2166V21.3717L305.639 14.8273V13.2368C305.639 13.0536 305.784 12.9116 305.947 12.9116H308.269C308.434 12.9116 308.576 13.0536 308.576 13.2368V26.4885C308.576 26.6734 308.434 26.7952 308.269 26.7952H305.947C305.784 26.7952 305.639 26.6734 305.639 26.4885V18.436Z" fill="#1E4164"/>
<path fill-rule="evenodd" clip-rule="evenodd" d="M325.04 12.9116C325.223 12.9116 325.367 13.0536 325.367 13.2166V15.2146C325.367 15.3793 325.223 15.5213 325.04 15.5213H317.822V18.5175H323.979C324.142 18.5175 324.286 18.6595 324.286 18.8242V20.8012C324.286 20.9835 324.142 21.1272 323.979 21.1272H317.822V24.2057H325.04C325.223 24.2057 325.367 24.3275 325.367 24.5123V26.4885C325.367 26.6532 325.223 26.7952 325.04 26.7952H315.213C315.03 26.7952 314.887 26.6532 314.887 26.4885V13.2166C314.887 13.0536 315.03 12.9116 315.213 12.9116H325.04Z" fill="#1E4164"/>
<path fill-rule="evenodd" clip-rule="evenodd" d="M77.0307 42.4314C76.9685 42.4314 76.9189 42.3818 76.9189 42.3197V34.8553H72.0054V42.3197C72.0054 42.3818 71.9432 42.4314 71.8811 42.4314H71.1215C71.0593 42.4314 71.0098 42.3818 71.0098 42.3197V34.0848C71.0098 34.0226 71.0593 33.9604 71.1215 33.9604H77.7894C77.8524 33.9604 77.9137 34.0226 77.9137 34.0848V42.3197C77.9137 42.3818 77.8524 42.4314 77.7894 42.4314H77.0307Z" fill="#1E4164"/>
<path fill-rule="evenodd" clip-rule="evenodd" d="M84.4554 39.2213C84.4302 38.713 84.2681 38.2887 83.9941 37.9778C83.7085 37.6661 83.2606 37.4435 82.7011 37.4435C82.0793 37.4435 81.6063 37.6661 81.2954 38.0282C81.0341 38.3391 80.8719 38.7743 80.8476 39.2213H84.4554ZM84.6159 41.3118C84.7159 41.2496 84.7781 41.2866 84.8033 41.337L85.0402 41.7966C85.0772 41.8587 85.052 41.9083 84.9898 41.9587C84.5294 42.2696 83.7211 42.5561 82.8498 42.5561C81.9172 42.5561 81.1458 42.2318 80.6358 41.6479C80.1636 41.1252 79.9023 40.4035 79.9023 39.5574C79.9023 38.7617 80.1763 38.04 80.6484 37.53C81.1206 37.0208 81.8054 36.71 82.7011 36.71C83.6093 36.71 84.305 37.0696 84.7411 37.6048C85.152 38.1274 85.3754 38.8609 85.3259 39.7439C85.3259 39.8322 85.2637 39.8809 85.1763 39.8809H80.8476C80.8854 40.3539 81.0467 40.7892 81.3324 41.1252C81.6937 41.5605 82.2406 41.8092 82.9246 41.8092C83.6093 41.8092 84.1563 41.5857 84.6159 41.3118Z" fill="#1E4164"/>
<path fill-rule="evenodd" clip-rule="evenodd" d="M88.168 41.5474C88.5411 41.7347 88.8772 41.8095 89.3998 41.8095C89.872 41.8095 90.4441 41.66 90.8668 41.2373C91.2155 40.9013 91.4263 40.3534 91.4263 39.6199C91.4263 38.9478 91.2155 38.4252 90.8298 38.053C90.4198 37.6547 89.8342 37.443 89.1502 37.443C88.8276 37.443 88.4663 37.4799 88.168 37.5178V41.5474ZM89.0637 36.7095C90.0341 36.7095 90.8794 36.9708 91.4768 37.5178C91.9994 38.0025 92.3346 38.7125 92.3346 39.6199C92.3346 40.54 92.0615 41.213 91.6263 41.6717C91.0533 42.3061 90.208 42.5556 89.4863 42.5556C88.9519 42.5556 88.5789 42.4935 88.168 42.3061V45.193C88.168 45.2552 88.1185 45.3048 88.0563 45.3048H87.3841C87.3228 45.3048 87.2598 45.2552 87.2598 45.193V37.0203C87.2598 36.9456 87.2976 36.8834 87.3967 36.8582C87.8445 36.7708 88.4663 36.7095 89.0637 36.7095Z" fill="#1E4164"/>
<path fill-rule="evenodd" clip-rule="evenodd" d="M97.6387 40.0183C97.4026 39.8814 97.1035 39.857 96.5691 39.857H95.1752V41.797H96.8178C97.0783 41.797 97.3278 41.7601 97.5395 41.6727C97.8874 41.5357 98.1361 41.2753 98.1361 40.814C98.1361 40.4788 97.9739 40.1922 97.6387 40.0183ZM97.2656 37.6296C97.0665 37.5179 96.8178 37.4691 96.5556 37.4691H95.1752V39.284H96.4691C96.743 39.284 97.0287 39.2722 97.2286 39.1722C97.4891 39.0353 97.6882 38.7992 97.6882 38.3892C97.6882 38.0287 97.5143 37.78 97.2656 37.6296ZM94.4165 42.4314C94.3551 42.4314 94.293 42.3818 94.293 42.3196V36.9331C94.293 36.8709 94.3551 36.8096 94.4165 36.8096H96.7178C97.1404 36.8096 97.6009 36.8583 97.9621 37.1204C98.3218 37.3557 98.5713 37.7178 98.5713 38.2514C98.5713 38.8866 98.2604 39.284 97.8134 39.4831V39.5209C98.6091 39.6461 99.0317 40.1796 99.0317 40.9266C99.0317 41.9962 98.1243 42.4314 97.1665 42.4314H94.4165Z" fill="#1E4164"/>
<path fill-rule="evenodd" clip-rule="evenodd" d="M107.412 36.8091C107.475 36.8091 107.537 36.8704 107.537 36.9326V42.32C107.537 42.3822 107.475 42.4309 107.412 42.4309H106.741C106.679 42.4309 106.629 42.3822 106.629 42.32V36.9326C106.629 36.8704 106.679 36.8091 106.741 36.8091H107.412ZM104.589 40.2287C104.365 40.0061 103.979 39.9178 103.495 39.9178H101.902V41.7604H103.557C103.954 41.7604 104.315 41.6974 104.552 41.5109C104.738 41.3613 104.838 41.1504 104.838 40.8513C104.838 40.5774 104.763 40.3657 104.589 40.2287ZM101.902 39.2465H103.705C104.378 39.2465 104.975 39.4095 105.335 39.7817C105.584 40.0313 105.734 40.3791 105.734 40.8396C105.734 41.3487 105.56 41.7226 105.261 41.9831C104.9 42.2939 104.352 42.4309 103.731 42.4309H101.118C101.057 42.4309 100.994 42.3822 100.994 42.32V36.9326C100.994 36.8704 101.057 36.8091 101.118 36.8091H101.791C101.853 36.8091 101.902 36.8704 101.902 36.9326V39.2465Z" fill="#1E4164"/>
<path fill-rule="evenodd" clip-rule="evenodd" d="M113.541 33.5747C113.554 33.4873 113.603 33.4512 113.678 33.4512H113.989C114.089 33.4512 114.138 33.5125 114.138 33.5747C114.138 34.4325 113.566 35.1417 112.534 35.1417C111.501 35.1417 110.916 34.4325 110.916 33.5747C110.916 33.5125 110.967 33.4512 111.066 33.4512H111.389C111.464 33.4512 111.513 33.4873 111.526 33.5747C111.563 34.1099 111.899 34.4703 112.534 34.4703C113.168 34.4703 113.491 34.1099 113.541 33.5747ZM115.233 42.3195C115.233 42.3817 115.183 42.4313 115.121 42.4313H114.449C114.386 42.4313 114.325 42.3817 114.325 42.3195V38.4017L110.742 41.8347V42.3195C110.742 42.3817 110.693 42.4313 110.63 42.4313H109.958C109.897 42.4313 109.834 42.3817 109.834 42.3195V36.933C109.834 36.8708 109.897 36.8095 109.958 36.8095H110.63C110.693 36.8095 110.742 36.8708 110.742 36.933V40.8761L114.325 37.4312V36.933C114.325 36.8708 114.386 36.8095 114.449 36.8095H115.121C115.183 36.8095 115.233 36.8708 115.233 36.933V42.3195Z" fill="#1E4164"/>
<path fill-rule="evenodd" clip-rule="evenodd" d="M125.32 41.4491C125.407 41.3869 125.482 41.4113 125.507 41.4726L125.756 41.9339C125.793 41.9952 125.756 42.0456 125.693 42.0952C125.245 42.3943 124.599 42.5556 123.939 42.5556C122.994 42.5556 122.211 42.2574 121.687 41.7104C121.19 41.213 120.916 40.4904 120.916 39.6326C120.916 38.8864 121.153 38.2513 121.55 37.7799C122.123 37.0825 122.994 36.7095 123.952 36.7095C124.611 36.7095 125.22 36.896 125.668 37.2069C125.73 37.2564 125.767 37.306 125.73 37.369L125.469 37.8412C125.432 37.916 125.37 37.9286 125.283 37.8782C124.847 37.6051 124.425 37.4925 123.952 37.4925C123.305 37.4925 122.72 37.7421 122.334 38.2025C122.023 38.5621 121.837 39.0478 121.837 39.6326C121.837 40.2795 122.049 40.8139 122.409 41.1995C122.77 41.586 123.305 41.7969 123.964 41.7969C124.436 41.7969 124.884 41.7104 125.32 41.4491Z" fill="#1E4164"/>
<path fill-rule="evenodd" clip-rule="evenodd" d="M131.596 39.2213C131.571 38.713 131.409 38.2887 131.136 37.9778C130.849 37.6661 130.401 37.4435 129.842 37.4435C129.22 37.4435 128.747 37.6661 128.436 38.0282C128.176 38.3391 128.013 38.7743 127.988 39.2213H131.596ZM131.757 41.3118C131.857 41.2496 131.92 41.2866 131.945 41.337L132.181 41.7966C132.218 41.8587 132.193 41.9083 132.13 41.9587C131.671 42.2696 130.863 42.5561 129.991 42.5561C129.058 42.5561 128.287 42.2318 127.776 41.6479C127.305 41.1252 127.043 40.4035 127.043 39.5574C127.043 38.7617 127.317 38.04 127.79 37.53C128.262 37.0208 128.946 36.71 129.842 36.71C130.75 36.71 131.446 37.0696 131.882 37.6048C132.293 38.1274 132.516 38.8609 132.466 39.7439C132.466 39.8322 132.404 39.8809 132.318 39.8809H127.988C128.026 40.3539 128.187 40.7892 128.473 41.1252C128.834 41.5605 129.382 41.8092 130.065 41.8092C130.75 41.8092 131.298 41.5857 131.757 41.3118Z" fill="#1E4164"/>
<path fill-rule="evenodd" clip-rule="evenodd" d="M135.307 41.5474C135.68 41.7347 136.017 41.8095 136.538 41.8095C137.011 41.8095 137.583 41.66 138.006 41.2373C138.354 40.9013 138.566 40.3534 138.566 39.6199C138.566 38.9478 138.354 38.4252 137.968 38.053C137.558 37.6547 136.974 37.443 136.289 37.443C135.966 37.443 135.606 37.4799 135.307 37.5178V41.5474ZM136.202 36.7095C137.173 36.7095 138.019 36.9708 138.615 37.5178C139.139 38.0025 139.473 38.7125 139.473 39.6199C139.473 40.54 139.201 41.213 138.765 41.6717C138.193 42.3061 137.347 42.5556 136.625 42.5556C136.091 42.5556 135.718 42.4935 135.307 42.3061V45.193C135.307 45.2552 135.257 45.3048 135.195 45.3048H134.523C134.461 45.3048 134.398 45.2552 134.398 45.193V37.0203C134.398 36.9456 134.436 36.8834 134.536 36.8582C134.984 36.7708 135.606 36.7095 136.202 36.7095Z" fill="#1E4164"/>
<path fill-rule="evenodd" clip-rule="evenodd" d="M144.78 40.0183C144.544 39.8814 144.245 39.857 143.711 39.857H142.317V41.797H143.958C144.22 41.797 144.469 41.7601 144.68 41.6727C145.029 41.5357 145.278 41.2753 145.278 40.814C145.278 40.4788 145.115 40.1922 144.78 40.0183ZM144.407 37.6296C144.207 37.5179 143.958 37.4691 143.697 37.4691H142.317V39.284H143.611C143.884 39.284 144.17 39.2722 144.369 39.1722C144.631 39.0353 144.83 38.7992 144.83 38.3892C144.83 38.0287 144.656 37.78 144.407 37.6296ZM141.558 42.4314C141.496 42.4314 141.434 42.3818 141.434 42.3196V36.9331C141.434 36.8709 141.496 36.8096 141.558 36.8096H143.859C144.282 36.8096 144.742 36.8583 145.104 37.1204C145.463 37.3557 145.712 37.7178 145.712 38.2514C145.712 38.8866 145.402 39.284 144.954 39.4831V39.5209C145.751 39.6461 146.173 40.1796 146.173 40.9266C146.173 41.9962 145.266 42.4314 144.307 42.4314H141.558Z" fill="#1E4164"/>
<path fill-rule="evenodd" clip-rule="evenodd" d="M153.533 42.3195C153.533 42.3817 153.483 42.4313 153.421 42.4313H152.749C152.687 42.4313 152.625 42.3817 152.625 42.3195V38.4016L149.042 41.8347V42.3195C149.042 42.3817 148.993 42.4313 148.93 42.4313H148.258C148.197 42.4313 148.135 42.3817 148.135 42.3195V36.9329C148.135 36.8708 148.197 36.8086 148.258 36.8086H148.93C148.993 36.8086 149.042 36.8708 149.042 36.9329V40.876L152.625 37.4312V36.9329C152.625 36.8708 152.687 36.8086 152.749 36.8086H153.421C153.483 36.8086 153.533 36.8708 153.533 36.9329V42.3195Z" fill="#1E4164"/>
<path fill-rule="evenodd" clip-rule="evenodd" d="M159.9 41.4491C159.987 41.3869 160.062 41.4113 160.087 41.4726L160.336 41.9339C160.373 41.9952 160.336 42.0456 160.273 42.0952C159.825 42.3943 159.179 42.5556 158.518 42.5556C157.573 42.5556 156.79 42.2574 156.267 41.7104C155.77 41.213 155.496 40.4904 155.496 39.6326C155.496 38.8864 155.733 38.2513 156.131 37.7799C156.703 37.0825 157.573 36.7095 158.532 36.7095C159.191 36.7095 159.8 36.896 160.248 37.2069C160.31 37.2564 160.347 37.306 160.31 37.369L160.049 37.8412C160.012 37.916 159.95 37.9286 159.863 37.8782C159.427 37.6051 159.005 37.4925 158.532 37.4925C157.885 37.4925 157.3 37.7421 156.914 38.2025C156.603 38.5621 156.417 39.0478 156.417 39.6326C156.417 40.2795 156.629 40.8139 156.989 41.1995C157.35 41.586 157.885 41.7969 158.544 41.7969C159.017 41.7969 159.464 41.7104 159.9 41.4491Z" fill="#1E4164"/>
<path fill-rule="evenodd" clip-rule="evenodd" d="M167.041 41.1505C167.402 41.5605 167.937 41.8092 168.559 41.8092C169.181 41.8092 169.716 41.5605 170.077 41.1505C170.437 40.7648 170.636 40.2287 170.636 39.6322C170.636 39.0348 170.437 38.5004 170.077 38.1148C169.716 37.7039 169.181 37.4561 168.559 37.4561C167.937 37.4561 167.402 37.7039 167.041 38.1148C166.681 38.5004 166.482 39.0348 166.482 39.6322C166.482 40.2287 166.681 40.7648 167.041 41.1505ZM166.419 37.5552C166.955 37.0208 167.713 36.71 168.559 36.71C169.405 36.71 170.164 37.0208 170.699 37.5552C171.222 38.0652 171.533 38.787 171.533 39.6322C171.533 40.4783 171.222 41.2 170.699 41.71C170.164 42.2452 169.405 42.5561 168.559 42.5561C167.713 42.5561 166.955 42.2452 166.419 41.71C165.897 41.2 165.586 40.4783 165.586 39.6322C165.586 38.787 165.897 38.0652 166.419 37.5552Z" fill="#1E4164"/>
<path fill-rule="evenodd" clip-rule="evenodd" d="M178.469 36.8091C178.531 36.8091 178.593 36.8704 178.593 36.9326V42.32C178.593 42.3822 178.531 42.4309 178.469 42.4309H177.809C177.747 42.4309 177.685 42.3822 177.685 42.32V40.0061H174.376V42.32C174.376 42.3822 174.327 42.4309 174.252 42.4309H173.592C173.531 42.4309 173.469 42.3822 173.469 42.32V36.9326C173.469 36.8704 173.531 36.8091 173.592 36.8091H174.252C174.327 36.8091 174.376 36.8704 174.376 36.9326V39.2096H177.685V36.9326C177.685 36.8704 177.747 36.8091 177.809 36.8091H178.469Z" fill="#1E4164"/>
<path fill-rule="evenodd" clip-rule="evenodd" d="M185.622 36.8091C185.734 36.8091 185.772 36.9082 185.672 37.0208L183.383 39.5574L185.746 42.2318C185.847 42.3318 185.809 42.4309 185.697 42.4309H184.902C184.79 42.4309 184.739 42.4065 184.665 42.32L182.612 40.0061H181.791V42.32C181.791 42.3822 181.742 42.4309 181.667 42.4309H181.007C180.946 42.4309 180.883 42.3822 180.883 42.32V36.9326C180.883 36.8704 180.946 36.8091 181.007 36.8091H181.667C181.742 36.8091 181.791 36.8704 181.791 36.9326V39.2096H182.612L184.615 36.9326C184.676 36.8587 184.739 36.8091 184.839 36.8091H185.622Z" fill="#1E4164"/>
<path fill-rule="evenodd" clip-rule="evenodd" d="M188.268 41.1505C188.629 41.5605 189.163 41.8092 189.786 41.8092C190.408 41.8092 190.942 41.5605 191.303 41.1505C191.663 40.7648 191.862 40.2287 191.862 39.6322C191.862 39.0348 191.663 38.5004 191.303 38.1148C190.942 37.7039 190.408 37.4561 189.786 37.4561C189.163 37.4561 188.629 37.7039 188.268 38.1148C187.907 38.5004 187.708 39.0348 187.708 39.6322C187.708 40.2287 187.907 40.7648 188.268 41.1505ZM187.646 37.5552C188.18 37.0208 188.94 36.71 189.786 36.71C190.631 36.71 191.39 37.0208 191.925 37.5552C192.448 38.0652 192.759 38.787 192.759 39.6322C192.759 40.4783 192.448 41.2 191.925 41.71C191.39 42.2452 190.631 42.5561 189.786 42.5561C188.94 42.5561 188.18 42.2452 187.646 41.71C187.123 41.2 186.812 40.4783 186.812 39.6322C186.812 38.787 187.123 38.0652 187.646 37.5552Z" fill="#1E4164"/>
<path fill-rule="evenodd" clip-rule="evenodd" d="M198.809 41.4491C198.896 41.3869 198.971 41.4113 198.996 41.4726L199.245 41.9339C199.281 41.9952 199.245 42.0456 199.182 42.0952C198.734 42.3943 198.089 42.5556 197.428 42.5556C196.482 42.5556 195.7 42.2574 195.177 41.7104C194.679 41.213 194.406 40.4904 194.406 39.6326C194.406 38.8864 194.642 38.2513 195.041 37.7799C195.612 37.0825 196.482 36.7095 197.441 36.7095C198.1 36.7095 198.711 36.896 199.158 37.2069C199.22 37.2564 199.257 37.306 199.22 37.369L198.959 37.8412C198.922 37.916 198.859 37.9286 198.772 37.8782C198.337 37.6051 197.914 37.4925 197.441 37.4925C196.794 37.4925 196.209 37.7421 195.824 38.2025C195.513 38.5621 195.325 39.0478 195.325 39.6326C195.325 40.2795 195.537 40.8139 195.898 41.1995C196.26 41.586 196.794 41.7969 197.454 41.7969C197.926 41.7969 198.374 41.7104 198.809 41.4491Z" fill="#1E4164"/>
<path fill-rule="evenodd" clip-rule="evenodd" d="M205.844 36.8091C205.918 36.8091 205.967 36.8704 205.967 36.9326V37.4922C205.967 37.5552 205.918 37.6174 205.844 37.6174H203.741V42.32C203.741 42.3822 203.691 42.4309 203.63 42.4309H202.958C202.896 42.4309 202.834 42.3822 202.834 42.32V37.6174H200.731C200.67 37.6174 200.619 37.5552 200.619 37.4922V36.9326C200.619 36.8704 200.67 36.8091 200.731 36.8091H205.844Z" fill="#1E4164"/>
<path fill-rule="evenodd" clip-rule="evenodd" d="M208.476 41.5474C208.849 41.7347 209.186 41.8095 209.708 41.8095C210.18 41.8095 210.753 41.66 211.175 41.2373C211.524 40.9013 211.735 40.3534 211.735 39.6199C211.735 38.9478 211.524 38.4252 211.138 38.053C210.728 37.6547 210.143 37.443 209.46 37.443C209.135 37.443 208.774 37.4799 208.476 37.5178V41.5474ZM209.371 36.7095C210.342 36.7095 211.188 36.9708 211.785 37.5178C212.308 38.0025 212.644 38.7125 212.644 39.6199C212.644 40.54 212.37 41.213 211.934 41.6717C211.362 42.3061 210.517 42.5556 209.794 42.5556C209.261 42.5556 208.887 42.4935 208.476 42.3061V45.193C208.476 45.2552 208.425 45.3048 208.364 45.3048H207.692C207.631 45.3048 207.568 45.2552 207.568 45.193V37.0203C207.568 36.9456 207.605 36.8834 207.705 36.8582C208.153 36.7708 208.774 36.7095 209.371 36.7095Z" fill="#1E4164"/>
<path fill-rule="evenodd" clip-rule="evenodd" d="M217.897 41.4731V39.7204C217.312 39.7439 216.615 39.7818 216.043 39.9439C215.508 40.0809 215.097 40.3539 215.097 40.8513C215.097 41.5479 215.819 41.8352 216.514 41.8352C216.988 41.8352 217.46 41.6983 217.897 41.4731ZM214.886 37.9543C214.798 38.003 214.737 37.9778 214.711 37.9165L214.5 37.4561C214.463 37.3813 214.475 37.3443 214.563 37.2939C215.135 36.9082 215.931 36.71 216.703 36.71C217.237 36.71 217.897 36.8091 218.344 37.3191C218.63 37.6426 218.804 38.1148 218.804 38.8365V42.32C218.804 42.3822 218.754 42.4318 218.692 42.4318H218.107C218.045 42.4318 217.996 42.3822 217.996 42.32V42.1209H217.947C217.374 42.457 216.877 42.5561 216.255 42.5561C215.743 42.5561 215.247 42.4318 214.861 42.157C214.488 41.884 214.227 41.4731 214.227 40.9017C214.227 40.1304 214.7 39.6952 215.384 39.4331C216.142 39.1474 217.15 39.0735 217.897 39.0357V38.8483C217.897 38.3509 217.809 38.0535 217.61 37.8165C217.361 37.5308 216.963 37.4435 216.589 37.4435C215.882 37.4435 215.358 37.6796 214.886 37.9543Z" fill="#1E4164"/>
<path fill-rule="evenodd" clip-rule="evenodd" d="M222.68 39.57L220.479 37.0074C220.404 36.9082 220.428 36.8091 220.553 36.8091H221.399C221.499 36.8091 221.548 36.8578 221.598 36.9326L223.24 38.9356L224.894 36.9326C224.944 36.8578 224.981 36.8091 225.093 36.8091H225.901C226.026 36.8091 226.064 36.9082 225.977 37.0074L223.775 39.5087L226.114 42.2452C226.189 42.3444 226.164 42.4309 226.026 42.4309H225.206C225.106 42.4309 225.056 42.3822 225.007 42.3318L223.24 40.1918L221.461 42.3318C221.411 42.3939 221.362 42.4309 221.263 42.4309H220.454C220.329 42.4309 220.291 42.3318 220.367 42.2452L222.68 39.57Z" fill="#1E4164"/>
<path fill-rule="evenodd" clip-rule="evenodd" d="M228.561 41.1505C228.922 41.5605 229.455 41.8092 230.078 41.8092C230.701 41.8092 231.235 41.5605 231.596 41.1505C231.956 40.7648 232.155 40.2287 232.155 39.6322C232.155 39.0348 231.956 38.5004 231.596 38.1148C231.235 37.7039 230.701 37.4561 230.078 37.4561C229.455 37.4561 228.922 37.7039 228.561 38.1148C228.2 38.5004 228.001 39.0348 228.001 39.6322C228.001 40.2287 228.2 40.7648 228.561 41.1505ZM227.939 37.5552C228.473 37.0208 229.233 36.71 230.078 36.71C230.924 36.71 231.683 37.0208 232.218 37.5552C232.741 38.0652 233.052 38.787 233.052 39.6322C233.052 40.4783 232.741 41.2 232.218 41.71C231.683 42.2452 230.924 42.5561 230.078 42.5561C229.233 42.5561 228.473 42.2452 227.939 41.71C227.416 41.2 227.105 40.4783 227.105 39.6322C227.105 38.787 227.416 38.0652 227.939 37.5552Z" fill="#1E4164"/>
<path fill-rule="evenodd" clip-rule="evenodd" d="M238.334 40.0183C238.098 39.8814 237.799 39.857 237.264 39.857H235.87V41.797H237.511C237.774 41.797 238.023 41.7601 238.235 41.6727C238.583 41.5357 238.831 41.2753 238.831 40.814C238.831 40.4788 238.668 40.1922 238.334 40.0183ZM237.961 37.6296C237.761 37.5179 237.511 37.4691 237.252 37.4691H235.87V39.284H237.164C237.439 39.284 237.723 39.2722 237.924 39.1722C238.184 39.0353 238.384 38.7992 238.384 38.3892C238.384 38.0287 238.21 37.78 237.961 37.6296ZM235.112 42.4314C235.05 42.4314 234.988 42.3818 234.988 42.3196V36.9331C234.988 36.8709 235.05 36.8096 235.112 36.8096H237.413C237.836 36.8096 238.296 36.8583 238.657 37.1204C239.016 37.3557 239.267 37.7178 239.267 38.2514C239.267 38.8866 238.956 39.284 238.509 39.4831V39.5209C239.304 39.6461 239.727 40.1796 239.727 40.9266C239.727 41.9962 238.82 42.4314 237.862 42.4314H235.112Z" fill="#1E4164"/>
<path fill-rule="evenodd" clip-rule="evenodd" d="M245.05 41.4731V39.7204C244.465 39.7439 243.769 39.7818 243.197 39.9439C242.661 40.0809 242.251 40.3539 242.251 40.8513C242.251 41.5479 242.972 41.8352 243.669 41.8352C244.142 41.8352 244.615 41.6983 245.05 41.4731ZM242.04 37.9543C241.951 38.003 241.89 37.9778 241.866 37.9165L241.654 37.4561C241.617 37.3813 241.63 37.3443 241.716 37.2939C242.288 36.9082 243.084 36.71 243.856 36.71C244.39 36.71 245.05 36.8091 245.498 37.3191C245.784 37.6426 245.957 38.1148 245.957 38.8365V42.32C245.957 42.3822 245.908 42.4318 245.846 42.4318H245.261C245.199 42.4318 245.149 42.3822 245.149 42.32V42.1209H245.1C244.527 42.457 244.03 42.5561 243.408 42.5561C242.897 42.5561 242.401 42.4318 242.014 42.157C241.641 41.884 241.381 41.4731 241.381 40.9017C241.381 40.1304 241.853 39.6952 242.538 39.4331C243.296 39.1474 244.304 39.0735 245.05 39.0357V38.8483C245.05 38.3509 244.963 38.0535 244.764 37.8165C244.515 37.5308 244.117 37.4435 243.744 37.4435C243.035 37.4435 242.512 37.6796 242.04 37.9543Z" fill="#1E4164"/>
<path fill-rule="evenodd" clip-rule="evenodd" d="M253.19 36.8091C253.252 36.8091 253.313 36.8704 253.313 36.9326V42.32C253.313 42.3822 253.252 42.4309 253.19 42.4309H252.53C252.469 42.4309 252.406 42.3822 252.406 42.32V40.0061H249.097V42.32C249.097 42.3822 249.047 42.4309 248.972 42.4309H248.313C248.252 42.4309 248.189 42.3822 248.189 42.32V36.9326C248.189 36.8704 248.252 36.8091 248.313 36.8091H248.972C249.047 36.8091 249.097 36.8704 249.097 36.9326V39.2096H252.406V36.9326C252.406 36.8704 252.469 36.8091 252.53 36.8091H253.19Z" fill="#1E4164"/>
<path fill-rule="evenodd" clip-rule="evenodd" d="M261.002 42.3195C261.002 42.3817 260.951 42.4313 260.89 42.4313H260.218C260.156 42.4313 260.094 42.3817 260.094 42.3195V38.4016L256.511 41.8347V42.3195C256.511 42.3817 256.462 42.4313 256.398 42.4313H255.728C255.665 42.4313 255.604 42.3817 255.604 42.3195V36.9329C255.604 36.8708 255.665 36.8086 255.728 36.8086H256.398C256.462 36.8086 256.511 36.8708 256.511 36.9329V40.876L260.094 37.4312V36.9329C260.094 36.8708 260.156 36.8086 260.218 36.8086H260.89C260.951 36.8086 261.002 36.8708 261.002 36.9329V42.3195Z" fill="#1E4164"/>
<path fill-rule="evenodd" clip-rule="evenodd" d="M265.111 37.5547C264.738 37.5547 264.389 37.6169 264.152 37.8168C263.978 37.9773 263.867 38.2143 263.867 38.5621C263.867 38.9478 264.003 39.2099 264.215 39.3578C264.45 39.5325 264.8 39.5956 265.16 39.5956H266.564V37.5547H265.111ZM267.325 36.8086C267.386 36.8086 267.436 36.8708 267.436 36.9329V42.3195C267.436 42.3817 267.386 42.4313 267.325 42.4313H266.678C266.615 42.4313 266.564 42.3817 266.564 42.3195V40.3291H265.222L263.742 42.3439C263.692 42.4187 263.642 42.4313 263.555 42.4313H262.896C262.782 42.4313 262.782 42.3565 262.834 42.2573L264.438 40.1425C264.078 40.0804 263.729 39.9804 263.455 39.7317C263.157 39.483 262.971 39.0973 262.971 38.5503C262.971 37.8168 263.294 37.3312 263.792 37.0699C264.127 36.896 264.55 36.8086 265.011 36.8086H267.325Z" fill="#1E4164"/>
<path fill-rule="evenodd" clip-rule="evenodd" d="M276.841 40.0183C276.605 39.8814 276.305 39.857 275.771 39.857H274.376V41.797H276.018C276.28 41.797 276.53 41.7601 276.741 41.6727C277.089 41.5357 277.338 41.2753 277.338 40.814C277.338 40.4788 277.175 40.1922 276.841 40.0183ZM276.468 37.6296C276.268 37.5179 276.018 37.4691 275.758 37.4691H274.376V39.284H275.67C275.945 39.284 276.23 39.2722 276.43 39.1722C276.69 39.0353 276.89 38.7992 276.89 38.3892C276.89 38.0287 276.716 37.78 276.468 37.6296ZM273.618 42.4314C273.556 42.4314 273.494 42.3818 273.494 42.3196V36.9331C273.494 36.8709 273.556 36.8096 273.618 36.8096H275.92C276.342 36.8096 276.803 36.8583 277.164 37.1204C277.523 37.3557 277.772 37.7178 277.772 38.2514C277.772 38.8866 277.462 39.284 277.015 39.4831V39.5209C277.81 39.6461 278.234 40.1796 278.234 40.9266C278.234 41.9962 277.325 42.4314 276.368 42.4314H273.618Z" fill="#1E4164"/>
<path fill-rule="evenodd" clip-rule="evenodd" d="M288.658 35.2174C288.272 34.93 287.824 34.8309 287.289 34.8309H284.988V38.6622H287.152C287.674 38.6622 288.197 38.5992 288.607 38.3262C289.08 38.0027 289.379 37.4431 289.379 36.7466C289.379 36.0374 289.106 35.5283 288.658 35.2174ZM287.439 33.9604C288.172 33.9604 288.807 34.0974 289.391 34.5578C290.013 35.0426 290.387 35.7887 290.387 36.7466C290.387 37.7044 289.976 38.5135 289.304 38.9983C288.72 39.4336 288.023 39.5335 287.314 39.5335H284.988V42.3197C284.988 42.3818 284.926 42.4314 284.863 42.4314H284.105C284.043 42.4314 283.992 42.3818 283.992 42.3197V34.0848C283.992 34.0226 284.043 33.9604 284.105 33.9604H287.439Z" fill="#1E4164"/>
<path fill-rule="evenodd" clip-rule="evenodd" d="M293.153 41.1505C293.514 41.5605 294.047 41.8092 294.67 41.8092C295.292 41.8092 295.827 41.5605 296.187 41.1505C296.548 40.7648 296.747 40.2287 296.747 39.6322C296.747 39.0348 296.548 38.5004 296.187 38.1148C295.827 37.7039 295.292 37.4561 294.67 37.4561C294.047 37.4561 293.514 37.7039 293.153 38.1148C292.792 38.5004 292.593 39.0348 292.593 39.6322C292.593 40.2287 292.792 40.7648 293.153 41.1505ZM292.531 37.5552C293.065 37.0208 293.825 36.71 294.67 36.71C295.516 36.71 296.275 37.0208 296.81 37.5552C297.333 38.0652 297.643 38.787 297.643 39.6322C297.643 40.4783 297.333 41.2 296.81 41.71C296.275 42.2452 295.516 42.5561 294.67 42.5561C293.825 42.5561 293.065 42.2452 292.531 41.71C292.008 41.2 291.697 40.4783 291.697 39.6322C291.697 38.787 292.008 38.0652 292.531 37.5552Z" fill="#1E4164"/>
<path fill-rule="evenodd" clip-rule="evenodd" d="M303.693 41.4491C303.78 41.3869 303.854 41.4113 303.88 41.4726L304.129 41.9339C304.165 41.9952 304.129 42.0456 304.066 42.0952C303.618 42.3943 302.973 42.5556 302.311 42.5556C301.366 42.5556 300.584 42.2574 300.06 41.7104C299.563 41.213 299.289 40.4904 299.289 39.6326C299.289 38.8864 299.526 38.2513 299.924 37.7799C300.496 37.0825 301.366 36.7095 302.325 36.7095C302.983 36.7095 303.594 36.896 304.04 37.2069C304.103 37.2564 304.14 37.306 304.103 37.369L303.843 37.8412C303.805 37.916 303.743 37.9286 303.656 37.8782C303.22 37.6051 302.798 37.4925 302.325 37.4925C301.678 37.4925 301.093 37.7421 300.707 38.2025C300.396 38.5621 300.209 39.0478 300.209 39.6326C300.209 40.2795 300.421 40.8139 300.782 41.1995C301.143 41.586 301.678 41.7969 302.337 41.7969C302.81 41.7969 303.257 41.7104 303.693 41.4491Z" fill="#1E4164"/>
<path fill-rule="evenodd" clip-rule="evenodd" d="M309.807 41.4491C309.894 41.3869 309.969 41.4113 309.994 41.4726L310.243 41.9339C310.279 41.9952 310.243 42.0456 310.18 42.0952C309.732 42.3943 309.087 42.5556 308.426 42.5556C307.48 42.5556 306.698 42.2574 306.175 41.7104C305.677 41.213 305.404 40.4904 305.404 39.6326C305.404 38.8864 305.64 38.2513 306.039 37.7799C306.61 37.0825 307.48 36.7095 308.439 36.7095C309.098 36.7095 309.709 36.896 310.156 37.2069C310.218 37.2564 310.255 37.306 310.218 37.369L309.957 37.8412C309.92 37.916 309.857 37.9286 309.77 37.8782C309.335 37.6051 308.912 37.4925 308.439 37.4925C307.792 37.4925 307.207 37.7421 306.822 38.2025C306.511 38.5621 306.323 39.0478 306.323 39.6326C306.323 40.2795 306.535 40.8139 306.897 41.1995C307.258 41.586 307.792 41.7969 308.452 41.7969C308.924 41.7969 309.372 41.7104 309.807 41.4491Z" fill="#1E4164"/>
<path fill-rule="evenodd" clip-rule="evenodd" d="M317.418 42.3195C317.418 42.3817 317.367 42.4313 317.306 42.4313H316.634C316.572 42.4313 316.51 42.3817 316.51 42.3195V38.4016L312.927 41.8347V42.3195C312.927 42.3817 312.878 42.4313 312.814 42.4313H312.144C312.081 42.4313 312.02 42.3817 312.02 42.3195V36.9329C312.02 36.8708 312.081 36.8086 312.144 36.8086H312.814C312.878 36.8086 312.927 36.8708 312.927 36.9329V40.876L316.51 37.4312V36.9329C316.51 36.8708 316.572 36.8086 316.634 36.8086H317.306C317.367 36.8086 317.418 36.8708 317.418 36.9329V42.3195Z" fill="#1E4164"/>
<path fill-rule="evenodd" clip-rule="evenodd" d="M325.107 42.3195C325.107 42.3817 325.056 42.4313 324.996 42.4313H324.323C324.261 42.4313 324.2 42.3817 324.2 42.3195V38.4016L320.616 41.8347V42.3195C320.616 42.3817 320.568 42.4313 320.504 42.4313H319.833C319.771 42.4313 319.709 42.3817 319.709 42.3195V36.9329C319.709 36.8708 319.771 36.8086 319.833 36.8086H320.504C320.568 36.8086 320.616 36.8708 320.616 36.9329V40.876L324.2 37.4312V36.9329C324.2 36.8708 324.261 36.8086 324.323 36.8086H324.996C325.056 36.8086 325.107 36.8708 325.107 36.9329V42.3195Z" fill="#1E4164"/>
</svg>
