<svg width="52" height="52" viewBox="0 0 52 52" fill="none" xmlns="http://www.w3.org/2000/svg">
<path fill-rule="evenodd" clip-rule="evenodd" d="M43.0114 29.134C38.4533 30.2322 32.3736 30.8346 25.8939 30.8346C19.4159 30.8346 13.3353 30.2322 8.77723 29.134C4.10316 28.014 2.40763 26.6529 2.40763 26.0118C2.40763 25.3707 4.10316 24.0096 8.77723 22.8888C9.28976 22.7644 9.82329 22.6493 10.3719 22.5392C10.424 21.7629 10.5618 21.0017 10.7836 20.269C9.90899 20.4303 9.06878 20.6059 8.27395 20.7966C7.08506 21.0815 6.0348 21.3923 5.10889 21.7242C6.64647 20.5328 8.79319 19.4447 11.4608 18.576C11.9541 17.6106 12.5951 16.7149 13.3874 15.9268C13.4395 15.8705 13.5026 15.8184 13.5605 15.7621C10.5307 16.5015 7.88913 17.5106 5.77265 18.7205C9.88882 14.6119 17.3675 11.8594 25.8939 11.8594C34.422 11.8594 41.9015 14.6127 46.0177 18.7205C43.9021 17.5106 41.2604 16.5015 38.2323 15.7621C38.2903 15.8184 38.3466 15.8705 38.4046 15.9268C39.2003 16.7233 39.8354 17.6207 40.3219 18.576C42.9929 19.4439 45.1422 20.5328 46.6815 21.7251C45.7547 21.3923 44.7044 21.0815 43.5147 20.7966C42.7199 20.6042 41.8772 20.4303 40.9991 20.2682C41.2252 21.0109 41.3587 21.7713 41.4125 22.5375C41.9645 22.6476 42.4989 22.7644 43.0114 22.8888C47.6847 24.0096 49.3827 25.3707 49.3827 26.0118C49.3827 26.6529 47.6847 28.014 43.0114 29.134ZM25.8939 35.4994C16.2929 35.4994 8.84781 33.2082 5.09461 30.2943C6.02387 30.6287 7.07917 30.9413 8.27395 31.2278C11.0878 31.9042 14.4503 32.3974 18.1136 32.6864L19.6428 34.2164C20.8333 34.3517 22.0693 34.4483 23.354 34.5054L21.7475 32.9007C23.1061 32.9553 24.4908 32.9847 25.8939 32.9847C27.2979 32.9847 28.6826 32.9553 30.0403 32.9007L28.4389 34.5038C29.7211 34.4483 30.9595 34.3517 32.1467 34.2164L33.6759 32.6864C37.3392 32.3974 40.7009 31.9042 43.5147 31.2278C44.7112 30.9405 45.7673 30.6279 46.6983 30.2935C42.9459 33.2073 35.5 35.4994 25.8939 35.4994ZM25.8939 40.1651C17.3641 40.1651 9.8821 37.41 5.76761 33.2989C9.8737 35.649 15.9669 37.2344 23.0028 37.5781L23.5481 38.1242C23.5682 38.1461 23.5867 38.1654 23.6102 38.1864C24.2185 38.7981 25.0319 39.135 25.8939 39.135C26.7576 39.135 27.5693 38.7981 28.1826 38.1864L28.7909 37.5781C35.8268 37.2336 41.9192 35.6473 46.0236 33.2964C41.9091 37.4092 34.4262 40.1651 25.8939 40.1651ZM25.8939 44.8341C17.9893 44.8341 10.9887 41.685 6.72965 36.8723C7.12539 37.1538 7.53036 37.4302 7.95971 37.6957C12.7657 40.6776 19.1345 42.316 25.8939 42.316C32.6542 42.316 39.023 40.6776 43.8332 37.6957C44.2591 37.4319 44.6633 37.1563 45.0565 36.8765C40.7975 41.6858 33.7977 44.8341 25.8939 44.8341ZM25.8939 49.5006C18.4614 49.5006 11.8289 46.0255 7.52196 40.6188C12.1834 44.5417 18.6959 46.9859 25.8939 46.9859C33.0945 46.9859 39.6061 44.5417 44.2675 40.6196C39.9606 46.0255 33.3272 49.5006 25.8939 49.5006ZM25.8939 7.19034C33.7977 7.19034 40.7966 10.3378 45.0565 15.1479C44.6624 14.8681 44.2591 14.5926 43.8332 14.3279C39.023 11.3468 32.6542 9.70508 25.8939 9.70508C19.1345 9.70508 12.7657 11.3468 7.95971 14.3279C7.5312 14.5934 7.12539 14.8698 6.73049 15.1513C10.9895 10.3394 17.9901 7.19034 25.8939 7.19034ZM25.8939 2.52384C33.3264 2.52384 39.959 5.99809 44.2667 11.4031C39.6052 7.48106 33.0945 5.03858 25.8939 5.03858C18.6967 5.03858 12.1851 7.4819 7.5228 11.404C11.8297 5.99809 18.4623 2.52384 25.8939 2.52384ZM25.8939 0.37207C11.76 0.37207 0.255859 11.8737 0.255859 26.0118C0.255859 40.1508 11.76 51.6507 25.8939 51.6507C40.0329 51.6507 51.5328 40.1508 51.5328 26.0118C51.5328 11.8737 40.0329 0.37207 25.8939 0.37207ZM31.0536 14.764C29.1648 14.764 27.3727 15.3773 25.8939 16.5074C24.421 15.3773 22.6238 14.764 20.735 14.764C18.4623 14.764 16.3265 15.6521 14.7158 17.2585C13.111 18.8658 12.2246 21.0017 12.2246 23.2744C12.2246 25.522 13.0925 27.6342 14.662 29.2332C15.8795 29.3878 17.1516 29.5146 18.4623 29.6146L16.4273 27.5788C15.2779 26.4294 14.6452 24.9002 14.6452 23.2744C14.6452 21.6486 15.2779 20.1194 16.4273 18.97C17.5784 17.8206 19.1092 17.1863 20.735 17.1863C22.3592 17.1863 23.8909 17.8206 25.0403 18.97C25.2646 19.1969 25.5746 19.3254 25.8939 19.3254C26.214 19.3254 26.5215 19.1969 26.7534 18.97C27.8978 17.8206 29.4295 17.1863 31.0536 17.1863C32.6836 17.1863 34.2094 17.8206 35.3614 18.97C37.7148 21.3268 37.7349 25.1481 35.4118 27.5267C35.3933 27.5435 35.374 27.5603 35.3538 27.5796L33.3222 29.6146C34.6371 29.5146 35.9092 29.3878 37.1292 29.2332C40.3883 25.9127 40.3723 20.5572 37.0729 17.2585C35.4664 15.6521 33.3306 14.764 31.0536 14.764Z" fill="#00A0FA"/>
</svg>
