<svg width="22" height="22" viewBox="0 0 22 22" fill="none" xmlns="http://www.w3.org/2000/svg">
<circle cx="11" cy="11" r="11" fill="white"/>
<path d="M10.7109 7.55859C10.5156 7.75391 10.5352 8.04688 10.7109 8.24219L13.0742 10.4688H7.46875C7.19531 10.4688 7 10.6836 7 10.9375V11.5625C7 11.8359 7.19531 12.0312 7.46875 12.0312H13.0742L10.7109 14.2773C10.5352 14.4727 10.5352 14.7656 10.7109 14.9609L11.1406 15.3906C11.3359 15.5664 11.6289 15.5664 11.8047 15.3906L15.6133 11.582C15.7891 11.4062 15.7891 11.1133 15.6133 10.918L11.8047 7.12891C11.6289 6.95312 11.3359 6.95312 11.1406 7.12891L10.7109 7.55859Z" fill="#00A1FA"/>
</svg>
