<svg width="87" height="187" viewBox="0 0 87 187" fill="none" xmlns="http://www.w3.org/2000/svg">
<path fill-rule="evenodd" clip-rule="evenodd" d="M-53.8177 143.846C-53.7972 143.877 -53.7733 143.907 -53.7456 143.934C-53.5262 144.156 -53.1675 144.156 -52.9461 143.936C4.8879 86.3164 43.4578 41.4115 55.6589 17.4939C55.9303 16.9626 56.1254 16.5794 56.2394 16.4119C56.4151 16.1531 56.3467 15.8009 56.0889 15.626C55.8301 15.4502 55.4784 15.5177 55.3026 15.7761C55.1498 16.0015 54.9624 16.3698 54.6515 16.9792C42.5025 40.7937 4.00691 85.5962 -53.7444 143.134C-53.9381 143.327 -53.963 143.626 -53.8177 143.846Z" fill="#0B0755"/>
<path fill-rule="evenodd" clip-rule="evenodd" d="M56.9086 5.28384C55.1631 7.73133 53.8773 17.5417 54.6024 18.0242C55.328 18.5071 64.3637 13.8551 66.1101 11.4081C67.8561 8.96104 67.2124 5.60596 64.6718 3.91485C62.1312 2.22417 58.6554 2.83683 56.9086 5.28384Z" fill="#0B0755"/>
<path fill-rule="evenodd" clip-rule="evenodd" d="M57.3683 27.0621C54.2014 27.1461 44.9604 32.3201 44.9825 33.2419C45.0046 34.1638 54.4768 38.8403 57.6433 38.7563C60.8102 38.6723 63.3146 35.9861 63.2392 32.7569C63.1634 29.5272 60.5348 26.9781 57.3683 27.0621Z" fill="#0B0755"/>
<path fill-rule="evenodd" clip-rule="evenodd" d="M35.311 24.9012C36.6243 27.6454 45.0081 33.8097 45.8502 33.4454C46.6928 33.0814 47.3115 23.0259 45.9969 20.2819C44.684 17.5372 41.2264 16.3462 38.2752 17.6219C35.3244 18.8975 33.9968 22.1567 35.311 24.9012Z" fill="#0B0755"/>
<path fill-rule="evenodd" clip-rule="evenodd" d="M22.6965 73.2524C17.5233 73.7217 2.99559 83.2817 3.13768 84.8111C3.27976 86.3405 19.326 93.1266 24.4992 92.6573C29.6727 92.188 33.4631 87.4636 32.9653 82.1049C32.4675 76.7462 27.87 72.7827 22.6965 73.2524Z" fill="#0B0755"/>
<path fill-rule="evenodd" clip-rule="evenodd" d="M-11.8515 68.0002C-10.1763 72.9829 2.60416 85.169 4.07028 84.6943C5.53544 84.2193 8.41765 66.9588 6.74297 61.9761C5.06873 56.9933 -0.451501 54.3024 -5.58656 55.9663C-10.7212 57.6296 -13.5257 63.0175 -11.8515 68.0002Z" fill="#0B0755"/>
<path fill-rule="evenodd" clip-rule="evenodd" d="M12.5294 94.4627C6.1231 93.6211 -14.0829 100.916 -14.3226 102.746C-14.5618 104.577 3.08667 116.846 9.49205 117.688C15.8979 118.529 21.7703 114.013 22.6088 107.599C23.4478 101.186 18.9352 95.3043 12.5294 94.4627Z" fill="#0B0755"/>
<path fill-rule="evenodd" clip-rule="evenodd" d="M-6.08607 113.764C-12.4914 112.922 -32.6981 120.217 -32.9378 122.047C-33.177 123.878 -15.5282 136.147 -9.12289 136.989C-2.71712 137.831 3.15517 133.314 3.99373 126.901C4.83223 120.487 0.319702 114.606 -6.08607 113.764Z" fill="#0B0755"/>
<path fill-rule="evenodd" clip-rule="evenodd" d="M47.1928 41.2513C44.0253 41.2802 34.6949 46.2922 34.7011 47.2143C34.706 48.1364 44.0963 52.9778 47.2638 52.9485C50.4312 52.92 52.9831 50.2776 52.9635 47.0476C52.9439 43.8176 50.3602 41.2224 47.1928 41.2513Z" fill="#0B0755"/>
<path fill-rule="evenodd" clip-rule="evenodd" d="M24.3873 38.0929C25.7286 41.0574 34.1777 47.7667 35.018 47.3828C35.8578 46.9989 36.3841 36.1875 35.0428 33.2229C33.7024 30.2582 30.2301 28.9447 27.2873 30.2897C24.3453 31.6346 23.0464 35.1282 24.3873 38.0929Z" fill="#0B0755"/>
<path fill-rule="evenodd" clip-rule="evenodd" d="M20.1371 64.6166C19.9686 65.9375 32.3054 74.6843 36.7845 75.2565C41.2636 75.8282 45.3724 72.5421 45.9619 67.9158C46.5515 63.2892 43.3987 59.0753 38.9187 58.503C34.4396 57.9308 20.3051 63.2962 20.1371 64.6166Z" fill="#0B0755"/>
<path fill-rule="evenodd" clip-rule="evenodd" d="M5.15267 52.0697C7.05609 56.0826 19.1797 65.1077 20.3963 64.5773C21.6124 64.047 22.4855 49.3547 20.5821 45.3412C18.6782 41.3283 13.681 39.5811 9.42052 41.4389C5.16005 43.2967 3.2492 48.0562 5.15267 52.0697Z" fill="#0B0755"/>
<mask id="mask0" mask-type="alpha" maskUnits="userSpaceOnUse" x="-47" y="98" width="106" height="86">
<path fill-rule="evenodd" clip-rule="evenodd" d="M-33.3262 98.3174L58.5888 116.184L45.4483 183.786L-46.4667 165.919L-33.3262 98.3174Z" fill="white"/>
</mask>
<g mask="url(#mask0)">
<path fill-rule="evenodd" clip-rule="evenodd" d="M-44.3945 156.486C-44.3945 156.486 -42.3627 95.9583 58.5881 116.188C58.5881 116.188 0.3036 206.366 -44.3945 156.486Z" fill="#91B5F8"/>
</g>
<path fill-rule="evenodd" clip-rule="evenodd" d="M58.7283 116.16L-44.5511 156.066C-44.5511 156.066 -9.00407 210.033 58.7283 116.16Z" fill="#7C9AF2"/>
<path fill-rule="evenodd" clip-rule="evenodd" d="M32.0132 136.128C31.9982 136.129 31.983 136.129 31.9681 136.128L6.49564 134.329C6.30249 134.316 6.16445 134.124 6.18727 133.902C6.20997 133.679 6.38699 133.513 6.57737 133.524L32.0498 135.323C32.243 135.336 32.3808 135.528 32.3582 135.75C32.3372 135.955 32.1869 136.115 32.0132 136.128Z" fill="#91B5F8"/>
<path fill-rule="evenodd" clip-rule="evenodd" d="M0.105777 158.255C0.0788021 158.259 0.0512164 158.259 0.0235625 158.254L-33.8362 151.906C-34.0298 151.87 -34.142 151.605 -34.0861 151.314C-34.0304 151.024 -33.8306 150.816 -33.6346 150.854L0.225629 157.201C0.418963 157.237 0.530883 157.503 0.475402 157.793C0.427586 158.043 0.271564 158.23 0.105777 158.255Z" fill="#91B5F8"/>
</svg>
