<svg width="67" height="197" viewBox="0 0 67 197" fill="none" xmlns="http://www.w3.org/2000/svg">
<path fill-rule="evenodd" clip-rule="evenodd" d="M-9.51765 158.997C-9.553 158.994 -9.58817 158.987 -9.62353 158.976C-9.90561 158.888 -10.0635 158.589 -9.97576 158.308C12.9381 84.7727 33.6484 32.8981 48.3406 12.2395C48.6667 11.7806 48.9023 11.4497 48.9927 11.2816C49.1324 11.0215 49.4576 10.9246 49.7172 11.0631C49.9781 11.2024 50.076 11.5258 49.9365 11.7857C49.8145 12.0123 49.5884 12.3304 49.2139 12.8566C34.5856 33.4259 13.9279 85.1939 -8.95329 158.624C-9.03005 158.871 -9.26959 159.022 -9.51765 158.997Z" fill="#BDD1F9"/>
<mask id="mask0" mask-type="alpha" maskUnits="userSpaceOnUse" x="46" y="0" width="13" height="15">
<path fill-rule="evenodd" clip-rule="evenodd" d="M46.0508 0.185547H58.7839V14.9593H46.0508V0.185547Z" fill="white"/>
</mask>
<g mask="url(#mask0)">
<path fill-rule="evenodd" clip-rule="evenodd" d="M57.6985 8.75486C55.8964 11.1249 46.8978 15.4243 46.2102 14.9184C45.5228 14.4123 47.1728 4.70502 48.9747 2.33502C50.7767 -0.0349872 54.1902 -0.519318 56.5993 1.25361C59.0082 3.02634 59.5005 6.38466 57.6985 8.75486Z" fill="#BDD1F9"/>
</g>
<path fill-rule="evenodd" clip-rule="evenodd" d="M40.7908 15.9572C41.6384 18.8666 39.6914 28.7529 38.8585 28.9942C38.0252 29.2352 31.0677 21.9269 30.2199 19.0174C29.3719 16.108 31.0511 13.0644 33.97 12.2191C36.8892 11.3741 39.9428 13.0476 40.7908 15.9572Z" fill="#BDD1F9"/>
<path fill-rule="evenodd" clip-rule="evenodd" d="M50.9525 32.995C48.0051 33.1638 39.047 29.0348 39.0002 28.1691C38.9536 27.3031 47.4118 22.1773 50.3588 22.0086C53.306 21.84 55.828 24.1627 55.9916 27.1965C56.1556 30.2302 53.8994 32.8263 50.9525 32.995Z" fill="#BDD1F9"/>
<path fill-rule="evenodd" clip-rule="evenodd" d="M15.0945 63.7394C16.9624 68.4709 15.5642 85.4236 14.2697 85.9797C12.9752 86.5358 0.539097 75.5272 -1.32857 70.7957C-3.19625 66.0641 -1.03397 60.649 3.5013 58.7005C8.03638 56.752 13.2269 59.0078 15.0945 63.7394Z" fill="#BDD1F9"/>
<path fill-rule="evenodd" clip-rule="evenodd" d="M34.5701 90.9132C29.7348 91.7236 14.2304 86.6259 14.0029 85.2235C13.7751 83.8212 26.8458 73.9323 31.6807 73.1217C36.5159 72.3109 41.0825 75.6366 41.8803 80.5495C42.678 85.4624 39.4054 90.1023 34.5701 90.9132Z" fill="#BDD1F9"/>
<path fill-rule="evenodd" clip-rule="evenodd" d="M1.84366 81.7167C5.30943 86.7304 8.02866 106.92 6.62113 107.926C5.21361 108.931 -12.5489 99.4906 -16.0145 94.4767C-19.4802 89.463 -18.2922 82.5421 -13.3606 79.0185C-8.42924 75.495 -1.6221 76.7031 1.84366 81.7167Z" fill="#BDD1F9"/>
<path fill-rule="evenodd" clip-rule="evenodd" d="M30.6595 116.988C24.5925 117.355 6.10519 109.188 6.00047 107.457C5.89557 105.725 23.2624 95.3877 29.3294 95.0205C35.3962 94.6531 40.6121 99.2733 40.9796 105.339C41.3466 111.405 36.7263 116.621 30.6595 116.988Z" fill="#BDD1F9"/>
<path fill-rule="evenodd" clip-rule="evenodd" d="M-6.15628 105.717C-2.69049 110.731 0.0287666 130.92 -1.37895 131.926C-2.7863 132.931 -20.549 123.49 -24.0144 118.477C-27.4804 113.463 -26.2921 106.542 -21.3607 103.019C-16.4293 99.4949 -9.62207 100.703 -6.15628 105.717Z" fill="#BDD1F9"/>
<path fill-rule="evenodd" clip-rule="evenodd" d="M22.6594 140.988C16.5925 141.355 -1.89443 133.188 -1.99953 131.457C-2.10425 129.725 15.2626 119.388 21.3294 119.02C27.3964 118.653 32.6121 123.273 32.9795 129.339C33.3468 135.405 28.7264 140.621 22.6594 140.988Z" fill="#BDD1F9"/>
<path fill-rule="evenodd" clip-rule="evenodd" d="M14.9317 164.856C8.89556 165.981 -10.6713 160.179 -10.9952 158.472C-11.3191 156.764 4.78654 144.316 10.8227 143.192C16.8587 142.067 22.6721 146.005 23.8066 151.988C24.9413 157.971 20.9678 163.732 14.9317 164.856Z" fill="#BDD1F9"/>
<path fill-rule="evenodd" clip-rule="evenodd" d="M32.7906 29.957C33.6386 32.8666 31.6917 42.7529 30.8586 42.9942C30.0253 43.2354 23.0677 35.927 22.2199 33.0174C21.372 30.1079 23.0509 27.0642 25.9702 26.2192C28.8892 25.374 31.9428 27.0475 32.7906 29.957Z" fill="#BDD1F9"/>
<path fill-rule="evenodd" clip-rule="evenodd" d="M42.9524 47.995C40.0053 48.1638 31.0472 44.0349 31.0002 43.169C30.9534 42.3031 39.4118 37.1775 42.3586 37.0087C45.3058 36.8398 47.8278 39.1627 47.9916 42.1963C48.1554 45.2303 45.8994 47.8263 42.9524 47.995Z" fill="#BDD1F9"/>
<path fill-rule="evenodd" clip-rule="evenodd" d="M23.3549 44.8644C24.9187 48.7647 23.294 62.5608 22.1251 62.9858C20.9562 63.4109 10.0885 54.1581 8.5245 50.2581C6.96046 46.3579 9.0126 41.9889 13.1078 40.4994C17.2033 39.0101 21.7911 40.9644 23.3549 44.8644Z" fill="#BDD1F9"/>
<path fill-rule="evenodd" clip-rule="evenodd" d="M38.8736 69.9927C34.7131 70.2381 22.0664 64.2324 22.0003 62.9729C21.9343 61.7135 33.8754 54.2579 38.0359 54.0126C42.1964 53.767 45.7568 57.1454 45.9882 61.5582C46.2195 65.971 43.0343 69.7471 38.8736 69.9927Z" fill="#BDD1F9"/>
<mask id="mask1" mask-type="alpha" maskUnits="userSpaceOnUse" x="-17" y="91" width="83" height="106">
<path fill-rule="evenodd" clip-rule="evenodd" d="M-17 91.1401H65.8568V196.798H-17V91.1401Z" fill="white"/>
</mask>
<g mask="url(#mask1)">
<path fill-rule="evenodd" clip-rule="evenodd" d="M-11.731 194.413C-11.731 194.413 -47.1881 134.039 65.8569 91.1401C65.8569 91.1401 63.6622 215.385 -11.731 194.413Z" fill="#7C9AF2"/>
</g>
<path fill-rule="evenodd" clip-rule="evenodd" d="M66 91L-14.9561 186C-20.1602 168.17 -22.1079 124.307 66 91Z" fill="#91B5F8"/>
<mask id="mask2" mask-type="alpha" maskUnits="userSpaceOnUse" x="-11" y="90" width="78" height="92">
<path fill-rule="evenodd" clip-rule="evenodd" d="M-10.918 90.1074H66.7556V181.897H-10.918V90.1074Z" fill="white"/>
</mask>
<g mask="url(#mask2)">
<path fill-rule="evenodd" clip-rule="evenodd" d="M-10.7146 181.897C-10.7611 181.897 -10.8081 181.881 -10.8461 181.849C-10.9317 181.776 -10.9423 181.647 -10.8701 181.561L66.3968 90.1793C66.4703 90.0935 66.5986 90.0831 66.6835 90.1556C66.7696 90.2281 66.7799 90.3565 66.7075 90.4426L-10.5592 181.825C-10.5996 181.872 -10.657 181.897 -10.7146 181.897Z" fill="#060633"/>
</g>
<path fill-rule="evenodd" clip-rule="evenodd" d="M25.2069 138C25.1049 138 25.0157 137.923 25.0019 137.817C24.9864 137.702 25.0663 137.595 25.1797 137.58L58.7651 133.002C58.8774 132.987 58.9832 133.067 58.9981 133.183C59.0136 133.299 58.9335 133.405 58.8203 133.42L25.2349 137.998C25.2258 137.999 25.2163 138 25.2069 138Z" fill="#060633"/>
<path fill-rule="evenodd" clip-rule="evenodd" d="M9.20645 158C9.19293 158 9.17885 157.999 9.16496 157.996C9.05365 157.974 8.98142 157.868 9.0042 157.759L15.592 126.161C15.6149 126.052 15.7266 125.982 15.835 126.004C15.9465 126.026 16.0183 126.132 15.9959 126.241L9.40814 157.839C9.38796 157.935 9.30239 158 9.20645 158Z" fill="#060633"/>
</svg>
