<svg width="594" height="98" viewBox="0 0 594 98" fill="none" xmlns="http://www.w3.org/2000/svg">
<ellipse opacity="0.386696" rx="680.5" ry="499" transform="matrix(-1 0 0 1 -86.5 524)" fill="#DAE8FE"/>
<path fill-rule="evenodd" clip-rule="evenodd" d="M242.701 135.32C242.735 135.304 242.767 135.284 242.798 135.26C243.045 135.069 243.089 134.713 242.897 134.466C192.755 70.0412 152.886 26.2863 130.633 11.2613C130.139 10.9271 129.782 10.6868 129.63 10.5533C129.394 10.3473 129.037 10.3723 128.831 10.6069C128.625 10.8423 128.65 11.1996 128.885 11.4056C129.09 11.5847 129.432 11.8156 129.999 12.1985C152.156 27.1591 191.933 70.8279 242.003 135.161C242.172 135.377 242.465 135.438 242.701 135.32Z" fill="#0B0755"/>
<mask id="mask0" mask-type="alpha" maskUnits="userSpaceOnUse" x="117" y="0" width="16" height="13">
<path fill-rule="evenodd" clip-rule="evenodd" d="M117 0.380859H132.329V12.7855H117V0.380859Z" fill="white"/>
</mask>
<g mask="url(#mask0)">
<path fill-rule="evenodd" clip-rule="evenodd" d="M119.487 10.6691C121.994 12.3281 131.843 13.2708 132.3 12.5292C132.757 11.7872 127.793 2.91935 125.286 1.25943C122.78 -0.400044 119.449 0.360343 117.848 2.9584C116.247 5.55647 116.98 9.00873 119.487 10.6691Z" fill="#0B0755"/>
</g>
<path fill-rule="evenodd" clip-rule="evenodd" d="M139.104 11.3848C139.353 14.543 145.004 23.5006 145.923 23.4303C146.843 23.36 151.017 13.656 150.768 10.4982C150.518 7.34004 147.704 4.97963 144.483 5.22392C141.262 5.46866 138.854 8.22706 139.104 11.3848Z" fill="#0B0755"/>
<path fill-rule="evenodd" clip-rule="evenodd" d="M134.512 32.2715C137.395 31.3025 144.536 23.7325 144.277 22.8522C144.018 21.9715 134.113 20.1319 131.229 21.1023C128.345 22.0709 126.741 25.3576 127.648 28.4423C128.554 31.5266 131.627 33.2415 134.512 32.2715Z" fill="#0B0755"/>
<path fill-rule="evenodd" clip-rule="evenodd" d="M181.96 50.7727C181.795 55.9645 189.513 71.549 191.048 71.5943C192.584 71.6397 201.275 56.5401 201.44 51.3483C201.604 46.1561 197.377 41.8183 191.998 41.6593C186.618 41.5003 182.124 45.5805 181.96 50.7727Z" fill="#0B0755"/>
<path fill-rule="evenodd" clip-rule="evenodd" d="M172.538 84.4218C177.687 83.3663 191.34 72.1662 191.048 70.6532C190.755 69.141 173.974 64.1768 168.824 65.2318C163.675 66.2863 160.331 71.4374 161.357 76.737C162.382 82.0361 167.388 85.4763 172.538 84.4218Z" fill="#0B0755"/>
<path fill-rule="evenodd" clip-rule="evenodd" d="M201.774 63.4496C200.158 69.7056 204.935 90.6499 206.723 91.1109C208.511 91.5715 222.84 75.5498 224.456 69.2947C226.072 63.0392 222.305 56.6602 216.041 55.0463C209.778 53.432 203.39 57.1941 201.774 63.4496Z" fill="#0B0755"/>
<path fill-rule="evenodd" clip-rule="evenodd" d="M186.82 108.82C193.035 106.911 208.472 91.8422 207.924 90.0782C207.376 88.3138 186.083 84.5287 179.868 86.4383C173.652 88.347 170.17 94.9053 172.09 101.086C174.011 107.266 180.605 110.729 186.82 108.82Z" fill="#0B0755"/>
<path fill-rule="evenodd" clip-rule="evenodd" d="M218.661 84.2775C217.045 90.5325 221.822 111.478 223.61 111.939C225.398 112.399 239.726 96.3771 241.342 90.1221C242.958 83.8666 239.191 77.4876 232.928 75.8738C226.664 74.2599 220.277 78.022 218.661 84.2775Z" fill="#0B0755"/>
<path fill-rule="evenodd" clip-rule="evenodd" d="M152.096 23.1008C152.346 26.2586 157.996 35.2166 158.916 35.1461C159.835 35.0769 164.01 25.3717 163.76 22.214C163.51 19.0563 160.696 16.6949 157.476 16.9398C154.255 17.1847 151.846 19.9431 152.096 23.1008Z" fill="#0B0755"/>
<path fill-rule="evenodd" clip-rule="evenodd" d="M149.348 43.9875C152.454 43.0175 160.143 35.449 159.864 34.5682C159.586 33.6879 148.919 31.8479 145.813 32.8179C142.707 33.787 140.98 37.0734 141.956 40.1582C142.933 43.2421 146.242 44.9571 149.348 43.9875Z" fill="#0B0755"/>
<path fill-rule="evenodd" clip-rule="evenodd" d="M166.367 34.1721C166.345 38.6875 173.393 52.0629 174.724 52.0687C176.056 52.0749 183.234 38.7641 183.256 34.2487C183.278 29.7332 179.515 26.0556 174.852 26.0343C170.188 26.0129 166.389 29.6558 166.367 34.1721Z" fill="#0B0755"/>
<path fill-rule="evenodd" clip-rule="evenodd" d="M159.882 64.6947C164.097 63.2946 174.532 52.3612 174.154 51.089C173.776 49.8173 159.3 47.1602 155.084 48.5603C150.869 49.961 148.526 54.708 149.851 59.1631C151.175 63.6182 155.667 66.0949 159.882 64.6947Z" fill="#0B0755"/>
<mask id="mask1" mask-type="alpha" maskUnits="userSpaceOnUse" x="168" y="6" width="116" height="104">
<path fill-rule="evenodd" clip-rule="evenodd" d="M168.984 48.5205L252.414 6.01095L283.679 67.3721L200.249 109.882L168.984 48.5205Z" fill="white"/>
</mask>
<g mask="url(#mask1)">
<path fill-rule="evenodd" clip-rule="evenodd" d="M196.075 101.173C196.075 101.173 160.411 52.225 252.416 6.01486C252.416 6.01486 262.006 112.959 196.075 101.173Z" fill="#91B5F8"/>
</g>
<path fill-rule="evenodd" clip-rule="evenodd" d="M252.508 5.90606L195.692 100.938C195.692 100.938 256.929 121.579 252.508 5.90606Z" fill="#7C9AF2"/>
<path fill-rule="evenodd" clip-rule="evenodd" d="M243.749 38.0891C243.738 38.0991 243.726 38.1081 243.714 38.1168L222.534 52.3818C222.373 52.4899 222.147 52.4242 222.028 52.2351C221.909 52.0457 221.946 51.8057 222.103 51.697L243.283 37.432C243.443 37.3239 243.67 37.39 243.789 37.5787C243.898 37.753 243.878 37.9716 243.749 38.0891Z" fill="#91B5F8"/>
<path fill-rule="evenodd" clip-rule="evenodd" d="M232.23 75.1695C232.211 75.1892 232.19 75.2063 232.165 75.2191L201.574 91.0626C201.4 91.154 201.148 91.0138 201.013 90.7503C200.878 90.4875 200.908 90.2003 201.085 90.1096L231.675 74.2645C231.85 74.1743 232.102 74.3149 232.237 74.5777C232.353 74.8037 232.345 75.0476 232.23 75.1695Z" fill="#91B5F8"/>
</svg>
