<svg width="667" height="660" viewBox="0 0 667 660" fill="none" xmlns="http://www.w3.org/2000/svg">
<path fill-rule="evenodd" clip-rule="evenodd" d="M24 145.768C24 105.347 48.3379 68.8848 86.5867 55.8128C135.979 38.9324 208.148 17.2965 279.004 7.00016C404.449 -11.2287 690 -8.99984 690 -8.99984V619H24L24 145.768Z" fill="url(#paint0_linear)"/>
<mask id="mask0" mask-type="alpha" maskUnits="userSpaceOnUse" x="24" y="-10" width="666" height="630">
<path fill-rule="evenodd" clip-rule="evenodd" d="M24 145.768C24 105.347 48.3379 68.8848 86.5867 55.8128C135.979 38.9324 208.148 17.2965 279.004 7.00016C404.449 -11.2287 690 -8.99984 690 -8.99984V619H24L24 145.768Z" fill="white"/>
</mask>
<g mask="url(#mask0)">
</g>
<ellipse cx="345" cy="617.5" rx="345" ry="37.5" fill="#B8D1F8"/>
<path fill-rule="evenodd" clip-rule="evenodd" d="M105.055 137.748C106.211 135.011 105.981 122.008 105.981 122.008C105.297 121.702 96.5923 130.701 95.4363 133.438C94.2804 136.176 95.5012 139.36 98.1551 140.55C100.815 141.741 103.899 140.486 105.055 137.748Z" fill="white"/>
<path fill-rule="evenodd" clip-rule="evenodd" d="M84.0554 201.748C85.2114 199.011 84.9814 186.008 84.9814 186.008C84.2972 185.702 75.5923 194.701 74.4363 197.438C73.2804 200.176 74.5012 203.36 77.1551 204.55C79.815 205.741 82.8995 204.486 84.0554 201.748Z" fill="white"/>
<path fill-rule="evenodd" clip-rule="evenodd" d="M53.0554 300.748C54.2114 298.011 53.9814 285.008 53.9814 285.008C53.2972 284.702 44.5923 293.701 43.4363 296.438C42.2804 299.176 43.5012 302.36 46.1551 303.55C48.815 304.741 51.8995 303.486 53.0554 300.748Z" fill="white"/>
<path fill-rule="evenodd" clip-rule="evenodd" d="M73.0554 349.748C74.2114 347.011 73.9814 334.008 73.9814 334.008C73.2972 333.702 64.5923 342.701 63.4363 345.438C62.2804 348.176 63.5012 351.36 66.1551 352.55C68.815 353.741 71.8995 352.486 73.0554 349.748Z" fill="white"/>
<path fill-rule="evenodd" clip-rule="evenodd" d="M73.0554 438.748C74.2114 436.011 73.9814 423.008 73.9814 423.008C73.2972 422.702 64.5923 431.701 63.4363 434.438C62.2804 437.176 63.5012 440.36 66.1551 441.55C68.815 442.741 71.8995 441.486 73.0554 438.748Z" fill="white"/>
<path fill-rule="evenodd" clip-rule="evenodd" d="M79.0554 531.748C80.2114 529.011 79.9814 516.008 79.9814 516.008C79.2972 515.702 70.5923 524.701 69.4363 527.438C68.2804 530.176 69.5012 533.36 72.1551 534.55C74.815 535.741 77.8995 534.486 79.0554 531.748Z" fill="white"/>
<path fill-rule="evenodd" clip-rule="evenodd" d="M46.0554 553.748C47.2114 551.011 46.9814 538.008 46.9814 538.008C46.2972 537.702 37.5923 546.701 36.4363 549.438C35.2804 552.176 36.5012 555.36 39.1551 556.55C41.815 557.741 44.8995 556.486 46.0554 553.748Z" fill="white"/>
<path fill-rule="evenodd" clip-rule="evenodd" d="M46.0554 476.748C47.2114 474.011 46.9814 461.008 46.9814 461.008C46.2972 460.702 37.5923 469.701 36.4363 472.438C35.2804 475.176 36.5012 478.36 39.1551 479.55C41.815 480.741 44.8995 479.486 46.0554 476.748Z" fill="white"/>
<path fill-rule="evenodd" clip-rule="evenodd" d="M35.0554 383.748C36.2114 381.011 35.9814 368.008 35.9814 368.008C35.2972 367.702 26.5923 376.701 25.4363 379.438C24.2804 382.176 25.5012 385.36 28.1551 386.55C30.815 387.741 33.8995 386.486 35.0554 383.748Z" fill="white"/>
<path fill-rule="evenodd" clip-rule="evenodd" d="M73.0554 247.748C74.2114 245.011 73.9814 232.008 73.9814 232.008C73.2972 231.702 64.5923 240.701 63.4363 243.438C62.2804 246.176 63.5012 249.36 66.1551 250.55C68.815 251.741 71.8995 250.486 73.0554 247.748Z" fill="white"/>
<path fill-rule="evenodd" clip-rule="evenodd" d="M46.0554 227.748C47.2114 225.011 46.9814 212.008 46.9814 212.008C46.2972 211.702 37.5923 220.701 36.4363 223.438C35.2804 226.176 36.5012 229.36 39.1551 230.55C41.815 231.741 44.8995 230.486 46.0554 227.748Z" fill="white"/>
<path fill-rule="evenodd" clip-rule="evenodd" d="M41.0554 156.748C42.2114 154.011 41.9814 141.008 41.9814 141.008C41.2972 140.702 32.5923 149.701 31.4363 152.438C30.2804 155.176 31.5012 158.36 34.1551 159.55C36.815 160.741 39.8995 159.486 41.0554 156.748Z" fill="white"/>
<path fill-rule="evenodd" clip-rule="evenodd" d="M84.0554 78.7484C85.2114 76.0108 84.9814 63.0076 84.9814 63.0076C84.2972 62.7024 75.5923 71.7007 74.4363 74.4377C73.2804 77.176 74.5012 80.3604 77.1551 81.5505C79.815 82.7406 82.8995 81.4861 84.0554 78.7484Z" fill="white"/>
<path fill-rule="evenodd" clip-rule="evenodd" d="M146.055 102.748C147.211 100.011 146.981 87.0076 146.981 87.0076C146.297 86.7024 137.592 95.7007 136.436 98.4377C135.28 101.176 136.501 104.36 139.155 105.55C141.815 106.741 144.899 105.486 146.055 102.748Z" fill="white"/>
<path fill-rule="evenodd" clip-rule="evenodd" d="M126.055 58.7484C127.211 56.0108 126.981 43.0076 126.981 43.0076C126.297 42.7024 117.592 51.7007 116.436 54.4377C115.28 57.176 116.501 60.3604 119.155 61.5505C121.815 62.7406 124.899 61.4861 126.055 58.7484Z" fill="white"/>
<path fill-rule="evenodd" clip-rule="evenodd" d="M200.055 48.7484C201.211 46.0108 200.981 33.0076 200.981 33.0076C200.297 32.7024 191.592 41.7007 190.436 44.4377C189.28 47.176 190.501 50.3604 193.155 51.5505C195.815 52.7406 198.899 51.4861 200.055 48.7484Z" fill="white"/>
<path fill-rule="evenodd" clip-rule="evenodd" d="M200.055 88.7484C201.211 86.0108 200.981 73.0076 200.981 73.0076C200.297 72.7024 191.592 81.7007 190.436 84.4377C189.28 87.176 190.501 90.3604 193.155 91.5505C195.815 92.7406 198.899 91.4861 200.055 88.7484Z" fill="white"/>
<path fill-rule="evenodd" clip-rule="evenodd" d="M258.055 25.7484C259.211 23.0108 258.981 10.0076 258.981 10.0076C258.297 9.70245 249.592 18.7007 248.436 21.4377C247.28 24.176 248.501 27.3604 251.155 28.5505C253.815 29.7406 256.899 28.4861 258.055 25.7484Z" fill="white"/>
<path fill-rule="evenodd" clip-rule="evenodd" d="M337.055 8.74842C338.211 6.01078 337.981 -6.99242 337.981 -6.99242C337.297 -7.29755 328.592 1.70069 327.436 4.43773C326.28 7.17598 327.501 10.3604 330.155 11.5505C332.815 12.7406 335.899 11.4861 337.055 8.74842Z" fill="white"/>
<path fill-rule="evenodd" clip-rule="evenodd" d="M407.055 6.74842C408.211 4.01078 407.981 -8.99242 407.981 -8.99242C407.297 -9.29755 398.592 -0.299311 397.436 2.43773C396.28 5.17598 397.501 8.36037 400.155 9.5505C402.815 10.7406 405.899 9.48606 407.055 6.74842Z" fill="white"/>
<path fill-rule="evenodd" clip-rule="evenodd" d="M378.055 41.7484C379.211 39.0108 378.981 26.0076 378.981 26.0076C378.297 25.7024 369.592 34.7007 368.436 37.4377C367.28 40.176 368.501 43.3604 371.155 44.5505C373.815 45.7406 376.899 44.4861 378.055 41.7484Z" fill="white"/>
<path fill-rule="evenodd" clip-rule="evenodd" d="M502.055 73.7484C503.211 71.0108 502.981 58.0076 502.981 58.0076C502.297 57.7024 493.592 66.7007 492.436 69.4377C491.28 72.176 492.501 75.3604 495.155 76.5505C497.815 77.7406 500.899 76.4861 502.055 73.7484Z" fill="white"/>
<path fill-rule="evenodd" clip-rule="evenodd" d="M473.055 8.74842C474.211 6.01078 473.981 -6.99242 473.981 -6.99242C473.297 -7.29755 464.592 1.70069 463.436 4.43773C462.28 7.17598 463.501 10.3604 466.155 11.5505C468.815 12.7406 471.899 11.4861 473.055 8.74842Z" fill="white"/>
<path fill-rule="evenodd" clip-rule="evenodd" d="M467.055 58.7484C468.211 56.0108 467.981 43.0076 467.981 43.0076C467.297 42.7024 458.592 51.7007 457.436 54.4377C456.28 57.176 457.501 60.3604 460.155 61.5505C462.815 62.7406 465.899 61.4861 467.055 58.7484Z" fill="white"/>
<path fill-rule="evenodd" clip-rule="evenodd" d="M547.055 12.7484C548.211 10.0108 547.981 -2.99242 547.981 -2.99242C547.297 -3.29755 538.592 5.70069 537.436 8.43773C536.28 11.176 537.501 14.3604 540.155 15.5505C542.815 16.7406 545.899 15.4861 547.055 12.7484Z" fill="white"/>
<path fill-rule="evenodd" clip-rule="evenodd" d="M558.055 83.7484C559.211 81.0108 558.981 68.0076 558.981 68.0076C558.297 67.7024 549.592 76.7007 548.436 79.4377C547.28 82.176 548.501 85.3604 551.155 86.5505C553.815 87.7406 556.899 86.4861 558.055 83.7484Z" fill="white"/>
<path fill-rule="evenodd" clip-rule="evenodd" d="M621.055 15.7484C622.211 13.0108 621.981 0.00757569 621.981 0.00757569C621.297 -0.297552 612.592 8.70069 611.436 11.4377C610.28 14.176 611.501 17.3604 614.155 18.5505C616.815 19.7406 619.899 18.4861 621.055 15.7484Z" fill="white"/>
<path fill-rule="evenodd" clip-rule="evenodd" d="M610.055 60.7484C611.211 58.0108 610.981 45.0076 610.981 45.0076C610.297 44.7024 601.592 53.7007 600.436 56.4377C599.28 59.176 600.501 62.3604 603.155 63.5505C605.815 64.7406 608.899 63.4861 610.055 60.7484Z" fill="white"/>
<path fill-rule="evenodd" clip-rule="evenodd" d="M633.055 125.748C634.211 123.011 633.981 110.008 633.981 110.008C633.297 109.702 624.592 118.701 623.436 121.438C622.28 124.176 623.501 127.36 626.155 128.55C628.815 129.741 631.899 128.486 633.055 125.748Z" fill="white"/>
<path fill-rule="evenodd" clip-rule="evenodd" d="M579.055 144.748C580.211 142.011 579.981 129.008 579.981 129.008C579.297 128.702 570.592 137.701 569.436 140.438C568.28 143.176 569.501 146.36 572.155 147.55C574.815 148.741 577.899 147.486 579.055 144.748Z" fill="white"/>
<path fill-rule="evenodd" clip-rule="evenodd" d="M666.055 79.7484C667.211 77.0108 666.981 64.0076 666.981 64.0076C666.297 63.7024 657.592 72.7007 656.436 75.4377C655.28 78.176 656.501 81.3604 659.155 82.5505C661.815 83.7406 664.899 82.4861 666.055 79.7484Z" fill="white"/>
<path fill-rule="evenodd" clip-rule="evenodd" d="M674.055 173.748C675.211 171.011 674.981 158.008 674.981 158.008C674.297 157.702 665.592 166.701 664.436 169.438C663.28 172.176 664.501 175.36 667.155 176.55C669.815 177.741 672.899 176.486 674.055 173.748Z" fill="white"/>
<path fill-rule="evenodd" clip-rule="evenodd" d="M666.055 249.748C667.211 247.011 666.981 234.008 666.981 234.008C666.297 233.702 657.592 242.701 656.436 245.438C655.28 248.176 656.501 251.36 659.155 252.55C661.815 253.741 664.899 252.486 666.055 249.748Z" fill="white"/>
<path fill-rule="evenodd" clip-rule="evenodd" d="M615.055 285.748C616.211 283.011 615.981 270.008 615.981 270.008C615.297 269.702 606.592 278.701 605.436 281.438C604.28 284.176 605.501 287.36 608.155 288.55C610.815 289.741 613.899 288.486 615.055 285.748Z" fill="white"/>
<path fill-rule="evenodd" clip-rule="evenodd" d="M658.055 319.748C659.211 317.011 658.981 304.008 658.981 304.008C658.297 303.702 649.592 312.701 648.436 315.438C647.28 318.176 648.501 321.36 651.155 322.55C653.815 323.741 656.899 322.486 658.055 319.748Z" fill="white"/>
<path fill-rule="evenodd" clip-rule="evenodd" d="M616.055 380.748C617.211 378.011 616.981 365.008 616.981 365.008C616.297 364.702 607.592 373.701 606.436 376.438C605.28 379.176 606.501 382.36 609.155 383.55C611.815 384.741 614.899 383.486 616.055 380.748Z" fill="white"/>
<path fill-rule="evenodd" clip-rule="evenodd" d="M677.055 370.748C678.211 368.011 677.981 355.008 677.981 355.008C677.297 354.702 668.592 363.701 667.436 366.438C666.28 369.176 667.501 372.36 670.155 373.55C672.815 374.741 675.899 373.486 677.055 370.748Z" fill="white"/>
<path fill-rule="evenodd" clip-rule="evenodd" d="M655.055 438.748C656.211 436.011 655.981 423.008 655.981 423.008C655.297 422.702 646.592 431.701 645.436 434.438C644.28 437.176 645.501 440.36 648.155 441.55C650.815 442.741 653.899 441.486 655.055 438.748Z" fill="white"/>
<path fill-rule="evenodd" clip-rule="evenodd" d="M654.055 558.748C655.211 556.011 654.981 543.008 654.981 543.008C654.297 542.702 645.592 551.701 644.436 554.438C643.28 557.176 644.501 560.36 647.155 561.55C649.815 562.741 652.899 561.486 654.055 558.748Z" fill="white"/>
<path fill-rule="evenodd" clip-rule="evenodd" d="M605.055 205.748C606.211 203.011 605.981 190.008 605.981 190.008C605.297 189.702 596.592 198.701 595.436 201.438C594.28 204.176 595.501 207.36 598.155 208.55C600.815 209.741 603.899 208.486 605.055 205.748Z" fill="white"/>
<path fill-rule="evenodd" clip-rule="evenodd" d="M263.055 77.7484C264.211 75.0108 263.981 62.0076 263.981 62.0076C263.297 61.7024 254.592 70.7007 253.436 73.4377C252.28 76.176 253.501 79.3604 256.155 80.5505C258.815 81.7406 261.899 80.4861 263.055 77.7484Z" fill="white"/>
<path fill-rule="evenodd" clip-rule="evenodd" d="M315.769 116.837L311.314 117.789L342.215 301.332C343.632 309.891 338.156 314.027 336.326 302.951L304.54 114.066L314.947 111.842L315.769 116.837Z" fill="#060633"/>
<path fill-rule="evenodd" clip-rule="evenodd" d="M293.061 52.2007L300.566 50.563L303.937 71.7989L296.432 73.4366L293.061 52.2007Z" fill="#060633"/>
<path fill-rule="evenodd" clip-rule="evenodd" d="M292.757 71.5888L309.939 67.9085C500.404 27.1081 555.039 138.363 558.252 153.206C558.252 153.206 525.556 133.029 467.343 155.207C467.343 155.207 431.93 142.085 395.972 167.907C395.972 167.907 344.441 160.178 320.537 184.066L320.119 183.881L319.785 184.228C289.914 171.859 244.349 200.387 244.349 200.387C202.633 191.203 173.799 218.089 173.799 218.089C112.503 221.511 88.4411 253.846 88.4411 253.846C86.7154 238.685 102.292 112.389 292.757 71.5888Z" fill="#FA7267"/>
<path fill-rule="evenodd" clip-rule="evenodd" d="M172.83 221.696L172.592 221.731C171.85 221.778 171.276 221.3 171.299 220.666C173.981 156.264 208.771 118.792 237.493 98.6943C268.676 76.8738 299.775 70.2609 299.856 70.2338C300.454 70.1098 301.036 70.3355 301.272 70.7874C301.509 71.24 301.344 71.8065 300.865 72.1736C228.406 128.255 244.875 201.373 245.053 202.105C245.191 202.713 244.724 203.361 243.999 203.553C243.261 203.737 242.557 203.412 242.419 202.803C242.241 202.072 226.093 130.374 295.134 73.7723C285.194 76.5641 262.127 84.2416 238.943 100.487C210.766 120.235 176.621 157.086 173.984 220.492C173.959 221.06 173.464 221.561 172.83 221.696Z" fill="#060633"/>
<path fill-rule="evenodd" clip-rule="evenodd" d="M465.159 157.606C464.531 157.741 463.913 157.48 463.706 156.966C441.163 99.353 397.955 79.2146 365.668 72.469C339.105 66.9197 315.38 69.2516 305.32 70.7347C387.017 94.8724 394.841 167.849 394.907 168.599C394.97 169.219 394.391 169.809 393.692 169.938C392.96 170.058 392.315 169.652 392.26 169.029C392.185 168.281 384.154 93.8469 299.516 71.6022C298.964 71.4563 298.629 71.0008 298.708 70.4836C298.778 69.9707 299.245 69.522 299.835 69.3933C300.066 69.4037 330.734 62.7765 366.447 70.2136C399.331 77.0639 443.341 97.512 466.237 156.028C466.464 156.605 466.082 157.283 465.385 157.542L465.159 157.606Z" fill="#060633"/>
<path fill-rule="evenodd" clip-rule="evenodd" d="M319.497 185.881C318.761 186.039 318.083 185.67 317.983 185.056L298.358 65.5124C298.249 64.9015 298.764 64.2766 299.5 64.1186C300.236 63.9606 300.914 64.3293 301.013 64.9431L320.638 184.486C320.738 185.101 320.224 185.726 319.497 185.881Z" fill="#060633"/>
<path fill-rule="evenodd" clip-rule="evenodd" d="M476.002 489.268C475.954 489.261 475.905 489.251 475.857 489.237C475.471 489.104 475.265 488.682 475.398 488.296C510.035 387.372 540.745 316.364 561.87 288.349C562.339 287.724 562.677 287.275 562.809 287.047C563.013 286.692 563.465 286.573 563.818 286.773C564.172 286.977 564.294 287.429 564.091 287.784C563.914 288.092 563.588 288.524 563.05 289.236C542.017 317.133 511.384 387.996 476.797 488.777C476.68 489.114 476.343 489.314 476.002 489.268Z" fill="#BDD1F9"/>
<path fill-rule="evenodd" clip-rule="evenodd" d="M575.094 283.184C572.623 286.404 560.58 292.018 559.693 291.287C558.806 290.556 561.368 277.127 563.839 273.908C566.31 270.685 570.833 270.149 573.941 272.713C577.049 275.273 577.565 279.961 575.094 283.184Z" fill="#BDD1F9"/>
<path fill-rule="evenodd" clip-rule="evenodd" d="M553.059 292.3C554.139 296.312 550.963 309.749 549.772 310.047C548.581 310.344 539.025 300.071 537.945 296.06C536.866 292.049 539.374 287.956 543.547 286.917C547.721 285.879 551.979 288.289 553.059 292.3Z" fill="#BDD1F9"/>
<path fill-rule="evenodd" clip-rule="evenodd" d="M564.828 316.285C560.774 316.396 548.634 310.164 548.604 308.939C548.574 307.709 560.392 300.815 564.446 300.705C568.5 300.591 571.872 303.988 571.978 308.291C572.083 312.594 568.882 316.171 564.828 316.285Z" fill="#BDD1F9"/>
<path fill-rule="evenodd" clip-rule="evenodd" d="M514.903 358.517C517.319 364.862 514.702 387.269 512.876 387.953C511.051 388.637 494.159 373.543 491.743 367.198C489.328 360.85 492.554 353.762 498.95 351.367C505.345 348.973 512.487 352.173 514.903 358.517Z" fill="#BDD1F9"/>
<path fill-rule="evenodd" clip-rule="evenodd" d="M541.054 395.692C534.316 396.612 513.022 388.912 512.762 386.963C512.503 385.01 531.027 371.869 537.765 370.946C544.502 370.025 550.701 374.82 551.609 381.652C552.517 388.484 547.792 394.768 541.054 395.692Z" fill="#BDD1F9"/>
<path fill-rule="evenodd" clip-rule="evenodd" d="M495.596 384C500.241 391.111 503.225 419.275 501.214 420.612C499.204 421.953 474.736 408.094 470.091 400.984C465.446 393.873 467.39 384.305 474.433 379.617C481.476 374.925 490.951 376.89 495.596 384Z" fill="#BDD1F9"/>
<path fill-rule="evenodd" clip-rule="evenodd" d="M533.896 433.166C525.517 433.431 500.366 421.096 500.292 418.641C500.218 416.183 524.579 402.274 532.957 402.009C541.335 401.74 548.337 408.503 548.596 417.104C548.855 425.709 542.274 432.901 533.896 433.166Z" fill="#BDD1F9"/>
<path fill-rule="evenodd" clip-rule="evenodd" d="M483.127 415.169C487.772 422.279 490.756 450.441 488.746 451.782C486.735 453.119 462.267 439.261 457.623 432.151C452.977 425.041 454.921 415.474 461.964 410.786C469.007 406.094 478.482 408.059 483.127 415.169Z" fill="#BDD1F9"/>
<path fill-rule="evenodd" clip-rule="evenodd" d="M521.428 465.894C513.051 466.159 487.899 453.824 487.825 451.369C487.751 448.91 512.112 435.002 520.49 434.737C528.868 434.471 535.87 441.23 536.129 449.835C536.388 458.436 529.806 465.629 521.428 465.894Z" fill="#BDD1F9"/>
<path fill-rule="evenodd" clip-rule="evenodd" d="M457.516 456.17C464.602 461.079 478.194 486.609 476.819 488.671C475.444 490.733 447.16 487.242 440.074 482.332C432.988 477.419 431.148 467.582 435.964 460.359C440.78 453.133 450.429 451.256 457.516 456.17Z" fill="#BDD1F9"/>
<path fill-rule="evenodd" clip-rule="evenodd" d="M510.749 498.49C502.403 499.833 475.736 490.805 475.361 488.375C474.985 485.945 497.641 468.988 505.987 467.649C514.333 466.307 522.165 472.122 523.479 480.64C524.794 489.158 519.095 497.148 510.749 498.49Z" fill="#BDD1F9"/>
<path fill-rule="evenodd" clip-rule="evenodd" d="M540.592 312.561C541.672 316.576 538.497 330.01 537.305 330.307C536.114 330.603 526.558 320.332 525.479 316.321C524.399 312.31 526.907 308.216 531.081 307.176C535.254 306.14 539.513 308.55 540.592 312.561Z" fill="#BDD1F9"/>
<path fill-rule="evenodd" clip-rule="evenodd" d="M552.362 336.545C548.308 336.658 536.167 330.423 536.137 329.195C536.107 327.967 547.926 321.077 551.98 320.965C556.034 320.853 559.406 324.251 559.511 328.551C559.617 332.854 556.416 336.433 552.362 336.545Z" fill="#BDD1F9"/>
<path fill-rule="evenodd" clip-rule="evenodd" d="M527.714 331.247C529.548 336.817 526.938 356.235 525.436 356.79C523.933 357.342 510.483 343.844 508.649 338.274C506.814 332.704 509.595 326.617 514.86 324.678C520.125 322.735 525.88 325.677 527.714 331.247Z" fill="#BDD1F9"/>
<path fill-rule="evenodd" clip-rule="evenodd" d="M547.465 366.155C541.519 366.312 523.713 357.587 523.669 355.87C523.625 354.149 540.959 344.5 546.905 344.343C552.851 344.186 557.797 348.941 557.951 354.967C558.106 360.989 553.411 365.998 547.465 366.155Z" fill="#BDD1F9"/>
<path fill-rule="evenodd" clip-rule="evenodd" d="M545.104 554.991C545.07 554.98 545.036 554.966 545.003 554.95C544.741 554.804 544.647 554.475 544.791 554.213C582.623 485.801 613.813 438.476 632.619 420.95C633.037 420.559 633.339 420.278 633.463 420.13C633.655 419.9 633.996 419.871 634.226 420.061C634.455 420.253 634.486 420.595 634.294 420.825C634.127 421.025 633.837 421.295 633.358 421.74C614.633 439.192 583.516 486.423 545.739 554.738C545.613 554.966 545.344 555.067 545.104 554.991Z" fill="#BDD1F9"/>
<path fill-rule="evenodd" clip-rule="evenodd" d="M642.819 418.906C640.626 420.914 631.223 423.433 630.676 422.793C630.129 422.152 633.686 412.79 635.878 410.781C638.071 408.77 641.403 408.958 643.319 411.204C645.236 413.447 645.012 416.895 642.819 418.906Z" fill="#BDD1F9"/>
<path fill-rule="evenodd" clip-rule="evenodd" d="M625.76 422.68C626.029 425.712 622.029 435.003 621.131 435.066C620.234 435.129 614.646 426.502 614.377 423.47C614.109 420.438 616.439 417.804 619.582 417.586C622.726 417.368 625.491 419.648 625.76 422.68Z" fill="#BDD1F9"/>
<path fill-rule="evenodd" clip-rule="evenodd" d="M631.201 441.483C628.262 441.047 620.295 435.006 620.429 434.118C620.564 433.227 629.968 429.757 632.907 430.193C635.847 430.626 637.848 433.506 637.376 436.624C636.905 439.742 634.14 441.916 631.201 441.483Z" fill="#BDD1F9"/>
<path fill-rule="evenodd" clip-rule="evenodd" d="M589.806 465.602C590.742 470.487 586.003 486.321 584.599 486.582C583.195 486.844 572.927 473.804 571.992 468.919C571.057 464.031 574.286 459.328 579.205 458.414C584.124 457.499 588.87 460.717 589.806 465.602Z" fill="#BDD1F9"/>
<path fill-rule="evenodd" clip-rule="evenodd" d="M603.946 495.75C598.967 495.557 584.583 487.293 584.644 485.853C584.705 484.411 599.742 477.287 604.721 477.478C609.699 477.671 613.561 481.919 613.348 486.964C613.134 492.008 608.925 495.941 603.946 495.75Z" fill="#BDD1F9"/>
<path fill-rule="evenodd" clip-rule="evenodd" d="M572.634 481.532C575.081 487.253 573.65 507.954 572.03 508.663C570.409 509.374 554.518 496.262 552.071 490.541C549.624 484.819 552.244 478.163 557.922 475.677C563.6 473.188 570.187 475.811 572.634 481.532Z" fill="#BDD1F9"/>
<path fill-rule="evenodd" clip-rule="evenodd" d="M594.013 521.878C587.934 521.004 571.356 508.904 571.615 507.123C571.875 505.34 591.221 498.404 597.3 499.279C603.379 500.151 607.57 505.921 606.663 512.159C605.755 518.401 600.092 522.753 594.013 521.878Z" fill="#BDD1F9"/>
<path fill-rule="evenodd" clip-rule="evenodd" d="M559.673 502.434C562.12 508.155 560.689 528.854 559.069 529.566C557.448 530.274 541.557 517.163 539.11 511.442C536.663 505.721 539.283 499.066 544.961 496.58C550.64 494.091 557.226 496.713 559.673 502.434Z" fill="#BDD1F9"/>
<path fill-rule="evenodd" clip-rule="evenodd" d="M580.855 543.906C574.776 543.031 558.198 530.931 558.457 529.15C558.717 527.367 578.063 520.431 584.142 521.306C590.22 522.18 594.412 527.948 593.505 534.189C592.597 540.428 586.933 544.78 580.855 543.906Z" fill="#BDD1F9"/>
<path fill-rule="evenodd" clip-rule="evenodd" d="M535.976 528.758C540.464 533.202 547.023 553.351 545.769 554.664C544.515 555.977 524.551 549.86 520.063 545.416C515.576 540.969 515.5 533.637 519.894 529.039C524.288 524.438 531.489 524.312 535.976 528.758Z" fill="#BDD1F9"/>
<path fill-rule="evenodd" clip-rule="evenodd" d="M569.002 566.065C562.809 565.972 544.718 556.066 544.756 554.265C544.794 552.464 563.298 543.112 569.49 543.208C575.682 543.301 580.593 548.493 580.458 554.806C580.323 561.119 575.194 566.159 569.002 566.065Z" fill="#BDD1F9"/>
<path fill-rule="evenodd" clip-rule="evenodd" d="M614.188 435.712C614.456 438.746 610.456 448.035 609.559 448.097C608.661 448.16 603.074 439.533 602.805 436.502C602.536 433.471 604.867 430.836 608.01 430.617C611.153 430.4 613.919 432.681 614.188 435.712Z" fill="#BDD1F9"/>
<path fill-rule="evenodd" clip-rule="evenodd" d="M619.629 454.515C616.689 454.08 608.723 448.037 608.858 447.147C608.992 446.258 618.396 442.79 621.335 443.225C624.275 443.659 626.275 446.54 625.804 449.656C625.333 452.774 622.568 454.949 619.629 454.515Z" fill="#BDD1F9"/>
<path fill-rule="evenodd" clip-rule="evenodd" d="M602.519 447.556C603.133 451.808 598.78 465.486 597.625 465.696C596.471 465.903 588.484 454.453 587.869 450.2C587.254 445.948 590.035 441.91 594.08 441.181C598.126 440.449 601.904 443.304 602.519 447.556Z" fill="#BDD1F9"/>
<path fill-rule="evenodd" clip-rule="evenodd" d="M612.328 475.255C608.018 474.612 596.281 466.052 596.467 464.807C596.654 463.56 610.389 458.803 614.699 459.446C619.009 460.089 621.972 464.149 621.317 468.517C620.663 472.882 616.638 475.898 612.328 475.255Z" fill="#BDD1F9"/>
<path fill-rule="evenodd" clip-rule="evenodd" d="M207.074 517.004C207.121 516.993 207.166 516.979 207.211 516.962C207.569 516.801 207.73 516.379 207.571 516.019C165.95 421.888 130.602 356.191 108.039 331.024C107.538 330.463 107.176 330.06 107.031 329.851C106.807 329.528 106.364 329.451 106.043 329.673C105.721 329.898 105.643 330.343 105.867 330.667C106.062 330.949 106.41 331.337 106.985 331.977C129.45 357.036 164.712 422.601 206.274 516.598C206.413 516.912 206.752 517.077 207.074 517.004Z" fill="#BDD1F9"/>
<path fill-rule="evenodd" clip-rule="evenodd" d="M93.8072 326.636C96.5294 329.537 108.943 333.926 109.761 333.142C110.578 332.358 106.901 319.583 104.179 316.682C101.456 313.776 96.9275 313.649 94.0635 316.401C91.1992 319.148 91.0844 323.731 93.8072 326.636Z" fill="#BDD1F9"/>
<path fill-rule="evenodd" clip-rule="evenodd" d="M116.808 334.024C116.145 337.925 120.193 350.443 121.317 350.63C122.44 350.817 130.403 340.279 131.066 336.379C131.728 332.478 129.073 328.79 125.136 328.14C121.199 327.489 117.471 330.124 116.808 334.024Z" fill="#BDD1F9"/>
<path fill-rule="evenodd" clip-rule="evenodd" d="M107.036 357.153C110.899 356.917 121.937 350.158 121.867 349.025C121.796 347.888 110.004 342.51 106.141 342.745C102.278 342.977 99.3467 346.392 99.5935 350.371C99.8406 354.35 103.173 357.385 107.036 357.153Z" fill="#BDD1F9"/>
<path fill-rule="evenodd" clip-rule="evenodd" d="M158.408 394.743C156.672 401.151 161.06 422.863 162.841 423.381C164.622 423.9 179.27 407.734 181.006 401.326C182.742 394.914 179.09 388.244 172.85 386.429C166.61 384.613 160.144 388.334 158.408 394.743Z" fill="#BDD1F9"/>
<path fill-rule="evenodd" clip-rule="evenodd" d="M135.66 432.296C142.292 432.591 162.376 423.512 162.468 421.65C162.559 419.785 143.45 408.962 136.817 408.664C130.185 408.369 124.55 413.421 124.231 419.946C123.911 426.47 129.028 431.998 135.66 432.296Z" fill="#BDD1F9"/>
<path fill-rule="evenodd" clip-rule="evenodd" d="M178.597 416.868C174.766 424.071 174.284 451.32 176.312 452.434C178.341 453.551 200.501 438.225 204.333 431.022C208.164 423.818 205.508 414.808 198.402 410.901C191.295 406.99 182.428 409.664 178.597 416.868Z" fill="#BDD1F9"/>
<path fill-rule="evenodd" clip-rule="evenodd" d="M146.738 468.277C154.922 467.819 178.381 453.777 178.246 451.402C178.111 449.025 153.207 437.684 145.023 438.142C136.84 438.597 130.59 445.717 131.063 454.036C131.537 462.358 138.555 468.736 146.738 468.277Z" fill="#BDD1F9"/>
<path fill-rule="evenodd" clip-rule="evenodd" d="M194.3 445.79C190.469 452.993 189.987 480.24 192.016 481.357C194.044 482.471 216.204 467.146 220.035 459.943C223.867 452.74 221.212 443.73 214.105 439.824C206.998 435.913 198.131 438.587 194.3 445.79Z" fill="#BDD1F9"/>
<path fill-rule="evenodd" clip-rule="evenodd" d="M161.248 498.622C169.432 498.164 192.891 484.121 192.756 481.747C192.621 479.369 167.716 468.029 159.533 468.487C151.35 468.945 145.1 476.062 145.573 484.384C146.047 492.703 153.065 499.08 161.248 498.622Z" fill="#BDD1F9"/>
<path fill-rule="evenodd" clip-rule="evenodd" d="M222.235 484.052C215.85 489.302 204.938 514.65 206.427 516.49C207.915 518.33 234.741 512.647 241.126 507.397C247.512 502.144 248.46 492.662 243.243 486.217C238.026 479.769 228.621 478.799 222.235 484.052Z" fill="#BDD1F9"/>
<path fill-rule="evenodd" clip-rule="evenodd" d="M174.005 528.993C182.248 529.577 207.462 518.596 207.623 516.219C207.783 513.843 184.283 499.417 176.04 498.837C167.797 498.253 160.659 504.53 160.097 512.858C159.535 521.187 165.762 528.409 174.005 528.993Z" fill="#BDD1F9"/>
<path fill-rule="evenodd" clip-rule="evenodd" d="M130.288 352.605C129.626 356.508 133.673 369.023 134.797 369.209C135.921 369.395 143.884 358.859 144.546 354.959C145.209 351.059 142.554 347.369 138.617 346.718C134.68 346.07 130.951 348.705 130.288 352.605Z" fill="#BDD1F9"/>
<path fill-rule="evenodd" clip-rule="evenodd" d="M120.518 375.732C124.381 375.499 135.419 368.737 135.349 367.601C135.278 366.465 123.486 361.091 119.623 361.325C115.76 361.558 112.829 364.974 113.076 368.95C113.323 372.93 116.655 375.966 120.518 375.732Z" fill="#BDD1F9"/>
<path fill-rule="evenodd" clip-rule="evenodd" d="M143.966 368.751C142.658 374.246 146.813 392.639 148.314 393.045C149.815 393.447 161.7 379.368 163.009 373.873C164.317 368.378 161.114 362.778 155.856 361.365C150.598 359.948 145.275 363.256 143.966 368.751Z" fill="#BDD1F9"/>
<path fill-rule="evenodd" clip-rule="evenodd" d="M127.54 404.097C133.221 403.751 149.461 393.902 149.359 392.253C149.257 390.599 131.925 382.794 126.244 383.14C120.563 383.485 116.248 388.456 116.606 394.246C116.964 400.032 121.859 404.442 127.54 404.097Z" fill="#BDD1F9"/>
<path fill-rule="evenodd" clip-rule="evenodd" d="M260.315 546.697C260.315 546.697 319.643 502.584 228.363 413.663C228.363 413.663 178.823 535.747 260.315 546.697Z" fill="#7C9AF2"/>
<path fill-rule="evenodd" clip-rule="evenodd" d="M228.945 414.399L267.3 540.241C279.706 525.065 299.797 483.235 228.945 414.399Z" fill="#91B5F8"/>
<path fill-rule="evenodd" clip-rule="evenodd" d="M266.464 534.772C266.526 534.797 266.596 534.799 266.664 534.778C266.824 534.73 266.914 534.561 266.865 534.399L229.95 413.945C229.901 413.783 229.73 413.695 229.57 413.743C229.41 413.79 229.319 413.963 229.369 414.121L266.284 534.579C266.312 534.67 266.381 534.738 266.464 534.772Z" fill="#060633"/>
<path fill-rule="evenodd" clip-rule="evenodd" d="M248.855 476.837C248.992 476.89 249.152 476.841 249.23 476.713C249.316 476.574 249.267 476.394 249.122 476.306L218.716 458.74C218.574 458.652 218.382 458.699 218.295 458.841C218.209 458.98 218.258 459.16 218.403 459.244L248.809 476.814C248.823 476.823 248.839 476.832 248.855 476.837Z" fill="#060633"/>
<path fill-rule="evenodd" clip-rule="evenodd" d="M165.329 538.356C174.581 538.641 202.357 525.376 202.439 522.736C202.52 520.092 175.617 505.135 166.365 504.849C157.113 504.564 149.381 511.833 149.094 521.086C148.808 530.336 156.077 538.071 165.329 538.356Z" fill="#BDD1F9"/>
<path fill-rule="evenodd" clip-rule="evenodd" d="M235.694 529.056C228.039 534.259 213.354 561.314 214.839 563.499C216.324 565.684 246.882 561.985 254.538 556.782C262.194 551.575 264.182 541.15 258.978 533.496C253.774 525.838 243.35 523.85 235.694 529.056Z" fill="#BDD1F9"/>
<path fill-rule="evenodd" clip-rule="evenodd" d="M177.487 574.113C186.63 575.554 215.847 565.862 216.258 563.253C216.669 560.644 191.847 542.437 182.703 541C173.56 539.558 164.979 545.802 163.539 554.947C162.098 564.093 168.343 572.672 177.487 574.113Z" fill="#BDD1F9"/>
<path fill-rule="evenodd" clip-rule="evenodd" d="M283.189 611.874C283.189 611.874 313.501 475.286 72.5996 462.749C72.5996 462.749 152.91 697.879 283.189 611.874Z" fill="#7C9AF2"/>
<path fill-rule="evenodd" clip-rule="evenodd" d="M72.209 462.464L283.979 594.25C282.893 557.067 259.646 472.218 72.209 462.464Z" fill="#91B5F8"/>
<path fill-rule="evenodd" clip-rule="evenodd" d="M275.231 589.228C275.35 589.186 275.455 589.105 275.526 588.989C275.695 588.72 275.612 588.365 275.341 588.195L72.5119 461.974C72.2406 461.805 71.8857 461.889 71.7184 462.159C71.5496 462.429 71.6321 462.784 71.9034 462.953L274.732 589.174C274.888 589.271 275.071 589.286 275.231 589.228Z" fill="#060633"/>
<path fill-rule="evenodd" clip-rule="evenodd" d="M178.288 528.898C178.548 528.806 178.711 528.536 178.66 528.255C178.604 527.942 178.304 527.734 177.99 527.788L112.683 539.562C112.374 539.612 112.162 539.917 112.218 540.233C112.274 540.545 112.574 540.753 112.887 540.695L178.196 528.925C178.228 528.918 178.259 528.91 178.288 528.898Z" fill="#060633"/>
<path fill-rule="evenodd" clip-rule="evenodd" d="M221.734 555.938C221.765 555.926 221.795 555.915 221.824 555.899C222.101 555.741 222.2 555.39 222.044 555.113L190.108 498.329C189.951 498.051 189.596 497.963 189.323 498.109C189.046 498.267 188.948 498.618 189.103 498.895L221.038 555.679C221.179 555.926 221.475 556.03 221.734 555.938Z" fill="#060633"/>
<path fill-rule="evenodd" clip-rule="evenodd" d="M435.11 572.476C435.11 572.476 380.296 475.067 561.047 408.383C561.047 408.383 554.396 607.463 435.11 572.476Z" fill="#7C9AF2"/>
<path fill-rule="evenodd" clip-rule="evenodd" d="M559.789 409.041L429.432 559.263C421.629 530.674 419.603 460.545 559.789 409.041Z" fill="#91B5F8"/>
<path fill-rule="evenodd" clip-rule="evenodd" d="M433.949 552.224C433.848 552.219 433.75 552.18 433.669 552.109C433.477 551.944 433.456 551.656 433.624 551.462L558.68 407.797C558.848 407.603 559.137 407.587 559.329 407.751C559.521 407.915 559.54 408.21 559.374 408.398L434.316 552.068C434.221 552.176 434.085 552.227 433.949 552.224Z" fill="#060633"/>
<path fill-rule="evenodd" clip-rule="evenodd" d="M493.896 483.035C493.674 483.024 493.484 482.857 493.455 482.633C493.421 482.388 493.599 482.169 493.854 482.138L546.651 476.573C546.901 476.54 547.137 476.722 547.17 476.972C547.204 477.217 547.025 477.436 546.772 477.462L493.974 483.032C493.948 483.035 493.921 483.038 493.896 483.035Z" fill="#060633"/>
<path fill-rule="evenodd" clip-rule="evenodd" d="M569.349 549.828C559.703 548.774 532.805 530.952 533.106 528.199C533.407 525.443 563.516 513.842 573.162 514.895C582.807 515.949 589.774 524.622 588.721 534.27C587.669 543.913 578.995 550.882 569.349 549.828Z" fill="#BDD1F9"/>
<path fill-rule="evenodd" clip-rule="evenodd" d="M497.663 529.909C504.851 536.427 516.147 566.654 514.287 568.706C512.426 570.757 481.245 562.459 474.057 555.941C466.869 549.419 466.327 538.307 472.845 531.121C479.364 523.931 490.475 523.388 497.663 529.909Z" fill="#BDD1F9"/>
<path fill-rule="evenodd" clip-rule="evenodd" d="M551.514 585.173C541.812 585.335 512.897 571.011 512.851 568.242C512.805 565.474 541.228 550.196 550.929 550.038C560.632 549.876 568.628 557.609 568.789 567.312C568.95 577.016 561.216 585.01 551.514 585.173Z" fill="#BDD1F9"/>
<path fill-rule="evenodd" clip-rule="evenodd" d="M436.277 608.95C436.277 608.95 424.737 462.741 676.637 484.872C676.637 484.872 558.967 717.234 436.277 608.95Z" fill="#7C9AF2"/>
<path fill-rule="evenodd" clip-rule="evenodd" d="M677.086 484.633L438.03 590.54C444.582 552.1 481.093 467.413 677.086 484.633Z" fill="#91B5F8"/>
<path fill-rule="evenodd" clip-rule="evenodd" d="M447.843 586.603C447.726 586.542 447.628 586.442 447.572 586.312C447.435 586.007 447.574 585.651 447.879 585.515L676.842 484.081C677.149 483.944 677.505 484.084 677.639 484.388C677.775 484.693 677.637 485.049 677.331 485.185L448.368 586.62C448.193 586.697 448 586.686 447.843 586.603Z" fill="#060633"/>
<path fill-rule="evenodd" clip-rule="evenodd" d="M557.276 538.12C557.019 537.986 556.89 537.682 556.983 537.397C557.087 537.082 557.429 536.909 557.747 537.011L623.823 558.761C624.136 558.858 624.311 559.205 624.207 559.525C624.104 559.841 623.762 560.013 623.445 559.907L557.368 538.161C557.336 538.149 557.305 538.136 557.276 538.12Z" fill="#060633"/>
<path fill-rule="evenodd" clip-rule="evenodd" d="M508.232 559.85C508.202 559.834 508.172 559.817 508.145 559.797C507.88 559.593 507.829 559.214 508.032 558.949L549.466 504.663C549.67 504.398 550.051 504.357 550.314 504.549C550.579 504.754 550.629 505.132 550.427 505.397L508.992 559.684C508.81 559.919 508.488 559.984 508.232 559.85Z" fill="#060633"/>
<path fill-rule="evenodd" clip-rule="evenodd" d="M344.484 354.607L362.289 364.455L360.477 372.09C360.477 372.09 329.724 368.016 329.433 361.707C329.252 357.82 344.484 354.607 344.484 354.607Z" fill="#FB9391"/>
<path fill-rule="evenodd" clip-rule="evenodd" d="M363.978 266.832C363.978 266.832 331.881 278.815 325.168 322.958C322.998 337.227 333.658 350.387 348.08 350.979C348.413 350.994 348.754 351.004 349.098 351.011L361.347 329.716L363.978 266.832Z" fill="#7C9AF2"/>
<path fill-rule="evenodd" clip-rule="evenodd" d="M368.809 575.244C368.809 575.244 369.628 596.238 369.475 596.543C369.319 596.845 371.078 599.433 371.078 599.433L377.731 600.455L383.706 597.529C383.706 597.529 382.692 578.018 383.249 574.925C383.806 571.829 368.809 575.244 368.809 575.244Z" fill="#FB9391"/>
<path fill-rule="evenodd" clip-rule="evenodd" d="M383.707 597.529C383.707 597.529 376.139 600.387 369.504 596.128C369.504 596.128 344.319 606.281 345.273 613.508C345.273 613.508 344.244 615.693 355.248 614.955C366.249 614.217 383.356 613.306 383.806 613.04C384.26 612.774 386.444 613.884 383.707 597.529Z" fill="#0B0755"/>
<path fill-rule="evenodd" clip-rule="evenodd" d="M428.669 386.637C428.669 386.637 428.998 480.056 431.151 486.68C433.304 493.301 444.563 578.979 444.563 578.979L419.395 581.989C419.395 581.989 389.66 471.573 389.66 442.43C389.66 442.43 381.642 550.137 388.929 581.989H363.099C363.099 581.989 351.506 516.76 352.666 478.538C353.825 440.317 357.8 380.708 357.8 380.708L428.669 386.637Z" fill="#325DB2"/>
<path fill-rule="evenodd" clip-rule="evenodd" d="M404.328 262.319C404.328 262.319 435.123 265.134 444.067 277.552C453.007 289.971 455.252 345.607 448.915 351.069C442.578 356.533 431.152 360.143 431.152 360.143L430.655 391.304C430.655 391.304 377.504 404.22 352.666 391.304V360.143C352.666 360.143 356.035 275.167 359.124 270.102C363.979 262.142 404.328 262.319 404.328 262.319Z" fill="#7C9AF2"/>
<path fill-rule="evenodd" clip-rule="evenodd" d="M378.273 225.762C378.273 225.762 376.822 223.07 375.4 223.982C371.773 226.308 374.851 230.004 377.039 230.963L378.273 225.762Z" fill="#EA6868"/>
<path fill-rule="evenodd" clip-rule="evenodd" d="M378.375 216.329L378.393 216.334C378.407 216.067 378.421 215.8 378.446 215.531C379.531 203.634 390.436 194.996 402.429 196.889C412.422 198.467 419.919 207.216 419.937 217.333C419.944 221.089 418.969 224.567 417.284 227.571C414.926 232.239 412.862 236.228 410.759 239.508C407.284 244.934 405.752 251.379 406.245 257.804L406.614 262.581C393.273 268.194 388.074 262.98 388.074 262.98L388.666 252.487C388.744 251.292 387.89 250.248 386.709 250.062C386.702 250.061 386.691 250.06 386.684 250.059C371.002 247.592 377.726 223.435 378.375 216.329Z" fill="#FB9391"/>
<path fill-rule="evenodd" clip-rule="evenodd" d="M398.714 229.138C398.809 228.073 399.749 227.289 400.813 227.387C401.88 227.483 402.664 228.425 402.565 229.489C402.469 230.553 401.529 231.337 400.462 231.241C399.398 231.143 398.614 230.202 398.714 229.138Z" fill="#050521"/>
<path fill-rule="evenodd" clip-rule="evenodd" d="M381.897 224.149C381.996 223.085 382.936 222.3 384 222.397C385.063 222.494 385.847 223.436 385.751 224.5C385.656 225.564 384.712 226.348 383.648 226.251C382.585 226.154 381.801 225.213 381.897 224.149Z" fill="#050521"/>
<path fill-rule="evenodd" clip-rule="evenodd" d="M405.887 226.76C406.086 226.779 406.291 226.745 406.483 226.652C407.047 226.38 407.284 225.702 407.011 225.138C406.192 223.439 403.451 220.69 398.94 222.452C398.355 222.681 398.067 223.338 398.294 223.921C398.525 224.505 399.181 224.792 399.766 224.564C403.468 223.114 404.908 226 404.968 226.124C405.149 226.496 405.504 226.725 405.887 226.76Z" fill="#050521"/>
<path fill-rule="evenodd" clip-rule="evenodd" d="M388.096 222.103C388.295 222.121 388.5 222.088 388.692 221.995C389.256 221.723 389.49 221.045 389.22 220.481C388.397 218.781 385.656 216.032 381.145 217.795C380.564 218.023 380.277 218.681 380.503 219.264C380.734 219.847 381.39 220.135 381.972 219.907C385.677 218.458 387.117 221.342 387.177 221.466C387.355 221.838 387.713 222.068 388.096 222.103Z" fill="#050521"/>
<path fill-rule="evenodd" clip-rule="evenodd" d="M421.572 220.899L414.678 234.393L410.983 233.296L410.373 215.024L421.572 220.899Z" fill="#060633"/>
<path fill-rule="evenodd" clip-rule="evenodd" d="M410.44 232.798C410.837 232.159 411.469 231.701 412.189 231.484C413.667 231.038 416.245 230.638 417.824 232.53C420.132 235.304 414.405 241.578 409.653 237.768C409.653 237.768 408.341 236.191 410.44 232.798Z" fill="#FB9391"/>
<path fill-rule="evenodd" clip-rule="evenodd" d="M388.174 235.215C389.94 236.289 391.677 235.441 391.699 235.43C391.862 235.347 391.929 235.146 391.847 234.979C391.762 234.814 391.56 234.746 391.394 234.828C391.316 234.869 389.383 235.79 387.698 233.951C387.422 233.652 387.287 233.416 387.294 233.252C387.305 233.021 387.606 232.749 388.025 232.373C388.989 231.508 390.599 230.06 391.383 226.529C391.422 226.347 391.308 226.168 391.128 226.128C390.947 226.088 390.766 226.202 390.727 226.383C389.989 229.704 388.535 231.009 387.574 231.873C387.057 232.339 386.645 232.708 386.62 233.22C386.603 233.584 386.783 233.951 387.198 234.406C387.518 234.752 387.847 235.016 388.174 235.215Z" fill="#EA6868"/>
<path fill-rule="evenodd" clip-rule="evenodd" d="M382.437 208.593C382.437 208.593 379.27 210.411 377.395 222.91C377.395 222.91 377.66 208.811 379.359 207.411C381.058 206.01 382.437 208.593 382.437 208.593Z" fill="#060633"/>
<path fill-rule="evenodd" clip-rule="evenodd" d="M390.362 241.651C386.203 241.651 383.313 239.413 383.185 239.312C383.018 239.179 382.986 238.936 383.121 238.768C383.252 238.599 383.497 238.57 383.667 238.702C383.696 238.726 386.816 241.13 391.065 240.851C391.285 240.836 391.465 241 391.476 241.213C391.49 241.427 391.331 241.612 391.114 241.626C390.863 241.643 390.611 241.651 390.362 241.651Z" fill="#060633"/>
<path fill-rule="evenodd" clip-rule="evenodd" d="M425.725 213.862C425.814 211.34 425.317 208.799 424.615 206.375C423.913 203.952 422.463 201.656 420.271 200.408C419.274 199.841 418.108 199.464 417.413 198.55C416.948 197.933 416.767 197.15 416.406 196.463C414.952 193.67 411.115 193.201 408.022 193.811C404.933 194.42 401.852 195.747 398.752 195.208C395.291 194.609 391.944 191.748 388.685 193.042C387.585 193.476 386.716 194.336 385.681 194.904C383.649 196.023 381.202 195.931 378.886 196.071C376.571 196.212 374.024 196.76 372.68 198.65C371.12 200.84 372.159 204.374 374.652 205.375C375.127 205.567 375.645 205.679 376.071 205.966C377.929 207.219 376.759 210.52 378.372 212.074C379.202 212.874 380.503 212.916 381.638 212.703C382.769 212.49 383.883 212.073 385.035 212.128C387.564 212.248 389.475 214.562 391.947 215.109C395.458 215.886 398.809 212.948 402.401 213.019C407.728 213.124 410.877 219.383 415.969 220.933C422.275 222.85 425.534 219.384 425.725 213.862Z" fill="#060633"/>
<path fill-rule="evenodd" clip-rule="evenodd" d="M381.493 346.384C381.493 346.384 373.443 341.557 370.713 340.227C367.986 338.898 366.33 335.582 365.071 336.812C363.812 338.043 367.624 342.469 367.624 342.469C367.624 342.469 361.45 342.586 359.546 342.334C357.645 342.082 354.216 340.469 353.925 341.845C353.631 343.224 362.766 345.823 362.766 345.823C362.766 345.823 354.627 343.515 354.085 344.731C353.542 345.944 363.865 349.636 363.865 349.636C363.865 349.636 355.414 346.678 354.751 347.242C354.092 347.806 353.531 350.49 356.478 351.246C359.425 352.001 362.372 352.675 362.372 352.675C362.372 352.675 357.404 352.015 356.716 352.306C356.024 352.597 356.883 353.877 361.032 354.976C365.415 356.136 375.007 356.026 379.933 353.93L381.493 346.384Z" fill="#FB9391"/>
<path fill-rule="evenodd" clip-rule="evenodd" d="M425.009 330.862C425.009 330.862 414.083 332.252 391.6 344.341L393.507 357.913C393.507 357.913 409.59 365.072 431.275 360.516L425.009 330.862Z" fill="#7C9AF2"/>
<path fill-rule="evenodd" clip-rule="evenodd" d="M417.285 362.668C421.856 362.668 426.661 362.09 431.275 360.516C431.48 360.445 431.59 360.221 431.519 360.019C431.452 359.814 431.229 359.704 431.023 359.775C414.912 365.268 396.408 358.42 394.252 357.579L392.411 344.494C394.458 343.324 409.94 334.628 425.008 330.862C425.413 330.763 425.743 330.493 425.994 330.061C428.689 325.442 421.618 299.662 421.317 298.567C421.26 298.358 421.04 298.237 420.835 298.294C420.625 298.351 420.505 298.567 420.561 298.776C423.093 307.943 427.342 326.197 425.317 329.667C425.175 329.912 425.012 330.053 424.817 330.103C408.614 334.153 391.957 343.848 391.791 343.948C391.652 344.026 391.578 344.182 391.599 344.341L393.507 357.913C393.525 358.051 393.617 358.168 393.745 358.221C393.89 358.282 404.699 362.668 417.285 362.668Z" fill="#0B0755"/>
<path fill-rule="evenodd" clip-rule="evenodd" d="M373.112 279.923C373.112 279.923 372.485 278.443 371.694 278.85C369.683 279.89 371.112 281.976 372.212 282.585L373.112 279.923Z" fill="#EA6868"/>
<path fill-rule="evenodd" clip-rule="evenodd" d="M372.947 280.863C374.022 273.156 380.685 267.718 387.831 268.715C394.976 269.713 399.895 276.769 398.82 284.476C397.746 292.183 391.079 297.622 383.933 296.625C376.788 295.627 371.869 288.57 372.947 280.863Z" fill="#FB9391"/>
<path fill-rule="evenodd" clip-rule="evenodd" d="M357.404 289.887L362.596 289.272C367.039 300.855 377.642 301.15 381.036 300.929C381.15 300.922 381.235 300.819 381.217 300.705C380.965 299.011 379.912 297.55 378.391 296.766C377.118 296.113 375.869 295.281 374.664 294.287C367.479 288.368 373.603 278.086 373.603 278.086C373.603 278.086 400.856 283.399 396.09 291.24C394.767 293.417 393.271 295.063 391.657 296.231C390.129 297.341 389.363 299.227 389.593 301.103C389.707 302.001 390.349 302.75 391.225 302.979C406.849 307.064 413.13 299.456 413.13 299.456L416.768 301.379C413.321 312.48 400.707 316.38 400.707 316.38C402.076 323.387 401.048 332.529 401.048 332.529L367.759 329.096L370.841 312.657C356.954 306.472 357.404 289.887 357.404 289.887Z" fill="#FB9391"/>
<path fill-rule="evenodd" clip-rule="evenodd" d="M387.309 286.192C387.447 285.457 388.153 284.972 388.887 285.109C389.621 285.246 390.107 285.953 389.968 286.688C389.834 287.423 389.128 287.907 388.39 287.771C387.656 287.633 387.17 286.927 387.309 286.192Z" fill="#060633"/>
<path fill-rule="evenodd" clip-rule="evenodd" d="M375.045 282.01C375.18 281.275 375.885 280.79 376.623 280.927C377.357 281.064 377.843 281.771 377.705 282.506C377.566 283.241 376.861 283.725 376.127 283.589C375.393 283.452 374.907 282.745 375.045 282.01Z" fill="#060633"/>
<path fill-rule="evenodd" clip-rule="evenodd" d="M380.614 287.94C380.781 287.964 380.937 287.846 380.962 287.678C380.987 287.51 380.866 287.354 380.699 287.331C380.348 287.282 380.121 287.049 380.026 286.847C379.951 286.687 379.941 286.53 380.004 286.427C380.107 286.278 380.852 285.956 381.597 285.739C381.76 285.692 381.852 285.522 381.806 285.358C381.756 285.195 381.586 285.102 381.423 285.149C380.926 285.294 379.738 285.677 379.48 286.109C379.309 286.39 379.306 286.764 379.472 287.111C379.682 287.553 380.121 287.871 380.614 287.94Z" fill="#EA6868"/>
<path fill-rule="evenodd" clip-rule="evenodd" d="M362.719 289.588C362.719 289.588 363.797 287.602 362.024 285.095C361.272 284.035 361.886 281.662 361.074 281.488C360.261 281.314 359.875 284.274 359.875 284.274C359.875 284.274 358.662 282.465 358.212 281.732C357.758 281 356.786 279.424 356.194 279.626C355.605 279.828 357.286 283.279 357.286 283.279C357.286 283.279 354.804 279.876 354.233 280.075C353.293 280.401 355.371 284.032 355.371 284.032C355.371 284.032 353.02 281.04 352.623 280.93C352.229 280.819 352.116 281.679 352.687 282.894C353.25 284.11 354.162 285.115 354.162 285.115C354.162 285.115 352.545 283.836 352.243 283.655C351.942 283.474 351.016 282.969 352.059 284.709C353.105 286.449 356.18 289.375 358.357 290.662L362.719 289.588Z" fill="#FB9391"/>
<path fill-rule="evenodd" clip-rule="evenodd" d="M412.231 300.747C412.231 300.747 411.739 298.541 414.129 296.616C415.143 295.802 415.203 293.352 416.03 293.407C416.859 293.462 416.42 296.415 416.42 296.415C416.42 296.415 418.083 295.007 418.718 294.427C419.356 293.846 420.725 292.597 421.235 292.953C421.746 293.308 419.182 296.167 419.182 296.167C419.182 296.167 422.501 293.574 422.998 293.921C423.814 294.493 420.817 297.415 420.817 297.415C420.817 297.415 423.899 295.182 424.31 295.185C424.721 295.187 424.594 296.044 423.714 297.057C422.838 298.071 421.686 298.788 421.686 298.788C421.686 298.788 423.59 298 423.931 297.91C424.271 297.82 425.299 297.587 423.821 298.975C422.338 300.363 418.579 302.333 416.129 302.974L412.231 300.747Z" fill="#FB9391"/>
<path fill-rule="evenodd" clip-rule="evenodd" d="M391.461 284.979C391.593 284.997 391.731 284.959 391.834 284.863C392.025 284.692 392.039 284.401 391.866 284.213C390.713 282.942 388.837 282.557 388.756 282.541C388.5 282.492 388.263 282.654 388.213 282.903C388.167 283.153 388.326 283.395 388.575 283.445C388.592 283.448 390.238 283.791 391.185 284.832C391.259 284.915 391.359 284.965 391.461 284.979Z" fill="#060633"/>
<path fill-rule="evenodd" clip-rule="evenodd" d="M375.248 279.898C375.319 279.908 375.39 279.902 375.461 279.879C376.801 279.424 378.397 279.925 378.415 279.93C378.656 280.008 378.915 279.874 378.997 279.632C379.071 279.389 378.94 279.13 378.695 279.052C378.617 279.027 376.791 278.454 375.167 279.005C374.925 279.087 374.794 279.349 374.876 279.59C374.933 279.761 375.081 279.875 375.248 279.898Z" fill="#060633"/>
<path fill-rule="evenodd" clip-rule="evenodd" d="M392.395 267.866C391.657 266.892 390.643 266.073 389.451 265.803C389.139 266.196 389.27 266.787 389.55 267.205C389.827 267.622 390.224 267.953 390.473 268.387C387.224 266.661 383.536 265.769 379.855 265.82C379.298 265.827 378.724 265.86 378.21 266.079C377.695 266.3 377.245 266.745 377.16 267.298C377.032 268.187 377.837 268.92 378.614 269.374C380.16 270.278 381.923 270.811 383.713 270.915C382.852 271.056 381.802 271.364 381.628 272.224C381.472 273.016 382.21 273.702 382.944 274.036C384.976 274.958 387.341 274.544 389.522 274.068C391.703 273.591 394.455 273.939 396.246 273.853C396.157 272.817 394.678 271.438 394.356 270.872C393.749 269.824 393.139 268.846 392.395 267.866Z" fill="#060633"/>
<path fill-rule="evenodd" clip-rule="evenodd" d="M376.411 287.941C376.411 287.941 381.043 290.786 385.174 291.195C385.174 291.195 382.695 293.419 379.472 292.243C376.255 291.067 376.411 287.941 376.411 287.941Z" fill="white"/>
<path fill-rule="evenodd" clip-rule="evenodd" d="M379.497 367.069C379.497 367.069 375.007 375.346 376.11 375.988C377.209 376.63 388.43 373.012 388.43 373.012L387.167 367.544L379.497 367.069Z" fill="#0B0755"/>
<path fill-rule="evenodd" clip-rule="evenodd" d="M350.091 363.675C350.091 363.675 345.601 371.956 346.701 372.598C347.804 373.24 359.02 369.619 359.02 369.619L357.761 364.154L350.091 363.675Z" fill="#0B0755"/>
<path fill-rule="evenodd" clip-rule="evenodd" d="M401.189 331.724C401.189 331.724 400.898 342.093 397.284 347.504C393.674 352.916 387.663 358.863 388.55 369.165L377.55 368.665C377.55 368.665 375.865 354.696 379.074 348.756C382.284 342.816 379.897 341.532 379.897 341.532C379.897 341.532 364.975 342.22 362.35 346.497C359.726 350.774 358.662 365.349 358.662 365.349L348.336 363.909C348.336 363.909 347.931 342.072 351.577 337.759C355.219 333.447 369.968 327.365 369.968 327.365L401.189 331.724Z" fill="#FA7267"/>
<path fill-rule="evenodd" clip-rule="evenodd" d="M390.806 302.822C390.806 302.822 383.252 304.374 379.653 300.966C379.653 300.966 372.33 300.242 371.561 299.245L367.497 311.58L370.068 313.007L366.77 327.862C366.77 327.862 368.911 330.199 373.862 331.067C378.813 331.936 402.342 331.734 402.342 331.734L401.707 316.021L406.661 314.29C406.661 314.29 402.58 307.981 401.743 303.459C401.743 303.459 392.657 303.303 390.806 302.822Z" fill="white"/>
<path fill-rule="evenodd" clip-rule="evenodd" d="M394.731 289.045C395.043 288.632 395.508 288.358 396.012 288.256C397.061 288.045 398.852 287.936 399.813 289.335C401.221 291.387 396.887 295.325 393.873 292.405C393.873 292.405 393.072 291.239 394.731 289.045Z" fill="#FB9391"/>
<path fill-rule="evenodd" clip-rule="evenodd" d="M353.227 326.414C353.227 326.414 360.284 320.359 362.762 318.607C365.241 316.854 366.341 313.316 367.78 314.327C369.22 315.338 366.174 320.32 366.174 320.32C366.174 320.32 372.288 319.44 374.125 318.884C375.962 318.328 379.497 318.17 380.008 319.483C380.522 320.795 371.507 322.848 371.507 322.848C371.507 322.848 379.267 321.865 379.997 322.976C380.728 324.086 371.039 326.787 371.039 326.787C371.039 326.787 379.263 325.334 380.008 325.783C380.753 326.232 380.206 327.202 377.419 328.422C374.635 329.645 371.472 330.174 371.472 330.174C371.472 330.174 377.327 329.585 378.054 329.759C378.781 329.936 379.657 330.706 375.337 332.078C371.018 333.451 361.199 334.894 355.996 333.624L353.227 326.414Z" fill="#FB9391"/>
<path fill-rule="evenodd" clip-rule="evenodd" d="M370.641 344.955C373.783 345.292 375.184 344.228 375.769 342.944C375.269 342.674 374.833 342.451 374.468 342.27C371.131 340.642 369.113 336.6 367.577 338.1C366.127 339.515 370.184 344.405 370.641 344.955Z" fill="#FB9391"/>
<path fill-rule="evenodd" clip-rule="evenodd" d="M355.995 334.036C356.048 334.036 356.101 334.025 356.154 334C356.364 333.911 356.463 333.67 356.374 333.465L351.952 323.059C351.881 322.891 351.711 322.791 351.527 322.812L334.136 324.853C333.909 324.879 333.749 325.083 333.774 325.308C333.802 325.533 334.008 325.697 334.231 325.668L351.317 323.663L355.615 333.784C355.683 333.94 355.835 334.036 355.995 334.036Z" fill="#0B0755"/>
<path fill-rule="evenodd" clip-rule="evenodd" d="M302.951 237.968C310.253 242.745 315.884 251.112 314.863 259.779C314.253 264.94 311.43 270.351 313.692 275.029C315.203 278.143 318.551 279.865 320.891 282.414C325.48 287.413 325.455 295.969 320.831 300.94C317.707 304.304 312.88 306.119 310.77 310.197C309.696 312.261 309.469 314.679 308.405 316.748C306.21 321.028 300.866 322.858 296.068 322.51C291.266 322.163 286.791 320.099 282.29 318.405C277.786 316.711 272.887 315.351 268.205 316.465C260.556 318.287 254.966 326.354 247.1 326.331C240.127 326.312 234.615 319.109 234.832 312.138C235.053 305.167 239.777 298.965 245.614 295.145C247.727 293.762 250.118 292.505 251.289 290.268C253.279 286.472 250.891 282.001 249.315 278.016C247.486 273.382 247.042 267.42 250.704 264.039C251.733 263.089 253.025 262.412 253.873 261.299C255.211 259.544 255.156 257.146 255.319 254.945C256.028 245.223 262.745 236.412 271.556 232.475C281.741 227.926 293.936 232.074 302.951 237.968Z" fill="#0B0755"/>
<path fill-rule="evenodd" clip-rule="evenodd" d="M301.472 354.377L329.218 384.205L325.516 391.606C325.516 391.606 293.61 371.952 288.061 357.384C282.511 342.817 301.472 354.377 301.472 354.377Z" fill="#FB9391"/>
<path fill-rule="evenodd" clip-rule="evenodd" d="M293.071 527.728C293.071 527.728 268.808 596.394 272.94 604.299C277.072 612.207 284.138 620.59 283.812 624.455C283.482 628.317 257.854 615.877 256.577 611.512C255.3 607.143 257.589 601.249 260.465 583.642C263.342 566.031 272.174 530.434 272.174 530.434L293.071 527.728Z" fill="#FB9391"/>
<path fill-rule="evenodd" clip-rule="evenodd" d="M283.811 624.456C284.031 621.824 280.832 617.101 277.463 611.863C274.034 619.271 261.347 606.593 257.065 601.99C256.216 606.54 255.911 609.235 256.576 611.512C257.853 615.877 283.481 628.318 283.811 624.456Z" fill="#0B0755"/>
<path fill-rule="evenodd" clip-rule="evenodd" d="M302.526 292.18C302.526 292.18 315.544 292.916 319.676 298.469C326.378 307.486 338.598 350.795 344.492 354.611C344.492 354.611 333.74 361.2 328.194 362.934C328.194 362.934 319.52 347.065 317.094 341.174C317.094 341.174 317.789 363.282 318.825 365.36C319.867 367.441 337.208 384.439 335.822 414.958C334.435 445.48 331.197 539.817 331.197 539.817H258.824C258.824 539.817 262.293 426.749 263.681 412.876C264.683 402.865 273.271 386.708 277.974 378.492C279.857 375.204 280.014 371.215 278.39 367.789L265.761 341.174L258.824 371.257L243.684 369.055C243.684 369.055 246.569 308.724 255.718 301.191C269.483 289.859 302.526 292.18 302.526 292.18Z" fill="#FA7267"/>
<path fill-rule="evenodd" clip-rule="evenodd" d="M272.238 294.172C272.238 294.172 254.054 306.264 298.405 314.714C298.405 314.714 316.608 296.7 301.706 292.128L290.039 297.614L272.238 294.172Z" fill="white"/>
<path fill-rule="evenodd" clip-rule="evenodd" d="M300.525 258.322C300.525 258.322 301.806 255.842 303.118 256.652C306.465 258.715 303.469 262.264 301.49 263.174L300.525 258.322Z" fill="#EA6868"/>
<path fill-rule="evenodd" clip-rule="evenodd" d="M294.206 289.473L293.241 280.625C304.951 277.917 300.986 256.19 300.281 249.717L300.263 249.723C300.245 249.48 300.227 249.236 300.203 248.99C299.047 238.405 289.394 230.808 278.776 232.252C269.126 233.564 261.86 242.362 262.404 252.083C262.576 255.21 263.493 258.096 264.96 260.603C268.302 266.938 271.046 272.027 274.173 275.592C277.297 279.158 278.984 283.751 278.827 288.491V288.491C278.74 291.064 276.895 293.24 274.372 293.746L272.238 294.173L298.405 314.714L301.706 292.128L296.851 291.94C295.479 291.887 294.355 290.838 294.206 289.473Z" fill="#FB9391"/>
<path fill-rule="evenodd" clip-rule="evenodd" d="M278.767 251.704C276.715 254.306 274.991 257.148 273.274 259.983C271.457 262.982 269.585 266.16 269.488 269.666C266.174 267.674 263.838 264.418 261.809 261.127C260.868 259.601 259.962 258.023 259.515 256.286C258.888 253.827 259.226 251.237 259.57 248.721C260.01 245.475 260.505 242.09 262.392 239.411C263.642 237.637 265.42 236.301 267.276 235.181C271.61 232.566 276.63 230.954 281.688 231.107C286.752 231.259 291.827 233.277 295.242 237.013C299.643 241.824 300.82 248.674 301.81 255.119C300.866 252.502 298.845 250.444 296.88 248.474C295.604 247.193 294.295 245.888 292.664 245.098C289.891 243.751 289.203 244.185 284.312 241.594C283.557 245.715 281.337 248.448 278.767 251.704Z" fill="#0B0755"/>
<path fill-rule="evenodd" clip-rule="evenodd" d="M271.288 265.261C270.917 264.684 270.334 264.277 269.676 264.091C268.314 263.708 265.957 263.385 264.55 265.135C262.486 267.704 267.816 273.336 272.088 269.783C272.088 269.783 273.262 268.323 271.288 265.261Z" fill="#FB9391"/>
<path fill-rule="evenodd" clip-rule="evenodd" d="M297.422 258.841C297.407 257.927 296.659 257.194 295.744 257.205C294.829 257.216 294.099 257.966 294.109 258.88C294.12 259.795 294.868 260.527 295.783 260.516C296.698 260.505 297.432 259.755 297.422 258.841Z" fill="#060633"/>
<path fill-rule="evenodd" clip-rule="evenodd" d="M282.078 262.276C282.068 261.362 281.32 260.63 280.404 260.641C279.489 260.652 278.756 261.402 278.768 262.316C278.78 263.23 279.528 263.963 280.443 263.952C281.359 263.941 282.089 263.19 282.078 262.276Z" fill="#060633"/>
<path fill-rule="evenodd" clip-rule="evenodd" d="M276.183 259.894C275.99 259.931 275.781 259.885 275.616 259.751C275.323 259.51 275.281 259.076 275.522 258.782C275.591 258.694 277.342 256.621 280.388 256.174C280.765 256.118 281.115 256.377 281.17 256.754C281.223 257.13 280.934 257.49 280.59 257.535C278.051 257.91 276.599 259.637 276.585 259.655C276.479 259.784 276.337 259.865 276.183 259.894Z" fill="#0B0755"/>
<path fill-rule="evenodd" clip-rule="evenodd" d="M292.628 253.949C292.444 253.875 292.295 253.724 292.227 253.523C292.11 253.161 292.305 252.773 292.667 252.654C292.777 252.619 295.337 251.801 298.174 253.076C298.522 253.231 298.674 253.639 298.522 253.985C298.362 254.333 297.944 254.485 297.611 254.332C295.266 253.278 293.117 253.956 293.096 253.963C292.937 254.015 292.77 254.006 292.628 253.949Z" fill="#0B0755"/>
<path fill-rule="evenodd" clip-rule="evenodd" d="M290.167 267.738C292.078 267.231 292.567 265.698 292.535 264.849C292.532 264.701 292.468 264.561 292.362 264.457C290.386 262.518 290.223 259.381 290.223 259.349C290.209 259.03 289.94 258.782 289.617 258.795C289.305 258.808 289.049 259.078 289.067 259.398C289.071 259.54 289.23 262.829 291.362 265.094C291.301 265.56 290.943 266.628 289.085 266.738C288.759 266.76 288.521 267.031 288.542 267.35C288.56 267.67 288.833 267.914 289.152 267.895C289.528 267.872 289.865 267.818 290.167 267.738Z" fill="#EA6868"/>
<path fill-rule="evenodd" clip-rule="evenodd" d="M317.092 341.416C317.007 341.416 316.926 341.369 316.883 341.295C316.816 341.182 316.855 341.033 316.968 340.965C317.032 340.93 323.192 337.188 320.933 327.44C319.844 322.744 313.113 319.142 313.046 319.107C312.929 319.044 312.883 318.899 312.947 318.781C313.011 318.666 313.16 318.619 313.273 318.681C313.557 318.832 320.263 322.422 321.401 327.33C323.745 337.44 317.277 341.341 317.209 341.384C317.174 341.401 317.131 341.416 317.092 341.416Z" fill="#060633"/>
<path fill-rule="evenodd" clip-rule="evenodd" d="M284.787 342.777C279.509 342.777 274.372 339.036 274.115 338.848C274.009 338.77 273.985 338.621 274.064 338.511C274.145 338.405 274.296 338.383 274.402 338.462C274.474 338.515 281.663 343.738 287.539 341.894C293.418 340.047 295.858 333.1 295.883 333.029C295.926 332.901 296.057 332.83 296.188 332.88C296.312 332.922 296.38 333.057 296.337 333.185C296.312 333.256 293.798 340.433 287.684 342.352C286.734 342.653 285.759 342.777 284.787 342.777Z" fill="#060633"/>
<path fill-rule="evenodd" clip-rule="evenodd" d="M287.925 448.97C287.925 448.97 280.126 496.16 282.9 508.628L275.194 508.862C275.194 508.862 269.721 477.744 277.005 442.019L287.925 448.97Z" fill="#FB9391"/>
<path fill-rule="evenodd" clip-rule="evenodd" d="M348.258 446.785C348.258 446.785 348.854 485.499 354.989 502.723L348.258 505.099C348.258 505.099 336.776 483.251 336.379 454.672C335.981 426.096 348.258 446.785 348.258 446.785Z" fill="#FB9391"/>
<path fill-rule="evenodd" clip-rule="evenodd" d="M347.084 502.646C347.084 502.646 348.336 510.128 349.456 512.405C350.581 514.685 351.006 518.238 352.467 518.068C353.928 517.902 352.648 512.508 352.648 512.508C352.648 512.508 356.79 515.6 357.921 516.738C359.049 517.884 360.574 519.075 361.475 518.316C362.375 517.554 357.581 512.784 357.581 512.784C357.581 512.784 362.893 516.604 363.875 516.082C364.858 515.557 358.815 509.699 358.815 509.699C358.815 509.699 364.276 514.054 365.003 514.022C365.734 513.986 365.716 513.057 364.156 511.043C362.595 509.032 360.485 507.383 360.485 507.383C360.485 507.383 364.556 510.153 365.159 510.316C365.762 510.479 366.712 510.259 364.088 507.525C361.46 504.791 357.393 503.021 353.751 498.702L347.084 502.646Z" fill="#FB9391"/>
<path fill-rule="evenodd" clip-rule="evenodd" d="M282.761 506.054C282.761 506.054 286.474 512.667 287.028 515.146C287.581 517.625 289.478 520.661 288.23 521.444C286.988 522.232 284.605 517.228 284.605 517.228C284.605 517.228 283.315 522.232 283.148 523.831C282.985 525.427 282.545 527.313 281.368 527.285C280.19 527.257 280.932 520.533 280.932 520.533C280.932 520.533 279.187 526.842 278.095 527.044C277.002 527.25 278.04 518.902 278.04 518.902C278.04 518.902 276.51 525.721 275.925 526.15C275.339 526.576 274.765 525.845 274.72 523.299C274.675 520.756 275.287 518.143 275.287 518.143C275.287 518.143 273.854 522.852 273.482 523.356C273.114 523.863 272.236 524.289 272.571 520.512C272.903 516.735 274.965 512.806 275.094 507.16L282.761 506.054Z" fill="#FB9391"/>
<path fill-rule="evenodd" clip-rule="evenodd" d="M339.676 599.224C339.676 599.224 339.041 612.927 339.144 613.129C339.243 613.327 338.084 615.008 338.084 615.008L333.732 615.643L329.846 613.703C329.846 613.703 330.598 600.972 330.246 598.947C329.895 596.922 339.676 599.224 339.676 599.224Z" fill="white"/>
<path fill-rule="evenodd" clip-rule="evenodd" d="M329.846 613.704C329.846 613.704 334.775 615.604 339.126 612.856C339.126 612.856 355.528 619.601 354.868 624.317C354.868 624.317 355.531 625.747 348.35 625.218C341.169 624.686 330.002 624.009 329.708 623.835C329.413 623.658 327.984 624.374 329.846 613.704Z" fill="#FA7267"/>
<path fill-rule="evenodd" clip-rule="evenodd" d="M304.426 599.224C304.426 599.224 303.795 612.927 303.898 613.129C303.997 613.327 302.834 615.008 302.834 615.008L298.486 615.643L294.596 613.703C294.596 613.703 295.348 600.972 295 598.947C294.649 596.922 304.426 599.224 304.426 599.224Z" fill="white"/>
<path fill-rule="evenodd" clip-rule="evenodd" d="M294.597 613.704C294.597 613.704 299.526 615.604 303.877 612.856C303.877 612.856 320.279 619.601 319.623 624.317C319.623 624.317 320.282 625.747 313.101 625.218C305.92 624.686 294.756 624.009 294.462 623.835C294.168 623.658 292.735 624.374 294.597 613.704Z" fill="#FA7267"/>
<path fill-rule="evenodd" clip-rule="evenodd" d="M345.091 500.149C345.091 500.149 350.634 532.87 348.854 561.382C347.07 589.894 342.169 608.104 342.169 608.104H327.47C327.47 608.104 331.921 516.387 323.016 514.901C314.104 513.415 322.42 538.512 306.083 606.231L292.717 605.784C292.717 605.784 295.689 537.473 292.717 503.021L345.091 500.149Z" fill="#0B0755"/>
<path fill-rule="evenodd" clip-rule="evenodd" d="M324.92 411.245C324.92 411.245 340.237 417.631 344.992 425.057C349.744 432.48 353.751 448.519 353.751 448.519C353.751 448.519 347.517 452.53 340.832 451.487C340.832 451.487 341.527 489.854 346.673 500.745C346.673 500.745 343.903 507.082 330.438 507.277C316.973 507.476 300.402 505.298 297.997 506.486C295.593 507.674 290.837 508.862 290.837 508.862C290.837 508.862 288.394 470.985 288.394 453.296C288.394 453.105 284.167 452.558 279.903 449.948C275.489 447.25 274.033 444.661 274.033 444.661C274.033 444.661 281.532 420.234 291.036 416.135C300.54 412.035 310.094 411.245 310.094 411.245H324.92Z" fill="#7C9AF2"/>
<path fill-rule="evenodd" clip-rule="evenodd" d="M335.123 379.796C335.123 379.796 336.662 377.477 337.875 378.42C340.967 380.825 337.878 383.921 335.815 384.609L335.123 379.796Z" fill="#FB9391"/>
<path fill-rule="evenodd" clip-rule="evenodd" d="M335.81 371.243L335.789 371.246C335.796 371.005 335.81 370.76 335.806 370.516C335.803 359.852 326.973 351.256 316.228 351.632C306.319 351.976 298.266 360.1 298.003 370.009C297.922 372.945 298.521 375.729 299.638 378.232C303.631 388.297 306.057 395.24 311.284 398.464C312.231 399.052 312.781 400.113 312.781 401.226V406.007C312.781 408.081 311.781 410.032 310.093 411.244C320.487 415.255 324.919 411.244 324.919 411.244C323.334 409.929 322.419 407.975 322.419 405.914V403.311C322.419 401.691 323.604 400.311 325.203 400.063L325.235 400.06C343.207 397.286 335.814 377.736 335.81 371.243Z" fill="#FB9391"/>
<path fill-rule="evenodd" clip-rule="evenodd" d="M316.228 381.18C316.228 380.226 315.455 379.456 314.505 379.456C313.554 379.456 312.781 380.229 312.781 381.18C312.785 382.13 313.554 382.903 314.505 382.899C315.459 382.899 316.228 382.13 316.228 381.18Z" fill="#060633"/>
<path fill-rule="evenodd" clip-rule="evenodd" d="M332.607 378.392C332.607 377.442 331.834 376.672 330.884 376.672C329.93 376.672 329.16 377.445 329.16 378.396C329.16 379.346 329.93 380.116 330.884 380.116C331.838 380.116 332.607 379.343 332.607 378.392Z" fill="#060633"/>
<path fill-rule="evenodd" clip-rule="evenodd" d="M304.898 384.609C304.898 384.609 310.686 372.339 310.094 365.803L298.132 364.764C298.132 364.764 295.196 374.835 301.678 383.389L304.898 384.609Z" fill="#060633"/>
<path fill-rule="evenodd" clip-rule="evenodd" d="M325.004 387.779C324.476 387.779 324.075 387.602 324.05 387.591C323.887 387.517 323.816 387.325 323.89 387.162C323.965 386.999 324.156 386.924 324.32 387.003C324.334 387.006 324.976 387.283 325.578 387.017C326.004 386.832 326.33 386.414 326.543 385.783C326.589 385.644 326.596 385.627 326.171 385.364C325.426 384.91 324.032 384.063 323.596 380.669C323.575 380.492 323.699 380.328 323.876 380.304C324.05 380.282 324.217 380.406 324.238 380.584C324.635 383.673 325.809 384.385 326.508 384.814C326.915 385.059 327.376 385.339 327.157 385.988C326.883 386.807 326.437 387.354 325.834 387.612C325.547 387.737 325.263 387.779 325.004 387.779Z" fill="#EA6868"/>
<path fill-rule="evenodd" clip-rule="evenodd" d="M327.303 374.576C327.097 374.576 326.899 374.466 326.796 374.271C326.647 373.995 326.753 373.651 327.03 373.502C327.133 373.449 329.551 372.19 332.761 373.094C333.066 373.179 333.239 373.495 333.158 373.796C333.073 374.101 332.754 374.278 332.452 374.193C329.7 373.42 327.59 374.502 327.569 374.512C327.484 374.555 327.392 374.576 327.303 374.576Z" fill="#060633"/>
<path fill-rule="evenodd" clip-rule="evenodd" d="M311.097 378.686C310.937 378.686 310.778 378.623 310.664 378.488C310.459 378.25 310.483 377.892 310.725 377.686C313.246 375.505 315.97 375.615 316.083 375.623C316.399 375.64 316.643 375.91 316.626 376.222C316.608 376.537 316.328 376.779 316.026 376.764C316.001 376.761 313.633 376.679 311.473 378.548C311.363 378.644 311.228 378.686 311.097 378.686Z" fill="#060633"/>
<path fill-rule="evenodd" clip-rule="evenodd" d="M305.408 383.531C305.103 382.917 304.571 382.453 303.936 382.197C302.628 381.669 300.33 381.098 298.748 382.68C296.426 385.003 301.099 391.159 305.713 388.095C305.713 388.095 307.032 386.776 305.408 383.531Z" fill="#FB9391"/>
<path fill-rule="evenodd" clip-rule="evenodd" d="M297.118 362.487C295.884 360.789 295.256 358.657 295.369 356.558C296.391 356.129 297.614 356.693 298.288 357.576C298.958 358.459 299.21 359.583 299.444 360.665C299.455 357.891 301.813 355.923 303.866 354.427C306.363 352.611 309.054 350.834 312.133 350.228C316.374 349.388 320.846 350.015 325.13 350.232C328.328 350.232 331.569 350.639 334.74 350.689C335.36 350.728 335.977 350.771 336.602 350.813C337.52 350.891 339.343 350.455 339.329 351.856C339.311 353.388 338.371 354.788 337.162 355.725C335.999 356.633 334.616 357.172 333.258 357.693C334.041 357.594 334.825 357.703 335.609 357.899C336.587 358.14 337.57 358.455 338.517 358.799C339.041 358.991 339.566 359.299 339.807 359.799C339.935 360.072 339.974 360.381 339.956 360.682C339.79 363.441 336.602 365.378 334.314 366.2C326.913 368.86 318.753 366.966 310.898 367.261C307.377 367.395 303.214 368.473 299.767 367.491C298.607 367.161 295.809 365.399 294.848 363.885C294.536 363.392 294.88 362.739 295.465 362.711C296.018 362.682 296.572 362.626 297.118 362.487Z" fill="#060633"/>
<path fill-rule="evenodd" clip-rule="evenodd" d="M333.189 366.569C333.189 366.569 335.165 369.7 336.016 373.672C336.016 373.672 336.746 366.956 335.413 364.839C334.076 362.721 333.189 366.569 333.189 366.569Z" fill="#060633"/>
<path fill-rule="evenodd" clip-rule="evenodd" d="M331.197 388.932L318.02 391.386C318.02 391.386 322.608 396.152 326.729 395.201C330.85 394.244 331.197 388.932 331.197 388.932Z" fill="white"/>
<path fill-rule="evenodd" clip-rule="evenodd" d="M258.193 371.207C258.193 371.207 269.986 404.507 276.461 418.379L271.459 423.607C271.459 423.607 244.196 388.641 244.311 369.189L258.193 371.207Z" fill="#FB9391"/>
<path fill-rule="evenodd" clip-rule="evenodd" d="M272.586 414.124C272.586 414.124 279.555 415.947 281.745 417.131C283.936 418.319 286.937 417.84 286.717 419.27C286.493 420.692 281.727 420.266 281.727 420.266C281.727 420.266 284.593 424.44 285.667 425.589C286.745 426.738 288.146 429.284 287.366 430.135C286.589 430.99 281.805 425.107 281.805 425.107C281.805 425.107 285.344 430.454 284.795 431.398C284.241 432.338 278.737 426.192 278.737 426.192C278.737 426.192 282.795 431.713 282.734 432.426C282.674 433.135 281.763 433.089 279.851 431.483C277.94 429.876 276.404 427.745 276.404 427.745C276.404 427.745 278.964 431.834 279.1 432.437C279.236 433.033 278.985 433.958 276.407 431.277C273.826 428.6 269.196 421.901 268.242 417.614L272.586 414.124Z" fill="#FB9391"/>
<path fill-rule="evenodd" clip-rule="evenodd" d="M394.873 495.55C394.873 495.55 387.192 510.543 386.224 526.544L380.316 527.143C380.316 527.143 378.851 503.078 384.695 490.95L394.873 495.55Z" fill="#FB9391"/>
<path fill-rule="evenodd" clip-rule="evenodd" d="M385.571 525.264C385.571 525.264 388.418 529.774 389.085 531.633C389.755 533.487 391.78 534.796 390.897 535.519C390.01 536.25 387.418 533.47 387.418 533.47C387.418 533.47 386.908 537.456 386.936 538.704C386.964 539.952 386.447 542.197 385.535 542.293C384.624 542.381 384.907 536.374 384.907 536.374C384.907 536.374 384.173 541.41 383.351 541.676C382.524 541.938 382.521 535.395 382.521 535.395C382.521 535.395 381.996 540.803 381.588 541.193C381.177 541.583 380.666 541.073 380.382 539.112C380.102 537.154 380.319 535.08 380.319 535.08C380.319 535.08 379.67 538.853 379.436 539.278C379.198 539.7 378.563 540.119 378.453 537.172C378.343 534.225 379.148 527.817 380.851 524.778L385.571 525.264Z" fill="#FB9391"/>
<path fill-rule="evenodd" clip-rule="evenodd" d="M445.113 500.72C445.113 500.72 455.28 512.905 458.848 528.533L464.774 528.157C464.774 528.157 461.667 504.16 453.922 493.148C453.922 493.148 448.695 499.269 445.113 500.72Z" fill="#FB9391"/>
<path fill-rule="evenodd" clip-rule="evenodd" d="M440.017 547.278C440.017 547.278 441.772 605.561 436.768 627.7C436.768 627.7 423.321 632.768 421.445 631.264C419.569 629.768 425.385 626.764 426.137 622.072C426.885 617.384 422.573 554.537 422.573 554.537L440.017 547.278Z" fill="#FB9391"/>
<path fill-rule="evenodd" clip-rule="evenodd" d="M459.279 527.161C459.279 527.161 457.204 532.076 456.85 534.019C456.495 535.959 454.708 537.58 455.697 538.151C456.69 538.725 458.797 535.562 458.797 535.562C458.797 535.562 459.949 539.41 460.127 540.644C460.3 541.881 461.176 544.013 462.091 543.956C463.006 543.896 461.747 538.016 461.747 538.016C461.747 538.016 463.293 542.867 464.148 542.991C465.003 543.115 463.942 536.661 463.942 536.661C463.942 536.661 465.34 541.913 465.808 542.229C466.276 542.544 466.698 541.959 466.655 539.977C466.613 537.998 466.063 535.991 466.063 535.991C466.063 535.991 467.318 539.608 467.62 539.988C467.925 540.367 468.616 540.676 468.244 537.75C467.872 534.824 466.031 528.636 463.857 525.913L459.279 527.161Z" fill="#FB9391"/>
<path fill-rule="evenodd" clip-rule="evenodd" d="M406.044 547.278C406.044 547.278 407.796 605.561 402.796 627.7C402.796 627.7 389.349 632.768 387.469 631.264C385.597 629.768 391.409 626.764 392.161 622.072C392.909 617.384 388.597 554.537 388.597 554.537L406.044 547.278Z" fill="#FB9391"/>
<path fill-rule="evenodd" clip-rule="evenodd" d="M403.745 622.537C402.723 623.268 401.351 624.321 399.578 625.846C396.383 628.598 391.677 627.608 389.585 626.97C387.946 628.952 386.358 630.378 387.468 631.264C389.347 632.768 402.794 627.7 402.794 627.7C403.142 626.151 403.454 624.41 403.745 622.537Z" fill="#FA7267"/>
<path fill-rule="evenodd" clip-rule="evenodd" d="M437.719 622.537C436.697 623.268 435.332 624.321 433.556 625.846C430.357 628.598 425.654 627.608 423.562 626.97C421.927 628.952 420.332 630.378 421.445 631.264C423.321 632.768 436.768 627.7 436.768 627.7C437.116 626.151 437.432 624.41 437.719 622.537Z" fill="#FA7267"/>
<path fill-rule="evenodd" clip-rule="evenodd" d="M445.13 532.044C445.13 532.044 464.457 562.609 469.014 571.049C473.578 579.489 451.733 586.479 445.13 581.475C438.527 576.475 429.321 581.191 424.42 583.085C419.515 584.979 417.465 592.983 404.979 588.979C392.5 584.979 386.088 578.475 377.287 577.475C368.485 576.475 367.854 573.06 367.854 572.248C367.854 571.436 391.475 530.64 391.475 530.64L445.13 532.044Z" fill="#FA7267"/>
<path fill-rule="evenodd" clip-rule="evenodd" d="M441.289 500.043L445.13 532.044C445.13 532.044 419.09 540.14 391.475 530.64L397.607 493.691L394.872 495.815L383.496 490.893C383.496 490.893 392.22 473.371 397.344 470.623C402.461 467.875 419.636 460.552 433.846 466.374C448.052 472.197 457.517 491.283 457.517 491.283C457.517 491.283 450.148 501.149 443.754 503.036L441.289 500.043Z" fill="#E55851"/>
<path fill-rule="evenodd" clip-rule="evenodd" d="M447.052 438.983C447.789 440.568 448.126 442.313 448.754 443.945C448.977 444.523 449.243 445.097 449.676 445.547C450.559 446.473 451.931 446.675 453.148 447.069C458.513 448.796 461.609 455.541 459.425 460.732C459.074 461.569 458.531 462.42 457.666 462.694C456.861 462.949 455.995 462.626 455.151 462.58C452.481 462.428 450.502 464.892 448.208 466.272C445.52 467.885 441.981 467.992 439.197 466.538C436.413 465.08 434.48 462.119 434.268 458.984C434.2 458.002 434.31 456.959 434.856 456.133C435.317 455.441 436.037 454.977 436.636 454.399C438.307 452.799 438.998 450.353 438.807 448.048C438.615 445.742 437.626 443.565 436.346 441.639C435.356 440.143 434.14 438.682 433.881 436.902C432.65 428.522 445.296 435.214 447.052 438.983Z" fill="#0B0755"/>
<path fill-rule="evenodd" clip-rule="evenodd" d="M392.945 437.76C392.778 438.547 392.675 439.391 392.175 440.019C391.136 441.32 389.129 440.987 387.494 441.292C385.476 441.675 383.753 443.31 383.267 445.303C382.912 446.767 383.168 448.374 382.54 449.743C381.132 452.806 376.249 452.945 374.887 456.034C374.089 457.842 374.933 460.062 376.416 461.374C377.901 462.686 379.887 463.268 381.831 463.658C384.615 464.211 387.558 464.431 390.257 463.541C392.952 462.651 395.353 460.445 395.821 457.647C396.037 456.346 395.853 454.931 396.48 453.775C397.807 451.345 401.622 451.682 403.491 449.643C405.413 447.54 404.364 444.249 404.278 441.402C404.229 439.646 404.594 437.895 404.488 436.143C403.924 427.1 394.289 431.476 392.945 437.76Z" fill="#0B0755"/>
<path fill-rule="evenodd" clip-rule="evenodd" d="M399.64 436.391C399.569 433.16 399.501 429.866 400.48 426.788C404.218 415.021 422.719 412.404 431.336 419.66C435.053 422.791 438.148 427.455 439.521 432.121C441.163 437.721 439.61 444.459 434.868 447.86C431.528 450.257 427.141 450.732 423.056 450.253C418.974 449.771 415.048 448.431 411.048 447.487C409.14 447.037 407.183 446.668 405.434 445.774C404.14 445.111 401.675 444.328 400.771 443.189C399.477 441.561 399.686 438.338 399.64 436.391Z" fill="#0B0755"/>
<path fill-rule="evenodd" clip-rule="evenodd" d="M400.041 436.661C400.041 436.661 398.771 434.88 397.846 435.65C395.473 437.622 397.984 439.973 399.622 440.462L400.041 436.661Z" fill="#EA6868"/>
<path fill-rule="evenodd" clip-rule="evenodd" d="M400.089 437.959C399.266 427.405 406.532 418.224 416.32 417.461C426.104 416.695 434.707 424.635 435.534 435.189C436.356 445.746 429.09 454.924 419.302 455.69C409.518 456.452 400.915 448.516 400.089 437.959Z" fill="#FB9391"/>
<path fill-rule="evenodd" clip-rule="evenodd" d="M424.533 456.2C422.824 458.122 424.083 464.772 424.083 464.772C424.235 468.084 412.331 468.24 412.185 465.226C412.827 462.74 413.696 457.945 411.444 457.353C409.565 456.856 408.196 456.264 406.302 455.296C395.021 449.53 400.153 434.075 400.153 434.075C400.153 434.075 437.92 433.164 433.885 444.98C432.761 448.257 426.331 454.179 424.533 456.2Z" fill="#FB9391"/>
<path fill-rule="evenodd" clip-rule="evenodd" d="M420.739 440.838C420.704 439.824 421.502 438.969 422.516 438.937C423.537 438.906 424.385 439.703 424.417 440.718C424.449 441.735 423.654 442.587 422.637 442.618C421.622 442.65 420.771 441.852 420.739 440.838Z" fill="#060633"/>
<path fill-rule="evenodd" clip-rule="evenodd" d="M403.214 438.87C403.182 437.849 403.98 437.001 404.998 436.969C406.012 436.937 406.866 437.732 406.898 438.749C406.93 439.767 406.136 440.615 405.115 440.65C404.1 440.682 403.249 439.884 403.214 438.87Z" fill="#060633"/>
<path fill-rule="evenodd" clip-rule="evenodd" d="M412.352 445.118C412.579 445.104 412.753 444.902 412.735 444.668C412.717 444.441 412.515 444.267 412.285 444.288C411.806 444.324 411.437 444.079 411.253 443.838C411.1 443.65 411.043 443.444 411.097 443.288C411.189 443.058 412.082 442.416 413.012 441.909C413.214 441.799 413.288 441.544 413.178 441.341C413.065 441.139 412.816 441.065 412.611 441.175C411.99 441.512 410.526 442.37 410.302 443.019C410.164 443.441 410.267 443.941 410.589 444.352C411.001 444.877 411.671 445.171 412.352 445.118Z" fill="#EA6868"/>
<path fill-rule="evenodd" clip-rule="evenodd" d="M425.899 438.012C426.08 437.997 426.254 437.905 426.364 437.749C426.563 437.465 426.499 437.072 426.215 436.873C424.311 435.526 421.701 435.561 421.594 435.565C421.24 435.575 420.97 435.859 420.981 436.203C420.988 436.551 421.272 436.824 421.616 436.82C421.64 436.82 423.928 436.788 425.488 437.895C425.612 437.987 425.761 438.022 425.899 438.012Z" fill="#0B0755"/>
<path fill-rule="evenodd" clip-rule="evenodd" d="M402.874 436.001C402.966 435.994 403.058 435.966 403.147 435.912C404.796 434.92 407.065 435.118 407.086 435.122C407.434 435.154 407.739 434.898 407.767 434.551C407.799 434.21 407.547 433.902 407.203 433.87C407.09 433.859 404.494 433.632 402.498 434.838C402.2 435.019 402.104 435.405 402.285 435.703C402.413 435.912 402.643 436.022 402.874 436.001Z" fill="#0B0755"/>
<path fill-rule="evenodd" clip-rule="evenodd" d="M406.768 446.349C406.768 446.349 413.754 448.778 419.367 448.111C419.367 448.111 416.718 451.792 412.098 451.172C407.473 450.551 406.768 446.349 406.768 446.349Z" fill="white"/>
<path fill-rule="evenodd" clip-rule="evenodd" d="M433.024 443.501C432.538 443.675 428.726 437.81 426.027 431.586C423.332 425.362 416.725 422.664 416.725 422.664C416.725 422.664 404.058 425.727 402.395 428.377C400.732 431.029 399.59 436.26 399.59 436.26C399.59 436.26 399.59 427.951 403.828 423.121C408.072 418.284 414.942 414.436 426.29 418.514C437.641 422.589 439.194 441.327 433.024 443.501Z" fill="#0B0755"/>
<path fill-rule="evenodd" clip-rule="evenodd" d="M431.434 442.458C431.729 441.817 432.261 441.317 432.906 441.033C434.232 440.448 436.587 439.778 438.271 441.356C440.743 443.671 436.133 450.172 431.275 447.171C431.275 447.171 429.87 445.856 431.434 442.458Z" fill="#FB9391"/>
<path fill-rule="evenodd" clip-rule="evenodd" d="M295.359 271.091C295.359 271.091 293.799 270.274 292.99 270.637C292.182 270.998 291.873 272.09 291.873 272.09C291.873 272.09 291.214 271.149 290.185 271.29C289.153 271.431 286.391 272.66 286.391 272.66C286.391 272.66 289.724 276.628 292.678 275.395C295.632 274.161 295.338 271.246 295.338 271.246L295.359 271.091Z" fill="#DD4E4E"/>
<path fill-rule="evenodd" clip-rule="evenodd" d="M292.751 273.317C289.34 274.602 285.524 272.525 285.471 272.498C285.357 272.435 285.318 272.291 285.382 272.178C285.442 272.064 285.588 272.023 285.701 272.086C285.953 272.226 291.911 275.456 295.276 270.746C295.354 270.64 295.5 270.615 295.606 270.692C295.712 270.767 295.737 270.914 295.659 271.02C294.812 272.209 293.801 272.922 292.751 273.317Z" fill="#050521"/>
<defs>
<linearGradient id="paint0_linear" x1="24" y1="-9.24268" x2="24" y2="619" gradientUnits="userSpaceOnUse">
<stop stop-color="#D9E8FF"/>
<stop offset="1" stop-color="#DBE9FF"/>
</linearGradient>
</defs>
</svg>
