<svg width="110" height="163" viewBox="0 0 110 163" fill="none" xmlns="http://www.w3.org/2000/svg">
<path fill-rule="evenodd" clip-rule="evenodd" d="M56.5479 146.999C56.5794 146.998 56.6109 146.993 56.6424 146.985C56.8997 146.919 57.052 146.658 56.9837 146.402C39.7728 79.5967 23.6015 32.2765 11.4415 13.1579C11.1737 12.7333 10.9794 12.4269 10.9059 12.2727C10.7904 12.0335 10.5069 11.9337 10.2706 12.0462C10.0343 12.1597 9.93459 12.4454 10.0448 12.6836C10.1446 12.8917 10.3336 13.1859 10.6434 13.6734C22.7456 32.7091 38.8802 79.9321 56.0649 146.642C56.1226 146.866 56.3274 147.011 56.5479 146.999Z" fill="#0B0755"/>
<path fill-rule="evenodd" clip-rule="evenodd" d="M18.3587 15.1106C17.2034 17.5574 17.5992 26.5314 18.3143 26.8579C19.0293 27.1843 26.2515 21.697 27.4069 19.2502C28.5622 16.8033 27.474 13.8927 24.9767 12.75C22.4741 11.6062 19.5141 12.6638 18.3587 15.1106Z" fill="#0B0755"/>
<path fill-rule="evenodd" clip-rule="evenodd" d="M7.24083 30.9829C9.83951 31.2678 17.9266 27.9156 17.9994 27.1307C18.0773 26.3457 10.8114 21.3114 8.21274 21.0271C5.61405 20.7421 3.29083 22.7405 3.02577 25.4898C2.7555 28.2391 4.64215 30.6985 7.24083 30.9829Z" fill="#0B0755"/>
<path fill-rule="evenodd" clip-rule="evenodd" d="M38.2623 60.6361C36.326 64.6629 36.9047 79.4381 38.0838 79.9769C39.2629 80.5157 51.2809 71.4964 53.2172 67.4697C55.1535 63.4435 53.3741 58.6496 49.2418 56.7628C45.115 54.876 40.1932 56.6099 38.2623 60.6361Z" fill="#0B0755"/>
<path fill-rule="evenodd" clip-rule="evenodd" d="M18.5531 83.8575C23.031 84.7856 37.7186 80.9245 37.9954 79.6888C38.2668 78.4531 26.5048 69.1079 22.0269 68.1798C17.5489 67.2516 13.147 70.0092 12.1863 74.3385C11.2256 78.6678 14.0752 82.9293 18.5531 83.8575Z" fill="#0B0755"/>
<path fill-rule="evenodd" clip-rule="evenodd" d="M48.6006 76.8205C45.308 81.129 42.0466 98.9631 43.2586 99.9181C44.4706 100.873 60.663 93.2435 63.9556 88.9351C67.2482 84.6261 66.4836 78.4214 62.2391 75.0759C57.9998 71.7304 51.8932 72.5116 48.6006 76.8205Z" fill="#0B0755"/>
<path fill-rule="evenodd" clip-rule="evenodd" d="M22.0052 106.962C27.5443 107.558 44.8312 100.938 44.9986 99.3688C45.1713 97.8 29.72 87.6555 24.1809 87.0593C18.6418 86.4626 13.6641 90.4348 13.0594 95.9307C12.4602 101.427 16.4607 106.365 22.0052 106.962Z" fill="#0B0755"/>
<path fill-rule="evenodd" clip-rule="evenodd" d="M55.6006 98.8203C52.308 103.129 49.0466 120.964 50.2586 121.918C51.4706 122.873 67.663 115.243 70.9556 110.935C74.2482 106.626 73.4836 100.421 69.2391 97.0757C64.9998 93.7307 58.8932 94.5113 55.6006 98.8203Z" fill="#0B0755"/>
<path fill-rule="evenodd" clip-rule="evenodd" d="M29.0052 128.962C34.5443 129.559 51.8312 122.938 51.9986 121.369C52.1713 119.8 36.72 109.655 31.1809 109.059C25.6418 108.463 20.6641 112.435 20.0594 117.931C19.4602 123.427 23.4607 128.366 29.0052 128.962Z" fill="#0B0755"/>
<path fill-rule="evenodd" clip-rule="evenodd" d="M71.034 127.292C66.2403 129.97 56.2622 145.024 57.0433 146.36C57.8298 147.696 76.1756 146.919 80.964 144.24C85.7577 141.561 87.4216 135.596 84.677 130.916C81.9324 126.235 75.8278 124.613 71.034 127.292Z" fill="#91B5F8"/>
<path fill-rule="evenodd" clip-rule="evenodd" d="M34.6269 150.771C39.955 152.051 57.6322 147.622 57.9931 146.085C58.3539 144.548 44.5401 132.554 39.212 131.274C33.8839 129.994 28.5399 133.321 27.2716 138.705C26.0032 144.088 29.2988 149.491 34.6269 150.771Z" fill="#91B5F8"/>
<path fill-rule="evenodd" clip-rule="evenodd" d="M25.7194 30.5353C24.3127 32.8474 23.774 41.815 24.4501 42.2139C25.1208 42.6122 32.8799 37.9106 34.2866 35.5985C35.6881 33.2847 34.9105 30.2768 32.5446 28.8784C30.1788 27.4801 27.121 28.2215 25.7194 30.5353Z" fill="#0B0755"/>
<path fill-rule="evenodd" clip-rule="evenodd" d="M13.5224 45.9829C16.2935 46.2672 24.9175 42.915 24.9994 42.1305C25.0812 41.3455 17.3299 36.3113 14.5588 36.027C11.7932 35.7423 9.31128 37.7399 9.02763 40.4896C8.73852 43.2387 10.7514 45.6982 13.5224 45.9829Z" fill="#0B0755"/>
<path fill-rule="evenodd" clip-rule="evenodd" d="M32.7737 42.1327C30.78 45.4251 29.7941 58.2248 30.7162 58.8006C31.6332 59.3751 42.4556 52.7248 44.4544 49.4336C46.448 46.1418 45.4531 41.8392 42.231 39.8237C39.0038 37.8074 34.7724 38.8415 32.7737 42.1327Z" fill="#0B0755"/>
<path fill-rule="evenodd" clip-rule="evenodd" d="M15.219 63.9761C19.0307 64.3746 30.8883 59.6814 30.9991 58.5829C31.11 57.4839 20.4562 50.4363 16.6497 50.0378C12.838 49.6393 9.43273 52.4364 9.03678 56.2851C8.6461 60.1343 11.4125 63.5775 15.219 63.9761Z" fill="#0B0755"/>
<path fill-rule="evenodd" clip-rule="evenodd" d="M48.4914 131.845C54.2374 134.214 67.6446 150.073 66.9759 151.731C66.3018 153.388 45.7415 155.244 39.9955 152.874C34.2495 150.505 31.4889 143.876 33.8376 138.069C36.1809 132.262 42.7401 129.475 48.4914 131.845Z" fill="#0B0755"/>
<path fill-rule="evenodd" clip-rule="evenodd" d="M92.8199 154.064C87.0525 156.318 66.6541 154.005 66.0209 152.325C65.3931 150.646 79.0559 135.012 84.8233 132.758C90.5853 130.504 97.0496 133.446 99.2576 139.33C101.466 145.214 98.5819 151.81 92.8199 154.064Z" fill="#0B0755"/>
<path fill-rule="evenodd" clip-rule="evenodd" d="M72.5578 145.359C72.5363 145.359 72.5143 145.358 72.4917 145.353C72.3168 145.317 72.2018 145.146 72.2417 144.969C81.3998 99.0171 90.5901 66.3251 98.1148 52.9154C98.2828 52.6175 98.4052 52.4022 98.4504 52.2948C98.5144 52.1293 98.706 52.0504 98.8672 52.1194C99.0335 52.1872 99.115 52.3771 99.0457 52.5432C98.9877 52.6878 98.8688 52.8952 98.6785 53.2362C91.1835 66.5882 82.0206 99.2126 72.8742 145.099C72.84 145.254 72.7084 145.359 72.5578 145.359Z" fill="#5D8DD8"/>
<path fill-rule="evenodd" clip-rule="evenodd" d="M82.189 86.734C83.6199 89.3945 83.7664 99.4382 83.0005 99.8469C82.2346 100.256 73.9116 94.5792 72.4756 91.9199C71.0447 89.2593 72.0591 85.9418 74.7393 84.5101C77.4196 83.0783 80.7581 84.0735 82.189 86.734Z" fill="#5D8DD8"/>
<path fill-rule="evenodd" clip-rule="evenodd" d="M95.7845 101.004C92.9428 101.779 83.3197 99.6007 83.0948 98.7636C82.8697 97.9259 90.0687 91.1597 92.9154 90.3834C95.7622 89.6071 98.7112 91.3554 99.5044 94.2877C100.298 97.2206 98.6313 100.227 95.7845 101.004Z" fill="#5D8DD8"/>
<path fill-rule="evenodd" clip-rule="evenodd" d="M75.2712 98.1744C77.69 101.03 80.6335 113.199 79.8451 113.897C79.0569 114.595 67.6925 109.89 65.2737 107.034C62.8498 104.179 63.1236 99.8819 65.8847 97.4355C68.6457 94.9885 72.8473 95.3197 75.2712 98.1744Z" fill="#5D8DD8"/>
<path fill-rule="evenodd" clip-rule="evenodd" d="M94.6137 117.682C91.0118 118.256 79.3908 114.138 79.2088 113.049C79.0269 111.961 88.6985 104.447 92.3055 103.871C95.9076 103.297 99.3416 105.923 99.9818 109.737C100.622 113.55 98.2157 117.107 94.6137 117.682Z" fill="#5D8DD8"/>
<path fill-rule="evenodd" clip-rule="evenodd" d="M71.5994 113.39C74.0181 116.246 76.9615 128.414 76.1733 129.113C75.3849 129.811 64.0205 125.105 61.6018 122.25C59.1778 119.395 59.4517 115.097 62.2128 112.651C64.9738 110.205 69.1754 110.535 71.5994 113.39Z" fill="#5D8DD8"/>
<path fill-rule="evenodd" clip-rule="evenodd" d="M90.9418 132.898C87.3398 133.472 75.7188 129.353 75.5369 128.265C75.3549 127.176 85.0267 119.662 88.6336 119.087C92.2356 118.512 95.6696 121.139 96.3098 124.952C96.945 128.766 94.5437 132.323 90.9418 132.898Z" fill="#5D8DD8"/>
<path fill-rule="evenodd" clip-rule="evenodd" d="M62.9725 131.798C66.3015 133.575 73.6557 144.077 73.1907 145.06C72.7258 146.043 60.4076 146.043 57.0785 144.266C53.7545 142.487 52.3724 138.256 53.9991 134.813C55.6257 131.371 59.6435 130.021 62.9725 131.798Z" fill="#5D8DD8"/>
<path fill-rule="evenodd" clip-rule="evenodd" d="M88.0746 147.935C84.5822 148.981 72.6059 146.413 72.2973 145.353C71.9887 144.294 80.6577 135.541 84.1551 134.493C87.6476 133.447 91.3576 135.607 92.4438 139.319C93.5249 143.031 91.5721 146.888 88.0746 147.935Z" fill="#5D8DD8"/>
<path fill-rule="evenodd" clip-rule="evenodd" d="M86.5036 74.0688C87.7229 76.4321 87.5471 85.2725 86.8387 85.6205C86.1302 85.9684 78.7514 80.8418 77.532 78.4779C76.3128 76.1151 77.3351 73.211 79.812 71.9937C82.2888 70.7759 85.2842 71.7049 86.5036 74.0688Z" fill="#5D8DD8"/>
<path fill-rule="evenodd" clip-rule="evenodd" d="M82.6826 188.188L62.2542 192.904C50.135 195.702 38.053 188.175 35.2636 176.093L30.1914 154.123L94.4998 139.276L99.572 161.246C102.361 173.328 94.7967 185.391 82.6826 188.188Z" fill="white"/>
<path fill-rule="evenodd" clip-rule="evenodd" d="M103.805 50.1414C102.899 51.6123 97.9511 54.627 97.5285 54.3768C97.1009 54.1283 97.501 48.4477 98.4011 46.978C99.3061 45.5067 101.249 45.0224 102.739 45.8963C104.228 46.7707 104.704 48.6712 103.805 50.1414Z" fill="#5D8DD8"/>
<path fill-rule="evenodd" clip-rule="evenodd" d="M94.5213 55.05C95.2471 56.8328 94.641 63.2069 94.1299 63.4133C93.6188 63.6197 88.7405 59.4552 88.0202 57.6712C87.2945 55.889 88.1638 53.8565 89.9637 53.1317C91.7578 52.4077 93.8009 53.266 94.5213 55.05Z" fill="#5D8DD8"/>
<path fill-rule="evenodd" clip-rule="evenodd" d="M101.451 65.8205C99.5666 66.1167 93.5205 64.0844 93.4346 63.5383C93.349 62.9933 98.464 59.2012 100.354 58.9038C102.238 58.6071 104.016 59.9136 104.319 61.8238C104.627 63.7322 103.341 65.5219 101.451 65.8205Z" fill="#5D8DD8"/>
<path fill-rule="evenodd" clip-rule="evenodd" d="M90.7007 65.1689C91.4272 66.9515 90.8254 73.3246 90.312 73.5319C89.7985 73.7386 84.9199 69.5746 84.1988 67.7908C83.4777 66.007 84.3432 63.9759 86.1403 63.2515C87.9374 62.5271 89.9796 63.3852 90.7007 65.1689Z" fill="#5D8DD8"/>
<path fill-rule="evenodd" clip-rule="evenodd" d="M97.4083 74.9645C95.516 75.2624 89.4742 73.229 89.3879 72.6839C89.3015 72.1383 94.4168 68.3468 96.3036 68.0496C98.1904 67.7524 99.9672 69.0594 100.272 70.9682C100.578 72.8781 99.2952 74.6672 97.4083 74.9645Z" fill="#5D8DD8"/>
<path fill-rule="evenodd" clip-rule="evenodd" d="M97.2932 89.3552C94.7164 89.7528 86.4282 86.7681 86.3029 85.9902C86.1773 85.2113 93.115 79.8798 95.6918 79.4822C98.2636 79.0862 100.712 80.9742 101.157 83.7001C101.602 86.426 99.8703 88.9586 97.2932 89.3552Z" fill="#5D8DD8"/>
<path fill-rule="evenodd" clip-rule="evenodd" d="M1.86356 8.92081C3.44557 11.1413 11.4338 15.2405 12.0524 14.7798C12.6709 14.319 11.3053 5.29323 9.72327 3.07214C8.14124 0.851042 5.09873 0.359813 2.92853 1.97516C0.758311 3.58995 0.282625 6.69967 1.86356 8.92081Z" fill="#0B0755"/>
</svg>
