<svg width="83" height="210" viewBox="0 0 83 210" fill="none" xmlns="http://www.w3.org/2000/svg">
<path fill-rule="evenodd" clip-rule="evenodd" d="M-2.51765 158.997C-2.553 158.994 -2.58817 158.987 -2.62353 158.976C-2.90561 158.888 -3.06348 158.589 -2.97576 158.308C19.9381 84.7727 40.6484 32.8981 55.3406 12.2395C55.6667 11.7806 55.9023 11.4497 55.9927 11.2816C56.1324 11.0215 56.4576 10.9246 56.7172 11.0631C56.9781 11.2024 57.076 11.5258 56.9365 11.7857C56.8145 12.0123 56.5884 12.3304 56.2139 12.8566C41.5856 33.4259 20.9279 85.1939 -1.95329 158.624C-2.03005 158.871 -2.26959 159.022 -2.51765 158.997Z" fill="#BDD1F9"/>
<mask id="mask0" mask-type="alpha" maskUnits="userSpaceOnUse" x="53" y="0" width="13" height="15">
<path fill-rule="evenodd" clip-rule="evenodd" d="M53.0508 0.185547H65.7839V14.9593H53.0508V0.185547Z" fill="white"/>
</mask>
<g mask="url(#mask0)">
<path fill-rule="evenodd" clip-rule="evenodd" d="M64.6985 8.75486C62.8964 11.1249 53.8978 15.4243 53.2102 14.9184C52.5228 14.4123 54.1728 4.70502 55.9747 2.33502C57.7767 -0.0349872 61.1902 -0.519318 63.5993 1.25361C66.0082 3.02634 66.5005 6.38466 64.6985 8.75486Z" fill="#BDD1F9"/>
</g>
<path fill-rule="evenodd" clip-rule="evenodd" d="M47.7908 15.9572C48.6384 18.8666 46.6914 28.7529 45.8585 28.9942C45.0252 29.2352 38.0677 21.9269 37.2199 19.0174C36.3719 16.108 38.0511 13.0644 40.97 12.2191C43.8892 11.3741 46.9428 13.0476 47.7908 15.9572Z" fill="#BDD1F9"/>
<path fill-rule="evenodd" clip-rule="evenodd" d="M57.9525 32.995C55.0051 33.1638 46.047 29.0348 46.0002 28.1691C45.9536 27.3031 54.4118 22.1773 57.3588 22.0086C60.306 21.84 62.828 24.1627 62.9916 27.1965C63.1556 30.2302 60.8994 32.8263 57.9525 32.995Z" fill="#BDD1F9"/>
<path fill-rule="evenodd" clip-rule="evenodd" d="M22.0945 63.7394C23.9624 68.4709 22.5642 85.4236 21.2697 85.9797C19.9752 86.5358 7.5391 75.5272 5.67143 70.7957C3.80375 66.0641 5.96603 60.649 10.5013 58.7005C15.0364 56.752 20.2269 59.0078 22.0945 63.7394Z" fill="#BDD1F9"/>
<path fill-rule="evenodd" clip-rule="evenodd" d="M41.5701 90.9132C36.7348 91.7236 21.2304 86.6259 21.0029 85.2235C20.7751 83.8212 33.8458 73.9323 38.6807 73.1217C43.5159 72.3109 48.0825 75.6366 48.8803 80.5495C49.678 85.4624 46.4054 90.1023 41.5701 90.9132Z" fill="#BDD1F9"/>
<path fill-rule="evenodd" clip-rule="evenodd" d="M8.84366 81.7167C12.3094 86.7304 15.0287 106.92 13.6211 107.926C12.2136 108.931 -5.5489 99.4906 -9.01448 94.4767C-12.4802 89.463 -11.2922 82.5421 -6.36062 79.0185C-1.42924 75.495 5.3779 76.7031 8.84366 81.7167Z" fill="#BDD1F9"/>
<path fill-rule="evenodd" clip-rule="evenodd" d="M37.6595 116.988C31.5925 117.355 13.1052 109.188 13.0005 107.457C12.8956 105.725 30.2624 95.3877 36.3294 95.0205C42.3962 94.6531 47.6121 99.2733 47.9796 105.339C48.3466 111.405 43.7263 116.621 37.6595 116.988Z" fill="#BDD1F9"/>
<path fill-rule="evenodd" clip-rule="evenodd" d="M0.843721 105.717C4.30951 110.731 7.02877 130.92 5.62105 131.926C4.2137 132.931 -13.549 123.49 -17.0144 118.477C-20.4804 113.463 -19.2921 106.542 -14.3607 103.019C-9.42926 99.4949 -2.62207 100.703 0.843721 105.717Z" fill="#BDD1F9"/>
<path fill-rule="evenodd" clip-rule="evenodd" d="M29.6594 140.988C23.5925 141.355 5.10557 133.188 5.00047 131.457C4.89575 129.725 22.2626 119.388 28.3294 119.02C34.3964 118.653 39.6121 123.273 39.9795 129.339C40.3468 135.405 35.7264 140.621 29.6594 140.988Z" fill="#BDD1F9"/>
<path fill-rule="evenodd" clip-rule="evenodd" d="M21.9317 164.856C15.8956 165.981 -3.67126 160.179 -3.99518 158.472C-4.31911 156.764 11.7865 144.316 17.8227 143.192C23.8587 142.067 29.6721 146.005 30.8066 151.988C31.9413 157.971 27.9678 163.732 21.9317 164.856Z" fill="#BDD1F9"/>
<path fill-rule="evenodd" clip-rule="evenodd" d="M39.7906 29.957C40.6386 32.8666 38.6917 42.7529 37.8586 42.9942C37.0253 43.2354 30.0677 35.927 29.2199 33.0174C28.372 30.1079 30.0509 27.0642 32.9702 26.2192C35.8892 25.374 38.9428 27.0475 39.7906 29.957Z" fill="#BDD1F9"/>
<path fill-rule="evenodd" clip-rule="evenodd" d="M49.9524 47.995C47.0053 48.1638 38.0472 44.0349 38.0002 43.169C37.9534 42.3031 46.4118 37.1775 49.3586 37.0087C52.3058 36.8398 54.8278 39.1627 54.9916 42.1963C55.1554 45.2303 52.8994 47.8263 49.9524 47.995Z" fill="#BDD1F9"/>
<path fill-rule="evenodd" clip-rule="evenodd" d="M30.3549 44.8644C31.9187 48.7647 30.294 62.5608 29.1251 62.9858C27.9562 63.4109 17.0885 54.1581 15.5245 50.2581C13.9605 46.3579 16.0126 41.9889 20.1078 40.4994C24.2033 39.0101 28.7911 40.9644 30.3549 44.8644Z" fill="#BDD1F9"/>
<path fill-rule="evenodd" clip-rule="evenodd" d="M45.8736 69.9927C41.7131 70.2381 29.0664 64.2324 29.0003 62.9729C28.9343 61.7135 40.8754 54.2579 45.0359 54.0126C49.1964 53.767 52.7568 57.1454 52.9882 61.5582C53.2195 65.971 50.0343 69.7471 45.8736 69.9927Z" fill="#BDD1F9"/>
<mask id="mask1" mask-type="alpha" maskUnits="userSpaceOnUse" x="-35" y="80" width="116" height="129">
<path fill-rule="evenodd" clip-rule="evenodd" d="M3.55078 80.5664L80.9043 110.26L43.0399 208.9L-34.3136 179.207L3.55078 80.5664Z" fill="white"/>
</mask>
<g mask="url(#mask1)">
<path fill-rule="evenodd" clip-rule="evenodd" d="M-28.54 178.868C-28.54 178.868 -40.0057 109.797 80.9043 110.26C80.9043 110.26 34.3301 225.466 -28.54 178.868Z" fill="#BDD1F9"/>
</g>
<path fill-rule="evenodd" clip-rule="evenodd" d="M81.0887 110.18L-28.5352 169.858C-27.004 151.347 -13.1034 109.7 81.0887 110.18Z" fill="#91B5F8"/>
<mask id="mask2" mask-type="alpha" maskUnits="userSpaceOnUse" x="-24" y="81" width="107" height="115">
<path fill-rule="evenodd" clip-rule="evenodd" d="M9.59766 81.7812L82.1122 109.617L49.2178 195.31L-23.2967 167.474L9.59766 81.7812Z" fill="white"/>
</mask>
<g mask="url(#mask2)">
<path fill-rule="evenodd" clip-rule="evenodd" d="M-23.2123 167.455C-23.2662 167.356 -23.23 167.232 -23.1318 167.178L81.7514 109.555C81.8508 109.502 81.9744 109.538 82.0276 109.636C82.082 109.735 82.0456 109.858 81.9471 109.913L-22.936 167.535C-22.9907 167.565 -23.0531 167.568 -23.1069 167.547C-23.1503 167.53 -23.1884 167.499 -23.2123 167.455Z" fill="#060633"/>
</g>
<path fill-rule="evenodd" clip-rule="evenodd" d="M28.0189 140.152C27.9292 140.117 27.8785 140.015 27.9044 139.912C27.9321 139.799 28.0404 139.726 28.1456 139.75L59.2964 146.804C59.4004 146.828 59.4645 146.939 59.4362 147.052C59.4083 147.165 59.2999 147.238 59.195 147.213L28.0442 140.159C28.0357 140.158 28.0271 140.155 28.0189 140.152Z" fill="#060633"/>
<path fill-rule="evenodd" clip-rule="evenodd" d="M4.05699 152.377C4.04437 152.372 4.03175 152.366 4.01969 152.359C3.92374 152.298 3.89435 152.173 3.95463 152.08L21.4283 124.942C21.4889 124.848 21.6184 124.822 21.7115 124.882C21.8076 124.943 21.8368 125.067 21.7768 125.161L4.30304 152.299C4.24991 152.381 4.14656 152.412 4.05699 152.377Z" fill="#060633"/>
</svg>
