<svg width="38" height="49" viewBox="0 0 38 49" fill="none" xmlns="http://www.w3.org/2000/svg">
<g clip-path="url(#clip0)">
<g filter="url(#filter0_d)">
<circle cx="19" cy="19" r="19" fill="white"/>
</g>
<path d="M15.5857 24.95C15.0023 24.95 14.4423 24.6817 13.9057 24.145C13.369 23.6083 12.9373 22.8967 12.6107 22.01C12.3073 21.1 12.1557 20.155 12.1557 19.175C12.1557 17.7517 12.4007 16.4333 12.8907 15.22C13.3807 13.9833 13.9757 12.945 14.6757 12.105C15.3757 11.265 16.0173 10.6817 16.6007 10.355H16.6357L17.5807 11.3V11.685C17.0207 12.1283 16.4723 12.8517 15.9357 13.855C15.4223 14.8583 15.1657 16.0833 15.1657 17.53C15.1657 18.3233 15.2823 18.965 15.5157 19.455C15.749 19.9217 16.0873 20.4467 16.5307 21.03C16.8573 21.4267 17.0907 21.765 17.2307 22.045C17.394 22.3017 17.4757 22.6283 17.4757 23.025C17.4757 23.6317 17.3007 24.11 16.9507 24.46C16.6007 24.7867 16.1457 24.95 15.5857 24.95ZM24.7907 24.95C24.184 24.95 23.6123 24.6817 23.0757 24.145C22.539 23.6083 22.1073 22.8967 21.7807 22.01C21.4773 21.1 21.3257 20.155 21.3257 19.175C21.3257 17.7517 21.5707 16.4333 22.0607 15.22C22.5507 13.9833 23.1457 12.945 23.8457 12.105C24.5457 11.265 25.1873 10.6817 25.7707 10.355H25.8057L26.7857 11.3V11.685C26.2257 12.1283 25.6773 12.8517 25.1407 13.855C24.604 14.8583 24.3357 16.0833 24.3357 17.53C24.3357 18.3233 24.4523 18.965 24.6857 19.455C24.919 19.945 25.269 20.47 25.7357 21.03C26.0623 21.4267 26.2957 21.765 26.4357 22.045C26.599 22.3017 26.6807 22.6283 26.6807 23.025C26.6807 23.6317 26.5057 24.11 26.1557 24.46C25.8057 24.7867 25.3507 24.95 24.7907 24.95Z" fill="#01A1FA"/>
</g>
<defs>
<filter id="filter0_d" x="-5" y="-2" width="48" height="48" filterUnits="userSpaceOnUse" color-interpolation-filters="sRGB">
<feFlood flood-opacity="0" result="BackgroundImageFix"/>
<feColorMatrix in="SourceAlpha" type="matrix" values="0 0 0 0 0 0 0 0 0 0 0 0 0 0 0 0 0 0 127 0"/>
<feOffset dy="3"/>
<feGaussianBlur stdDeviation="2.5"/>
<feColorMatrix type="matrix" values="0 0 0 0 0 0 0 0 0 0 0 0 0 0 0 0 0 0 0.0405376 0"/>
<feBlend mode="normal" in2="BackgroundImageFix" result="effect1_dropShadow"/>
<feBlend mode="normal" in="SourceGraphic" in2="effect1_dropShadow" result="shape"/>
</filter>
<clipPath id="clip0">
<rect width="38" height="49" fill="white"/>
</clipPath>
</defs>
</svg>
