<svg width="50" height="55" viewBox="0 0 50 55" fill="none" xmlns="http://www.w3.org/2000/svg">
<path fill-rule="evenodd" clip-rule="evenodd" d="M23.5118 53.2589C14.2282 50.5485 1.88672 45.0825 1.88672 28.9807V8.16179L24.9785 1.91797L48.0682 8.16288V28.9807C48.0682 45.0825 35.7267 50.5485 26.4431 53.2589L24.978 53.6871L23.5118 53.2589Z" fill="white"/>
<path fill-rule="evenodd" clip-rule="evenodd" d="M2.70472 8.78844V28.9812C2.70472 44.5348 14.7107 49.8377 23.7413 52.4733L24.9778 52.835L26.2144 52.4733C45.0691 46.9692 47.2498 36.4299 47.2498 28.9812V8.78898L24.9789 2.76553L2.70472 8.78844ZM23.2825 54.0443C13.7464 51.2608 1.06836 45.6339 1.06836 28.9812V7.53553L24.9789 1.0708L48.8862 7.53662V28.9812C48.8862 45.6339 36.2087 51.2608 26.6725 54.0443L24.9778 54.5395L23.2825 54.0443Z" fill="#282D33"/>
<path d="M2.70472 8.78844L2.67209 8.66777L2.57972 8.69275V8.78844H2.70472ZM23.7413 52.4733L23.7764 52.3534L23.7763 52.3534L23.7413 52.4733ZM24.9778 52.835L24.9427 52.955L24.9778 52.9652L25.0129 52.955L24.9778 52.835ZM26.2144 52.4733L26.1793 52.3534L26.1793 52.3534L26.2144 52.4733ZM47.2498 8.78898H47.3748V8.6933L47.2824 8.66832L47.2498 8.78898ZM24.9789 2.76553L25.0115 2.64486L24.9789 2.63604L24.9463 2.64486L24.9789 2.76553ZM23.2825 54.0443L23.3176 53.9243L23.3176 53.9243L23.2825 54.0443ZM1.06836 7.53553L1.03573 7.41486L0.943359 7.43984V7.53553H1.06836ZM24.9789 1.0708L25.0115 0.950136L24.9789 0.941311L24.9463 0.950133L24.9789 1.0708ZM48.8862 7.53662H49.0112V7.44094L48.9188 7.41595L48.8862 7.53662ZM26.6725 54.0443L26.6375 53.9243L26.6375 53.9243L26.6725 54.0443ZM24.9778 54.5395L24.9428 54.6595L24.9778 54.6698L25.0129 54.6595L24.9778 54.5395ZM2.57972 8.78844V28.9812H2.82972V8.78844H2.57972ZM2.57972 28.9812C2.57972 36.7956 5.59798 42.0436 9.75442 45.6657C13.9056 49.2833 19.1861 51.2741 23.7062 52.5933L23.7763 52.3534C19.2659 51.037 14.0281 49.0585 9.91866 45.4773C5.81447 41.9006 2.82972 36.7204 2.82972 28.9812H2.57972ZM23.7062 52.5933L24.9427 52.955L25.0129 52.715L23.7764 52.3534L23.7062 52.5933ZM25.0129 52.955L26.2494 52.5933L26.1793 52.3534L24.9427 52.715L25.0129 52.955ZM26.2494 52.5933C35.6962 49.8356 40.9832 45.8111 43.9059 41.5269C46.828 37.2435 47.3748 32.7174 47.3748 28.9812H47.1248C47.1248 32.6936 46.5812 37.1616 43.6993 41.386C40.818 45.6097 35.5873 49.6069 26.1793 52.3534L26.2494 52.5933ZM47.3748 28.9812V8.78898H47.1248V28.9812H47.3748ZM47.2824 8.66832L25.0115 2.64486L24.9463 2.88619L47.2172 8.90965L47.2824 8.66832ZM24.9463 2.64486L2.67209 8.66777L2.73735 8.9091L25.0115 2.88619L24.9463 2.64486ZM23.3176 53.9243C18.5545 52.534 13.0225 50.4376 8.68194 46.6198C4.3466 42.8066 1.19336 37.2705 1.19336 28.9812H0.943359C0.943359 37.3445 4.12912 42.9483 8.51683 46.8075C12.8993 50.6623 18.4744 52.771 23.2475 54.1642L23.3176 53.9243ZM1.19336 28.9812V7.53553H0.943359V28.9812H1.19336ZM1.10098 7.6562L25.0115 1.19147L24.9463 0.950133L1.03573 7.41486L1.10098 7.6562ZM24.9463 1.19147L48.8535 7.65728L48.9188 7.41595L25.0115 0.950136L24.9463 1.19147ZM48.7612 7.53662V28.9812H49.0112V7.53662H48.7612ZM48.7612 28.9812C48.7612 37.2705 45.6081 42.8066 41.2729 46.6198C36.9325 50.4376 31.4006 52.534 26.6375 53.9243L26.7076 54.1642C31.4807 52.771 37.0556 50.6623 41.438 46.8075C45.8256 42.9483 49.0112 37.3445 49.0112 28.9812H48.7612ZM26.6375 53.9243L24.9427 54.4195L25.0129 54.6595L26.7076 54.1642L26.6375 53.9243ZM25.0129 54.4195L23.3176 53.9243L23.2475 54.1642L24.9428 54.6595L25.0129 54.4195Z" fill="black"/>
<path fill-rule="evenodd" clip-rule="evenodd" d="M24.4305 50.1177C7.3507 45.1311 5.16016 36.2026 5.16016 28.9808V10.6671L24.9798 5.30859L44.7962 10.6677V28.9808C44.7962 42.729 34.4985 47.4984 25.5269 50.1171L24.9787 50.278L24.4305 50.1177Z" fill="#C3E2F6"/>
<path fill-rule="evenodd" clip-rule="evenodd" d="M34.9343 29.6892L35.681 28.9414C38.4028 26.2228 38.4028 21.809 35.681 19.0888L35.5801 18.9863C32.8588 16.265 28.4466 16.265 25.727 18.9863L24.9781 19.7352L24.2308 18.9863C21.509 16.265 17.0985 16.265 14.3766 18.9863L14.2741 19.0888C11.5545 21.809 11.5545 26.2228 14.2741 28.9414L15.0219 29.6892L24.9781 39.647L34.9343 29.6892Z" fill="white"/>
<path fill-rule="evenodd" clip-rule="evenodd" d="M19.3019 17.7638C17.6601 17.7638 16.1153 18.4036 14.953 19.5654L14.8521 19.6664C13.6902 20.8282 13.0504 22.3729 13.0504 24.0158C13.0504 25.6587 13.6897 27.2024 14.851 28.3631L24.9762 38.49L35.1004 28.3642C36.2628 27.2029 36.9032 25.6587 36.9032 24.0158C36.9032 22.3729 36.2628 20.8287 35.101 19.6674L34.9952 19.5611C33.8361 18.4014 32.2935 17.7638 30.6517 17.7638C29.0082 17.7638 27.4646 18.4036 26.3044 19.5649L24.9757 20.8931L23.6497 19.5644C22.4879 18.4031 20.9437 17.7638 19.3019 17.7638ZM13.6941 29.52C12.2235 28.0505 11.4141 26.0956 11.4141 24.0158C11.4141 21.936 12.2235 19.9805 13.6941 18.5105L13.7961 18.4074C15.2672 16.9374 17.2226 16.1274 19.3019 16.1274C21.3697 16.1274 23.317 16.9293 24.7848 18.3856L24.9768 18.5765L25.1688 18.3856C26.6361 16.9293 28.5833 16.1274 30.6517 16.1274C32.731 16.1274 34.6864 16.9374 36.1564 18.408L36.2622 18.5144C37.7312 19.9827 38.5395 21.936 38.5395 24.0158C38.5395 26.0956 37.729 28.0505 36.2573 29.5211L24.9762 40.8038L13.6941 29.52Z" fill="#282D33"/>
<path d="M14.953 19.5654L14.8646 19.477L14.8646 19.4771L14.953 19.5654ZM14.851 28.3631L14.9394 28.2747L14.9393 28.2747L14.851 28.3631ZM24.9762 38.49L24.8878 38.5784L24.9762 38.6668L25.0646 38.5784L24.9762 38.49ZM35.1004 28.3642L35.0121 28.2757L35.012 28.2758L35.1004 28.3642ZM35.101 19.6674L35.0124 19.7556L35.0126 19.7559L35.101 19.6674ZM34.9952 19.5611L35.0838 19.4729L35.0836 19.4727L34.9952 19.5611ZM26.3044 19.5649L26.3928 19.6533L26.3929 19.6532L26.3044 19.5649ZM24.9757 20.8931L24.8872 20.9814L24.9756 21.0699L25.0641 20.9815L24.9757 20.8931ZM23.6497 19.5644L23.7382 19.4761L23.7381 19.4759L23.6497 19.5644ZM13.6941 29.52L13.7825 29.4316L13.7824 29.4316L13.6941 29.52ZM13.6941 18.5105L13.7824 18.5989L13.7829 18.5984L13.6941 18.5105ZM13.7961 18.4074L13.7077 18.319L13.7072 18.3195L13.7961 18.4074ZM24.7848 18.3856L24.8729 18.297L24.8728 18.2969L24.7848 18.3856ZM24.9768 18.5765L24.8887 18.6652L24.9768 18.7528L25.0649 18.6652L24.9768 18.5765ZM25.1688 18.3856L25.0807 18.2969L25.0807 18.297L25.1688 18.3856ZM36.1564 18.408L36.245 18.3198L36.2448 18.3196L36.1564 18.408ZM36.2622 18.5144L36.1736 18.6025L36.1739 18.6028L36.2622 18.5144ZM36.2573 29.5211L36.169 29.4327L36.1689 29.4327L36.2573 29.5211ZM24.9762 40.8038L24.8878 40.8922L24.9762 40.9806L25.0646 40.8922L24.9762 40.8038ZM19.3019 17.6388C17.6269 17.6388 16.0504 18.2918 14.8646 19.477L15.0413 19.6539C16.1803 18.5154 17.6932 17.8888 19.3019 17.8888V17.6388ZM14.8646 19.4771L14.7637 19.578L14.9405 19.7547L15.0414 19.6538L14.8646 19.4771ZM14.7637 19.578C13.5784 20.7632 12.9254 22.3397 12.9254 24.0158H13.1754C13.1754 22.406 13.8021 20.8931 14.9405 19.7547L14.7637 19.578ZM12.9254 24.0158C12.9254 25.6918 13.5779 27.2673 14.7626 28.4515L14.9393 28.2747C13.8015 27.1374 13.1754 25.6256 13.1754 24.0158H12.9254ZM14.7626 28.4515L24.8878 38.5784L25.0646 38.4016L14.9394 28.2747L14.7626 28.4515ZM25.0646 38.5784L35.1888 28.4525L35.012 28.2758L24.8878 38.4016L25.0646 38.5784ZM35.1888 28.4526C36.3746 27.2679 37.0282 25.6919 37.0282 24.0158H36.7782C36.7782 25.6255 36.151 27.1379 35.0121 28.2757L35.1888 28.4526ZM37.0282 24.0158C37.0282 22.3397 36.3746 20.7637 35.1893 19.579L35.0126 19.7559C36.151 20.8937 36.7782 22.4061 36.7782 24.0158H37.0282ZM35.1896 19.5793L35.0838 19.4729L34.9065 19.6492L35.0124 19.7556L35.1896 19.5793ZM35.0836 19.4727C33.901 18.2895 32.3266 17.6388 30.6517 17.6388V17.8888C32.2605 17.8888 33.7712 18.5133 34.9067 19.6494L35.0836 19.4727ZM30.6517 17.6388C28.9751 17.6388 27.3996 18.2918 26.216 19.4765L26.3929 19.6532C27.5296 18.5155 29.0414 17.8888 30.6517 17.8888V17.6388ZM26.2161 19.4765L24.8873 20.8047L25.0641 20.9815L26.3928 19.6533L26.2161 19.4765ZM25.0642 20.8048L23.7382 19.4761L23.5612 19.6526L24.8872 20.9814L25.0642 20.8048ZM23.7381 19.4759C22.5528 18.2912 20.9768 17.6388 19.3019 17.6388V17.8888C20.9106 17.8888 22.423 18.5149 23.5613 19.6528L23.7381 19.4759ZM13.7824 29.4316C12.3354 27.9856 11.5391 26.0625 11.5391 24.0158H11.2891C11.2891 26.1288 12.1117 28.1155 13.6057 29.6084L13.7824 29.4316ZM11.5391 24.0158C11.5391 21.9691 12.3354 20.0455 13.7824 18.5989L13.6057 18.4221C12.1117 19.9156 11.2891 21.9029 11.2891 24.0158H11.5391ZM13.7829 18.5984L13.8849 18.4954L13.7072 18.3195L13.6052 18.4226L13.7829 18.5984ZM13.8844 18.4959C15.3321 17.0493 17.2558 16.2524 19.3019 16.2524V16.0024C17.1895 16.0024 15.2022 16.8256 13.7077 18.319L13.8844 18.4959ZM19.3019 16.2524C21.3367 16.2524 23.2524 17.0412 24.6967 18.4744L24.8728 18.2969C23.3816 16.8173 21.4027 16.0024 19.3019 16.0024V16.2524ZM24.6967 18.4743L24.8887 18.6652L25.0649 18.4879L24.8729 18.297L24.6967 18.4743ZM25.0649 18.6652L25.2569 18.4743L25.0807 18.297L24.8887 18.4879L25.0649 18.6652ZM25.2568 18.4743C26.7007 17.0412 28.6163 16.2524 30.6517 16.2524V16.0024C28.5504 16.0024 26.5714 16.8173 25.0807 18.2969L25.2568 18.4743ZM30.6517 16.2524C32.6978 16.2524 34.6215 17.0493 36.068 18.4964L36.2448 18.3196C34.7514 16.8256 32.7641 16.0024 30.6517 16.0024V16.2524ZM36.0678 18.4961L36.1736 18.6025L36.3509 18.4262L36.245 18.3198L36.0678 18.4961ZM36.1739 18.6028C37.6193 20.0476 38.4145 21.9691 38.4145 24.0158H38.6645C38.6645 21.9029 37.843 19.9178 36.3506 18.4259L36.1739 18.6028ZM38.4145 24.0158C38.4145 26.0624 37.6172 27.9855 36.169 29.4327L36.3457 29.6095C37.8408 28.1155 38.6645 26.1288 38.6645 24.0158H38.4145ZM36.1689 29.4327L24.8878 40.7154L25.0646 40.8922L36.3457 29.6095L36.1689 29.4327ZM25.0646 40.7154L13.7825 29.4316L13.6057 29.6084L24.8878 40.8922L25.0646 40.7154Z" fill="black"/>
</svg>
