<svg width="121" height="138" viewBox="0 0 121 138" fill="none" xmlns="http://www.w3.org/2000/svg">
<path fill-rule="evenodd" clip-rule="evenodd" d="M36.4745 20.7627C36.7029 20.6328 36.8386 20.5189 36.8573 20.4279C36.8844 20.2932 36.6979 20.0124 36.3561 19.6358C36.3971 19.3498 36.4575 19.017 36.5363 18.6504C37.1687 15.681 38.9368 10.4389 40.3601 8.92456C41.7577 7.43794 43.8264 6.96021 45.6538 7.51891C46.389 7.74369 47.086 8.13661 47.6837 8.69884C49.7686 10.659 49.8697 13.9379 47.909 16.0223C46.1884 17.8525 39.0636 20.5194 36.947 20.7646C36.7368 20.7892 36.5753 20.7895 36.4745 20.7627Z" fill="#99A6FF"/>
<path fill-rule="evenodd" clip-rule="evenodd" d="M38.7034 32.4743C38.9327 32.3445 39.0674 32.2303 39.0862 32.1393C39.1142 32.0049 38.9277 31.7241 38.5849 31.3472C38.6219 31.0878 38.6756 30.7902 38.7432 30.4635C39.3565 27.5136 41.1493 22.1678 42.5891 20.6357C43.9867 19.1493 46.0553 18.6717 47.8827 19.2304C48.6179 19.4552 49.3148 19.8481 49.9126 20.4105C51.9974 22.3706 52.0985 25.6495 50.1388 27.734C48.3963 29.5865 41.117 32.2967 39.1008 32.4841C38.9264 32.5002 38.792 32.4978 38.7034 32.4743Z" fill="#99A6FF"/>
<path fill-rule="evenodd" clip-rule="evenodd" d="M41.1473 45.4465C41.0873 45.4281 41.0325 45.4094 40.9848 45.3907C40.9785 45.3883 40.9722 45.3858 40.9659 45.3832C41.0732 45.3226 41.1385 45.264 41.1574 45.2087C41.1935 45.1008 41.097 44.8752 40.8966 44.5641C40.9486 44.4631 41.0087 44.3522 41.0783 44.2336C42.3864 41.9875 46.743 36.7877 48.8811 35.8186C50.0765 35.2773 51.3689 35.2271 52.5322 35.5827C53.9067 36.0029 55.0992 36.9886 55.739 38.3999C56.9201 41.0065 55.7647 44.0765 53.1583 45.2572C50.8434 46.3061 43.0891 46.0401 41.1473 45.4465Z" fill="#99A6FF"/>
<path fill-rule="evenodd" clip-rule="evenodd" d="M28.8645 46.4981C28.834 46.4888 28.8045 46.4797 28.7753 46.4698C26.0661 45.5487 24.6176 42.6056 25.5387 39.8965C26.4418 37.2393 29.2904 35.7943 31.9554 36.6091C32.008 36.6251 32.0604 36.642 32.1115 36.6595C34.2632 37.3914 38.8696 41.8666 40.542 44.0641C40.6824 44.2481 40.8007 44.4155 40.8966 44.5639C41.097 44.875 41.1935 45.1006 41.1574 45.2085C41.1385 45.2639 41.0732 45.3225 40.9659 45.3831C40.9621 45.3855 40.9574 45.3878 40.9536 45.3903C39.5484 46.1692 31.473 47.2966 28.8645 46.4981Z" fill="#99A6FF"/>
<path fill-rule="evenodd" clip-rule="evenodd" d="M103.24 72.9582C103.158 72.933 103.053 72.882 102.931 72.8084C101.217 71.7739 95.9015 66.2269 95.1483 63.8271C94.3004 61.1271 95.8021 58.2509 98.5015 57.4028C99.5268 57.0812 100.576 57.0975 101.532 57.3897C103.092 57.8669 104.4 59.0808 104.926 60.7565C105.549 62.7406 104.844 68.2725 104.119 71.1633C104.04 71.4829 103.959 71.7721 103.88 72.0181C103.413 72.2062 103.126 72.3767 103.093 72.5078C103.071 72.5968 103.142 72.7568 103.29 72.9715C103.274 72.9677 103.257 72.9635 103.24 72.9582Z" fill="#8390FF"/>
<path fill-rule="evenodd" clip-rule="evenodd" d="M94.5786 83.2349C91.8868 82.4119 86.3267 79.8223 84.9161 78.1312C83.1041 75.9582 83.396 72.7268 85.5702 70.9141C86.9499 69.7634 88.7561 69.4612 90.3547 69.95C91.2744 70.2311 92.1253 70.7737 92.7872 71.5682C94.2746 73.3514 95.915 79.8568 96.1138 82.4201C96.1236 82.5563 96.1301 82.6803 96.1329 82.7931C95.8204 82.984 95.6367 83.1427 95.6236 83.2548C95.6162 83.312 95.6491 83.3926 95.7184 83.4925C95.7123 83.4927 95.7055 83.4916 95.6985 83.4915C95.4405 83.4711 95.0546 83.3804 94.5786 83.2349Z" fill="#8390FF"/>
<path fill-rule="evenodd" clip-rule="evenodd" d="M0.684505 111.205L86.6099 137.475L120.572 26.3901L34.6465 0.120117L0.684505 111.205Z" fill="#FA7267"/>
<path fill-rule="evenodd" clip-rule="evenodd" d="M83.8451 78.1042C79.8307 91.2348 65.9319 98.6249 52.8013 94.6105C39.6716 90.5964 32.2815 76.6975 36.2959 63.5669C37.6065 59.2802 39.9699 55.6048 43.019 52.7382C46.0048 49.9305 49.647 47.8986 53.595 46.8301C57.9589 45.648 62.6967 45.6418 67.3386 47.061C71.9999 48.4861 75.9368 51.1556 78.8969 54.595C82.9019 59.2454 85.1207 65.3043 84.9257 71.5905C84.8593 73.751 84.5073 75.9382 83.8451 78.1042Z" fill="#FFA5A1"/>
<path fill-rule="evenodd" clip-rule="evenodd" d="M84.9259 71.5907C84.4692 71.6195 84.0151 71.518 83.6386 71.2516C83.0269 70.8205 82.7353 70.0786 82.3488 69.439C81.9617 68.7981 81.3221 68.1749 80.58 68.2728C79.9562 68.3534 79.4991 68.9379 79.3376 69.5452C79.1768 70.1538 79.2408 70.7957 79.2523 71.4246C79.3033 74.3392 78.111 77.256 76.0332 79.3009C74.9022 80.4137 73.5219 81.2828 72.5699 82.5523C71.4833 84.0014 71.0552 85.8405 70.1079 87.3848C68.2976 90.3335 64.488 91.8964 61.1284 91.0669C60.8364 90.9958 60.4839 87.873 62.2416 83.493C62.8795 81.9046 65.9014 79.3847 64.5004 77.4444C64.1293 76.9294 63.0366 76.7225 61.4982 75.8023C61.3752 75.7294 60.0136 72.9608 59.9386 70.6592C59.8739 68.6633 61.1369 66.8122 62.7566 65.645C63.4358 65.1557 64.2081 64.7512 65.0427 64.6806C67.267 64.4921 68.9781 66.609 71.1099 67.2709C72.2284 67.6179 73.4302 67.5505 74.5832 67.7517C75.2305 67.8649 76.0017 68.0281 76.4629 67.5588C77.1972 66.8099 76.2751 65.375 76.9174 64.5445C76.1789 64.116 75.323 63.7746 74.4837 63.9397C73.6457 64.1041 72.9054 64.9581 73.1372 65.7804C73.1908 65.9713 73.2918 66.1656 73.2349 66.355C73.1501 66.6357 72.7496 66.705 72.4996 66.5529C72.2495 66.4008 72.1191 66.1148 72.0118 65.8419C71.6998 65.0445 71.4601 64.2086 71.0083 63.4824C70.5547 62.7556 69.8315 62.132 68.9779 62.0667C68.2989 62.0145 67.6418 62.3159 66.9608 62.3528C66.2812 62.3882 65.4612 61.9589 65.5144 61.2802C65.5705 60.5721 66.44 60.3114 67.0807 60.0039C67.6632 59.722 68.1746 59.2469 68.3881 58.6344C68.6001 58.0234 68.4665 57.2759 67.9791 56.851C67.5769 56.5004 67.0185 56.41 66.527 56.2031C66.0354 55.9961 65.5482 55.5477 65.6332 55.022C65.7324 54.4138 66.5179 54.1807 67.1206 54.3075C67.7225 54.4338 68.2741 54.7809 68.8888 54.8225C69.2605 54.8473 69.6306 54.7583 70.0029 54.755C71.9516 54.7387 73.5314 57.0146 75.4284 56.5706C76.6569 56.284 77.587 54.581 78.8971 54.5952C82.9021 59.2456 85.1209 65.3045 84.9259 71.5907Z" fill="#EF5952"/>
<path fill-rule="evenodd" clip-rule="evenodd" d="M74.5779 83.6244C74.355 83.7993 74.132 83.9742 73.91 84.1495C73.7562 84.2699 73.5988 84.3953 73.5036 84.5649C73.3023 84.923 73.4681 85.4366 73.841 85.6091C74.2137 85.7826 74.7126 85.576 74.8546 85.1907C74.9435 84.9526 74.9201 84.653 75.1131 84.487C75.5145 84.1407 76.6871 84.3802 76.1425 83.6044C75.7396 83.0283 75.0169 83.2673 74.5779 83.6244Z" fill="#EF5952"/>
<path fill-rule="evenodd" clip-rule="evenodd" d="M55.3427 55.1437C55.5514 55.8631 56.1952 56.7136 55.6455 57.2183C55.1482 57.6736 54.236 57.2192 53.5875 57.4698C53.2034 57.6176 52.9702 57.9942 52.5836 58.1403C52.2548 58.2657 51.8542 58.2068 51.5432 58.3659C51.1561 58.5633 51.0328 59.0259 50.7127 59.3073C49.7458 60.1606 47.9224 58.8627 46.7802 59.5071C45.9079 59.998 46.0963 61.3185 46.809 62.0558C47.5238 62.7928 48.5597 63.159 49.4544 63.6938C50.3487 64.2295 51.1874 65.1254 51.0232 66.0748C50.855 67.0573 49.6609 67.8946 50.1244 68.8201C50.2673 69.1049 50.545 69.3118 50.764 69.5523C51.3334 70.1742 51.5086 71.063 51.2779 71.8206C51.0461 72.5789 50.4355 73.2002 49.6816 73.5447C49.2019 73.7642 48.669 73.8776 48.188 74.0947C46.8855 74.686 46.1316 75.9444 45.4678 77.1425C44.6424 78.6312 43.8311 80.1666 43.5919 81.8496C43.5122 82.4072 43.4392 83.0618 42.9177 83.329C42.3048 83.641 41.4909 83.149 41.1721 82.5422C40.8539 81.9334 40.8438 81.2404 40.6546 80.5925C40.2975 79.3717 39.3168 78.3496 38.9488 77.1316C38.0672 74.2182 40.9041 71.3927 40.2607 68.4362C40.1265 67.8192 39.8429 67.2291 39.7236 66.6096C39.4848 65.3816 39.9478 64.0848 40.9147 63.2779C41.9554 62.4078 43.5877 61.9849 43.9783 60.7204C44.4081 59.3246 42.9938 57.8502 43.1902 56.3992C43.254 55.9365 43.4801 55.5073 43.5365 55.0424C43.6002 54.5071 43.434 53.9621 43.2549 53.4393C43.1769 53.2096 43.0962 52.9752 43.0183 52.7385C46.004 49.9308 49.6463 47.8989 53.5943 46.8304C53.6331 46.9178 53.6623 47.0203 53.6811 47.1404C53.8535 48.2359 54.0388 48.6657 55.135 49.3333C56.0939 49.9184 57.0531 50.5025 58.0111 51.0874C58.5444 51.4119 59.1573 51.9279 58.954 52.4675C58.7033 53.1389 57.6399 52.9121 56.8752 52.9947C55.8248 53.1081 55.0636 54.1757 55.3427 55.1437Z" fill="#EF5952"/>
<path fill-rule="evenodd" clip-rule="evenodd" d="M61.0137 52.5995C61.0963 53.0221 61.0403 53.4593 61.0776 53.8883C61.1149 54.3172 61.2789 54.7773 61.6563 54.9846C61.9509 55.1463 62.3208 55.1176 62.6297 54.9846C62.9378 54.8514 63.1954 54.6255 63.4403 54.3954C63.9204 53.9434 64.3718 53.46 64.7884 52.9489C65.0189 52.6665 65.2483 52.3551 65.2836 51.9921C65.3155 51.67 65.1909 51.355 65.0571 51.0601C64.8716 50.6508 64.6564 50.2397 64.3122 49.9499C63.8198 49.5348 63.1385 49.4304 62.4946 49.4153C61.9638 49.4027 59.0653 49.5033 59.0562 50.2259C59.0533 50.5093 60.0397 51.0607 60.2417 51.2675C60.6074 51.6419 60.9122 52.077 61.0137 52.5995Z" fill="#EF5952"/>
<path fill-rule="evenodd" clip-rule="evenodd" d="M69.8567 38.8214C61.3053 36.207 52.2478 37.0791 44.3522 41.2772C36.4576 45.4755 30.6696 52.4967 28.0552 61.0481C25.4407 69.5995 26.313 78.657 30.5102 86.5523C34.7084 94.4479 41.7297 100.236 50.2811 102.85C58.8324 105.465 67.8909 104.593 75.7856 100.394C83.6811 96.1962 89.4692 89.175 92.0836 80.6236C94.698 72.0722 93.8257 63.0147 89.6276 55.1192C85.4303 47.224 78.4081 41.4358 69.8567 38.8214ZM50.1722 103.206C45.8024 101.87 41.8253 99.7185 38.3508 96.8103C34.9941 94.0016 32.2456 90.6093 30.1823 86.7275C28.1181 82.8453 26.8424 78.6706 26.3901 74.317C25.923 69.8105 26.3631 65.309 27.6991 60.9392C29.0351 56.5695 31.1871 52.5924 34.0946 49.1166C36.904 45.7608 40.2962 43.0125 44.1783 40.9487C48.0594 38.8846 52.235 37.609 56.5885 37.1573C61.0953 36.6893 65.5957 37.1293 69.9655 38.4653C74.3363 39.8016 78.3134 41.9534 81.7879 44.8615C85.1445 47.6705 87.893 51.063 89.9564 54.9445C92.0207 58.8263 93.2961 63.0016 93.7477 67.3544C94.2155 71.8621 93.7757 76.3626 92.4397 80.7324C91.1037 85.1022 88.9514 89.0802 86.0432 92.5547C83.2346 95.9114 79.8425 98.6591 75.9604 100.723C72.0792 102.788 67.9036 104.063 63.5502 104.515C59.0434 104.983 54.5429 104.543 50.1722 103.206Z" fill="#FFA5A1"/>
<path fill-rule="evenodd" clip-rule="evenodd" d="M54.3557 112.616L41.4438 108.669C41.0277 108.541 40.7931 108.101 40.9203 107.685C41.0474 107.269 41.488 107.036 41.9041 107.163L54.816 111.111C55.2321 111.238 55.4667 111.678 55.3395 112.094C55.2124 112.51 54.7718 112.743 54.3557 112.616Z" fill="#FFA5A1"/>
<path fill-rule="evenodd" clip-rule="evenodd" d="M62.4592 119.02L31.1438 109.446C30.7286 109.319 30.4942 108.878 30.6211 108.463C30.7483 108.047 31.1892 107.812 31.6043 107.939L62.9197 117.513C63.3349 117.64 63.5693 118.081 63.4421 118.497C63.3152 118.912 62.8743 119.147 62.4592 119.02Z" fill="#FFA5A1"/>
<path fill-rule="evenodd" clip-rule="evenodd" d="M85.6068 35.0718C84.549 35.6897 83.2786 35.7718 81.7954 35.3184C80.3122 34.8649 79.305 34.0864 78.7736 32.9827C78.2422 31.879 78.2228 30.5215 78.7154 28.9104C79.2079 27.2992 79.9825 26.1905 81.0391 25.5844C82.0956 24.9782 83.3677 24.9026 84.8553 25.3574C86.3429 25.8122 87.3497 26.5882 87.8759 27.6854C88.402 28.7827 88.4194 30.1347 87.9282 31.7415C87.4383 33.3438 86.6645 34.4539 85.6068 35.0718ZM65.6058 29.8257C64.7101 29.9139 63.7722 29.8081 62.7922 29.5085C61.3841 29.078 60.4376 28.3217 59.9527 27.2394C59.4679 26.1572 59.4697 24.8171 59.9583 23.2192C60.266 22.2127 60.7187 21.387 61.3165 20.742C61.9144 20.097 62.6182 19.6774 63.4281 19.4834C64.238 19.2893 65.1043 19.3333 66.0268 19.6154C66.9671 19.9029 67.8422 20.419 68.6522 21.1638L67.48 22.63C67.1707 22.3471 66.8524 22.0857 66.5251 21.8457C66.1979 21.6057 65.8577 21.4317 65.5046 21.3237C64.7321 21.0875 64.0452 21.1949 63.444 21.6458C62.8427 22.0967 62.3836 22.8408 62.0664 23.8782C61.4065 26.0367 61.8865 27.3637 63.5065 27.8589C64.1863 28.0668 65.0615 28.1485 66.1322 28.1042L65.6058 29.8257ZM51.9565 23.5313L50.5502 25.621L48.3386 24.9448L54.727 16.2693L57.2365 17.0365L57.6946 27.8052L55.4831 27.1291L55.4857 24.6103L51.9565 23.5313ZM43.9428 14.8836L41.5054 22.8557L39.4528 22.2282L42.4124 12.5478L50.0733 14.89L47.1137 24.5703L45.0677 23.9448L47.505 15.9727L43.9428 14.8836ZM55.522 22.739L52.9993 21.9677C54.3694 19.949 55.2137 18.6795 55.5321 18.159C55.5189 18.3287 55.5112 18.5629 55.5092 18.8615C55.5072 19.1602 55.5115 20.4526 55.522 22.739ZM69.6063 31.447L72.0436 23.4749L75.6059 24.564L73.1686 32.5361L75.2146 33.1616L78.1742 23.4813L70.5133 21.1391L67.5537 30.8195L69.6063 31.447ZM82.3217 33.5969C81.5051 33.3472 80.9752 32.8859 80.732 32.213C80.4889 31.5402 80.5326 30.663 80.8632 29.5815C81.1939 28.5 81.6507 27.7479 82.2336 27.3252C82.8166 26.9025 83.5164 26.816 84.333 27.0657C85.9619 27.5636 86.4429 28.903 85.7763 31.0836C85.1109 33.2598 83.9594 34.0975 82.3217 33.5969ZM91.5559 34.3927L90.5032 37.8358L88.4506 37.2083L91.4102 27.5279L94.5023 28.4733C95.6765 28.8323 96.492 29.3579 96.9489 30.0503C97.4057 30.7426 97.481 31.5898 97.1746 32.5918C96.8561 33.6336 96.287 34.3308 95.4672 34.6835C94.6474 35.0362 93.6372 35.0291 92.4365 34.662L91.5559 34.3927ZM92.7454 32.9174L92.0701 32.7109L92.9486 29.8373L93.8822 30.1227C94.4428 30.2941 94.8194 30.5347 95.0118 30.8446C95.2043 31.1544 95.227 31.5499 95.0799 32.031C94.9341 32.5078 94.6664 32.8229 94.2768 32.9765C93.8871 33.1301 93.3767 33.1104 92.7454 32.9174ZM103.137 32.9812L100.7 40.9533L98.6474 40.3258L101.085 32.3537L98.4561 31.55L98.9784 29.8417L106.288 32.0766L105.766 33.7849L103.137 32.9812Z" fill="#FFA5A1"/>
</svg>
