<svg width="488" height="477" viewBox="0 0 488 477" fill="none" xmlns="http://www.w3.org/2000/svg">
<path fill-rule="evenodd" clip-rule="evenodd" d="M481.425 478.696C478.297 482.719 473.376 488.381 464.105 492.895C436.777 506.205 383.852 516.29 347.631 511.408C345.088 511.065 342.677 510.732 340.393 510.396C299.124 504.421 274.552 492.252 292.06 468.888C300.223 457.995 347.218 444.698 351.557 438.041C356.821 429.969 415.191 418.743 464.535 432.819C486.722 439.15 494.199 462.277 481.425 478.696Z" fill="#DDE7FE"/>
<path fill-rule="evenodd" clip-rule="evenodd" d="M311.562 182.395C297.053 202.763 202.857 250.405 183.9 241.018C183.9 241.018 173.385 233.831 154.676 228.036C140.688 223.704 122.12 220.154 99.9407 220.969C96.4152 221.099 92.8959 221.111 89.404 221.003C41.5164 219.53 -1.91275 195.61 0.182187 144.942C3.26918 70.2237 56.8454 8.55153 118.864 1.87765C180.882 -4.79688 230.991 26.5012 269.037 59.1865C307.08 91.8747 326.068 162.023 311.562 182.395Z" fill="#DDE7FE"/>
<path fill-rule="evenodd" clip-rule="evenodd" d="M200.777 34.2412C182.332 34.2412 167.379 46.4208 167.379 61.445C167.379 73.0207 176.259 82.9008 188.771 86.8296L188.783 86.8409C189.212 87.2338 189.446 87.8048 189.381 88.3829C188.982 91.9132 186.57 96.4537 185.507 98.316C185.315 98.6508 185.624 99.0531 185.997 98.9571C191.182 97.6267 194.653 93.2604 196.474 90.3033C197.147 89.2118 198.365 88.5965 199.647 88.6324C200.022 88.643 200.399 88.6485 200.777 88.6485C219.222 88.6485 234.176 76.4689 234.176 61.445C234.176 46.4208 219.222 34.2412 200.777 34.2412Z" fill="#7C9AF2"/>
<path fill-rule="evenodd" clip-rule="evenodd" d="M202.555 239.276L202.225 239.874C198.636 246.421 201.95 255.139 209.627 259.346L226.803 268.766C234.674 273.083 244.037 271.141 247.717 264.433C251.398 257.721 247.999 248.783 240.129 244.465L222.952 235.046C215.276 230.837 206.143 232.73 202.555 239.276Z" fill="#F9A58F"/>
<path fill-rule="evenodd" clip-rule="evenodd" d="M342.248 498.944C353.661 494.162 366.707 490.029 380.76 486.949C408.499 480.871 434.382 480.173 452.75 483.995C445.405 454.376 434.234 407.549 435.494 401.555C437.352 392.701 432.932 282.509 424.113 256.457C417.298 236.329 366.513 204.626 363.236 200.278C359.963 195.927 306.137 292.048 306.137 292.048C306.137 292.048 280.007 347.034 272.252 356.632C256.133 376.576 312.318 428.541 329.69 441.625L342.248 498.944Z" fill="#F9A58F"/>
<path fill-rule="evenodd" clip-rule="evenodd" d="M268.187 243.247L268.591 242.553C273.005 234.991 270.453 225.283 262.891 220.87L215.259 193.072C207.506 188.547 197.552 191.164 193.027 198.917C188.502 206.671 191.12 216.625 198.873 221.149L246.504 248.948C254.066 253.362 263.773 250.809 268.187 243.247Z" fill="#F9A58F"/>
<path fill-rule="evenodd" clip-rule="evenodd" d="M449.412 470.401C451.626 473.804 458.018 483.627 464.106 492.895C436.777 506.205 383.853 516.29 347.632 511.408C345.089 511.065 342.678 510.732 340.393 510.396L341.392 496.352C341.392 496.352 286.309 455.349 307.342 440.594C310.499 438.381 313.165 436.888 315.492 435.918C317.505 435.078 319.27 434.629 320.879 434.438C321.322 434.386 321.751 434.351 322.175 434.335C330.24 434.05 334.793 440.025 350.269 433.323L350.275 433.317C355.42 431.087 358.396 428.376 360.393 425.587C367.169 416.132 362.713 405.837 393.799 410.768C410.192 413.366 422.633 409.059 432.628 404.887C433.578 404.489 434.509 404.095 435.417 403.704C440.465 401.542 444.862 399.6 448.844 398.922C453.93 398.043 458.331 399.232 462.5 404.641C463.476 405.901 464.435 407.398 465.392 409.146C467.938 413.809 469.121 418.63 469.334 423.419C470.291 444.779 451.968 465.518 449.005 468.727C448.743 469.011 448.604 469.157 448.604 469.157C448.604 469.157 448.889 469.599 449.409 470.398C449.409 470.398 449.412 470.398 449.412 470.401Z" fill="#FA7267"/>
<path fill-rule="evenodd" clip-rule="evenodd" d="M420.655 434.749C418.574 432.839 418.438 429.604 420.348 427.523C422.257 425.445 425.489 425.306 427.57 427.216C429.648 429.126 429.787 432.361 427.877 434.438C425.967 436.519 422.732 436.655 420.655 434.749Z" fill="white"/>
<path fill-rule="evenodd" clip-rule="evenodd" d="M373.295 444C371.214 442.09 371.079 438.856 372.988 436.778C374.895 434.697 378.13 434.561 380.211 436.471C382.288 438.38 382.427 441.612 380.518 443.693C378.608 445.771 375.373 445.91 373.295 444Z" fill="white"/>
<path fill-rule="evenodd" clip-rule="evenodd" d="M401.909 470.275C399.828 468.365 399.692 465.133 401.599 463.052C403.509 460.975 406.743 460.836 408.824 462.745C410.902 464.655 411.041 467.89 409.131 469.968C407.222 472.049 403.987 472.184 401.909 470.275Z" fill="white"/>
<path fill-rule="evenodd" clip-rule="evenodd" d="M439.689 454.829C437.611 452.919 437.472 449.684 439.382 447.606C441.291 445.525 444.526 445.39 446.604 447.299C448.685 449.209 448.821 452.441 446.911 454.522C445.001 456.599 441.77 456.738 439.689 454.829Z" fill="white"/>
<path fill-rule="evenodd" clip-rule="evenodd" d="M346.114 472.653C344.037 470.743 343.898 467.509 345.807 465.431C347.717 463.35 350.949 463.214 353.03 465.121C355.108 467.031 355.246 470.265 353.337 472.343C351.427 474.424 348.192 474.563 346.114 472.653Z" fill="white"/>
<path fill-rule="evenodd" clip-rule="evenodd" d="M315.95 458.832C313.873 456.923 313.734 453.691 315.643 451.61C317.553 449.532 320.788 449.393 322.866 451.303C324.947 453.213 325.082 456.444 323.176 458.525C321.266 460.603 318.031 460.742 315.95 458.832Z" fill="white"/>
<path fill-rule="evenodd" clip-rule="evenodd" d="M377.475 369.639L261.237 382.467C246.25 384.119 232.761 373.313 231.105 358.322L205.85 129.439C204.703 119.029 212.211 109.659 222.621 108.509L352.347 94.1931C360.507 93.2948 367.852 99.1799 368.75 107.339L395.251 347.458C396.466 358.49 388.51 368.42 377.475 369.639Z" fill="white"/>
<path fill-rule="evenodd" clip-rule="evenodd" d="M385.554 367.726L251.23 382.548C242.206 383.543 234.083 377.035 233.087 368.01L232.801 365.415L396.153 347.39L396.842 353.636C397.617 360.645 392.563 366.953 385.554 367.726Z" fill="#050521"/>
<path fill-rule="evenodd" clip-rule="evenodd" d="M360.122 171.297L273.474 181.305C271.219 181.565 269.157 179.931 268.895 177.673L266.468 156.666C266.21 154.408 267.842 152.348 270.1 152.087L356.745 142.079C359.004 141.818 361.065 143.452 361.327 145.71L363.751 166.717C364.012 168.975 362.377 171.036 360.122 171.297Z" fill="#DDE7FE"/>
<path fill-rule="evenodd" clip-rule="evenodd" d="M274.887 187.649L277.074 180.888L284.61 180.018L274.887 187.649Z" fill="#DDE7FE"/>
<path fill-rule="evenodd" clip-rule="evenodd" d="M256.378 184.542C254.239 186.906 251.489 188.777 248.267 189.888C244.257 191.271 240.104 191.271 236.324 190.145C233.013 189.158 229.991 187.302 227.606 184.752C225.788 182.807 224.341 180.456 223.418 177.776C223.162 177.036 222.953 176.287 222.793 175.539C220.715 165.994 226.064 156.185 235.527 152.924C245.737 149.406 256.862 154.83 260.378 165.036C262.786 172.019 261.008 179.431 256.378 184.542Z" fill="#DDE7FE"/>
<path fill-rule="evenodd" clip-rule="evenodd" d="M263.065 234.186C260.839 236.943 257.837 239.131 254.237 240.368C249.38 242.042 244.317 241.693 239.961 239.767C240.534 238.969 241.213 238.284 242.023 237.773C244.666 236.109 247.147 235.12 249.367 234.358C255.148 232.367 259.86 233.225 263.065 234.186Z" fill="#FA7267"/>
<path fill-rule="evenodd" clip-rule="evenodd" d="M254.878 220.337C254.816 219.966 254.467 219.716 254.096 219.778C253.724 219.84 253.475 220.191 253.537 220.562C253.598 220.932 253.95 221.183 254.319 221.12C254.69 221.059 254.942 220.708 254.878 220.337Z" fill="#060633"/>
<path fill-rule="evenodd" clip-rule="evenodd" d="M248.859 222.698C248.798 222.327 248.445 222.077 248.077 222.139C247.705 222.201 247.453 222.552 247.518 222.923C247.579 223.294 247.928 223.544 248.3 223.482C248.672 223.42 248.92 223.069 248.859 222.698Z" fill="#060633"/>
<path fill-rule="evenodd" clip-rule="evenodd" d="M246.425 221.323C246.347 221.351 246.26 221.345 246.186 221.301C246.05 221.221 246.008 221.048 246.086 220.913C246.108 220.873 246.69 219.92 247.898 219.547C248.05 219.501 248.209 219.584 248.254 219.733C248.299 219.883 248.205 220.047 248.066 220.088C247.058 220.4 246.577 221.192 246.573 221.2C246.538 221.26 246.486 221.302 246.425 221.323Z" fill="#060633"/>
<path fill-rule="evenodd" clip-rule="evenodd" d="M252.28 218.165C252.199 218.147 252.128 218.095 252.09 218.017C252.019 217.878 252.073 217.707 252.216 217.636C252.258 217.615 253.246 217.122 254.478 217.461C254.63 217.503 254.717 217.658 254.675 217.809C254.636 217.96 254.474 218.048 254.329 218.007C253.308 217.726 252.481 218.137 252.471 218.141C252.41 218.172 252.342 218.179 252.28 218.165Z" fill="#060633"/>
<path fill-rule="evenodd" clip-rule="evenodd" d="M252.493 224.408C253.236 224.082 253.34 223.428 253.272 223.085C253.262 223.025 253.226 222.972 253.178 222.937C252.251 222.274 251.989 221.009 251.986 220.996C251.96 220.867 251.837 220.784 251.708 220.809C251.578 220.834 251.494 220.96 251.52 221.089C251.53 221.146 251.801 222.472 252.813 223.259C252.816 223.452 252.739 223.908 251.989 224.07C251.86 224.1 251.779 224.225 251.805 224.353C251.834 224.482 251.96 224.564 252.089 224.536C252.241 224.503 252.373 224.46 252.493 224.408Z" fill="#DD816F"/>
<path fill-rule="evenodd" clip-rule="evenodd" d="M243.215 225.411C244.359 226.48 243.932 216.328 248.375 214.684C252.819 213.041 256.237 219.224 256.237 219.224C256.237 219.224 256.26 215.169 253.765 212.655C251.268 210.142 246.078 208.436 242.206 211.975C238.334 215.513 237.75 220.31 243.215 225.411Z" fill="#060633"/>
<path fill-rule="evenodd" clip-rule="evenodd" d="M240.531 212.972C239.833 211.119 237.764 210.181 235.91 210.879C234.056 211.577 233.119 213.646 233.817 215.5C234.515 217.354 236.584 218.291 238.438 217.593C240.292 216.895 241.229 214.827 240.531 212.972Z" fill="#060633"/>
<path fill-rule="evenodd" clip-rule="evenodd" d="M244.665 224.591C244.477 224.38 244.215 224.251 243.934 224.217C243.359 224.147 242.379 224.164 241.918 224.963C241.241 226.137 243.76 228.09 245.272 226.377C245.272 226.377 245.657 225.711 244.665 224.591Z" fill="#F9A58F"/>
<path fill-rule="evenodd" clip-rule="evenodd" d="M254.851 224.53C254.851 224.53 253.785 224.308 253.49 224.523C253.196 224.737 253.164 225.203 253.164 225.203C253.164 225.203 252.818 224.879 252.414 225.024C252.014 225.168 250.957 226.425 250.957 226.425C250.957 226.425 252.857 227.658 253.988 226.982C255.139 226.293 254.851 224.53 254.851 224.53Z" fill="#EA6868"/>
<path fill-rule="evenodd" clip-rule="evenodd" d="M250.957 226.425C250.957 226.425 253.381 225.4 254.851 224.529C254.851 224.529 254.592 226.049 253.652 226.407C252.715 226.766 250.957 226.425 250.957 226.425Z" fill="white"/>
<path fill-rule="evenodd" clip-rule="evenodd" d="M275.579 333.362C275.65 333.488 275.727 333.611 275.811 333.727C275.462 334.257 275.081 334.771 274.674 335.262C272.89 337.44 270.615 339.253 267.946 340.513C266.333 340.529 264.724 340.856 263.228 341.466C262.588 341.725 261.968 342.042 261.334 342.323C258.336 342.594 255.369 342.164 252.642 341.13C251.702 340.258 251.058 339.069 250.603 337.857C250.244 336.91 249.986 335.928 249.698 334.958C249.549 334.458 249.391 333.96 249.213 333.472C248.535 331.62 247.52 329.895 246.234 328.405C245.688 327.775 245.084 327.171 244.751 326.405C244.524 325.885 244.437 325.313 244.415 324.741C244.327 322.307 245.523 319.864 247.501 318.443C247.989 318.087 248.525 317.793 248.952 317.36C249.385 316.914 249.782 316.397 249.969 315.806C251.336 311.527 254.051 310.736 254.729 310.558C258.307 309.614 264.143 310.635 266.065 314.28C266.899 315.864 266.902 317.774 267.7 319.373C268.466 320.911 269.898 322.016 271.391 322.873C272.496 323.506 273.714 324.085 274.412 325.151C275.947 327.503 274.192 330.916 275.579 333.362Z" fill="#0B0755"/>
<path fill-rule="evenodd" clip-rule="evenodd" d="M274.677 335.262C272.893 337.44 270.618 339.253 267.949 340.514C267.303 340.817 266.634 341.092 265.942 341.331C264.42 341.855 262.872 342.181 261.338 342.323C258.339 342.595 255.372 342.165 252.645 341.131C250.648 340.371 248.783 339.289 247.129 337.928C247.685 336.904 248.241 336.025 248.674 335.647C248.968 335.385 249.323 335.156 249.701 334.959C251.727 333.905 254.597 333.676 254.597 333.676L254.768 333.643L260.032 332.684C260.032 332.684 260.032 332.684 260.035 332.684L260.103 332.671C260.103 332.671 260.142 332.642 260.219 332.593C260.255 332.571 260.3 332.542 260.355 332.506C261.273 331.944 264.637 330.212 269.074 331.714C270.205 332.099 272.596 333.74 274.677 335.262Z" fill="#FA7267"/>
<path fill-rule="evenodd" clip-rule="evenodd" d="M251.339 321.128C251.339 321.128 250.796 320.31 250.366 320.646C249.277 321.5 250.463 322.624 251.19 322.866L251.339 321.128Z" fill="#DD816F"/>
<path fill-rule="evenodd" clip-rule="evenodd" d="M258.199 311.169C261.547 311.379 264.252 314.11 264.439 317.461C264.5 318.559 264.29 319.606 263.877 320.54C262.959 322.87 262.203 324.744 261.259 326.111C260.303 327.497 259.867 329.178 260.109 330.842L260.355 332.526C256.474 334.477 254.771 333.644 254.771 333.644L254.758 328.651C250.554 328.16 251.096 320.401 251.09 318.11H251.096C251.093 318.023 251.09 317.939 251.09 317.852C251.08 314.013 254.308 310.923 258.199 311.169Z" fill="#F9A58F"/>
<path fill-rule="evenodd" clip-rule="evenodd" d="M258.743 317.923C259.922 319.309 261.173 320.666 262.055 322.253C262.152 322.427 262.843 323.739 262.646 323.888C263.726 323.064 264.417 321.833 264.999 320.602C266.007 318.469 265.706 315.909 264.462 313.942C263.231 311.993 261.173 310.985 258.911 310.807C256.481 310.616 253.837 311.437 252.357 313.467C250.968 315.37 250.913 317.774 250.758 320.03C250.929 317.499 254.329 315.603 256.368 314.704C256.309 314.73 257.89 316.885 257.974 316.992C258.222 317.305 258.481 317.616 258.743 317.923Z" fill="#0B0755"/>
<path fill-rule="evenodd" clip-rule="evenodd" d="M261.841 322.417C261.951 322.201 262.139 322.036 262.362 321.946C262.824 321.758 263.635 321.555 264.197 322.11C265.018 322.928 263.373 325.109 261.738 324.033C261.738 324.033 261.273 323.568 261.841 322.417Z" fill="#F9A58F"/>
<path fill-rule="evenodd" clip-rule="evenodd" d="M252.444 321.189C252.415 320.869 252.647 320.585 252.967 320.553C253.287 320.52 253.575 320.753 253.607 321.073C253.636 321.396 253.404 321.681 253.084 321.713C252.764 321.745 252.476 321.509 252.444 321.189Z" fill="#060633"/>
<path fill-rule="evenodd" clip-rule="evenodd" d="M257.948 321.794C257.916 321.474 258.149 321.19 258.472 321.157C258.792 321.125 259.076 321.358 259.108 321.678C259.141 322.001 258.905 322.285 258.585 322.317C258.265 322.35 257.981 322.114 257.948 321.794Z" fill="#060633"/>
<path fill-rule="evenodd" clip-rule="evenodd" d="M253.496 325.18C253.496 325.18 254.194 324.544 254.498 324.598C254.802 324.657 254.995 325.002 254.995 325.002C254.995 325.002 255.141 324.631 255.503 324.595C255.865 324.56 256.724 325.465 256.724 325.465C256.724 325.465 255.832 327.142 254.721 327.035C253.59 326.925 253.519 325.261 253.519 325.261L253.496 325.18Z" fill="#FA7267"/>
<path fill-rule="evenodd" clip-rule="evenodd" d="M259.68 320.918C259.751 320.921 259.819 320.892 259.867 320.834C259.955 320.734 259.942 320.579 259.841 320.491C259.809 320.466 259.072 319.858 257.99 319.894C257.857 319.897 257.751 320.01 257.754 320.142C257.76 320.278 257.883 320.385 258.006 320.378C258.908 320.349 259.518 320.857 259.525 320.863C259.57 320.899 259.625 320.918 259.68 320.918Z" fill="#060633"/>
<path fill-rule="evenodd" clip-rule="evenodd" d="M253.958 319.861C254.026 319.845 254.084 319.8 254.12 319.732C254.181 319.612 254.133 319.467 254.013 319.409C253.978 319.389 253.128 318.969 252.074 319.263C251.945 319.299 251.868 319.435 251.903 319.561C251.939 319.69 252.078 319.767 252.204 319.732C253.076 319.486 253.787 319.839 253.794 319.842C253.848 319.868 253.903 319.871 253.958 319.861Z" fill="#060633"/>
<path fill-rule="evenodd" clip-rule="evenodd" d="M255.331 324.02C254.639 323.917 254.41 323.4 254.387 323.102C254.384 323.051 254.4 322.999 254.432 322.957C255.05 322.201 254.982 321.099 254.982 321.086C254.975 320.976 255.059 320.879 255.172 320.869C255.282 320.863 255.382 320.947 255.389 321.06C255.392 321.109 255.466 322.265 254.807 323.141C254.849 323.303 255.014 323.661 255.67 323.629C255.783 323.623 255.877 323.71 255.883 323.823C255.89 323.933 255.802 324.03 255.689 324.036C255.557 324.043 255.437 324.036 255.331 324.02Z" fill="#DD816F"/>
<path fill-rule="evenodd" clip-rule="evenodd" d="M253.496 325.18L256.724 325.465C256.724 325.465 255.635 326.376 254.766 326.35C253.894 326.321 253.496 325.18 253.496 325.18Z" fill="#FAFAFC"/>
<path fill-rule="evenodd" clip-rule="evenodd" d="M265.85 287.673C264.157 289.017 262.208 290.106 260.05 290.849C252.453 293.467 244.345 291.134 239.246 285.56C242.352 283.563 245.628 283.049 249.153 282.448C249.153 282.448 252.075 282.593 252.078 282.593C252.236 282.632 253.561 282.787 255.438 282.522C255.532 282.512 260.48 282.6 265.85 287.673Z" fill="#0B0755"/>
<path fill-rule="evenodd" clip-rule="evenodd" d="M259.672 270.692C259.672 270.692 260.231 269.822 260.69 270.165C261.85 271.044 260.716 272.21 259.953 272.475L259.672 270.692Z" fill="#DD816F"/>
<path fill-rule="evenodd" clip-rule="evenodd" d="M259.886 267.509L259.88 267.512C259.88 267.421 259.883 267.331 259.883 267.241C259.828 263.204 256.38 260.009 252.289 260.335C248.883 260.606 246.13 263.356 245.859 266.766C245.758 268.029 245.994 269.228 246.486 270.281C247.158 271.916 247.749 273.316 248.373 274.472C249.4 276.392 249.749 278.605 249.416 280.754L249.155 282.448C253.501 284.687 255.44 282.522 255.44 282.522L255.475 279.423C255.482 279.019 255.795 278.69 256.199 278.657C256.202 278.657 256.202 278.657 256.206 278.657C261.554 278.234 259.919 269.923 259.886 267.509Z" fill="#F9A58F"/>
<path fill-rule="evenodd" clip-rule="evenodd" d="M258.513 270.068C258.51 269.787 258.277 269.561 257.996 269.568C257.715 269.571 257.489 269.8 257.492 270.081C257.495 270.366 257.728 270.592 258.009 270.589C258.29 270.582 258.517 270.35 258.513 270.068Z" fill="#060633"/>
<path fill-rule="evenodd" clip-rule="evenodd" d="M252.403 271.428C252.4 271.147 252.167 270.921 251.883 270.924C251.602 270.931 251.379 271.16 251.379 271.441C251.385 271.726 251.618 271.952 251.899 271.945C252.18 271.942 252.407 271.71 252.403 271.428Z" fill="#060633"/>
<path fill-rule="evenodd" clip-rule="evenodd" d="M250.343 270.307C250.279 270.307 250.208 270.291 250.146 270.255C249.965 270.149 249.904 269.913 250.007 269.732C250.33 269.179 251.326 268.326 252.799 269.037C252.99 269.128 253.071 269.357 252.977 269.548C252.883 269.738 252.657 269.819 252.466 269.725C251.258 269.144 250.692 270.078 250.67 270.116C250.602 270.236 250.476 270.307 250.343 270.307Z" fill="#060633"/>
<path fill-rule="evenodd" clip-rule="evenodd" d="M256.459 269.202C256.391 269.202 256.323 269.186 256.262 269.15C256.077 269.044 256.016 268.811 256.123 268.627C256.443 268.074 257.438 267.221 258.911 267.932C259.102 268.023 259.183 268.255 259.089 268.446C258.999 268.633 258.769 268.714 258.579 268.62C257.367 268.039 256.808 268.973 256.785 269.011C256.714 269.134 256.588 269.202 256.459 269.202Z" fill="#060633"/>
<path fill-rule="evenodd" clip-rule="evenodd" d="M256.787 275.516C255.504 276.162 253.953 275.348 253.937 275.338C253.879 275.309 253.859 275.238 253.888 275.183C253.917 275.128 253.989 275.109 254.04 275.138C254.134 275.187 256.283 276.314 257.462 274.615C257.501 274.563 257.569 274.55 257.621 274.585C257.676 274.621 257.685 274.692 257.65 274.744C257.398 275.112 257.1 275.358 256.787 275.516Z" fill="#060633"/>
<path fill-rule="evenodd" clip-rule="evenodd" d="M245.069 262.642C245.214 262.238 245.379 261.841 245.628 261.495C246.235 260.639 247.285 260.206 248.313 260.009C249.344 259.808 250.404 259.805 251.431 259.598C252.472 259.388 253.5 258.971 254.556 259.059C254.789 259.081 255.025 259.127 255.225 259.246C255.432 259.372 255.584 259.56 255.762 259.718C256.505 260.374 257.603 260.387 258.595 260.364C259.167 260.351 259.739 260.338 260.315 260.325C260.803 260.313 261.329 260.313 261.733 260.59C262.186 260.901 262.363 261.469 262.551 261.986C262.735 262.5 263.01 263.059 263.53 263.234C263.708 263.295 263.921 263.318 264.028 263.47C264.079 263.544 264.095 263.638 264.099 263.731C264.15 264.51 263.511 265.27 262.732 265.347C262.538 265.366 262.341 265.35 262.157 265.405C261.484 265.615 261.436 266.575 260.912 267.047C260.593 267.338 260.124 267.406 259.697 267.351C259.268 267.299 258.86 267.137 258.44 267.024C257.943 266.892 257.429 266.824 256.912 266.827C256.547 266.827 256.172 266.866 255.849 267.04C255.681 267.131 255.532 267.257 255.364 267.347C254.779 267.67 254.046 267.544 253.432 267.283C252.821 267.014 252.265 266.623 251.632 266.404C251.002 266.187 250.236 266.181 249.735 266.623C249.451 266.879 249.292 267.247 249.05 267.544C248.407 268.326 247.295 268.488 246.29 268.595C246.083 268.617 245.86 268.64 245.676 268.537C245.547 268.465 245.453 268.343 245.372 268.217C244.345 266.636 244.452 264.332 245.069 262.642Z" fill="#4851EC"/>
<path fill-rule="evenodd" clip-rule="evenodd" d="M245.258 268.029L247.184 272.647L248.46 272.376L249.142 266.236L245.258 268.029Z" fill="#4851EC"/>
<path fill-rule="evenodd" clip-rule="evenodd" d="M248.652 272.224C248.536 271.997 248.335 271.826 248.1 271.732C247.612 271.545 246.752 271.345 246.174 271.939C245.324 272.815 247.088 275.077 248.788 273.917C248.788 273.917 249.273 273.419 248.652 272.224Z" fill="#F9A58F"/>
<path fill-rule="evenodd" clip-rule="evenodd" d="M256.091 273.619C255.468 273.933 254.906 273.603 254.899 273.597C254.844 273.568 254.828 273.497 254.86 273.442C254.893 273.39 254.96 273.37 255.015 273.403C255.041 273.419 255.671 273.781 256.285 273.206C256.386 273.112 256.437 273.034 256.44 272.979C256.44 272.899 256.347 272.802 256.214 272.663C255.914 272.346 255.406 271.819 255.238 270.608C255.229 270.546 255.271 270.488 255.332 270.478C255.397 270.469 255.452 270.514 255.461 270.575C255.623 271.713 256.079 272.191 256.379 272.508C256.541 272.679 256.673 272.811 256.667 272.986C256.663 273.109 256.592 273.228 256.44 273.37C256.324 273.477 256.208 273.561 256.091 273.619Z" fill="#DD816F"/>
<path fill-rule="evenodd" clip-rule="evenodd" d="M257.447 174.147C257.072 175.085 256.148 175.755 255.948 176.746C255.78 177.562 256.151 178.421 256.029 179.246C255.802 180.809 254.061 181.549 252.59 182.068C252.513 182.094 252.432 182.125 252.354 182.154C250.942 182.683 249.407 183.597 249.42 185.097C249.424 185.631 249.627 186.207 249.356 186.665C249.249 186.847 249.075 186.979 248.907 187.102C247.365 188.201 245.533 188.876 243.649 189.033C242.036 189.17 240.386 188.936 238.802 189.273C237.96 189.451 237.139 189.79 236.324 190.145C233.012 189.158 229.991 187.303 227.606 184.752C225.788 182.807 224.341 180.456 223.418 177.776C223.162 177.036 222.953 176.287 222.793 175.54C222.793 175.536 222.796 175.532 222.799 175.529C223.568 174.333 224.34 173.14 225.109 171.948C225.52 171.31 225.951 170.57 225.747 169.831C225.616 169.368 225.251 169.001 225.087 168.546C224.742 167.581 225.397 166.536 226.19 165.903C226.983 165.273 227.953 164.848 228.603 164.068C228.707 163.942 228.805 163.802 228.838 163.642C228.892 163.39 228.779 163.136 228.739 162.884C228.567 161.767 229.772 160.981 230.828 160.639C231.887 160.294 233.153 159.914 233.478 158.839C233.591 158.469 233.578 158.034 233.836 157.743C234.053 157.496 234.406 157.431 234.729 157.379C235.856 157.199 236.963 156.907 238.087 157.07C239.41 157.259 240.506 157.593 241.868 157.347C242.377 157.256 242.88 157.111 243.397 157.13C246.024 157.226 247.204 161.183 249.824 161.429C250.936 161.531 252.122 160.907 253.14 161.395C253.973 161.8 254.332 162.819 254.397 163.748C254.458 164.681 254.303 165.621 254.487 166.535C254.759 167.922 255.744 169.031 256.536 170.197C257.331 171.363 257.967 172.848 257.447 174.147Z" fill="#060633"/>
<path fill-rule="evenodd" clip-rule="evenodd" d="M256.377 184.542C254.238 186.906 251.488 188.777 248.266 189.888C244.256 191.271 240.103 191.271 236.324 190.145C233.012 189.158 229.991 187.303 227.605 184.752C228.91 183.39 231.819 181.465 238.121 180.678C238.965 180.569 239.866 180.485 240.837 180.423C241.952 180.352 243.005 180.34 244.001 180.38C247.468 180.509 250.225 181.241 252.354 182.154C254.096 182.901 255.421 183.773 256.377 184.542Z" fill="#4851EC"/>
<path fill-rule="evenodd" clip-rule="evenodd" d="M247.77 169.197C247.77 169.197 248.358 168.332 248.81 168.693C249.964 169.614 248.784 170.763 248.002 171.011L247.77 169.197Z" fill="#DD816F"/>
<path fill-rule="evenodd" clip-rule="evenodd" d="M248.07 165.983L248.063 165.984C248.066 165.892 248.073 165.801 248.073 165.707C248.128 161.619 244.722 158.291 240.572 158.509C237.113 158.69 234.25 161.401 233.885 164.845C233.749 166.124 233.957 167.343 234.423 168.425C235.209 170.487 235.879 172.182 236.646 173.513C237.938 175.755 238.483 178.35 238.086 180.906C238.056 181.099 238.153 181.291 238.329 181.375C241.016 182.67 242.684 182.15 243.462 181.701C243.785 181.514 243.988 181.177 243.992 180.805L244.03 177.972C244.037 177.54 244.341 177.165 244.764 177.075C249.333 176.102 248.041 168.309 248.07 165.983Z" fill="#F9A58F"/>
<path fill-rule="evenodd" clip-rule="evenodd" d="M245.478 173.254C245.478 173.254 244.909 172.947 244.612 173.075C244.314 173.204 244.195 173.602 244.195 173.602C244.195 173.602 243.959 173.255 243.581 173.302C243.203 173.349 242.184 173.786 242.184 173.786C242.184 173.786 243.387 175.256 244.473 174.818C245.562 174.38 245.468 173.309 245.468 173.309L245.478 173.254Z" fill="#EA6868"/>
<path fill-rule="evenodd" clip-rule="evenodd" d="M241.024 169.606C241.03 169.206 240.71 168.878 240.311 168.874C239.912 168.869 239.583 169.187 239.578 169.586C239.574 169.987 239.892 170.313 240.292 170.32C240.691 170.325 241.019 170.005 241.024 169.606Z" fill="#240D39"/>
<path fill-rule="evenodd" clip-rule="evenodd" d="M246.773 168.777C246.779 168.378 246.459 168.049 246.062 168.045C245.661 168.038 245.335 168.358 245.328 168.757C245.322 169.156 245.642 169.484 246.042 169.489C246.44 169.496 246.769 169.176 246.773 168.777Z" fill="#240D39"/>
<path fill-rule="evenodd" clip-rule="evenodd" d="M244.512 174.056C243.255 174.512 241.866 173.733 241.848 173.721C241.807 173.698 241.792 173.646 241.816 173.605C241.84 173.562 241.893 173.549 241.934 173.573C242.025 173.625 244.195 174.837 245.449 173.127C245.478 173.088 245.533 173.08 245.572 173.108C245.611 173.136 245.617 173.191 245.588 173.228C245.271 173.659 244.9 173.917 244.512 174.056Z" fill="#240D39"/>
<path fill-rule="evenodd" clip-rule="evenodd" d="M238.725 168.142C238.652 168.131 238.586 168.089 238.545 168.022C238.472 167.902 238.51 167.746 238.631 167.671C238.667 167.65 239.533 167.141 240.652 167.361C240.79 167.388 240.881 167.523 240.853 167.66C240.827 167.799 240.681 167.889 240.555 167.863C239.622 167.679 238.902 168.104 238.895 168.109C238.842 168.14 238.781 168.15 238.725 168.142Z" fill="#240D39"/>
<path fill-rule="evenodd" clip-rule="evenodd" d="M245.152 167.3C245.078 167.289 245.01 167.246 244.971 167.18C244.897 167.059 244.936 166.902 245.055 166.83C245.094 166.808 245.947 166.298 247.078 166.519C247.217 166.546 247.305 166.679 247.279 166.818C247.253 166.957 247.114 167.046 246.981 167.019C246.048 166.836 245.327 167.262 245.32 167.265C245.269 167.298 245.207 167.308 245.152 167.3Z" fill="#240D39"/>
<path fill-rule="evenodd" clip-rule="evenodd" d="M243.902 171.876C243.653 171.838 243.485 171.737 243.482 171.734C243.424 171.698 243.404 171.619 243.44 171.558C243.478 171.499 243.559 171.481 243.617 171.518C243.643 171.534 244.199 171.863 244.758 171.358C244.871 171.257 244.894 171.2 244.897 171.169C244.9 171.106 244.813 171.011 244.703 170.892C244.429 170.595 243.97 170.097 243.827 168.975C243.818 168.904 243.869 168.84 243.937 168.832C244.008 168.823 244.073 168.873 244.08 168.942C244.212 169.985 244.619 170.426 244.891 170.719C245.039 170.883 245.159 171.012 245.152 171.181C245.146 171.301 245.078 171.413 244.929 171.546C244.558 171.883 244.18 171.919 243.902 171.876Z" fill="#DD816F"/>
<path fill-rule="evenodd" clip-rule="evenodd" d="M236.715 170.029C236.809 169.666 236.743 169.276 236.85 168.918C237.123 168.008 238.293 167.766 238.962 167.093C239.788 166.259 239.837 164.759 240.866 164.196C241.32 163.945 241.915 163.921 242.254 163.527C242.499 163.243 242.538 162.84 242.646 162.48C242.754 162.119 243.013 161.738 243.39 161.739C243.558 161.738 243.72 161.82 243.859 161.918C244.793 162.575 245.09 163.971 246.144 164.418C246.48 164.56 246.854 164.584 247.21 164.669C248.199 164.911 249.039 165.687 249.359 166.653C250.018 166.083 249.976 165.013 249.575 164.239C249.175 163.463 248.509 162.865 248.002 162.155C247.494 161.448 247.155 160.634 246.67 159.911C246.186 159.19 245.5 158.531 244.641 158.384C243.933 158.263 243.213 158.506 242.493 158.497C241.863 158.49 241.252 158.289 240.628 158.194C238.812 157.912 236.877 158.581 235.621 159.92C235.177 160.395 234.818 160.939 234.462 161.483C233.666 162.691 232.871 163.902 232.076 165.112C231.693 165.691 231.302 166.299 231.207 166.988C231.045 168.159 231.765 169.25 232.452 170.214C232.787 170.685 233.193 171.198 233.768 171.254C234.857 171.361 236.374 171.331 236.715 170.029Z" fill="#060633"/>
<path fill-rule="evenodd" clip-rule="evenodd" d="M236.567 170.448C236.454 170.215 236.257 170.038 236.02 169.939C235.531 169.734 234.667 169.506 234.064 170.094C233.179 170.956 234.906 173.296 236.659 172.169C236.659 172.169 237.162 171.678 236.567 170.448Z" fill="#F9A58F"/>
<path fill-rule="evenodd" clip-rule="evenodd" d="M355.739 152.359L276.139 161.65C275.464 161.729 274.844 161.24 274.766 160.564L274.708 160.056C274.627 159.379 275.115 158.761 275.794 158.682L355.39 149.391C356.069 149.312 356.686 149.801 356.764 150.477L356.825 150.986C356.903 151.662 356.415 152.28 355.739 152.359Z" fill="#7C9AF2"/>
<path fill-rule="evenodd" clip-rule="evenodd" d="M356.465 158.602L276.865 167.893C276.19 167.972 275.573 167.483 275.492 166.807L275.434 166.298C275.356 165.622 275.844 165.004 276.52 164.925L356.12 155.634C356.795 155.555 357.412 156.044 357.493 156.72L357.551 157.228C357.632 157.905 357.141 158.522 356.465 158.602Z" fill="#7C9AF2"/>
<path fill-rule="evenodd" clip-rule="evenodd" d="M314.708 170.02L277.908 174.316C277.158 174.403 276.473 173.861 276.386 173.111L276.357 172.872C276.27 172.122 276.812 171.436 277.562 171.348L314.362 167.053C315.111 166.965 315.797 167.508 315.884 168.258L315.913 168.497C316 169.247 315.457 169.933 314.708 170.02Z" fill="#7C9AF2"/>
<path fill-rule="evenodd" clip-rule="evenodd" d="M367.314 217.427L280.67 227.434C278.411 227.695 276.353 226.061 276.091 223.803L273.664 202.796C273.402 200.538 275.038 198.478 277.296 198.217L363.941 188.209C366.2 187.948 368.258 189.582 368.52 191.84L370.947 212.847C371.208 215.105 369.573 217.166 367.314 217.427Z" fill="#DDE7FE"/>
<path fill-rule="evenodd" clip-rule="evenodd" d="M282.082 233.779L284.266 227.019L291.805 226.148L282.082 233.779Z" fill="#DDE7FE"/>
<path fill-rule="evenodd" clip-rule="evenodd" d="M360.621 198.243L281.021 207.535C280.346 207.614 279.725 207.125 279.648 206.449L279.586 205.94C279.509 205.264 279.997 204.646 280.675 204.567L360.272 195.276C360.95 195.197 361.568 195.686 361.645 196.362L361.707 196.87C361.784 197.547 361.296 198.165 360.621 198.243Z" fill="#7C9AF2"/>
<path fill-rule="evenodd" clip-rule="evenodd" d="M361.348 204.486L281.748 213.777C281.073 213.856 280.456 213.368 280.375 212.691L280.317 212.183C280.239 211.507 280.727 210.889 281.402 210.81L361.002 201.519C361.678 201.44 362.295 201.928 362.376 202.605L362.434 203.113C362.515 203.789 362.023 204.408 361.348 204.486Z" fill="#7C9AF2"/>
<path fill-rule="evenodd" clip-rule="evenodd" d="M319.59 215.905L282.791 220.2C282.041 220.288 281.356 219.745 281.269 218.995L281.24 218.756C281.152 218.006 281.695 217.32 282.445 217.233L319.245 212.938C319.994 212.85 320.679 213.392 320.767 214.143L320.796 214.382C320.883 215.132 320.34 215.817 319.59 215.905Z" fill="#7C9AF2"/>
<path fill-rule="evenodd" clip-rule="evenodd" d="M373.693 270.052L287.049 280.06C284.79 280.322 282.732 278.687 282.47 276.428L280.043 255.42C279.781 253.165 281.417 251.103 283.675 250.841L370.32 240.834C372.578 240.575 374.64 242.207 374.899 244.466L377.325 265.473C377.587 267.732 375.952 269.79 373.693 270.052Z" fill="#DDE7FE"/>
<path fill-rule="evenodd" clip-rule="evenodd" d="M288.461 286.403L290.649 279.643L298.184 278.773L288.461 286.403Z" fill="#DDE7FE"/>
<path fill-rule="evenodd" clip-rule="evenodd" d="M367.001 250.867L287.401 260.161C286.726 260.238 286.105 259.75 286.028 259.075L285.97 258.564C285.889 257.889 286.377 257.272 287.055 257.191L366.655 247.901C367.331 247.823 367.948 248.311 368.025 248.986L368.087 249.494C368.164 250.172 367.676 250.79 367.001 250.867Z" fill="#7C9AF2"/>
<path fill-rule="evenodd" clip-rule="evenodd" d="M367.727 257.11L288.127 266.404C287.452 266.481 286.835 265.994 286.757 265.318L286.696 264.808C286.618 264.132 287.106 263.515 287.781 263.434L367.381 254.144C368.057 254.066 368.677 254.554 368.755 255.23L368.813 255.74C368.894 256.416 368.406 257.033 367.727 257.11Z" fill="#7C9AF2"/>
<path fill-rule="evenodd" clip-rule="evenodd" d="M325.969 268.53L289.17 272.824C288.42 272.912 287.735 272.372 287.648 271.619L287.619 271.38C287.531 270.63 288.074 269.945 288.824 269.858L325.623 265.563C326.373 265.476 327.058 266.016 327.145 266.769L327.175 267.008C327.262 267.758 326.719 268.443 325.969 268.53Z" fill="#7C9AF2"/>
<path fill-rule="evenodd" clip-rule="evenodd" d="M379.107 317.657L292.463 327.665C290.204 327.927 288.146 326.295 287.884 324.036L285.457 303.029C285.195 300.77 286.831 298.708 289.089 298.45L375.734 288.442C377.993 288.18 380.051 289.815 380.313 292.071L382.74 313.079C383.001 315.337 381.366 317.399 379.107 317.657Z" fill="#DDE7FE"/>
<path fill-rule="evenodd" clip-rule="evenodd" d="M293.875 334.012L296.059 327.251L303.598 326.379L293.875 334.012Z" fill="#DDE7FE"/>
<path fill-rule="evenodd" clip-rule="evenodd" d="M372.415 298.476L292.815 307.766C292.137 307.847 291.519 307.356 291.442 306.68L291.384 306.173C291.303 305.494 291.791 304.877 292.47 304.8L372.066 295.509C372.745 295.428 373.362 295.916 373.44 296.595L373.501 297.102C373.578 297.778 373.091 298.398 372.415 298.476Z" fill="#7C9AF2"/>
<path fill-rule="evenodd" clip-rule="evenodd" d="M373.141 304.719L293.541 314.009C292.866 314.09 292.249 313.599 292.168 312.923L292.11 312.416C292.032 311.741 292.52 311.12 293.195 311.043L372.795 301.752C373.471 301.672 374.088 302.16 374.169 302.838L374.227 303.345C374.308 304.021 373.816 304.641 373.141 304.719Z" fill="#7C9AF2"/>
<path fill-rule="evenodd" clip-rule="evenodd" d="M331.379 316.139L294.58 320.433C293.83 320.52 293.145 319.978 293.058 319.228L293.029 318.989C292.941 318.239 293.484 317.554 294.234 317.463L331.034 313.169C331.783 313.082 332.468 313.625 332.556 314.374L332.585 314.613C332.672 315.363 332.129 316.048 331.379 316.139Z" fill="#7C9AF2"/>
<path fill-rule="evenodd" clip-rule="evenodd" d="M371.112 120.473L207.726 138.196L206.639 128.33C205.492 117.92 213 108.55 223.41 107.4L353.139 93.0843C361.295 92.1856 368.64 98.0707 369.542 106.23L371.112 120.473Z" fill="#7C9AF2"/>
<path fill-rule="evenodd" clip-rule="evenodd" d="M355.417 368.746L272.589 377.885L250.327 380.341C249.293 380.457 248.272 380.451 247.28 380.334C242.122 379.74 237.728 376.188 236.062 371.254C235.756 370.349 235.543 369.396 235.435 368.407L220.6 233.963L220.584 233.821L208.568 124.919C207.749 117.512 213.091 110.844 220.501 110.025L352.473 95.4622C359.879 94.6466 366.546 99.9891 367.366 107.399L394.233 350.886C395.05 358.296 389.705 364.962 382.299 365.78L355.417 368.746ZM398.789 350.385L371.92 106.895C370.827 96.9703 361.892 89.8139 351.969 90.9078L219.997 105.471C210.076 106.564 202.916 115.497 204.013 125.422L230.88 368.911C231.974 378.838 240.907 385.993 250.831 384.897L274.773 382.254L354.276 373.487V373.484L354.638 373.445L382.803 370.336C392.724 369.241 399.884 360.306 398.789 350.385Z" fill="#050521"/>
<path fill-rule="evenodd" clip-rule="evenodd" d="M233.848 128.467C233.728 127.268 232.659 126.393 231.46 126.513C230.261 126.633 229.387 127.702 229.507 128.901C229.627 130.1 230.696 130.975 231.895 130.854C233.094 130.734 233.968 129.666 233.848 128.467Z" fill="white"/>
<path fill-rule="evenodd" clip-rule="evenodd" d="M235.334 125.963C235.156 125.981 234.971 125.933 234.818 125.815C233.57 124.855 232.339 124.45 231.156 124.615C229.316 124.87 228.14 126.427 228.129 126.443C227.89 126.765 227.435 126.833 227.112 126.596C226.79 126.358 226.72 125.905 226.957 125.582C227.018 125.498 228.487 123.526 230.938 123.177C232.525 122.951 234.13 123.451 235.705 124.663C236.023 124.908 236.083 125.364 235.837 125.683C235.711 125.848 235.526 125.943 235.334 125.963Z" fill="white"/>
<path fill-rule="evenodd" clip-rule="evenodd" d="M237.27 122.602C237.092 122.62 236.907 122.573 236.754 122.455C234.681 120.86 232.62 120.191 230.631 120.471C227.536 120.905 225.582 123.506 225.563 123.532C225.325 123.854 224.87 123.924 224.547 123.686C224.224 123.449 224.153 122.995 224.39 122.672C224.483 122.545 226.706 119.561 230.411 119.033C232.81 118.692 235.241 119.455 237.641 121.302C237.959 121.547 238.019 122.004 237.774 122.322C237.646 122.487 237.462 122.583 237.27 122.602Z" fill="white"/>
<path fill-rule="evenodd" clip-rule="evenodd" d="M239.337 119.31C239.159 119.328 238.974 119.28 238.822 119.163C235.88 116.899 232.947 115.953 230.104 116.355C225.688 116.976 222.915 120.677 222.887 120.714C222.65 121.038 222.195 121.107 221.871 120.87C221.548 120.632 221.478 120.178 221.714 119.854C221.84 119.682 224.857 115.632 229.885 114.917C233.136 114.454 236.44 115.495 239.709 118.01C240.027 118.255 240.086 118.712 239.841 119.03C239.714 119.195 239.53 119.291 239.337 119.31Z" fill="white"/>
<path fill-rule="evenodd" clip-rule="evenodd" d="M411.138 285.925C411.138 285.925 362.014 264.468 332.061 250.133C329.929 249.112 319.937 248.285 313.859 247.952C290.709 246.682 272.49 247.06 272.322 249.028C270.347 272.547 309.648 275.671 315.995 279.262C339.833 292.74 375.621 323.17 369.569 336.345C367.349 341.176 363.833 345.965 362.114 349.949C346.832 385.327 353.528 389.101 392.163 403.319C425.146 415.457 432.931 374.767 432.931 374.767L421.821 339.641L411.138 285.925Z" fill="#F9A58F"/>
<path fill-rule="evenodd" clip-rule="evenodd" d="M291.005 259.543L273.317 254.619C271.381 254.079 269.843 251.898 270.777 250.114C272.25 247.293 273.181 244.989 277.101 245.319L296.392 247.215C298.328 247.755 297.707 249.103 297.168 251.041L295.51 257.003C294.97 258.939 292.944 260.083 291.005 259.543Z" fill="#FA7267"/>
<path d="M361.065 412.529C361.065 412.529 345.415 405.62 354.275 373.484" stroke="#DB7D6B" stroke-width="1.912"/>
<path fill-rule="evenodd" clip-rule="evenodd" d="M121.336 12.6768C120.642 12.5298 119.884 12.3921 119.253 12.7137C118.513 13.0937 118.202 13.9639 117.685 14.6176C116.195 16.4974 113.354 16.2809 110.959 16.1581C108.564 16.0356 105.535 16.6732 105.013 19.0143C104.895 19.5456 104.925 20.1382 104.626 20.5958C104.435 20.8898 104.129 21.0902 103.821 21.2576C101.905 22.3078 99.6301 22.4141 97.5439 23.0598C95.4584 23.7093 93.3279 25.2743 93.2781 27.4564C93.2548 28.4821 93.7047 29.4874 93.6058 30.5085C93.4487 32.1268 92.0082 33.2711 90.6871 34.2189C88.2119 35.9965 85.7359 37.7738 83.26 39.5514C82.2757 40.2584 81.2329 41.0427 80.861 42.1992C80.185 44.2912 82.0095 46.3997 81.993 48.5981C81.9726 51.2989 79.3219 53.1499 78.1463 55.5812C76.5735 58.8298 78.1857 63.2345 81.4869 64.6974C82.2518 65.0364 83.1172 65.2613 83.6691 65.8905C84.562 66.9077 84.2427 68.4485 84.1884 69.8008C84.0714 72.7062 85.5634 75.6316 87.9883 77.2418C92.7575 80.4086 99.1635 78.1408 104.821 79.0275C108.268 79.5627 111.407 81.2869 114.761 82.2512C118.675 83.3751 122.887 83.4362 126.833 82.4312C127.275 82.3165 127.725 82.1859 128.085 81.908C128.979 81.2094 129.017 79.9058 129.422 78.8475C130.627 75.7011 134.787 75.1618 138.153 75.26C141.518 75.3579 145.595 75.219 147.261 72.2935C148.143 70.7447 148.062 68.7671 149.032 67.2716C150.206 65.4613 152.583 64.8364 154.065 63.263C156.12 61.085 155.987 57.6529 155.296 54.7352C154.605 51.8179 153.481 48.8676 154 45.9134C154.344 43.9603 155.383 42.2073 155.981 40.3153C156.578 38.4236 156.64 36.1312 155.274 34.6929C153.613 32.9441 150.74 33.2792 148.573 32.2209C143.493 29.7365 144.184 20.9881 138.973 18.7936C137.948 18.3648 136.821 18.2666 135.728 18.0623C132.798 17.5107 130.847 16.0072 128.332 14.6218C126.197 13.4449 123.738 13.1793 121.336 12.6768Z" fill="#060633"/>
<path fill-rule="evenodd" clip-rule="evenodd" d="M137.376 47.4582C137.376 47.4582 139.399 46.0606 140.085 47.2333C141.833 50.2243 138.278 51.7486 136.359 51.6342L137.376 47.4582Z" fill="#E58876"/>
<path fill-rule="evenodd" clip-rule="evenodd" d="M140.751 40.6667L140.734 40.6625C140.821 40.4663 140.909 40.2702 140.99 40.0659C144.558 31.1501 139.903 20.9795 130.62 17.9558C122.887 15.4347 114.322 18.9611 110.615 26.2018C109.238 28.8903 108.664 31.7385 108.774 34.5046C108.754 39.7799 108.795 44.1194 109.382 47.7235C110.351 53.6728 109.259 59.7693 106.251 64.9871L105.887 65.6204C113.108 73.7478 118.864 70.814 118.864 70.814L121.775 63.5407C122.154 62.5968 123.136 62.0329 124.142 62.1922C134.984 63.9165 138.719 45.7416 140.751 40.6667Z" fill="#F9A58F"/>
<path fill-rule="evenodd" clip-rule="evenodd" d="M128.925 54.4165C128.925 54.4165 127.939 53.2641 127.177 53.2926C126.415 53.3255 125.819 54.0978 125.819 54.0978C125.819 54.0978 125.592 53.1375 124.723 52.921C123.854 52.7044 121.254 52.8024 121.254 52.8024C121.254 52.8024 122.648 57.0397 125.404 56.999C128.16 56.958 128.858 54.5309 128.858 54.5309L128.925 54.4165Z" fill="#EA6868"/>
<path fill-rule="evenodd" clip-rule="evenodd" d="M122.24 42.661C122.589 41.7905 122.166 40.8016 121.295 40.4543C120.424 40.1069 119.435 40.5279 119.087 41.3982C118.739 42.2726 119.162 43.2575 120.033 43.6088C120.903 43.9562 121.892 43.5312 122.24 42.661Z" fill="#240D39"/>
<path fill-rule="evenodd" clip-rule="evenodd" d="M135.545 45.6967C135.893 44.8261 135.47 43.8373 134.599 43.4902C133.729 43.1387 132.74 43.5636 132.392 44.4338C132.043 45.3044 132.466 46.2932 133.337 46.6406C134.208 46.9918 135.196 46.5669 135.545 45.6967Z" fill="#240D39"/>
<path fill-rule="evenodd" clip-rule="evenodd" d="M126.131 55.3603C122.994 55.2989 120.604 52.4184 120.573 52.3774C120.502 52.2917 120.515 52.1651 120.602 52.0953C120.689 52.0219 120.817 52.0384 120.887 52.124C121.044 52.316 124.776 56.8028 128.972 54.1139C129.066 54.0529 129.192 54.0813 129.252 54.1753C129.313 54.2694 129.285 54.396 129.19 54.4532C128.131 55.1315 127.095 55.3807 126.131 55.3603Z" fill="#240D39"/>
<path fill-rule="evenodd" clip-rule="evenodd" d="M118.435 37.5122C118.286 37.4263 118.175 37.2793 118.142 37.0954C118.084 36.7726 118.3 36.462 118.626 36.401C118.723 36.3845 121.051 36.0003 123.319 37.4263C123.599 37.6021 123.684 37.974 123.508 38.2519C123.333 38.5337 122.937 38.6074 122.683 38.4439C120.792 37.255 118.856 37.5775 118.837 37.5817C118.693 37.6063 118.552 37.5775 118.435 37.5122Z" fill="#240D39"/>
<path fill-rule="evenodd" clip-rule="evenodd" d="M133.236 41.092C133.087 41.0063 132.975 40.8548 132.943 40.6751C132.885 40.3481 133.101 40.0375 133.427 39.9807C133.524 39.9642 135.831 39.5677 138.119 41.0063C138.4 41.1818 138.484 41.5495 138.309 41.8316C138.133 42.1134 137.752 42.1913 137.483 42.0194C135.591 40.8305 133.658 41.1572 133.638 41.1572C133.494 41.186 133.354 41.1572 133.236 41.092Z" fill="#240D39"/>
<path fill-rule="evenodd" clip-rule="evenodd" d="M126.64 50.0689C126.123 49.7745 125.843 49.411 125.838 49.4029C125.738 49.272 125.765 49.0843 125.897 48.9818C126.03 48.8839 126.218 48.9124 126.316 49.0432C126.361 49.1004 127.298 50.2896 128.956 49.6562C129.284 49.5292 129.387 49.4233 129.416 49.358C129.475 49.2229 129.363 48.9411 129.223 48.5857C128.873 47.7032 128.287 46.2238 128.926 43.6454C128.965 43.4819 129.128 43.384 129.288 43.4247C129.45 43.4655 129.547 43.6293 129.507 43.7886C128.914 46.1831 129.434 47.4947 129.779 48.365C129.972 48.8513 130.123 49.2352 129.964 49.599C129.85 49.8563 129.607 50.0443 129.17 50.2117C128.071 50.637 127.21 50.3959 126.64 50.0689Z" fill="#E58876"/>
<path fill-rule="evenodd" clip-rule="evenodd" d="M112.435 39.9516C112.948 39.2365 113.132 38.3252 113.67 37.6308C115.036 35.8654 117.806 36.323 119.841 35.4117C122.354 34.2801 123.727 31.0357 126.457 30.668C127.665 30.5003 128.99 30.9498 130.064 30.3736C130.843 29.9571 131.267 29.1069 131.808 28.4083C132.348 27.7096 133.24 27.0924 134.064 27.4114C134.437 27.5542 134.717 27.8689 134.94 28.1998C136.436 30.4308 135.91 33.7408 137.839 35.6079C138.457 36.2047 139.256 36.5725 139.962 37.0585C141.926 38.4234 143.114 40.8341 143 43.2205C144.93 42.5299 145.737 40.1477 145.516 38.1129C145.294 36.0739 144.333 34.1983 143.821 32.2165C143.309 30.2389 143.248 28.1672 142.797 26.1731C142.344 24.1832 141.398 22.1606 139.642 21.1146C138.189 20.2521 136.405 20.1749 134.835 19.5496C133.458 19.0019 132.289 18.046 131.003 17.3102C127.26 15.161 122.453 14.9936 118.568 16.8691C117.196 17.5351 115.949 18.426 114.709 19.3166C111.945 21.2943 109.18 23.2761 106.416 25.2579C105.088 26.2057 103.718 27.2068 102.928 28.637C101.585 31.0684 102.242 34.0675 102.934 36.7602C103.271 38.0761 103.728 39.5428 104.941 40.1516C107.24 41.3039 110.59 42.5177 112.435 39.9516Z" fill="#060633"/>
<path fill-rule="evenodd" clip-rule="evenodd" d="M111.767 40.7488C111.716 40.1439 111.433 39.5884 110.996 39.1715C110.098 38.3094 108.397 37.0795 106.579 37.8599C103.91 39.0041 105.722 45.5908 110.517 44.5977C110.517 44.5977 112.032 43.9482 111.767 40.7488Z" fill="#F9A58F"/>
<path fill-rule="evenodd" clip-rule="evenodd" d="M154.674 228.036C140.686 223.704 122.119 220.154 99.9391 220.969C96.4136 221.099 92.8942 221.111 89.4023 221.003C89.9029 209.586 90.385 198.564 90.765 189.829C91.241 178.823 91.5593 171.438 91.5593 171.438L98.1779 154.159H133.839L141.561 157.1L149.526 185.043C149.526 185.043 149.786 186.659 150.206 189.548C151.22 196.55 153.179 211.026 154.674 228.036Z" fill="#060633"/>
<path fill-rule="evenodd" clip-rule="evenodd" d="M74.3084 182.741C74.3084 182.741 79.2273 188.993 80.5034 191.649C81.7795 194.301 84.986 195.923 83.7865 197.137C82.5874 198.35 78.3138 194.636 78.3138 194.636C78.3138 194.636 78.1677 200.622 78.403 202.469C78.6382 204.316 78.2181 207.724 76.88 208.002C75.5419 208.28 75.0339 199.327 75.0339 199.327C75.0339 199.327 74.7211 206.907 73.541 207.425C72.3608 207.944 71.342 198.244 71.342 198.244C71.342 198.244 71.403 206.347 70.8537 206.984C70.3043 207.622 69.4642 206.947 68.7462 204.083C68.0278 201.219 68.0327 198.113 68.0327 198.113C68.0327 198.113 67.6494 203.805 67.3647 204.476C67.0803 205.142 66.202 205.852 65.5861 201.501C64.9709 197.149 65.1767 187.522 67.2316 182.749L74.3084 182.741Z" fill="#F9A58F"/>
<path fill-rule="evenodd" clip-rule="evenodd" d="M100.386 69.601C100.386 69.601 99.9066 59.7247 108.523 59.8146C108.523 59.8146 111.835 69.8785 120.473 66.7977C120.473 66.7977 123.456 67.1205 123.64 69.601C123.823 72.0853 123.64 75.9423 123.64 75.9423C123.64 75.9423 139.909 74.5654 148.732 88.5359C157.555 102.506 175.018 137.986 149.835 142.211C149.835 142.211 148.547 155.814 149.651 160.778C150.754 165.743 153.144 186.697 152.592 188.535C152.041 190.374 117.114 195.519 110.312 191.11C103.511 186.697 106.269 164.824 102.041 164.088C97.8127 163.353 97.6288 188.719 92.2982 189.639C86.967 190.558 86.5993 188.535 87.1509 181.916C87.7018 175.3 88.9892 124.383 87.8863 120.89C86.7831 117.396 82.1874 145.889 80.9006 159.307C79.6145 172.726 79.2465 183.755 79.2465 183.755C79.2465 183.755 69.8714 185.226 64.3567 183.387C64.3567 183.387 60.3128 147.176 66.0108 120.706C71.7098 94.2361 75.7536 77.6912 100.386 69.601Z" fill="#7C9AF2"/>
<path fill-rule="evenodd" clip-rule="evenodd" d="M149.529 141.516C149.474 141.516 149.428 141.475 149.426 141.418C149.417 141.197 148.577 119.136 149.426 111.136C149.432 111.079 149.484 111.038 149.539 111.042C149.596 111.05 149.636 111.099 149.631 111.156C148.784 119.145 149.623 141.189 149.632 141.41C149.633 141.467 149.589 141.516 149.532 141.516C149.531 141.516 149.53 141.516 149.529 141.516Z" fill="#272035"/>
<path fill-rule="evenodd" clip-rule="evenodd" d="M139.059 116.665C139.059 116.665 141.834 110.307 145.431 107.843C149.029 105.375 151.804 106.351 151.804 106.351L155.706 103.916C155.706 103.916 157.971 116.289 148.58 121.854C147.797 122.32 139.059 116.665 139.059 116.665Z" fill="#F9A58F"/>
<path fill-rule="evenodd" clip-rule="evenodd" d="M144.691 90.2844L158.085 94.1579C158.313 94.2235 158.443 94.4604 158.377 94.6891L150.442 122.123C150.376 122.352 150.138 122.483 149.911 122.418L136.517 118.544C136.289 118.479 136.158 118.238 136.224 118.013L144.16 90.5746C144.225 90.35 144.463 90.2191 144.691 90.2844Z" fill="#060633"/>
<path fill-rule="evenodd" clip-rule="evenodd" d="M157.357 107.172C157.776 107.172 158.195 107.021 158.526 106.711C159.217 106.065 159.254 104.982 158.609 104.292L155.731 101.207C155.085 100.516 154.001 100.479 153.31 101.125C152.618 101.77 152.581 102.853 153.226 103.544L156.104 106.629C156.442 106.989 156.899 107.172 157.357 107.172Z" fill="#F9A58F"/>
<path fill-rule="evenodd" clip-rule="evenodd" d="M156.267 110.017C156.685 110.017 157.105 109.865 157.435 109.555C158.127 108.909 158.164 107.826 157.519 107.136L154.641 104.051C153.996 103.36 152.911 103.323 152.22 103.969C151.528 104.615 151.491 105.697 152.136 106.388L155.014 109.473C155.351 109.833 155.809 110.017 156.267 110.017Z" fill="#F9A58F"/>
<path fill-rule="evenodd" clip-rule="evenodd" d="M155.111 112.636C155.529 112.636 155.949 112.484 156.279 112.178C156.97 111.532 157.009 110.445 156.363 109.755L153.485 106.674C152.839 105.983 151.755 105.943 151.064 106.588C150.372 107.234 150.334 108.317 150.98 109.011L153.858 112.092C154.195 112.456 154.652 112.636 155.111 112.636Z" fill="#F9A58F"/>
<path fill-rule="evenodd" clip-rule="evenodd" d="M153.298 114.356C153.559 114.356 153.82 114.266 154.035 114.086C154.517 113.678 154.577 112.959 154.17 112.477L151.546 109.375C151.138 108.889 150.418 108.832 149.936 109.24C149.454 109.645 149.394 110.368 149.801 110.846L152.425 113.952C152.651 114.217 152.974 114.356 153.298 114.356Z" fill="#F9A58F"/>
<path fill-rule="evenodd" clip-rule="evenodd" d="M108.575 122.475C105.808 122.475 102.716 121.874 99.4627 120.211C99.2604 120.109 99.18 119.864 99.2834 119.659C99.3871 119.455 99.6359 119.378 99.8373 119.48C110.988 125.176 120.132 117.886 120.223 117.813C120.399 117.67 120.659 117.694 120.802 117.87C120.946 118.046 120.92 118.307 120.744 118.45C120.675 118.507 115.697 122.475 108.575 122.475Z" fill="#272035"/>
<path fill-rule="evenodd" clip-rule="evenodd" d="M262.989 234.187C260.763 236.943 257.758 239.131 254.158 240.368C249.304 242.042 244.237 241.693 239.884 239.767C235.087 237.644 231.152 233.606 229.311 228.257C225.793 218.051 231.214 206.926 241.42 203.408C251.628 199.89 262.753 205.311 266.272 215.517C268.547 222.127 267.077 229.118 262.989 234.187Z" fill="#DDE7FE"/>
<path fill-rule="evenodd" clip-rule="evenodd" d="M265.851 287.673C264.157 289.017 262.209 290.106 260.05 290.849C252.453 293.467 244.345 291.134 239.246 285.559C237.497 283.643 236.099 281.346 235.201 278.738C231.683 268.53 237.104 257.407 247.312 253.888C257.52 250.369 268.642 255.792 272.162 266C274.934 274.046 272.152 282.661 265.851 287.673Z" fill="#DDE7FE"/>
<path fill-rule="evenodd" clip-rule="evenodd" d="M275.811 333.727C275.462 334.257 275.081 334.771 274.674 335.262C272.89 337.44 270.615 339.253 267.946 340.513C267.3 340.817 266.631 341.092 265.939 341.331C264.417 341.854 262.869 342.181 261.334 342.323C258.336 342.594 255.369 342.165 252.642 341.131C250.645 340.371 248.78 339.289 247.126 337.928C244.437 335.711 242.309 332.755 241.092 329.22C237.574 319.011 242.995 307.889 253.201 304.37C263.409 300.851 274.535 306.276 278.054 316.481C280.125 322.492 279.094 328.822 275.811 333.727Z" fill="#DDE7FE"/>
</svg>
