<svg width="70" height="197" viewBox="0 0 70 197" fill="none" xmlns="http://www.w3.org/2000/svg">
<path fill-rule="evenodd" clip-rule="evenodd" d="M76.5176 158.997C76.553 158.994 76.5882 158.987 76.6235 158.976C76.9056 158.888 77.0635 158.589 76.9758 158.308C54.0619 84.7727 33.3516 32.8981 18.6594 12.2395C18.3333 11.7806 18.0977 11.4497 18.0073 11.2816C17.8676 11.0215 17.5424 10.9246 17.2828 11.0631C17.0219 11.2024 16.924 11.5258 17.0635 11.7857C17.1855 12.0123 17.4116 12.3304 17.7861 12.8566C32.4144 33.4259 53.0721 85.1939 75.9533 158.624C76.03 158.871 76.2696 159.022 76.5176 158.997Z" fill="#BDD1F9"/>
<mask id="mask0" mask-type="alpha" maskUnits="userSpaceOnUse" x="8" y="0" width="13" height="15">
<path fill-rule="evenodd" clip-rule="evenodd" d="M20.9492 0.185547H8.21607V14.9593H20.9492V0.185547Z" fill="white"/>
</mask>
<g mask="url(#mask0)">
<path fill-rule="evenodd" clip-rule="evenodd" d="M9.30155 8.75486C11.1036 11.1249 20.1022 15.4243 20.7898 14.9184C21.4772 14.4123 19.8272 4.70502 18.0253 2.33502C16.2233 -0.0349872 12.8098 -0.519318 10.4007 1.25361C7.99179 3.02634 7.49951 6.38466 9.30155 8.75486Z" fill="#BDD1F9"/>
</g>
<path fill-rule="evenodd" clip-rule="evenodd" d="M26.2092 15.9572C25.3616 18.8666 27.3086 28.7529 28.1415 28.9942C28.9748 29.2352 35.9323 21.9269 36.7801 19.0174C37.6281 16.108 35.9489 13.0644 33.03 12.2191C30.1108 11.3741 27.0572 13.0476 26.2092 15.9572Z" fill="#BDD1F9"/>
<path fill-rule="evenodd" clip-rule="evenodd" d="M16.0475 32.995C18.9949 33.1638 27.953 29.0348 27.9998 28.1691C28.0464 27.3031 19.5882 22.1773 16.6412 22.0086C13.694 21.84 11.172 24.1627 11.0084 27.1965C10.8444 30.2302 13.1006 32.8263 16.0475 32.995Z" fill="#BDD1F9"/>
<path fill-rule="evenodd" clip-rule="evenodd" d="M51.9055 63.7394C50.0376 68.4709 51.4358 85.4236 52.7303 85.9797C54.0248 86.5358 66.4609 75.5272 68.3286 70.7957C70.1962 66.0641 68.034 60.649 63.4987 58.7005C58.9636 56.752 53.7731 59.0078 51.9055 63.7394Z" fill="#BDD1F9"/>
<path fill-rule="evenodd" clip-rule="evenodd" d="M32.4299 90.9132C37.2652 91.7236 52.7696 86.6259 52.9971 85.2235C53.2249 83.8212 40.1542 73.9323 35.3193 73.1217C30.4841 72.3109 25.9175 75.6366 25.1197 80.5495C24.322 85.4624 27.5946 90.1023 32.4299 90.9132Z" fill="#BDD1F9"/>
<path fill-rule="evenodd" clip-rule="evenodd" d="M65.1563 81.7167C61.6906 86.7304 58.9713 106.92 60.3789 107.926C61.7864 108.931 79.5489 99.4906 83.0145 94.4767C86.4802 89.463 85.2922 82.5421 80.3606 79.0185C75.4292 75.495 68.6221 76.7031 65.1563 81.7167Z" fill="#BDD1F9"/>
<path fill-rule="evenodd" clip-rule="evenodd" d="M36.3405 116.988C42.4075 117.355 60.8948 109.188 60.9995 107.457C61.1044 105.725 43.7376 95.3877 37.6706 95.0205C31.6038 94.6531 26.3879 99.2733 26.0204 105.339C25.6534 111.405 30.2737 116.621 36.3405 116.988Z" fill="#BDD1F9"/>
<path fill-rule="evenodd" clip-rule="evenodd" d="M73.1563 105.717C69.6905 110.731 66.9712 130.92 68.379 131.926C69.7863 132.931 87.549 123.49 91.0144 118.477C94.4804 113.463 93.2921 106.542 88.3607 103.019C83.4293 99.4949 76.6221 100.703 73.1563 105.717Z" fill="#BDD1F9"/>
<path fill-rule="evenodd" clip-rule="evenodd" d="M44.3406 140.988C50.4075 141.355 68.8944 133.188 68.9995 131.457C69.1042 129.725 51.7374 119.388 45.6706 119.02C39.6036 118.653 34.3879 123.273 34.0205 129.339C33.6532 135.405 38.2736 140.621 44.3406 140.988Z" fill="#BDD1F9"/>
<path fill-rule="evenodd" clip-rule="evenodd" d="M52.0683 164.856C58.1044 165.981 77.6713 160.179 77.9952 158.472C78.3191 156.764 62.2135 144.316 56.1773 143.192C50.1413 142.067 44.3279 146.005 43.1934 151.988C42.0587 157.971 46.0322 163.732 52.0683 164.856Z" fill="#BDD1F9"/>
<path fill-rule="evenodd" clip-rule="evenodd" d="M34.2094 29.957C33.3614 32.8666 35.3083 42.7529 36.1414 42.9942C36.9747 43.2354 43.9323 35.927 44.7801 33.0174C45.628 30.1079 43.9491 27.0642 41.0298 26.2192C38.1108 25.374 35.0572 27.0475 34.2094 29.957Z" fill="#BDD1F9"/>
<path fill-rule="evenodd" clip-rule="evenodd" d="M24.0476 47.995C26.9947 48.1638 35.9528 44.0349 35.9998 43.169C36.0466 42.3031 27.5882 37.1775 24.6414 37.0087C21.6942 36.8398 19.1722 39.1627 19.0084 42.1963C18.8446 45.2303 21.1006 47.8263 24.0476 47.995Z" fill="#BDD1F9"/>
<path fill-rule="evenodd" clip-rule="evenodd" d="M43.6451 44.8644C42.0813 48.7647 43.706 62.5608 44.8749 62.9858C46.0438 63.4109 56.9115 54.1581 58.4755 50.2581C60.0395 46.3579 57.9874 41.9889 53.8922 40.4994C49.7967 39.0101 45.2089 40.9644 43.6451 44.8644Z" fill="#BDD1F9"/>
<path fill-rule="evenodd" clip-rule="evenodd" d="M28.1264 69.9927C32.2869 70.2381 44.9336 64.2324 44.9997 62.9729C45.0657 61.7135 33.1246 54.2579 28.9641 54.0126C24.8036 53.767 21.2432 57.1454 21.0118 61.5582C20.7805 65.971 23.9657 69.7471 28.1264 69.9927Z" fill="#BDD1F9"/>
<mask id="mask1" mask-type="alpha" maskUnits="userSpaceOnUse" x="1" y="91" width="84" height="106">
<path fill-rule="evenodd" clip-rule="evenodd" d="M84 91.1401H1.14315V196.798H84V91.1401Z" fill="white"/>
</mask>
<g mask="url(#mask1)">
<path fill-rule="evenodd" clip-rule="evenodd" d="M78.731 194.413C78.731 194.413 114.188 134.039 1.14314 91.1401C1.14314 91.1401 3.33784 215.385 78.731 194.413Z" fill="#7C9AF2"/>
</g>
<path fill-rule="evenodd" clip-rule="evenodd" d="M1 91L81.9561 186C87.1602 168.17 89.1079 124.307 1 91Z" fill="#91B5F8"/>
<mask id="mask2" mask-type="alpha" maskUnits="userSpaceOnUse" x="0" y="90" width="78" height="92">
<path fill-rule="evenodd" clip-rule="evenodd" d="M77.918 90.1074H0.244423V181.897H77.918V90.1074Z" fill="white"/>
</mask>
<g mask="url(#mask2)">
<path fill-rule="evenodd" clip-rule="evenodd" d="M77.7146 181.897C77.7611 181.897 77.8081 181.881 77.8461 181.849C77.9317 181.776 77.9423 181.647 77.8701 181.561L0.603226 90.1793C0.529716 90.0935 0.401352 90.0831 0.316505 90.1556C0.230377 90.2281 0.220139 90.3565 0.292549 90.4426L77.5592 181.825C77.5996 181.872 77.657 181.897 77.7146 181.897Z" fill="#060633"/>
</g>
<path fill-rule="evenodd" clip-rule="evenodd" d="M41.7931 138C41.8951 138 41.9843 137.923 41.9981 137.817C42.0136 137.702 41.9337 137.595 41.8203 137.58L8.23492 133.002C8.12262 132.987 8.01684 133.067 8.00192 133.183C7.98643 133.299 8.06646 133.405 8.1797 133.42L41.7651 137.998C41.7742 137.999 41.7837 138 41.7931 138Z" fill="#060633"/>
<path fill-rule="evenodd" clip-rule="evenodd" d="M57.7936 158C57.8071 158 57.8211 157.999 57.835 157.996C57.9464 157.974 58.0186 157.868 57.9958 157.759L51.408 126.161C51.3851 126.052 51.2734 125.982 51.165 126.004C51.0535 126.026 50.9817 126.132 51.0041 126.241L57.5919 157.839C57.612 157.935 57.6976 158 57.7936 158Z" fill="#060633"/>
</svg>
