<svg width="94" height="459" viewBox="0 0 94 459" fill="none" xmlns="http://www.w3.org/2000/svg">
<ellipse rx="147.5" ry="176.5" transform="matrix(-0.829038 0.559193 0.559193 0.829038 -127.152 229.236)" fill="#EBF1F9"/>
<path fill-rule="evenodd" clip-rule="evenodd" d="M-25.3824 254.404C-25.3649 254.426 -25.3453 254.446 -25.3231 254.464C-25.1453 254.612 -24.8814 254.589 -24.7339 254.411C13.8256 207.963 39.087 172.21 46.3971 153.737C46.5596 153.327 46.6766 153.031 46.7486 152.9C46.8599 152.697 46.7848 152.442 46.583 152.331C46.3801 152.219 46.1257 152.292 46.0144 152.495C45.9175 152.672 45.8049 152.956 45.6188 153.427C38.3402 171.82 13.1264 207.493 -25.3781 253.874C-25.5074 254.03 -25.5046 254.252 -25.3824 254.404Z" fill="#BDD1F9"/>
<mask id="mask0" mask-type="alpha" maskUnits="userSpaceOnUse" x="40" y="141" width="16" height="16">
<path fill-rule="evenodd" clip-rule="evenodd" d="M55.2988 150.098L49.8652 141.731L40.1539 148.037L45.5875 156.404L55.2988 150.098Z" fill="white"/>
</mask>
<g mask="url(#mask0)">
<path fill-rule="evenodd" clip-rule="evenodd" d="M44.6955 146.102C43.9066 148.298 44.9204 156.046 45.5464 156.282C46.1724 156.518 51.8492 151.29 52.6382 149.094C53.4271 146.898 52.2889 144.448 50.0954 143.622C47.9022 142.796 45.4846 143.906 44.6955 146.102Z" fill="#BDD1F9"/>
</g>
<path fill-rule="evenodd" clip-rule="evenodd" d="M47.1749 160.286C44.9008 160.971 39.2329 166.47 39.4298 167.121C39.6269 167.771 47.3999 169.223 49.6742 168.538C51.9485 167.853 53.2327 165.451 52.5427 163.172C51.8525 160.893 49.4494 159.601 47.1749 160.286Z" fill="#BDD1F9"/>
<path fill-rule="evenodd" clip-rule="evenodd" d="M31.639 160.882C32.7857 162.89 39.3225 167.014 39.9115 166.675C40.5007 166.336 40.2607 158.59 39.114 156.582C37.9672 154.573 35.3642 153.908 33.3002 155.095C31.236 156.282 30.4923 158.873 31.639 160.882Z" fill="#BDD1F9"/>
<path fill-rule="evenodd" clip-rule="evenodd" d="M26.7314 197.568C22.8241 198.36 12.2772 206.516 12.464 207.604C12.6509 208.692 25.1941 212.164 29.1013 211.372C33.0085 210.579 35.6453 206.847 34.9908 203.035C34.3364 199.223 30.6386 196.775 26.7314 197.568Z" fill="#BDD1F9"/>
<path fill-rule="evenodd" clip-rule="evenodd" d="M0.55847 196.37C2.0891 199.894 12.0562 207.905 13.0751 207.456C14.0941 207.007 15.0168 194.197 13.4865 190.674C11.9561 187.151 7.82135 185.57 4.2515 187.143C0.681643 188.716 -0.971786 192.847 0.55847 196.37Z" fill="#BDD1F9"/>
<path fill-rule="evenodd" clip-rule="evenodd" d="M20.5684 213.949C15.7938 213.812 1.36209 220.644 1.30166 221.998C1.24122 223.352 15.0267 230.994 19.8014 231.131C24.576 231.268 28.6184 227.533 28.8301 222.788C29.0419 218.044 25.343 214.086 20.5684 213.949Z" fill="#BDD1F9"/>
<path fill-rule="evenodd" clip-rule="evenodd" d="M-14.9119 210.071C-12.5644 214.214 0.693048 222.876 1.87598 222.205C3.05899 221.535 2.44326 205.711 0.0956923 201.567C-2.25167 197.424 -7.51448 195.969 -11.6587 198.317C-15.8027 200.665 -17.2594 205.927 -14.9119 210.071Z" fill="#BDD1F9"/>
<path fill-rule="evenodd" clip-rule="evenodd" d="M8.20703 229.451C3.43226 229.314 -10.9992 236.146 -11.0597 237.5C-11.12 238.854 2.66548 246.496 7.43997 246.633C12.2147 246.77 16.2569 243.035 16.4687 238.29C16.6806 233.546 12.9817 229.588 8.20703 229.451Z" fill="#BDD1F9"/>
<path fill-rule="evenodd" clip-rule="evenodd" d="M-4.00357 253.79C-8.34611 251.72 -24.0537 252.226 -24.592 253.465C-25.1302 254.704 -15.1745 267.44 -10.8321 269.51C-6.48955 271.579 -1.44078 269.738 0.445066 265.397C2.33059 261.056 0.338891 255.859 -4.00357 253.79Z" fill="#BDD1F9"/>
<path fill-rule="evenodd" clip-rule="evenodd" d="M41.386 171.519C39.1117 172.203 33.4438 177.703 33.6407 178.353C33.8377 179.004 41.6108 180.456 43.8851 179.771C46.1595 179.086 47.4438 176.684 46.7535 174.405C46.0635 172.126 43.6603 170.834 41.386 171.519Z" fill="#BDD1F9"/>
<path fill-rule="evenodd" clip-rule="evenodd" d="M25.1937 172.541C26.3403 174.55 32.8771 178.674 33.4663 178.335C34.0555 177.996 33.8153 170.25 32.6688 168.242C31.5221 166.233 28.919 165.567 26.855 166.755C24.7907 167.942 24.047 170.533 25.1937 172.541Z" fill="#BDD1F9"/>
<path fill-rule="evenodd" clip-rule="evenodd" d="M35.6134 184.082C32.3822 184.72 24.0069 191.677 24.2263 192.626C24.4457 193.576 35.1654 196.767 38.3964 196.13C41.6276 195.493 43.6238 192.279 42.8554 188.953C42.0867 185.626 38.8443 183.445 35.6134 184.082Z" fill="#BDD1F9"/>
<path fill-rule="evenodd" clip-rule="evenodd" d="M12.4745 184.612C14.0886 187.45 23.433 193.197 24.2892 192.703C25.1452 192.208 24.9504 181.179 23.3363 178.341C21.7223 175.502 17.9822 174.605 14.9828 176.336C11.9834 178.068 10.8604 181.773 12.4745 184.612Z" fill="#BDD1F9"/>
<mask id="mask1" mask-type="alpha" maskUnits="userSpaceOnUse" x="-38" y="203" width="97" height="104">
<path fill-rule="evenodd" clip-rule="evenodd" d="M1.00586 203.104L58.3257 233.581L19.4474 306.701L-37.8725 276.223L1.00586 203.104Z" fill="white"/>
</mask>
<g mask="url(#mask1)">
<path fill-rule="evenodd" clip-rule="evenodd" d="M-33.3499 276.511C-33.3499 276.511 -35.6632 221.687 58.3257 233.581C58.3257 233.581 11.0898 318.756 -33.3499 276.511Z" fill="#BDD1F9"/>
</g>
<path fill-rule="evenodd" clip-rule="evenodd" d="M58.4775 233.537L-32.484 269.502C-29.5234 255.249 -14.7309 224.178 58.4775 233.537Z" fill="#91B5F8"/>
<mask id="mask2" mask-type="alpha" maskUnits="userSpaceOnUse" x="-29" y="204" width="89" height="93">
<path fill-rule="evenodd" clip-rule="evenodd" d="M5.59375 204.625L59.3278 233.196L25.5526 296.718L-28.1815 268.147L5.59375 204.625Z" fill="white"/>
</mask>
<g mask="url(#mask2)">
<path fill-rule="evenodd" clip-rule="evenodd" d="M-28.114 268.14C-28.1464 268.059 -28.1065 267.966 -28.0249 267.933L59.0532 233.114C59.1356 233.082 59.2282 233.122 59.2602 233.203C59.2931 233.285 59.253 233.378 59.1712 233.411L-27.9068 268.23C-27.9522 268.248 -28.001 268.243 -28.0408 268.222C-28.073 268.205 -28.0996 268.177 -28.114 268.14Z" fill="#060633"/>
</g>
<path fill-rule="evenodd" clip-rule="evenodd" d="M14.3379 251.789C14.2714 251.753 14.2417 251.669 14.2718 251.591C14.3042 251.506 14.3953 251.46 14.4748 251.488L38.0268 259.947C38.1053 259.976 38.1446 260.068 38.1118 260.153C38.0793 260.239 37.9881 260.285 37.9088 260.256L14.3568 251.797C14.3504 251.795 14.344 251.792 14.3379 251.789Z" fill="#060633"/>
<path fill-rule="evenodd" clip-rule="evenodd" d="M-5.46602 259.013C-5.47537 259.008 -5.48458 259.002 -5.49326 258.995C-5.56208 258.938 -5.57298 258.838 -5.51716 258.771L10.6669 239.328C10.723 239.261 10.8262 239.253 10.8929 239.309C10.9618 239.365 10.9725 239.465 10.9169 239.532L-5.2672 258.975C-5.31636 259.034 -5.39965 259.048 -5.46602 259.013Z" fill="#060633"/>
</svg>
