<svg width="55" height="54" viewBox="0 0 55 54" fill="none" xmlns="http://www.w3.org/2000/svg">
<path fill-rule="evenodd" clip-rule="evenodd" d="M30.7964 52.5176C25.4282 52.5176 21.0605 48.1499 21.0605 42.7817V22.3169H23.487V42.7817C23.487 46.8121 26.766 50.0911 30.7964 50.0911H32.2175C36.2478 50.0911 39.5268 46.8121 39.5268 42.7817V33.2425H41.9533V42.7817C41.9533 48.1499 37.5856 52.5176 32.2175 52.5176H30.7964Z" fill="#282D33"/>
<path fill-rule="evenodd" clip-rule="evenodd" d="M7.25586 37.7936V17.7954C7.25586 13.6284 10.6464 10.2378 14.8151 10.2378H15.8706C20.0393 10.2378 23.4307 13.6284 23.4307 17.7954V24.9616H21.0042V17.7954C21.0042 14.9662 18.7015 12.6643 15.8706 12.6643H14.8151C11.9851 12.6643 9.68233 14.9662 9.68233 17.7954V37.7936H7.25586Z" fill="#282D33"/>
<path fill-rule="evenodd" clip-rule="evenodd" d="M8.31586 51.8324C4.62197 51.8324 1.61719 48.8268 1.61719 45.1329C1.61719 41.439 4.62197 38.4351 8.31586 38.4351C12.0098 38.4351 15.0153 41.439 15.0153 45.1329C15.0153 48.8268 12.0098 51.8324 8.31586 51.8324Z" fill="white"/>
<path fill-rule="evenodd" clip-rule="evenodd" d="M8.31632 39.2439C5.06809 39.2439 2.42647 41.8855 2.42647 45.1329C2.42647 48.3811 5.06809 51.0236 8.31632 51.0236C11.5646 51.0236 14.207 48.3811 14.207 45.1329C14.207 41.8855 11.5646 39.2439 8.31632 39.2439ZM8.31632 53.45C3.7311 53.45 0 49.7197 0 45.1329C0 40.5477 3.7311 36.8174 8.31632 36.8174C12.9024 36.8174 16.6335 40.5477 16.6335 45.1329C16.6335 49.7197 12.9024 53.45 8.31632 53.45Z" fill="#282D33"/>
<path fill-rule="evenodd" clip-rule="evenodd" d="M8.31548 48.1651C6.64364 48.1651 5.2832 46.8047 5.2832 45.1329C5.2832 43.461 6.64364 42.1006 8.31548 42.1006C9.98732 42.1006 11.3478 43.461 11.3478 45.1329C11.3478 46.8047 9.98732 48.1651 8.31548 48.1651Z" fill="#07A4FB"/>
<mask id="mask0" mask-type="alpha" maskUnits="userSpaceOnUse" x="48" y="0" width="7" height="17">
<path fill-rule="evenodd" clip-rule="evenodd" d="M48.2422 0.405273H54.5606V16.644H48.2422V0.405273Z" fill="white"/>
</mask>
<g mask="url(#mask0)">
<path fill-rule="evenodd" clip-rule="evenodd" d="M52.1342 16.644V7.11689C52.1342 4.88373 50.4228 3.04366 48.2422 2.83902V0.405273C51.7622 0.615568 54.5607 3.54513 54.5607 7.11689V16.644H52.1342Z" fill="#07A4FB"/>
</g>
<path fill-rule="evenodd" clip-rule="evenodd" d="M26.4883 16.7324V7.20527C26.4883 3.63351 29.2876 0.703946 32.8076 0.493652V2.9274C30.627 3.13203 28.9148 4.97211 28.9148 7.20527V16.7324H26.4883Z" fill="#07A4FB"/>
<path fill-rule="evenodd" clip-rule="evenodd" d="M30.7715 0.506861C31.4274 0.267449 32.1093 0.127523 32.8081 0.0878906V3.33289C32.5517 3.35958 32.3002 3.41054 32.0543 3.48738L30.7715 0.506861Z" fill="#282D33"/>
<path fill-rule="evenodd" clip-rule="evenodd" d="M37.7222 34.525C31.5703 34.525 26.5645 29.5209 26.5645 23.3689V17.4395H28.9909V23.3689C28.9909 28.1822 32.9081 32.0986 37.7222 32.0986H43.4042C48.2183 32.0986 52.1338 28.1822 52.1338 23.3689V17.4395H54.5603V23.3689C54.5603 29.5209 49.5561 34.525 43.4042 34.525H37.7222Z" fill="#282D33"/>
<path fill-rule="evenodd" clip-rule="evenodd" d="M49.0494 3.41566C48.7881 3.32993 48.518 3.2725 48.2422 3.245V0C48.9782 0.04125 49.694 0.194118 50.3791 0.456176L49.0494 3.41566Z" fill="#282D33"/>
</svg>
