<svg width="101" height="414" viewBox="0 0 101 414" fill="none" xmlns="http://www.w3.org/2000/svg">
<path fill-rule="evenodd" clip-rule="evenodd" d="M28.3058 1.07904C44.9023 4.50278 59.8566 16.4656 61.5583 42.4867C63.1696 67.1211 49.6881 91.5051 56.3556 115.907C63.2002 140.953 82.7366 149.521 75.6049 180.501C73.0641 191.537 68.9723 202.289 69.179 213.875C69.6134 238.145 86.6011 252.967 94.9031 272.011C105.617 296.582 101.651 330.44 87.3868 350.632C60.2661 389.031 14.2688 375.238 -19.9434 371.6C-39.8189 369.489 -57.7514 355.291 -62.7225 326.501C-68.4933 293.075 -53.3835 276.971 -43.9404 250.537C-34.7513 224.814 -46.0639 194.516 -46.337 165.782C-46.6416 133.656 -28.0409 116.02 -24.6248 86.5006C-22.1552 65.1542 -30.774 43.1641 -22.198 22.9994C-17.6574 12.3234 -9.25053 5.7285 -0.58712 2.86441C7.99937 0.0256183 18.4427 -0.955832 28.3058 1.07904Z" fill="#BDD1F9"/>
<path fill-rule="evenodd" clip-rule="evenodd" d="M17 458H21V155H17V458Z" fill="#91B5F8"/>
<path fill-rule="evenodd" clip-rule="evenodd" d="M17.3935 291L-16 218.635L-12.3935 217L21 289.365L17.3935 291Z" fill="#91B5F8"/>
<path fill-rule="evenodd" clip-rule="evenodd" d="M20.243 344L17 341.756L49.757 295L53 297.244L20.243 344Z" fill="#91B5F8"/>
</svg>
