<svg width="59" height="69" viewBox="0 0 59 69" fill="none" xmlns="http://www.w3.org/2000/svg">
<circle cx="33.5" cy="19.5" r="19.5" fill="white"/>
<path fill-rule="evenodd" clip-rule="evenodd" d="M49.5889 41.3417L48.2629 40.9113C46.0638 40.194 43.8007 41.7932 42.7194 43.8905L38.7422 49.9942C40.3582 50.7352 42.4201 50.9948 44.6788 50.7532L49.7528 41.4082C49.6969 41.384 49.6473 41.361 49.5889 41.3417Z" fill="#F4F3F5"/>
<path fill-rule="evenodd" clip-rule="evenodd" d="M47.1726 41.6688C45.8423 41.6688 44.3518 42.7575 43.5482 44.317L43.4923 44.4133L40.1535 49.5357L40.5845 49.6375C41.354 49.8183 42.1955 49.9102 43.0849 49.9102C43.3606 49.9102 43.6413 49.9009 43.9264 49.8835L44.0978 49.8723L48.4048 41.939L47.9769 41.7974C47.7142 41.7117 47.444 41.6688 47.1726 41.6688ZM43.0774 51.7733C41.2919 51.7733 39.7032 51.4597 38.3543 50.8411L37.373 50.3909L41.9067 43.4326C43.0712 41.2198 45.1325 39.8057 47.1726 39.8057C47.6397 39.8057 48.1042 39.8796 48.5526 40.0255L49.8773 40.4565C49.9562 40.4826 50.0202 40.5093 50.0872 40.5379L51.0319 40.9453L50.5679 41.8601L45.2648 51.628L44.7785 51.6802C44.1997 51.7417 43.627 51.7733 43.0774 51.7733Z" fill="#282D33"/>
<path fill-rule="evenodd" clip-rule="evenodd" d="M13.6172 62.141H22.1859L43.6451 54.1754L57.3939 44.7161C57.3554 44.6702 57.3213 44.6255 57.279 44.5832L56.2941 43.597C54.6563 41.9618 51.915 42.3605 50.0009 43.7386L41.8229 48.4487L38.6059 50.3193H24.8241L24.8266 49.061L33.3735 49.0809C35.5627 49.0176 37.2874 46.5793 37.2259 44.3876C37.2259 44.3876 37.1774 43.8901 37.1725 43.8342H21.9238L16.0275 49.0176H13.6172" fill="#F4F3F5"/>
<path fill-rule="evenodd" clip-rule="evenodd" d="M13.9277 63.0725V61.2093H22.0182L43.2122 53.3425L55.955 44.5757L55.6345 44.2552C55.1153 43.7367 54.3955 43.4628 53.5528 43.4628C52.5671 43.4628 51.443 43.8484 50.5456 44.4943L50.4512 44.5558L38.858 51.2508H23.8907L23.8969 48.1269L33.3754 48.1492C34.8044 48.1076 35.9695 46.5519 36.2347 45.1334L36.3036 44.7657H22.2747L16.3784 49.949H13.9277V48.0859H15.676L21.5729 42.9026H38.0271L38.1581 44.3794C38.2022 45.9731 37.4284 47.7331 36.1844 48.8454L35.5789 49.3876H38.355L41.3547 47.6431L49.4836 42.9616C50.7195 42.0902 52.1995 41.5996 53.5677 41.5996C54.9054 41.5996 56.0755 42.0623 56.9518 42.938L57.938 43.9248C57.9896 43.9764 58.0349 44.0292 58.0802 44.0844L58.7342 44.8769L57.9125 45.4899L44.0774 55.0088L22.3529 63.0725H13.9277Z" fill="#282D33"/>
<mask id="mask0" mask-type="alpha" maskUnits="userSpaceOnUse" x="0" y="46" width="12" height="23">
<path fill-rule="evenodd" clip-rule="evenodd" d="M0 46.981H11.3379V68.6693H0V46.981Z" fill="white"/>
</mask>
<g mask="url(#mask0)">
<path fill-rule="evenodd" clip-rule="evenodd" d="M0 46.981H11.3379V68.6694H0" fill="white"/>
</g>
<path fill-rule="evenodd" clip-rule="evenodd" d="M6.19531 66.1683H8.67952V63.6841H6.19531V66.1683Z" fill="#282D33"/>
<path fill-rule="evenodd" clip-rule="evenodd" d="M41.7028 21.7179L42.3186 21.0884C44.5605 18.8006 44.5605 15.0907 42.3186 12.8024L42.2352 12.7158C39.9933 10.4281 36.3587 10.4281 34.1169 12.7158L33.4996 13.3454L32.8834 12.7158C30.6425 10.4281 27.0078 10.4281 24.7651 12.7158L24.6807 12.8024C22.4398 15.0907 22.4398 18.8006 24.6807 21.0884L25.2974 21.7179L33.4996 30.0909L41.7028 21.7179Z" fill="#00A1FA"/>
</svg>
