<svg width="37" height="37" viewBox="0 0 37 37" fill="none" xmlns="http://www.w3.org/2000/svg">
<circle cx="18.5" cy="18.5" r="18.5" fill="#0098ED"/>
<path d="M24.3203 27H13.8408V24.7954L17.604 20.9912C18.7183 19.8496 19.4463 19.0601 19.7881 18.6226C20.1299 18.1782 20.376 17.7681 20.5264 17.3921C20.6768 17.0161 20.752 16.6265 20.752 16.2231C20.752 15.6216 20.5845 15.1738 20.2495 14.8799C19.9214 14.5859 19.4805 14.439 18.9268 14.439C18.3457 14.439 17.7817 14.5723 17.2349 14.8389C16.688 15.1055 16.1172 15.4849 15.5225 15.9771L13.7998 13.9365C14.5381 13.3076 15.1499 12.8633 15.6353 12.6035C16.1206 12.3438 16.6504 12.1455 17.2246 12.0088C17.7988 11.8652 18.4414 11.7935 19.1523 11.7935C20.0889 11.7935 20.916 11.9644 21.6338 12.3062C22.3516 12.6479 22.9087 13.1265 23.3052 13.7417C23.7017 14.3569 23.8999 15.061 23.8999 15.854C23.8999 16.5444 23.7769 17.1938 23.5308 17.8022C23.2915 18.4038 22.9155 19.0225 22.4028 19.6582C21.897 20.2939 21.0015 21.1997 19.7163 22.3755L17.7886 24.1904V24.334H24.3203V27Z" fill="white"/>
</svg>
