<svg width="37" height="37" viewBox="0 0 37 37" fill="none" xmlns="http://www.w3.org/2000/svg">
<circle cx="18.5" cy="18.5" r="18.5" fill="#0098ED"/>
<path d="M23.7358 15.3618C23.7358 16.2983 23.4521 17.0947 22.8848 17.751C22.3174 18.4072 21.521 18.8584 20.4956 19.1045V19.166C21.7056 19.3164 22.6216 19.6855 23.2437 20.2734C23.8657 20.8545 24.1768 21.6406 24.1768 22.6318C24.1768 24.0742 23.6538 25.1987 22.6079 26.0054C21.562 26.8052 20.0684 27.2051 18.127 27.2051C16.5 27.2051 15.0576 26.9351 13.7998 26.395V23.6982C14.3809 23.9922 15.02 24.2314 15.7173 24.416C16.4146 24.6006 17.105 24.6929 17.7886 24.6929C18.8345 24.6929 19.6069 24.5151 20.106 24.1597C20.605 23.8042 20.8545 23.2334 20.8545 22.4473C20.8545 21.7432 20.5674 21.2441 19.9932 20.9502C19.4189 20.6562 18.5029 20.5093 17.2451 20.5093H16.1069V18.0791H17.2656C18.4277 18.0791 19.2754 17.9287 19.8086 17.6279C20.3486 17.3203 20.6187 16.7974 20.6187 16.0591C20.6187 14.9243 19.9077 14.3569 18.4858 14.3569C17.9937 14.3569 17.4912 14.439 16.9785 14.603C16.4727 14.7671 15.9087 15.0508 15.2866 15.4541L13.8203 13.27C15.1875 12.2856 16.8179 11.7935 18.7114 11.7935C20.2632 11.7935 21.4868 12.1079 22.3823 12.7368C23.2847 13.3657 23.7358 14.2407 23.7358 15.3618Z" fill="white"/>
</svg>
