<svg width="179" height="170" viewBox="0 0 179 170" fill="none" xmlns="http://www.w3.org/2000/svg">
<path fill-rule="evenodd" clip-rule="evenodd" d="M11.161 77.9557C17.141 81.1755 39.7737 81.3942 40.7028 79.6539C41.631 77.914 28.9205 59.1022 22.9398 55.8821C16.9598 52.6623 9.47486 54.9926 6.22145 61.0879C2.96878 67.1835 5.18062 74.7348 11.161 77.9557Z" fill="#BDD1F9"/>
<path fill-rule="evenodd" clip-rule="evenodd" d="M133.334 5.48161C129.51 11.1712 126.865 33.8296 128.485 34.9237C130.105 36.0187 150.059 25.0541 153.884 19.3654C157.707 13.6758 156.207 5.95581 150.533 2.12197C144.858 -1.71187 137.158 -0.207961 133.334 5.48161Z" fill="white"/>
<path fill-rule="evenodd" clip-rule="evenodd" d="M69.421 83.9707C67.5757 90.4812 72.281 112.474 74.1831 112.988C76.0844 113.504 91.6969 97.0146 93.5422 90.5034C95.3884 83.9921 91.4844 77.251 84.8234 75.4471C78.1625 73.6433 71.2663 77.4595 69.421 83.9707Z" fill="#BDD1F9"/>
<path fill-rule="evenodd" clip-rule="evenodd" d="M140.715 44.1562C133.979 45.238 115.7 58.8531 116.004 60.8024C116.309 62.7517 137.843 69.972 144.58 68.8902C151.317 67.8084 155.913 61.394 154.846 54.5641C153.779 47.7335 147.452 43.0736 140.715 44.1562Z" fill="white"/>
<path fill-rule="evenodd" clip-rule="evenodd" d="M123.038 101.257C115.986 105.622 101.827 129.241 103.078 131.248C104.327 133.255 131.845 131.078 138.896 126.712C145.949 122.347 148.115 113.11 143.736 106.08C139.357 99.0508 130.09 96.8914 123.038 101.257Z" fill="white"/>
<path fill-rule="evenodd" clip-rule="evenodd" d="M87.0528 54.8763C92.5284 58.8011 114.776 62.1593 115.912 60.617C117.047 59.0746 106.935 39.235 101.459 35.3102C95.9834 31.3846 88.3189 32.5829 84.3413 37.9858C80.3629 43.3887 81.5773 50.9507 87.0528 54.8763Z" fill="white"/>
<path fill-rule="evenodd" clip-rule="evenodd" d="M52.861 134.996C59.6241 135.217 79.9379 125.343 79.9999 123.373C80.061 121.404 60.4062 110.228 53.6432 110.006C46.8801 109.786 41.2224 115.202 41.0064 122.102C40.7904 129.003 46.0979 134.776 52.861 134.996Z" fill="#BDD1F9"/>
<path fill-rule="evenodd" clip-rule="evenodd" d="M112.024 202H85.9763C70.5258 202 58 189.491 58 174.059V146H140V174.059C140 189.491 127.474 202 112.024 202Z" fill="#BDD1F9"/>
<path fill-rule="evenodd" clip-rule="evenodd" d="M90.1849 146C90.0243 145.516 73.8069 97.3731 40 79.764L40.3957 79C74.5159 96.7709 90.8394 145.242 91 145.729L90.1849 146Z" fill="#BDD1F9"/>
<path fill-rule="evenodd" clip-rule="evenodd" d="M101.863 146L101 145.979C101 145.212 105.649 63.309 131.315 30L132 30.5256C106.823 63.1994 101.906 145.182 101.863 146Z" fill="white"/>
<path fill-rule="evenodd" clip-rule="evenodd" d="M96.1334 148C95.2772 76.5657 60.3522 21.018 60 20.4648L60.7316 20C61.0855 20.5549 96.1422 76.3114 97 147.99L96.1334 148Z" fill="#BDD1F9"/>
<path fill-rule="evenodd" clip-rule="evenodd" d="M50.62 17.0777C52.5174 18.6789 60.5111 20.4504 60.9579 19.8963C61.4048 19.3414 58.1846 11.6446 56.2873 10.0425C54.39 8.43964 51.5826 8.71589 50.0177 10.6591C48.4529 12.6015 48.7227 15.4748 50.62 17.0777Z" fill="white"/>
<path fill-rule="evenodd" clip-rule="evenodd" d="M61.0309 9.37267C59.8132 11.5367 59.7604 19.66 60.4241 19.984C61.0887 20.3073 68.2378 15.6413 69.4563 13.4773C70.6747 11.3132 69.7766 8.64005 67.4494 7.50581C65.1239 6.37234 62.2494 7.20785 61.0309 9.37267Z" fill="white"/>
<path fill-rule="evenodd" clip-rule="evenodd" d="M71.7804 16.017C69.1834 15.7488 61.0803 18.728 61.0007 19.4341C60.9194 20.1394 68.1636 24.7044 70.7598 24.9734C73.3568 25.2416 75.6903 23.4541 75.9719 20.9808C76.2543 18.5083 74.3774 16.2852 71.7804 16.017Z" fill="white"/>
<path fill-rule="evenodd" clip-rule="evenodd" d="M67.854 28.3736C67.2272 25.9712 61.7019 19.8251 61.0141 20.0038C60.3263 20.1817 58.5022 28.2332 59.129 30.6356C59.755 33.038 62.216 34.4791 64.6254 33.8541C67.0347 33.2299 68.48 30.776 67.854 28.3736Z" fill="white"/>
<path fill-rule="evenodd" clip-rule="evenodd" d="M55.5351 30.0642C57.6211 28.508 61.4085 20.7327 60.9641 20.1385C60.5197 19.5435 51.9802 20.964 49.8942 22.5194C47.8074 24.0748 47.3794 27.0254 48.9376 29.1087C50.4949 31.1921 53.4491 31.6196 55.5351 30.0642Z" fill="white"/>
<path fill-rule="evenodd" clip-rule="evenodd" d="M59 19.5C59 18.6713 59.6713 18 60.5 18C61.3279 18 62 18.6713 62 19.5C62 20.3287 61.3279 21 60.5 21C59.6713 21 59 20.3287 59 19.5Z" fill="#BDD1F9"/>
<path fill-rule="evenodd" clip-rule="evenodd" d="M176.38 82.0767C174.482 83.6787 166.489 85.4509 166.042 84.8961C165.595 84.3412 168.815 76.6445 170.712 75.0425C172.61 73.4397 175.417 73.7159 176.982 75.6591C178.547 77.6015 178.277 80.4747 176.38 82.0767Z" fill="#BDD1F9"/>
<path fill-rule="evenodd" clip-rule="evenodd" d="M165.969 74.3725C167.187 76.5366 167.24 84.66 166.575 84.984C165.912 85.3073 158.762 80.6413 157.544 78.4772C156.325 76.3131 157.223 73.6392 159.55 72.5057C161.876 71.3722 164.75 72.2085 165.969 74.3725Z" fill="#BDD1F9"/>
<path fill-rule="evenodd" clip-rule="evenodd" d="M155.219 81.017C157.816 80.7488 165.919 83.7282 165.999 84.4343C166.08 85.1405 158.837 89.705 156.24 89.9732C153.643 90.2422 151.31 88.4546 151.028 85.9811C150.746 83.5077 152.623 81.286 155.219 81.017Z" fill="#BDD1F9"/>
<path fill-rule="evenodd" clip-rule="evenodd" d="M159.146 93.3739C159.773 90.9716 165.298 84.8259 165.986 85.0038C166.674 85.1825 168.497 93.2335 167.871 95.6358C167.245 98.038 164.784 99.4791 162.374 98.8541C159.965 98.23 158.52 95.7762 159.146 93.3739Z" fill="#BDD1F9"/>
<path fill-rule="evenodd" clip-rule="evenodd" d="M171.465 95.0642C169.379 93.5079 165.591 85.7333 166.036 85.1382C166.48 84.544 175.02 85.9638 177.106 87.5192C179.193 89.0754 179.621 92.0253 178.062 94.1087C176.505 96.1921 173.551 96.6196 171.465 95.0642Z" fill="#BDD1F9"/>
<path fill-rule="evenodd" clip-rule="evenodd" d="M168 84.5C168 83.6713 167.328 83 166.5 83C165.671 83 165 83.6713 165 84.5C165 85.3287 165.671 86 166.5 86C167.328 86 168 85.3287 168 84.5Z" fill="white"/>
<path fill-rule="evenodd" clip-rule="evenodd" d="M118 147.904C121.896 113.629 164.094 86.2777 164.522 86L165 86.7167C164.575 86.9928 122.716 114.126 118.866 148L118 147.904Z" fill="#BDD1F9"/>
</svg>
