<svg width="42" height="56" viewBox="0 0 42 56" fill="none" xmlns="http://www.w3.org/2000/svg">
<path fill-rule="evenodd" clip-rule="evenodd" d="M0 0V55.6903H41.7993V12.1672H40.0493V53.9408H1.75V1.75H29.6339V0H0Z" fill="#282D33"/>
<path fill-rule="evenodd" clip-rule="evenodd" d="M32.0723 9.72855H41.4925L32.0723 0.307129V9.72855Z" fill="#00A1FA"/>
<path fill-rule="evenodd" clip-rule="evenodd" d="M29.9336 26.7506H35.5458V22.9712H29.9336V26.7506Z" fill="white"/>
<path fill-rule="evenodd" clip-rule="evenodd" d="M30.5156 26.1674H34.9612V23.5547H30.5156V26.1674ZM28.7656 27.9174H36.7112V21.8047H28.7656V27.9174Z" fill="#282D33"/>
<path fill-rule="evenodd" clip-rule="evenodd" d="M17.0371 26.7506H29.3507V22.9712H17.0371V26.7506Z" fill="white"/>
<path fill-rule="evenodd" clip-rule="evenodd" d="M17.6191 26.1674H28.7661V23.5547H17.6191V26.1674ZM15.8691 27.9174H30.5161V21.8047H15.8691V27.9174Z" fill="#282D33"/>
<path fill-rule="evenodd" clip-rule="evenodd" d="M5.94922 26.7506H16.8261V22.9712H5.94922V26.7506Z" fill="white"/>
<path fill-rule="evenodd" clip-rule="evenodd" d="M6.5332 26.1674H16.2434V23.5547H6.5332V26.1674ZM4.7832 27.9174H17.9934V21.8047H4.7832V27.9174Z" fill="#282D33"/>
<path fill-rule="evenodd" clip-rule="evenodd" d="M5.94922 41.9324H35.5091V22.9712H5.94922V41.9324Z" fill="#F4F3F5"/>
<path fill-rule="evenodd" clip-rule="evenodd" d="M6.5332 41.3493H34.9264V23.5547H6.5332V41.3493ZM4.7832 43.0993H36.6764V21.8047H4.7832V43.0993Z" fill="#282D33"/>
<path fill-rule="evenodd" clip-rule="evenodd" d="M5.51562 27.4168H35.9003V26.8335H5.51562V27.4168Z" fill="white"/>
<path fill-rule="evenodd" clip-rule="evenodd" d="M5.51562 27.9995H35.9003V26.2495H5.51562V27.9995Z" fill="#282D33"/>
<path fill-rule="evenodd" clip-rule="evenodd" d="M29.2461 42.5118H29.8294V22.6079H29.2461V42.5118Z" fill="white"/>
<path fill-rule="evenodd" clip-rule="evenodd" d="M28.6621 42.5118H30.4121V22.6079H28.6621V42.5118Z" fill="#282D33"/>
<path fill-rule="evenodd" clip-rule="evenodd" d="M16.7227 42.5118H17.306V22.6079H16.7227V42.5118Z" fill="white"/>
<path fill-rule="evenodd" clip-rule="evenodd" d="M16.1387 42.8791H17.8887V22.2407H16.1387V42.8791Z" fill="#282D33"/>
<path fill-rule="evenodd" clip-rule="evenodd" d="M24.8164 48.1414H36.3133V47.5581H24.8164V48.1414Z" fill="white"/>
<path fill-rule="evenodd" clip-rule="evenodd" d="M25.1074 48.7246H36.021V46.9746H25.1074V48.7246Z" fill="#282D33"/>
<path fill-rule="evenodd" clip-rule="evenodd" d="M10.1465 18.6213H13.8874V5.65967H10.1465V18.6213Z" fill="#00A1FA"/>
<path fill-rule="evenodd" clip-rule="evenodd" d="M5.53516 14.0114H18.4974V10.2705H5.53516V14.0114Z" fill="#00A1FA"/>
</svg>
