<svg width="19" height="20" viewBox="0 0 19 20" fill="none" xmlns="http://www.w3.org/2000/svg">
<path d="M17.9238 1.45117L15.9941 3.38086C14.3242 1.71094 12.0234 0.671875 9.5 0.671875C4.56445 0.671875 0.519531 4.56836 0.296875 9.42969C0.259766 9.68945 0.482422 9.875 0.742188 9.875H1.78125C2.00391 9.875 2.18945 9.72656 2.22656 9.4668C2.44922 5.64453 5.60352 2.60156 9.5 2.60156C11.5039 2.60156 13.3223 3.41797 14.6211 4.75391L12.6172 6.75781C12.3203 7.05469 12.543 7.5 12.9141 7.5H18.2578C18.4805 7.5 18.7031 7.31445 18.7031 7.05469V1.74805C18.7031 1.37695 18.2207 1.1543 17.9238 1.45117ZM18.2207 9.875H17.1816C16.959 9.875 16.7734 10.0605 16.7363 10.3203C16.5137 14.1426 13.3594 17.1484 9.5 17.1484C7.45898 17.1484 5.64062 16.3691 4.3418 15.0332L6.3457 13.0293C6.64258 12.7324 6.41992 12.25 6.04883 12.25H0.742188C0.482422 12.25 0.296875 12.4727 0.296875 12.6953V18.0391C0.296875 18.4102 0.742188 18.6328 1.03906 18.3359L2.96875 16.4062C4.63867 18.0762 6.93945 19.0781 9.5 19.0781C14.3984 19.0781 18.4434 15.2188 18.666 10.3574C18.7031 10.0977 18.4805 9.875 18.2207 9.875Z" fill="white"/>
</svg>
