<svg width="17" height="18" viewBox="0 0 17 18" fill="none" xmlns="http://www.w3.org/2000/svg">
<path d="M14.1016 3.01172C12.5801 1.45312 10.502 0.5625 8.27539 0.5625C3.74805 0.5625 0.0371094 4.27344 0.0371094 8.80078C0.0371094 10.2852 0.445312 11.6953 1.15039 12.9199L0 17.1875L4.3418 16.0742C5.56641 16.7051 6.90234 17.0762 8.27539 17.0762C12.8398 17.0762 16.625 13.3652 16.625 8.83789C16.625 6.61133 15.6602 4.57031 14.1016 3.01172ZM8.27539 15.666C7.05078 15.666 5.86328 15.332 4.78711 14.7012L4.56445 14.5527L1.9668 15.2578L2.67188 12.7344L2.48633 12.4746C1.81836 11.3613 1.44727 10.0996 1.44727 8.80078C1.44727 5.05273 4.52734 1.97266 8.3125 1.97266C10.1309 1.97266 11.8379 2.67773 13.1367 3.97656C14.4355 5.27539 15.2148 6.98242 15.2148 8.83789C15.2148 12.5859 12.0605 15.666 8.27539 15.666ZM12.0605 10.5449C11.8379 10.4336 10.8359 9.95117 10.6504 9.87695C10.4648 9.80273 10.3164 9.76562 10.168 9.98828C10.0566 10.1738 9.64844 10.6562 9.53711 10.8047C9.38867 10.916 9.27734 10.9531 9.0918 10.8418C7.86719 10.248 7.08789 9.76562 6.27148 8.39258C6.04883 8.02148 6.49414 8.05859 6.86523 7.2793C6.93945 7.13086 6.90234 7.01953 6.86523 6.9082C6.82812 6.79688 6.38281 5.79492 6.23438 5.38672C6.04883 4.97852 5.90039 5.01562 5.75195 5.01562C5.64062 5.01562 5.49219 5.01562 5.38086 5.01562C5.23242 5.01562 5.00977 5.05273 4.82422 5.27539C4.63867 5.49805 4.11914 5.98047 4.11914 6.98242C4.11914 8.02148 4.82422 8.98633 4.93555 9.13477C5.04688 9.24609 6.38281 11.3242 8.46094 12.2148C9.75977 12.8086 10.2793 12.8457 10.9473 12.7344C11.3184 12.6973 12.1348 12.252 12.3203 11.7695C12.5059 11.2871 12.5059 10.8789 12.4316 10.8047C12.3945 10.6934 12.2461 10.6562 12.0605 10.5449Z" fill="#71C569"/>
</svg>
