<?xml version="1.0" encoding="utf-8"?>
<svg width="617px" height="581px" viewBox="0 0 617 581" version="1.1" xmlns:xlink="http://www.w3.org/1999/xlink" xmlns="http://www.w3.org/2000/svg">
  <defs>
    <path d="M0 0L15.3293 0L15.3293 12.4046L0 12.4046L0 0Z" id="path_1" />
    <path d="M0 0L93.6353 0L93.6353 68.8673L0 68.8673L0 0Z" id="path_2" />
    <clipPath id="mask_1">
      <use xlink:href="#path_1" />
    </clipPath>
    <clipPath id="mask_2">
      <use xlink:href="#path_2" />
    </clipPath>
  </defs>
  <g id="Group-53-Copy-3" transform="translate(1 1)">
    <g id="Group-31-Copy-2" transform="translate(0 202.03125)">
      <g id="Group-34">
        <path d="M114.01 124.907C114.044 124.89 114.076 124.87 114.107 124.846C114.353 124.655 114.397 124.299 114.205 124.053C64.0637 59.6276 24.1941 15.8727 1.94163 0.847712C1.44745 0.513575 1.09089 0.273247 0.938527 0.139681C0.703053 -0.0662507 0.345151 -0.0412351 0.140062 0.193286C-0.0659217 0.428701 -0.0417935 0.786066 0.193233 0.991998C0.398323 1.17113 0.741033 1.40207 1.30805 1.7849C23.4644 16.7456 63.2416 60.4143 113.312 124.747C113.481 124.963 113.774 125.024 114.01 124.907" transform="translate(11.6875 10.03125)" id="Fill-1" fill="#0B0755" fill-rule="evenodd" stroke="none" />
        <g id="Group-5">
          <path d="M0 0L15.3293 0L15.3293 12.4046L0 12.4046L0 0Z" id="Clip-4" fill="none" fill-rule="evenodd" stroke="none" />
          <g clip-path="url(#mask_1)">
            <path d="M2.48669 10.2882C4.99361 11.9473 14.8429 12.8899 15.2997 12.1484C15.757 11.4064 10.7926 2.53849 8.28608 0.878571C5.77959 -0.780903 2.44902 -0.0205165 0.847603 2.57755C-0.753377 5.17561 -0.0197933 8.62787 2.48669 10.2882" id="Fill-3" fill="#0B0755" fill-rule="evenodd" stroke="none" />
          </g>
        </g>
        <path d="M0.0177816 6.17826C0.267414 9.33644 5.91794 18.294 6.8374 18.2237C7.75686 18.1534 11.9312 8.44943 11.6816 5.29169C11.4319 2.1335 8.61839 -0.226915 5.39753 0.0173746C2.17621 0.262115 -0.231851 3.02052 0.0177816 6.17826" transform="translate(22.078125 4.8242188)" id="Fill-6" fill="#0B0755" fill-rule="evenodd" stroke="none" />
        <path d="M7.11715 11.4444C10.001 10.4754 17.141 2.9053 16.882 2.02507C16.6235 1.14439 6.71833 -0.695212 3.83452 0.275201C0.950274 1.24377 -0.653184 4.53048 0.253305 7.61519C1.15979 10.6994 4.23291 12.4143 7.11715 11.4444" transform="translate(10.390625 20.445312)" id="Fill-8" fill="#0B0755" fill-rule="evenodd" stroke="none" />
        <path d="M0.0025975 9.11792C-0.162115 14.3097 7.55612 29.8942 9.09147 29.9396C10.6268 29.9849 19.3178 14.8853 19.4825 9.69351C19.6472 4.50131 15.4199 0.163473 10.0405 0.00449248C4.6611 -0.154488 0.166854 3.92572 0.0025975 9.11792" transform="translate(64.953125 41.273438)" id="Fill-10" fill="#0B0755" fill-rule="evenodd" stroke="none" />
        <path d="M11.3657 19.3358C16.5154 18.2804 30.1682 7.08027 29.8757 5.56723C29.5828 4.0551 12.8023 -0.909148 7.6526 0.145817C2.50293 1.20032 -0.840712 6.35147 0.18495 11.651C1.21017 16.9501 6.21605 20.3903 11.3657 19.3358" transform="translate(44.171875 64.703125)" id="Fill-12" fill="#0B0755" fill-rule="evenodd" stroke="none" />
        <path d="M0.328537 8.77727C-1.28746 15.0332 3.49018 35.9776 5.27782 36.4386C7.06591 36.8991 21.3944 20.8774 23.0104 14.6224C24.6264 8.36686 20.8593 1.98783 14.5956 0.373936C8.33236 -1.2404 1.94454 2.52176 0.328537 8.77727" transform="translate(84.4375 54.289062)" id="Fill-14" fill="#0B0755" fill-rule="evenodd" stroke="none" />
        <path d="M15.2577 22.906C21.4728 20.9973 36.9099 5.92859 36.3619 4.16466C35.8138 2.40027 14.5205 -1.38483 8.30535 0.524751C2.0898 2.43344 -1.39202 8.99172 0.527805 15.1722C2.44808 21.3527 9.04264 24.8156 15.2577 22.906" transform="translate(54.5625 85.53125)" id="Fill-16" fill="#0B0755" fill-rule="evenodd" stroke="none" />
        <path d="M0.328537 8.77748C-1.28747 15.0325 3.49019 35.9776 5.27783 36.4386C7.06592 36.8991 21.3944 20.8771 23.0104 14.6221C24.6264 8.36662 20.8589 1.98763 14.5956 0.373754C8.33192 -1.24013 1.94454 2.52201 0.328537 8.77748" transform="translate(101.328125 75.11719)" id="Fill-18" fill="#0B0755" fill-rule="evenodd" stroke="none" />
        <path d="M15.2577 22.9062C21.4728 20.9966 36.9094 5.92837 36.3619 4.16489C35.8139 2.40051 14.5205 -1.38459 8.30491 0.524538C2.08981 2.43367 -1.39202 8.9915 0.527808 15.1724C2.44809 21.3525 9.04265 24.8153 15.2577 22.9062" transform="translate(71.453125 106.359375)" id="Fill-20" fill="#0B0755" fill-rule="evenodd" stroke="none" />
        <path d="M6.28761 4.72738C2.42413 9.94593 -1.13146 31.3353 0.339328 32.4524C1.81056 33.5686 21.0874 24.1144 24.9504 18.8963C28.8139 13.6768 27.7679 6.27378 22.6144 2.36122C17.4608 -1.55133 10.1511 -0.492078 6.28761 4.72738" transform="translate(124.71875 102.453125)" id="Fill-22" fill="#0B0755" fill-rule="evenodd" stroke="none" />
        <path d="M13.5449 23.2512C19.8229 22.1271 36.6875 9.06851 36.3717 7.24599C36.0564 5.42391 15.8201 -0.992208 9.5425 0.131039C3.26489 1.25518 -0.928274 7.34255 0.176655 13.7263C1.28203 20.111 7.26728 24.3754 13.5449 23.2512" transform="translate(89.640625 127.1875)" id="Fill-24" fill="#0B0755" fill-rule="evenodd" stroke="none" />
        <path d="M0.0177972 6.17848C0.267569 9.33619 5.91821 18.2943 6.83766 18.2237C7.75711 18.1545 11.9317 8.44939 11.6815 5.29168C11.4322 2.13397 8.61819 -0.227431 5.3974 0.0174486C2.17661 0.262328 -0.231975 3.02077 0.0177972 6.17848" transform="translate(35.078125 16.539062)" id="Fill-26" fill="#0B0755" fill-rule="evenodd" stroke="none" />
        <path d="M7.66443 11.4446C10.7704 10.4746 18.4593 2.90604 18.1807 2.02525C17.902 1.1449 7.23531 -0.695038 4.12938 0.274972C1.02344 1.24408 -0.703502 4.53043 0.272832 7.61526C1.24917 10.6992 4.55849 12.4141 7.66443 11.4446" transform="translate(24.6875 32.160156)" id="Fill-28" fill="#0B0755" fill-rule="evenodd" stroke="none" />
        <path d="M5.17171e-05 8.13793C-0.0220179 12.6534 7.02599 26.0287 8.35707 26.0345C9.6886 26.0407 16.8667 12.7299 16.8888 8.2145C16.9104 3.69907 13.148 0.021462 8.48442 9.35289e-05C3.82039 -0.021275 0.0221213 3.62161 5.17171e-05 8.13793" transform="translate(49.375 25.652344)" id="Fill-30" fill="#0B0755" fill-rule="evenodd" stroke="none" />
        <path d="M10.4016 16.5312C14.6166 15.131 25.0519 4.19762 24.6738 2.92545C24.2956 1.65375 9.81917 -1.0034 5.60369 0.396772C1.38865 1.7974 -0.954538 6.54443 0.370177 10.9995C1.69489 15.4547 6.18612 17.9313 10.4016 16.5312" transform="translate(32.484375 47.78125)" id="Fill-32" fill="#0B0755" fill-rule="evenodd" stroke="none" />
      </g>
      <g id="Group-10" transform="matrix(-0.64278764 -0.76604444 0.76604444 -0.64278764 76.640625 178.53906)">
        <g id="Group-3" transform="translate(0 0.046875)">
          <path d="M0 0L93.6353 0L93.6353 68.8673L0 68.8673L0 0Z" id="Clip-2" fill="none" fill-rule="evenodd" stroke="none" />
          <g clip-path="url(#mask_2)">
            <path d="M0.23417 59.2122C0.23417 59.2122 -9.32058 -0.591451 93.6354 0.00442351C93.6354 0.00442351 53.6286 99.6467 0.23417 59.2122" id="Fill-1" fill="#91B5F8" fill-rule="evenodd" stroke="none" />
          </g>
        </g>
        <path d="M93.7674 0L0 58.8795C0 58.8795 45.1914 105.072 93.7674 0" id="Fill-4" fill="#7C9AF2" fill-rule="evenodd" stroke="none" />
        <path d="M25.7781 0.799665C25.7636 0.803443 25.7486 0.805962 25.7338 0.808229L0.386122 3.90291C0.19391 3.92634 0.0218962 3.76489 0.0019148 3.54249C-0.0182838 3.31959 0.123758 3.12263 0.312712 3.09694L25.6604 0.00225548C25.8526 -0.0211681 26.0244 0.14053 26.0446 0.362677C26.0631 0.567696 25.946 0.753322 25.7781 0.799665" transform="translate(45.5625 23.898438)" id="Fill-6" fill="#91B5F8" fill-rule="evenodd" stroke="none" />
        <path d="M34.8882 1.05837C34.8624 1.06737 34.8354 1.0727 34.8072 1.0727L0.358252 1.30171C0.161492 1.30404 0.000667595 1.0647 2.11595e-06 0.768692C-0.000663363 0.47335 0.155724 0.230676 0.355368 0.230676L34.8045 3.11809e-06C35.0013 -0.000996911 35.1619 0.238677 35.1628 0.534019C35.1635 0.788026 35.0461 1.00203 34.8882 1.05837" transform="translate(9.359375 51.453125)" id="Fill-8" fill="#91B5F8" fill-rule="evenodd" stroke="none" />
      </g>
    </g>
    <g id="Group-Copy-2" transform="matrix(0.9335804 0.35836795 -0.35836795 0.9335804 415.57812 67.75391)">
      <path d="M6.75165 14.9716C10.9059 15.4188 23.87 10.4534 23.9989 9.27642C24.1274 8.09992 12.5385 0.491577 8.38374 0.0444278C4.22946 -0.402721 0.495952 2.576 0.0447733 6.69814C-0.405915 10.8203 2.59688 14.524 6.75165 14.9716" transform="matrix(1 -6.4624697E-09 6.4624697E-09 1 0.015625 40)" id="Fill-58" fill="#91B5F8" fill-rule="evenodd" stroke="none" />
      <path d="M3.2383 3.28896C0.916622 6.70271 -0.688854 20.2978 0.294518 20.9542C1.27789 21.6112 13.3928 15.0325 15.715 11.6192C18.0367 8.20549 17.1259 3.57348 13.6805 1.27318C10.235 -1.02712 5.55997 -0.124777 3.2383 3.28896" transform="matrix(1 -6.4624697E-09 6.4624697E-09 1 79 -0.0029296875)" id="Fill-59" fill="#0B0755" fill-rule="evenodd" stroke="none" />
      <path d="M0.252595 5.66572C-0.854591 9.77758 1.96861 23.6675 3.10986 23.9925C4.25063 24.318 13.6182 13.904 14.7253 9.7916C15.833 5.67924 13.4906 1.42167 9.49407 0.282405C5.49749 -0.856855 1.35978 1.55337 0.252595 5.66572" transform="matrix(1 -6.4624697E-09 6.4624697E-09 1 42.015625 45.995117)" id="Fill-60" fill="#91B5F8" fill-rule="evenodd" stroke="none" />
      <path d="M15.2093 0.0937213C11.0637 0.742788 -0.184873 8.91187 0.0023081 10.0815C0.189982 11.251 13.4419 15.5832 17.588 14.9341C21.7335 14.285 24.5619 10.4364 23.9053 6.33849C23.2487 2.24007 19.3553 -0.555832 15.2093 0.0937213" transform="matrix(1 -6.4624697E-09 6.4624697E-09 1 71 27.996094)" id="Fill-61" fill="#0B0755" fill-rule="evenodd" stroke="none" />
      <path d="M12.1161 1.36764C7.85218 4.0132 -0.709138 18.3281 0.0469712 19.5442C0.802595 20.7603 17.4409 19.441 21.7048 16.7954C25.9692 14.1498 27.279 8.55177 24.6312 4.29104C21.9834 0.030792 16.38 -1.27793 12.1161 1.36764" transform="matrix(1 -6.4624697E-09 6.4624697E-09 1 63 60.99707)" id="Fill-62" fill="#91B5F8" fill-rule="evenodd" stroke="none" />
      <path d="M3.12087 14.0633C6.50284 16.5864 20.2441 18.7453 20.9456 17.7538C21.6466 16.7623 15.4007 4.00823 12.0188 1.48513C8.6368 -1.03847 3.90284 -0.268144 1.44608 3.20515C-1.01117 6.67844 -0.261093 11.5397 3.12087 14.0633" transform="matrix(1 -6.4624697E-09 6.4624697E-09 1 50 19.99707)" id="Fill-63" fill="#0B0755" fill-rule="evenodd" stroke="none" />
      <path d="M7.29908 14.9978C11.461 15.13 23.9618 9.20569 23.9999 8.02392C24.0375 6.84216 11.9423 0.136608 7.78041 0.0038966C3.61851 -0.128328 0.136832 3.12091 0.00391693 7.2612C-0.128998 11.402 3.13719 14.8656 7.29908 14.9978" transform="matrix(1 -6.4624697E-09 6.4624697E-09 1 25 67.99805)" id="Fill-64" fill="#91B5F8" fill-rule="evenodd" stroke="none" />
      <path d="M33.6001 35L17.3999 35C7.79042 35 0 27.1819 0 17.5372L0 0L51 0L51 17.5372C51 27.1819 43.2096 35 33.6001 35" transform="matrix(1 -6.4624697E-09 6.4624697E-09 1 35 90.99707)" id="Fill-65" fill="#4851EC" fill-rule="evenodd" stroke="none" />
      <path d="M31.4886 42C31.3878 41.6966 21.2122 11.5174 0 0.47894L0.248258 0C21.6571 11.14 31.8992 41.525 32 41.8304L31.4886 42" transform="matrix(1 -6.4624697E-09 6.4624697E-09 1 24 48.99707)" id="Fill-66" fill="#91B5F8" fill-rule="evenodd" stroke="none" />
      <path d="M0.529037 72L0 71.9872C0 71.5112 2.84949 20.6746 18.5802 0L19 0.326204C3.56917 20.6066 0.555367 71.492 0.529037 72" transform="matrix(1 -6.4624697E-09 6.4624697E-09 1 61.984375 18.999023)" id="Fill-67" fill="#0B0755" fill-rule="evenodd" stroke="none" />
      <path d="M22.4613 79C21.929 34.9116 0.218958 0.628316 0 0.28685L0.454797 0C0.674747 0.342449 22.4668 34.7547 23 78.9936L22.4613 79" transform="matrix(1 -6.4624697E-09 6.4624697E-09 1 36 12.995117)" id="Fill-68" fill="#91B5F8" fill-rule="evenodd" stroke="none" />
      <path d="M1.08001 5.14032C2.3449 6.15932 7.67404 7.28661 7.97197 6.93401C8.26989 6.58092 6.12308 1.6829 4.85819 0.663408C3.5933 -0.356592 1.72174 -0.180799 0.678485 1.05579C-0.364766 2.29188 -0.184877 4.12033 1.08001 5.14032" transform="matrix(1 -6.4624697E-09 6.4624697E-09 1 29 5.9970703)" id="Fill-69" fill="#91B5F8" fill-rule="evenodd" stroke="none" />
      <path d="M0.618536 1.4601C-0.112059 2.79182 -0.143759 7.79074 0.254477 7.99017C0.653208 8.18912 4.94266 5.31775 5.67375 3.98603C6.40484 2.6543 5.86594 1.00926 4.46963 0.311268C3.07432 -0.386255 1.34963 0.127909 0.618536 1.4601" transform="matrix(1 -6.4624697E-09 6.4624697E-09 1 36 3.9970703)" id="Fill-70" fill="#91B5F8" fill-rule="evenodd" stroke="none" />
      <path d="M6.46822 0.0113495C4.91001 -0.167454 0.0481928 1.81867 0.000407113 2.2894C-0.0483638 2.75961 4.29816 5.80292 5.85587 5.98224C7.41408 6.16105 8.81415 4.96937 8.98313 3.32052C9.15259 1.67219 8.02643 0.190153 6.46822 0.0113495" transform="matrix(1 -6.4624697E-09 6.4624697E-09 1 37 9.999023)" id="Fill-71" fill="#91B5F8" fill-rule="evenodd" stroke="none" />
      <path d="M5.90269 5.38304C5.48483 3.83864 1.80129 -0.112412 1.34273 0.00245231C0.884183 0.116816 -0.331839 5.29275 0.0860215 6.83716C0.503361 8.38156 2.14403 9.30801 3.75026 8.90623C5.35649 8.50496 6.32002 6.92745 5.90269 5.38304" transform="matrix(1 -6.4624697E-09 6.4624697E-09 1 35 11.999023)" id="Fill-72" fill="#91B5F8" fill-rule="evenodd" stroke="none" />
      <path d="M4.63701 6.40449C5.92069 5.41418 8.25136 0.466276 7.9779 0.0881489C7.70445 -0.290499 2.44936 0.61347 1.16567 1.60326C-0.118512 2.59305 -0.381896 4.47068 0.576963 5.79647C1.53532 7.12226 3.35332 7.39428 4.63701 6.40449" transform="matrix(1 -6.4624697E-09 6.4624697E-09 1 29.015625 11.998047)" id="Fill-73" fill="#91B5F8" fill-rule="evenodd" stroke="none" />
      <path d="M0 1C0 0.447549 0.447549 0 1 0C1.55192 0 2 0.447549 2 1C2 1.55245 1.55192 2 1 2C0.447549 2 0 1.55245 0 1" transform="matrix(1 -6.4624697E-09 6.4624697E-09 1 35.984375 10.996094)" id="Fill-74" fill="#FFFFFF" fill-rule="evenodd" stroke="none" />
      <path d="M6.92014 5.13971C5.6548 6.15919 0.325941 7.28696 0.0280318 6.93387C-0.269877 6.58078 1.87682 1.68287 3.14164 0.663394C4.40698 -0.356585 6.27793 -0.180796 7.32113 1.05577C8.36484 2.29183 8.18496 4.12024 6.92014 5.13971" transform="matrix(1 -6.4624697E-09 6.4624697E-09 1 102.015625 45.993164)" id="Fill-75" fill="#BDD1F9" fill-rule="evenodd" stroke="none" />
      <path d="M5.3811 1.46003C6.1122 2.79176 6.1439 7.79074 5.74516 7.99017C5.34692 8.18913 1.05745 5.31772 0.326358 3.98598C-0.404735 2.65424 0.133678 1.00871 1.52999 0.311181C2.9258 -0.38635 4.65001 0.128292 5.3811 1.46003" transform="matrix(1 -6.4624697E-09 6.4624697E-09 1 96 44.99707)" id="Fill-76" fill="#BDD1F9" fill-rule="evenodd" stroke="none" />
      <path d="M2.53158 0.0113503C4.08972 -0.167466 8.95132 1.8188 8.9996 2.28956C9.04788 2.76032 4.70203 5.80333 3.1439 5.98214C1.58576 6.16148 0.185748 4.96972 0.0167814 3.32075C-0.152185 1.67179 0.973931 0.190688 2.53158 0.0113503" transform="matrix(1 -6.4624697E-09 6.4624697E-09 1 93 49.999023)" id="Fill-77" fill="#BDD1F9" fill-rule="evenodd" stroke="none" />
      <path d="M0.0973513 5.38323C0.515221 3.83891 4.19884 -0.111926 4.6574 0.00243103C5.11596 0.11729 6.33149 5.29295 5.91414 6.83727C5.49679 8.3816 3.85609 9.30799 2.2493 8.90623C0.643034 8.50498 -0.319997 6.92756 0.0973513 5.38323" transform="matrix(1 -6.4624697E-09 6.4624697E-09 1 97 51.999023)" id="Fill-78" fill="#BDD1F9" fill-rule="evenodd" stroke="none" />
      <path d="M3.36324 6.40447C2.07949 5.41414 -0.251802 0.466632 0.0221713 0.0879753C0.295641 -0.290162 5.55099 0.61331 6.83474 1.60312C8.11848 2.59346 8.38188 4.47062 7.42298 5.79644C6.46457 7.12226 4.64698 7.39429 3.36324 6.40447" transform="matrix(1 -6.4624697E-09 6.4624697E-09 1 102 51.995117)" id="Fill-79" fill="#BDD1F9" fill-rule="evenodd" stroke="none" />
      <path d="M2 1C2 0.447549 1.55192 0 1 0C0.447549 0 0 0.447549 0 1C0 1.55245 0.447549 2 1 2C1.55192 2 2 1.55245 2 1" transform="matrix(1 -6.4624697E-09 6.4624697E-09 1 101 51.999023)" id="Fill-80" fill="#FFFFFF" fill-rule="evenodd" stroke="none" />
      <path d="M0 38.94C2.40034 17.4574 28.4416 0.174027 28.7055 0L29 0.449198C28.7381 0.622233 2.90542 17.7692 0.533244 39L0 38.94Z" transform="matrix(1 -6.4624697E-09 6.4624697E-09 1 72 53)" id="Fill-81" fill="#BDD1F9" fill-rule="evenodd" stroke="none" />
    </g>
    <path d="M216.203 444.151C312.144 426.061 454.831 139.486 389.405 33.2031C323.98 -73.0794 0.18389 96.9241 0.000830821 245.442C-0.182228 393.959 120.262 462.241 216.203 444.151Z" transform="matrix(0.5150381 0.8571673 -0.8571673 0.5150381 405.20312 0)" id="Oval-Copy-9" fill="#EBF1F9" fill-rule="evenodd" stroke="none" />
    <path d="M181.057 371.617C261.401 356.481 380.893 116.706 326.103 27.7807C271.313 -61.1447 0.153996 81.0954 0.000695761 205.358C-0.152605 329.621 100.712 386.752 181.057 371.617Z" transform="matrix(0.5150381 0.8571673 -0.8571673 0.5150381 382.92188 47.085938)" id="Oval-Copy-10" fill="#FFFFFF" fill-rule="evenodd" stroke="none" />
  </g>
</svg>