<svg width="615" height="579" viewBox="0 0 615 579" fill="none" xmlns="http://www.w3.org/2000/svg">
<path fill-rule="evenodd" clip-rule="evenodd" d="M125.701 337.353C125.735 337.336 125.767 337.316 125.798 337.292C126.045 337.101 126.089 336.745 125.897 336.499C75.7551 272.074 35.8855 228.319 13.633 213.294C13.1389 212.96 12.7823 212.72 12.6299 212.586C12.3945 212.38 12.0366 212.405 11.8315 212.64C11.6255 212.875 11.6496 213.232 11.8846 213.438C12.0897 213.617 12.4324 213.848 12.9995 214.231C35.1558 229.192 74.933 272.861 125.003 337.194C125.172 337.409 125.465 337.47 125.701 337.353Z" fill="#0B0755"/>
<mask id="mask0" mask-type="alpha" maskUnits="userSpaceOnUse" x="0" y="202" width="16" height="13">
<path fill-rule="evenodd" clip-rule="evenodd" d="M0 202.414H15.3293V214.819H0V202.414Z" fill="white"/>
</mask>
<g mask="url(#mask0)">
<path fill-rule="evenodd" clip-rule="evenodd" d="M2.48669 212.702C4.99361 214.361 14.8429 215.304 15.2997 214.562C15.757 213.82 10.7926 204.953 8.28608 203.293C5.77959 201.633 2.44902 202.394 0.847603 204.992C-0.753377 207.59 -0.0197933 211.042 2.48669 212.702Z" fill="#0B0755"/>
</g>
<path fill-rule="evenodd" clip-rule="evenodd" d="M22.1037 213.418C22.3534 216.577 28.0039 225.534 28.9233 225.464C29.8428 225.394 34.0171 215.69 33.7675 212.532C33.5179 209.374 30.7043 207.013 27.4835 207.258C24.2621 207.502 21.8541 210.261 22.1037 213.418Z" fill="#0B0755"/>
<path fill-rule="evenodd" clip-rule="evenodd" d="M17.5097 234.305C20.3935 233.336 27.5336 225.766 27.2746 224.885C27.016 224.005 17.1109 222.165 14.2271 223.136C11.3429 224.104 9.73939 227.391 10.6459 230.476C11.5524 233.56 14.6255 235.275 17.5097 234.305Z" fill="#0B0755"/>
<path fill-rule="evenodd" clip-rule="evenodd" d="M64.9596 252.806C64.7949 257.998 72.5132 273.583 74.0485 273.628C75.5838 273.673 84.2748 258.574 84.4396 253.382C84.6043 248.19 80.3769 243.852 74.9975 243.693C69.6181 243.534 65.1239 247.614 64.9596 252.806Z" fill="#0B0755"/>
<path fill-rule="evenodd" clip-rule="evenodd" d="M55.5376 286.455C60.6873 285.4 74.3401 274.199 74.0476 272.686C73.7547 271.174 56.9742 266.21 51.8245 267.265C46.6748 268.319 43.3312 273.471 44.3568 278.77C45.382 284.069 50.3879 287.509 55.5376 286.455Z" fill="#0B0755"/>
<path fill-rule="evenodd" clip-rule="evenodd" d="M84.7738 265.482C83.1578 271.738 87.9355 292.683 89.7231 293.144C91.5112 293.604 105.84 277.583 107.456 271.327C109.072 265.072 105.305 258.693 99.0409 257.079C92.7777 255.465 86.3899 259.227 84.7738 265.482Z" fill="#0B0755"/>
<path fill-rule="evenodd" clip-rule="evenodd" d="M69.8222 310.852C76.0373 308.944 91.4743 293.875 90.9263 292.111C90.3783 290.347 69.0849 286.561 62.8698 288.471C56.6543 290.38 53.1724 296.938 55.0923 303.118C57.0125 309.299 63.6071 312.762 69.8222 310.852Z" fill="#0B0755"/>
<path fill-rule="evenodd" clip-rule="evenodd" d="M101.663 286.311C100.047 292.566 104.824 313.511 106.612 313.972C108.4 314.432 122.728 298.41 124.344 292.155C125.96 285.9 122.193 279.521 115.93 277.907C109.666 276.293 103.279 280.055 101.663 286.311Z" fill="#0B0755"/>
<path fill-rule="evenodd" clip-rule="evenodd" d="M86.7109 331.681C92.926 329.771 108.363 314.703 107.815 312.939C107.267 311.175 85.9736 307.39 79.758 309.299C73.5429 311.208 70.0611 317.766 71.9809 323.947C73.9012 330.127 80.4958 333.59 86.7109 331.681Z" fill="#0B0755"/>
<path fill-rule="evenodd" clip-rule="evenodd" d="M131.006 309.597C127.143 314.815 123.587 336.204 125.058 337.322C126.529 338.438 145.806 328.984 149.669 323.765C153.533 318.546 152.487 311.143 147.333 307.23C142.18 303.318 134.87 304.377 131.006 309.597Z" fill="#0B0755"/>
<path fill-rule="evenodd" clip-rule="evenodd" d="M103.186 352.853C109.464 351.729 126.328 338.67 126.012 336.848C125.697 335.025 105.461 328.609 99.1831 329.733C92.9055 330.857 88.7124 336.944 89.8173 343.328C90.9227 349.713 96.9079 353.977 103.186 352.853Z" fill="#0B0755"/>
<path fill-rule="evenodd" clip-rule="evenodd" d="M35.094 225.134C35.3437 228.291 40.9944 237.249 41.9138 237.179C42.8333 237.11 47.0079 227.404 46.7577 224.247C46.5084 221.089 43.6944 218.728 40.4736 218.973C37.2528 219.217 34.8442 221.976 35.094 225.134Z" fill="#0B0755"/>
<path fill-rule="evenodd" clip-rule="evenodd" d="M32.348 246.021C35.454 245.051 43.1429 237.482 42.8643 236.601C42.5856 235.721 31.9189 233.881 28.813 234.851C25.707 235.82 23.9801 239.107 24.9564 242.191C25.9328 245.275 29.2421 246.99 32.348 246.021Z" fill="#0B0755"/>
<path fill-rule="evenodd" clip-rule="evenodd" d="M49.3672 236.205C49.3452 240.721 56.3932 254.096 57.7243 254.102C59.0558 254.108 66.2339 240.797 66.256 236.282C66.2776 231.766 62.5152 228.089 57.8516 228.067C53.1876 228.046 49.3893 231.689 49.3672 236.205Z" fill="#0B0755"/>
<path fill-rule="evenodd" clip-rule="evenodd" d="M42.8801 266.727C47.0951 265.327 57.5304 254.394 57.1523 253.122C56.7742 251.85 42.2977 249.193 38.0822 250.593C33.8672 251.994 31.524 256.741 32.8487 261.196C34.1734 265.651 38.6646 268.128 42.8801 266.727Z" fill="#0B0755"/>
<mask id="mask1" mask-type="alpha" maskUnits="userSpaceOnUse" x="16" y="264" width="114" height="117">
<path fill-rule="evenodd" clip-rule="evenodd" d="M76.6836 380.92L16.496 309.191L69.2513 264.924L129.439 336.653L76.6836 380.92Z" fill="white"/>
</mask>
<g mask="url(#mask1)">
<path fill-rule="evenodd" clip-rule="evenodd" d="M121.892 342.68C121.892 342.68 82.2217 388.44 16.4993 309.188C16.4993 309.188 118.546 275.786 121.892 342.68Z" fill="#91B5F8"/>
</g>
<path fill-rule="evenodd" clip-rule="evenodd" d="M16.372 309.122L121.749 343.105C121.749 343.105 128.086 278.794 16.372 309.122Z" fill="#7C9AF2"/>
<path fill-rule="evenodd" clip-rule="evenodd" d="M49.7009 310.417C49.7132 310.425 49.7247 310.435 49.736 310.445L68.3998 327.873C68.5413 328.005 68.5282 328.241 68.3707 328.399C68.2129 328.558 67.9707 328.576 67.8296 328.448L49.1657 311.019C49.0243 310.887 49.0377 310.652 49.1949 310.493C49.3401 310.347 49.5575 310.318 49.7009 310.417Z" fill="#91B5F8"/>
<path fill-rule="evenodd" clip-rule="evenodd" d="M88.4222 313.3C88.4456 313.314 88.4671 313.331 88.4852 313.353L110.804 339.595C110.932 339.744 110.852 340.021 110.626 340.212C110.4 340.402 110.114 340.438 109.985 340.286L87.6652 314.044C87.5379 313.894 87.6183 313.617 87.844 313.427C88.0381 313.263 88.2775 313.215 88.4222 313.3Z" fill="#91B5F8"/>
<path fill-rule="evenodd" clip-rule="evenodd" d="M402.174 121.876C405.892 123.782 419.775 123.793 420.317 122.74C420.858 121.688 412.766 110.432 409.047 108.525C405.329 106.619 400.776 108.062 398.878 111.749C396.98 115.436 398.456 119.969 402.174 121.876Z" fill="#91B5F8"/>
<path fill-rule="evenodd" clip-rule="evenodd" d="M491.167 100.679C487.776 103.034 481.405 115.151 482.088 116.116C482.771 117.082 496.438 115.282 499.83 112.927C503.22 110.572 504.03 105.922 501.638 102.54C499.246 99.1572 494.558 98.3243 491.167 100.679Z" fill="#0B0755"/>
<path fill-rule="evenodd" clip-rule="evenodd" d="M436.5 131.513C433.993 134.955 431.651 148.934 432.6 149.646C433.548 150.359 446.026 143.994 448.533 140.551C451.041 137.109 450.38 132.295 447.057 129.799C443.734 127.303 439.008 128.07 436.5 131.513Z" fill="#91B5F8"/>
<path fill-rule="evenodd" clip-rule="evenodd" d="M485.986 125.259C481.883 124.379 468.454 127.974 468.21 129.133C467.966 130.293 478.785 139.086 482.888 139.966C486.991 140.846 491.011 138.266 491.866 134.205C492.722 130.144 490.089 126.138 485.986 125.259Z" fill="#0B0755"/>
<path fill-rule="evenodd" clip-rule="evenodd" d="M463.347 153.281C458.418 154.223 445.295 164.519 445.565 165.925C445.835 167.331 461.841 172.062 466.77 171.12C471.699 170.179 474.928 165.422 473.983 160.495C473.038 155.569 468.275 152.339 463.347 153.281Z" fill="#91B5F8"/>
<path fill-rule="evenodd" clip-rule="evenodd" d="M452.956 118.974C455.209 122.542 467.264 129.482 468.274 128.807C469.284 128.133 468.023 113.988 465.77 110.42C463.517 106.852 458.822 105.875 455.283 108.237C451.745 110.599 450.703 115.406 452.956 118.974Z" fill="#0B0755"/>
<path fill-rule="evenodd" clip-rule="evenodd" d="M415.981 157.197C419.819 158.811 433.612 157.76 434.071 156.671C434.53 155.581 425.641 144.986 421.803 143.371C417.965 141.756 413.55 143.542 411.942 147.359C410.334 151.178 412.142 155.582 415.981 157.197Z" fill="#91B5F8"/>
<path fill-rule="evenodd" clip-rule="evenodd" d="M434.46 210.352L419.336 204.547C410.365 201.103 405.894 191.012 409.35 182.008L415.635 165.636L463.247 183.913L456.963 200.285C453.506 209.289 443.432 213.796 434.46 210.352Z" fill="#4851EC"/>
<path fill-rule="evenodd" clip-rule="evenodd" d="M434.762 172.978C434.776 172.659 436.092 140.838 420.244 122.931L420.648 122.572C436.642 140.645 435.315 172.682 435.3 173.003L434.762 172.978Z" fill="#91B5F8"/>
<path fill-rule="evenodd" clip-rule="evenodd" d="M441.334 175.501L440.845 175.3C441.015 174.855 461.894 128.416 483.989 114.752L484.264 115.207C462.59 128.611 441.541 175.036 441.334 175.501Z" fill="#0B0755"/>
<path fill-rule="evenodd" clip-rule="evenodd" d="M437.178 174.977C452.481 133.626 444.499 93.8399 444.417 93.4426L444.944 93.3378C445.027 93.7363 453.039 133.672 437.683 175.164L437.178 174.977Z" fill="#91B5F8"/>
<path fill-rule="evenodd" clip-rule="evenodd" d="M439.66 89.3168C440.476 90.7214 445.047 93.6836 445.452 93.4612C445.856 93.2383 445.607 87.8963 444.792 86.4912C443.977 85.0857 442.166 84.5791 440.749 85.3597C439.332 86.1398 438.845 87.9113 439.66 89.3168Z" fill="#91B5F8"/>
<path fill-rule="evenodd" clip-rule="evenodd" d="M447.8 86.3572C446.641 87.3387 444.82 91.9942 445.12 92.3231C445.421 92.6518 450.455 91.5083 451.615 90.527C452.774 89.5458 452.861 87.8169 451.807 86.6648C450.755 85.5136 448.96 85.3755 447.8 86.3572Z" fill="#91B5F8"/>
<path fill-rule="evenodd" clip-rule="evenodd" d="M452.564 93.061C451.173 92.3357 445.923 92.4476 445.709 92.8699C445.495 93.2914 448.462 97.6902 449.852 98.4159C451.243 99.1412 452.977 98.5304 453.726 97.0517C454.475 95.5735 453.954 93.7864 452.564 93.061Z" fill="#91B5F8"/>
<path fill-rule="evenodd" clip-rule="evenodd" d="M447.527 99.0236C447.69 97.4321 445.667 92.4234 445.198 92.3663C444.729 92.3087 441.739 96.7051 441.575 98.2967C441.412 99.8881 442.611 101.341 444.255 101.541C445.898 101.742 447.363 100.615 447.527 99.0236Z" fill="#91B5F8"/>
<path fill-rule="evenodd" clip-rule="evenodd" d="M440.378 97.3733C441.931 96.9088 445.88 93.1248 445.76 92.6737C445.641 92.2222 440.411 91.1829 438.857 91.6469C437.304 92.1108 436.385 93.7693 436.805 95.3507C437.225 96.9318 438.824 97.8373 440.378 97.3733Z" fill="#91B5F8"/>
<path fill-rule="evenodd" clip-rule="evenodd" d="M444.878 92.2412C445.076 91.7254 445.654 91.468 446.17 91.666C446.685 91.8638 446.943 92.4422 446.745 92.9579C446.547 93.4737 445.968 93.7309 445.453 93.5331C444.937 93.3352 444.68 92.757 444.878 92.2412Z" fill="white"/>
<path fill-rule="evenodd" clip-rule="evenodd" d="M498.929 154.913C497.382 155.411 492.003 154.555 491.852 154.118C491.7 153.682 495.46 149.878 497.006 149.38C498.553 148.881 500.236 149.716 500.767 151.244C501.298 152.772 500.475 154.415 498.929 154.913Z" fill="#BDD1F9"/>
<path fill-rule="evenodd" clip-rule="evenodd" d="M493.569 147.842C493.774 149.348 492.012 154.026 491.569 154.069C491.125 154.112 488.15 149.894 487.945 148.389C487.739 146.884 488.832 145.54 490.385 145.39C491.938 145.239 493.364 146.337 493.569 147.842Z" fill="#BDD1F9"/>
<path fill-rule="evenodd" clip-rule="evenodd" d="M486.834 149.061C488.353 149.453 492.18 153.049 492.056 153.506C491.932 153.963 486.785 155.246 485.266 154.855C483.747 154.464 482.867 152.85 483.3 151.25C483.733 149.65 485.316 148.671 486.834 149.061Z" fill="#BDD1F9"/>
<path fill-rule="evenodd" clip-rule="evenodd" d="M485.654 156.505C486.597 155.213 491.452 152.845 491.839 153.116C492.226 153.387 491.506 158.655 490.563 159.947C489.62 161.239 487.756 161.516 486.4 160.565C485.045 159.615 484.711 157.797 485.654 156.505Z" fill="#BDD1F9"/>
<path fill-rule="evenodd" clip-rule="evenodd" d="M493.005 160.421C492.161 159.036 491.758 153.582 492.149 153.326C492.54 153.071 497.123 155.798 497.966 157.182C498.81 158.567 498.383 160.414 497.013 161.308C495.643 162.202 493.849 161.805 493.005 160.421Z" fill="#BDD1F9"/>
<path fill-rule="evenodd" clip-rule="evenodd" d="M492.735 154.528C492.933 154.012 492.675 153.434 492.16 153.236C491.644 153.038 491.066 153.296 490.868 153.812C490.67 154.327 490.928 154.905 491.443 155.103C491.959 155.301 492.537 155.044 492.735 154.528Z" fill="white"/>
<path fill-rule="evenodd" clip-rule="evenodd" d="M449.84 179.773C459.78 160.577 490.285 153.774 490.594 153.706L490.708 154.231C490.401 154.299 460.139 161.049 450.316 180.02L449.84 179.773Z" fill="#BDD1F9"/>
<ellipse cx="318.187" cy="289.5" rx="203" ry="223.5" transform="rotate(59 318.187 289.5)" fill="#EBF1F9"/>
<ellipse cx="310.186" cy="289.5" rx="170" ry="187" transform="rotate(59 310.186 289.5)" fill="white"/>
</svg>
